<?xml version="1.0" encoding="utf-8"?>
<!-- Generator: Adobe Illustrator 26.0.1, SVG Export Plug-In . SVG Version: 6.00 Build 0)  -->
<svg version="1.1" id="_x3C_Layer_x3E_" xmlns="http://www.w3.org/2000/svg" xmlns:xlink="http://www.w3.org/1999/xlink" x="0px"
	 y="0px" viewBox="0 0 396.9 337.7" style="enable-background:new 0 0 396.9 337.7;" xml:space="preserve">
<style type="text/css">
	.st0{fill:#00FFFF;}
</style>
<g>
	<path class="st0" d="M393.2,155c-1.9-3-3.4-4.7-3.2-8.6c0.3-5,1.7-9.6,2.3-14.4c0.3-1.4,8.7-25.5,1.8-50.3c0-0.1-0.1-0.3-0.1-0.5
		c-1.7-5.8-2.7-7.4-3.2-8.9c1.3-2.5-0.4-4.6-2.1-7.6c-0.4-1.8-0.7-3.5-1-5.3c-1.7-19.7,1.4-28.7,4-36.9c2.3-6.7,8.9-14.5,0.7-19.8
		c-4.1-2.7-12.2-4.3-15.2-0.5c-1.8,2.3-1.3,5.3-1.9,8c-4.9,21.1-15.7,26.8-27,38.5c-8.5,0.3-16,3.6-22.4,9c-5,4.1-9.2,9-14.4,12.8
		c-2.5,1.8-5.2,3.4-8.2,4.3c-7.6,2.4-12.5,0.6-12.6-0.3c0.2,3.2,0.3,5.8,1.6,8.9c1.2,2.9,3,5.7,5.1,8c-0.1,0.1-0.3,0.2-0.4,0.3
		c-0.1,0-0.1-0.1-0.2-0.1c-4.6,4.2-9.2,8.3-13.9,12.3c-53.6,46.1-83.3,55.3-124.3,61.3c-70,10.6-98.7-5.8-134.2,21.1
		c-43.8,32.2-23.6,87.4,20.2,121.1c60.4,45.9,165.9,43.8,254.8-35.9c32.9-29.3,66.1-76.2,80-123.5c3.2,4.5,8.9,7.2,14.3,7.8
		C393.4,155.5,393.3,155.2,393.2,155z M384.3,2.4c2.4,0.3,10.2,1.8,8.8,6.2c-1,3.2-8.2,0.3-10.4-0.5c-1.5-0.5-4-1.4-4.2-3.3
		C378.4,2.2,381.8,2.1,384.3,2.4z M354.6,46.2c1.7-3,5.9-4.5,8.5-6.4c8.7-6.6,12.8-18.5,16.4-29.9c2.8,2.6,7,3.8,12.3,2.7
		c0.1,0.1,0.1,0.1,0.2,0.2c-4,8.1-17.7,29.5-6.2,56.1c-9.6-1.7-14.4-12.1-22.9-15.4C359.5,52.1,351.8,51.1,354.6,46.2z M292.7,77.9
		c3.3,1.4,17,15.4,43,6.6c-7.6,3.6-18.1,8-26.6,7.6c-3-0.1-5.8-1.1-8.3-2.8C297.1,86.6,294.5,82.5,292.7,77.9z M367.9,158
		C308.7,325.8,81.3,392.7,14.5,258.9c-7.5-15-10.6-33-3.4-48.1c7.2-14.5,25.5-24.6,41-29.6c31.4-10.6,89.1,4,165.9-25.5
		c22.3-8.5,44.3-27.7,68.1-47.8c5.1-4.4,10-8.9,14.9-13.4c2.3,1.4,5,2.2,7.7,2.6c10.6,1,22.5-4.4,31.8-10.5c-0.6,1.9-1,3.9-1,5.9
		c-0.2,5.1,1.2,9.8,2.4,14.3c0.9,3.2,1.8,6.3,2.3,9.4c-0.5,5.3-2.3,10.1-5.3,14.3c-0.3,0.5-0.7,1-1.1,1.5c4.6,1.4,14.1,1.2,22.7-2.2
		c-2.5,6.3-4.7,12.1-6.6,18.8c5.1-6.6,9.6-14.6,13.2-22.2c3-1.9,3.6-2.6,4.4-3.2c-5.8,18.2-10.3,29.1-15.1,41.8
		c9.6-13,17-29.5,21.6-45.3C377.6,129,371,149.2,367.9,158z M341.2,130c0.4-0.4,0.8-0.8,1.2-1.3c-0.2,0.4-0.4,0.8-0.7,1.2
		C341.5,129.9,341.3,130,341.2,130z M343.5,84.3c-0.3,0.4-0.6,0.9-0.9,1.6c0.1-0.4,0.2-0.8,0.3-1.2
		C343.1,84.5,343.3,84.4,343.5,84.3z M381.5,143.9c-3.9-10.4,5.9-19.7-1.2-35.3c-9.1,10.6-22.1,18.2-36.9,21
		c0.7-0.7,1.3-1.5,1.8-2.4c1.1-2,1.8-4.2,2.2-6.5c1.3-3.5,1.9-7.2,1.5-10.6c-1.2-10.3-5.7-12.3-1.6-24c1.9-5,5.2-9.8,9.5-13.5
		c-0.7,0.2-30.4,19.1-56.2,6.7c9.3-0.3,16.3-6.5,23.1-12.7c6.1-5.9,9.1-9.2,17.6-12.8c10.8-4.6,22.8,1.9,29.7,10.2
		c4.4,5.4,9.7,11.6,16.9,10.2c1.5,3.3,2,7.2,2.7,10.7c4,26.9,0.7,26.9-3,46.1c-1.4,7.6-2.9,17,1.7,22.6
		C385.5,151.2,382.9,147.7,381.5,143.9z"/>
	<path class="st0" d="M70.6,288.9c7.7,5,15.7,8.6,24.5,11.5c-0.2,0-0.4,0-0.6-0.1c68,21.5,152.9-3.2,198.7-56.5
		C256.6,273.3,177.4,326.9,70.6,288.9z"/>
	<path class="st0" d="M202.8,165.9c-87.1,27.5-111.2,10.3-143,22.5c29.4-5.6,58.5,6.3,109-8.8C180.6,176.2,192,171.6,202.8,165.9z"
		/>
	<path class="st0" d="M385.8,99.7c-1.2-2.6-3.9-3.3-5.9-2c-4.2,2.7-6.4,14.2-25.7,24.3c5.3-1,10.3-3.3,14.8-6.5
		c9.5-6.9,11.7-14.5,13.1-14.6c0-1.6,3.9,8.9,5,23.1c1.2-5.2,1.3-10.7,0.6-16.1C387.4,105.7,386.6,101.7,385.8,99.7z"/>
	<path class="st0" d="M361.9,74c-2.6,1-12.8,11.6-12.6,20.8c0,2.9,0.6,5.7,2,8.2C352.3,90.9,355,83.7,361.9,74z"/>
	<path class="st0" d="M384.8,19.1c-8,12-11.7,30.3-7.9,42.1C378.9,40.2,379.2,38.8,384.8,19.1z"/>
	<path class="st0" d="M159.4,290.4c-8.7,1-17.5,1.5-26.4,1.9c8.7,1.8,17.7,2.4,26.6,2.1c8.9-0.2,17.9-1.3,26.7-3.1
		c8.8-1.9,17.4-4.5,25.6-8c8.3-3.4,16.2-7.7,23.4-12.8c-8.3,3.3-16.5,6.4-24.8,9s-16.8,4.9-25.3,6.7
		C176.7,288.1,168.1,289.4,159.4,290.4z"/>
	<path class="st0" d="M320.5,223.7c-5.8,7.2-11.9,14.3-18.1,21.2c-1.8,2-3.6,3.9-5.4,5.9c-3.6,3.3-7.2,6.5-11,9.5
		c-76.3,62.6-167.4,67.3-214,41.9c-16.4-8.7-30.3-20.8-42-35.7c32.7,69.5,163.7,81.6,259.8-3.7c7.2-6.3,14-12.9,20.5-19.9
		c5-5.1,9.8-10.4,14.3-16c5.9-7.4,11.4-15.1,16.2-23.2c4.9-8.1,9.2-16.5,12.6-25.3c-5.3,7.8-10.5,15.5-16,23.1
		C331.9,209.1,326.4,216.6,320.5,223.7z"/>
	<path class="st0" d="M333.6,98.3l0.5,5.1l0.6,7c0.4,4.7,0.6,9.3,1.2,14.2c1.7-4.6,2.3-9.4,2.4-14.3c0-2.4-0.1-4.8-0.4-7.2
		s-0.7-4.8-1.3-7.1l-0.6-2.2l-1.7,1.1c-2.9,1.7-6.1,3-9.6,3.9C327.6,99.3,330.7,99.1,333.6,98.3z"/>
</g>
</svg>
