<?xml version="1.0" encoding="utf-8"?>
<!-- Generator: Adobe Illustrator 26.0.1, SVG Export Plug-In . SVG Version: 6.00 Build 0)  -->
<svg version="1.1" id="_x2018_ëîé_x5F_1" xmlns="http://www.w3.org/2000/svg" xmlns:xlink="http://www.w3.org/1999/xlink"
	 x="0px" y="0px" viewBox="0 0 596 732.4" style="enable-background:new 0 0 596 732.4;" xml:space="preserve">
<style type="text/css">
	.st0{fill:#00FFFF;}
</style>
<g>
	<g>
		<path class="st0" d="M567.1,97.5c0.5,20.4-3.6,36.8-9.7,52.7c-10.3,26.4-16.6,33.2-41.8,46.4c-18,9.5-24.7,13.1-32.9,14.5
			c-5.2,0.9-25.8,3.8-30.3,3.5c-65.6-4.3-60.1-38.1-99.2-48.4c-1.4-0.4-2.8-1.1-4.2-1.7c-6.7-3.2-8.9-7.1-7.9-14.5
			c2-14.5,5.6-8.7,8.6-41.9c1.4-15.4,4.5-30.6,9.2-45.3c3.2-9.9,8-18.7,15.4-26C390.4,20.7,402,7,426.9,4.3
			c15.3-1.6,64-15.8,110.2,18.2c4.3,3.2,7.8,7.1,10.1,12C565.2,71.3,564.2,67.2,567.1,97.5z M352.6,154.4
			c13.8,5.2,25.6,8.5,37.9,21.6c21.5,22.8,49.5,30.9,75.4,26.5c24.5-4.2,15.2,0,44.3-15.1c23.1-12,27.8-17.1,37.3-41.3
			c14.3-36.4,10.3-71.3-3.3-93.8c-3-5-7-16.4-12.2-20c-12.7-8.8-25.8-16.9-41.6-19.3c-18-2.7-35.9-4-53.8,0.9
			c-6.5,1.8-28.3,0.2-45,20.1c-8.1,9.7-16.9,14-23.2,34.1c-10.9,35-6.1,50.2-13.6,71.9C353.3,144.2,351.2,148.4,352.6,154.4z"/>
		<path class="st0" d="M488.8,159.9c-0.4,11.2-4,21.5-7.5,31.9c-0.7,2-2.8,2.6-3.3,2.3c-6.2-3.8,3.4-9.3,4.2-37.7
			c0.1-1.8,0.7-3.6,1.3-5.4c0.2-0.5,1.2-0.9,1.9-0.8C487.5,150.3,487.3,151.2,488.8,159.9z"/>
		<path class="st0" d="M470.6,168.6c0.1-0.7,1.8-1.5,2.6-1.4c0.8,0.1,2.1,1.4,2.1,2c-0.4,8.5-0.9,17-3.8,25.1
			c-0.2,0.6-1.9,0.9-2.9,0.9C464.6,195.4,469.8,172.6,470.6,168.6z"/>
		<path class="st0" d="M464.5,188.2c-1.3,5.2-1.6,8.9-4.6,8.5c-0.8-0.1-2.1-1.4-2-2.1c0.2-3.3,0.6-6.6,1.2-9.9
			c0.2-0.9,2.6-3.6,4.7-0.2C464.2,185.4,464.2,186.7,464.5,188.2z"/>
		<path class="st0" d="M448.8,194.1c-0.6,0.2-1.6,0.3-2-0.1c-2.5-2.3-4.1-5-3.2-8.5c0.2-0.6,2-1.3,2.6-1.1
			C450.2,186,451.3,193,448.8,194.1z"/>
	</g>
	<g>
		<path class="st0" d="M364,634.8c0.7,33.1-10.8,59.1-20.5,69.3c-11.5,12.1-20.3,30.1-52.6,25.6c-2.5-0.4-17.1-5.4-31.2-1.2
			c-0.7,0.2-1.4,0.5-2.2,0.6c-22.4,3.7-20.7,6.2-44.9-3.7c-34.4-14.2-47.4-18.8-58.8-39.1c-17.6-31.3-14.9-72.6-0.3-104.7
			c11.1-24.4,22.9-33.7,37.2-38.9c30.5-11.1,66.9-20.4,96-9.8c16.1,5.9,26.8,9.8,39,19.9C367.8,587.6,363.7,620.7,364,634.8z
			 M353.7,635.6c0.1-10.7,1.6-29.5-11.5-48.5c-9.4-13.7-22.5-28.1-37.3-35.4c-38.9-19-56.4-14.9-102.6-2
			c-18.4,5.1-30.5,16.7-38.3,33.9c-21.8,48.3-12.4,103.2,21.3,118.4c9.3,4.2,18.5,8.5,27.9,12.2c22.3,8.7,17.5,9.9,46.9,3.1
			c7.2-1.7,14-2.2,21.1-0.3c18.4,5,33.2,4.9,45.4-9.7c9.4-11.3,11.5-10.9,18.3-25.5C351.8,667.1,353.5,651.5,353.7,635.6z"/>
		<path class="st0" d="M262.1,619.5c3.4-18.6-4.7-42-14-51.9c-3.4-3.6-5.6-6.1-3.2-10.6c1-1.9,4.1-2.2,6.1-0.9
			c1.3,0.8,2.6,1.7,3.5,2.8c3.6,4.8,7.7,9.4,10.2,14.7c6,12.3,9.4,25.4,8.4,39.3c-0.7,9.8-0.2,13-2,21.3c-1.3,6.4-8.8,5.2-9-1.3
			C262,628.5,262.1,624,262.1,619.5z"/>
		<path class="st0" d="M286.7,703.2c-0.2,3.1-3.3,5.1-5.2,4.2c-1.3-0.6-2.9-1.3-3.6-2.5c-9-13.9-7.6-7.7-15.9-44.1
			c-1.4-6.2,7.3-8,9.6-3.3c4.1,8.1,3.3,29.3,13.4,41.5C286.1,700.4,286.4,702.5,286.7,703.2z"/>
		<path class="st0" d="M246.2,714.5c-2.7,0-5.3-2.5-4.5-4.5c4-9.3,8.2-18.5,12.5-27.6c1-2.1,4.3-2.9,5.8-1.5
			c1.2,1.1,2.8,3.3,2.5,4.6c-2.9,10.1-6.9,19.8-13.8,28C248.1,714.3,246.7,714.3,246.2,714.5z"/>
		<path class="st0" d="M190.6,621.3c2.2,3.6,0.4,7.3,0.2,10.9c-0.6,12.7-1.6,25.4-1.6,38.1c0,11.2,4.9,21.3,1.4,22.5
			c-0.8,0.3-2.6-0.2-2.9-0.9c-8.3-17.9-5.3-48.1-2.2-67.6C185.8,622.7,186.5,622.4,190.6,621.3z"/>
		<path class="st0" d="M235.2,700.2c2.1-6.1,12.1-30.1,13.2-62.1c0.2-4.8,1.9-7.5,3.9-6.6c3.1,1.4,2.6,4.3,2.5,6.8
			C254.1,661.5,243,713.1,235.2,700.2z"/>
		<path class="st0" d="M156.1,618.3c0.7-2.7,1.3-6,2.5-9.1c6-16,14.7-30.3,26-43.1c2.7-3.1,5.1-5.7,8.2-4.7
			c6.5,2.2-12.8,14.6-25.5,43c-2.4,5.5-5.1,10.8-5.4,17.1c0,1-1.8,1.9-2.7,2.9C155.3,620.1,156.3,621.7,156.1,618.3z"/>
		<path class="st0" d="M172.8,608.5c0.2,5.5,1.8,2.7-4.3,23.9c-5.6,19.6-0.8,31.2-0.4,37.6c-2.6,3.3-4.9,1.4-6-2.5
			c-5.2-18.3-2.3-23.9,4.7-54C167.4,610.8,169,608.8,172.8,608.5z"/>
		<path class="st0" d="M200.5,662.9c0,1.4,0,2.8,0.1,4.2c0.3,7.3,1.3,14.4,1.9,21.7c0.1,1.8,0.3,3.5-0.3,5.2
			c-0.6,1.4-3.1,1.5-3.6,0.7c-2.9-4.9-2.2,0.2-4.5-45.3c-0.3-6.5,3.3-9.3,5.1-8.3c2.6,1.4,1.7,6.2,1.7,8.6
			C200.8,654.1,200.5,658.5,200.5,662.9z"/>
		<path class="st0" d="M342.4,625.7c3.3,12.5,1.5,39.9,1,44.5c-0.2,2.4-3.5,3-4.7,1.1c-1.2-1.8-0.5-5-0.4-7
			c2.2-32.9-7.4-42.9-1.5-44.7C339.4,618.8,341.2,621.4,342.4,625.7z"/>
		<path class="st0" d="M304.2,707c-3.5,0.3-5.3,1-6,0.4c-10.9-8.1-16-25.5-18.9-38.7c-0.2-0.7,0.8-2.2,1.6-2.5
			c2.6-0.9,4.2,2.2,5.1,4.8C289.6,680.7,289.3,689.7,304.2,707z"/>
		<path class="st0" d="M328.5,647.4c-0.2-2.2,1.3-4.6,2.5-4.1s2.8,1.6,3.1,2.7c3.5,13.2,2.4,26.3,1.8,27.9
			c-1.3,3.3,0.1,7.7-3.7,10.1c-2.7,1.7-3-8.2-3-8.9C330.1,665.6,329.3,656.9,328.5,647.4z"/>
		<path class="st0" d="M223.5,708.3c0-5.9-1.9-0.5,7.1-33.2c0.6-2.1,1.8-4,2.9-5.9c0.2-0.4,1.4-0.4,2.1-0.3c1.9,0.5,2.2,3.1,1.8,4.5
			c-2.8,10.4-5.5,20.9-8.5,31.3C228.3,706.8,227.4,709.2,223.5,708.3z"/>
		<path class="st0" d="M241.4,582.6c-0.7-4.6-2.5-8.7-5.8-7.3c-2.6,1,0.9,12.9,1.7,15.6c0.4,1.4,0.5,2.6,2.2,2.7
			c0.6,0,1.6-0.4,1.8-0.9C241.9,591.2,242.1,586.7,241.4,582.6z"/>
		<path class="st0" d="M252.3,589c-0.8-3.8-1.6-7.5-3.2-11c-0.9-1.9-3.2-8.5-5.6-8.5c-1.4,0-2.7,1.3-2.6,2.7c0,0.5,0.2,0.9,0.3,1.4
			c1.7,4.8,2.9,9.7,4.5,14.4c0.8,2.4,1.6,4.5,4.2,5.3C251.4,593.8,252.8,591.3,252.3,589z"/>
		<path class="st0" d="M278.3,577.6c3.1,1.2,5.3,1.2,5.7,4.8c0.5,4.2,3.6,30.4-0.9,36.4c-0.7,1-3,0.9-3.5-0.6
			c-1.8-4.7,1.9-9.4-1.6-33.3C277.6,582.8,278.1,580.6,278.3,577.6z"/>
		<path class="st0" d="M171.4,659c0.6-1.2,1.3-3.3,2.7-4.6c1.5-1.3,3.4,1.2,3.8,5.2c1.8,19.9,1.7,19.9,1.7,19.9
			c-0.7,1.2-1.2,3-2.2,3.3C173.1,684.3,173.6,678,171.4,659z"/>
		<path class="st0" d="M210.4,681.9c0,4.9,0.1,9.7-0.1,14.6c0,0.6-1.6,1.3-2.6,1.6c-0.7,0.2-2.6-1-2.6-3.1
			c-0.3-25.6-0.3-26.2,0.4-26.8c1-0.9,2.2-1.7,3.4-1.9c0.5-0.1,1.8,1.4,1.9,2.3C210.9,668.5,210.4,681.9,210.4,681.9z"/>
		<path class="st0" d="M221.5,557.6c-10.4,15.6-9.3,15-12.5,14.8c-0.4,0-1.2-1.2-1.1-1.7c1.3-6,4.1-11.1,9.3-14.6
			C217.7,555.6,219.1,556.6,221.5,557.6z"/>
		<path class="st0" d="M293.9,605.5c-2.9-2.3-3.5,0.2-4.9-13.7c-0.3-2.5,1.3-4.7,2.6-4C297.7,590.9,295.6,599.2,293.9,605.5z"/>
		<path class="st0" d="M307.7,702.8c-7.7-6-7.7-6-10.2-12.8c1-0.3,2.3-1.2,2.9-0.8c4.1,2.1,6.8,5.8,8.6,9.9
			C309.4,699.7,308.4,701,307.7,702.8z"/>
		<path class="st0" d="M220.9,689.6c1.4,4.8-0.1,9.3-1.6,13.8c-0.2,0.7-1.6,1.2-2.5,1.3c-0.5,0.1-1.5-0.6-1.6-1.1
			c-1.4-5.3-0.7-10.1,3.3-14.1C218.7,689.1,219.8,689.5,220.9,689.6z"/>
		<path class="st0" d="M202.1,591.1c-2.9,8.1-3.4,11.3-6,10.9c-4.7-0.7,0-14.5,3.3-13C200.3,589.3,201,590.2,202.1,591.1z"/>
		<path class="st0" d="M230.1,591.1c-0.7,1.2-0.9,2-1.5,2.3c-0.5,0.3-1.6,0.3-2.1,0c-4-3-4.5-7.4-4.3-12c0-0.5,1-1.3,1.6-1.3
			C227.1,580.3,226.5,580.5,230.1,591.1z"/>
		<path class="st0" d="M300.9,598c-2.4-2.1-3.7-0.8-3.1-10.2c0.1-0.8,1.1-2,1.8-2.1c0.8-0.1,2.2,0.7,2.5,1.4
			C303.5,590.7,303.8,594.2,300.9,598z"/>
		<path class="st0" d="M310.7,688.6c1.1,0,1.9-0.3,2.4,0c2.5,1.6,4.6,3.7,4.5,7c-0.1,2.9-6.2,2.6-7.9-4.4
			C309.5,690.4,310.3,689.4,310.7,688.6z"/>
		<path class="st0" d="M322.8,691.1c-2.5-4.4-3.4-3.9-0.7-8c0.1-0.2,1.6,0,2,0.4c1.6,1.7,2.5,3.7,1.2,6
			C324.9,690.1,324.1,690.3,322.8,691.1z"/>
		<path class="st0" d="M344.3,625.4c-1.2-2.1-1.2-5.9,0.7-6.4c3.3-0.9,5.2,4.4,3.7,6.6c-0.4,0.7-1.8,1.1-2.7,1.1
			C345.3,626.7,344.7,626.2,344.3,625.4z"/>
		<path class="st0" d="M339.1,590c-1.4,1-2.3,2.2-2.8,2.1c-1.2-0.4-2.4-1.3-3.1-2.3s1.2-3.1,2.4-2.6S337.7,588.8,339.1,590z"/>
	</g>
	<g>
		<path class="st0" d="M97.7,392.1c-18.3-2.2-39.5-1.8-58.5-22.3c-1.8-1.9-3.6-4-5.8-5.2C9.9,351.5-2.1,315.7,0.3,290.8
			c2.5-26.7,14.5-52.9,38.5-65.4c13.4-7,27.1-13.2,41.8-17c33-8.5,40.2-16.4,46.4-19.9c14.4-8.2,26.4-4,32.6,11.5
			c3.5,8.7,5.2,26,17.5,40c22.6,25.5,22.3,54.9,14.1,85.2c-7.4,27.1-27.5,52.5-53.4,59.9C124.7,388.9,111.5,391.7,97.7,392.1z
			 M28.1,347.5c7-3.6,10.7-5,13,3.9c9.2,36.1,82.9,36.5,111.9,14.1c18.6-14.3,28.5-37.5,31.7-60.5c3-21.8-0.9-41.2-15.5-58
			c-23.2-26.7-13.7-62.2-36.9-49.2c-12.5,7-17.4,12.6-48.5,20.8c-13.6,3.6-26.2,9.3-38.7,15.6c-12.3,6.1-21,15.8-26.4,28.4
			C7.4,289,7.5,311.3,22.8,340.7C23.9,342.9,25.9,344.8,28.1,347.5z"/>
		<path class="st0" d="M173.4,296.2c-0.3-9.9,0.3-16.3-5.2-14.4c-1.1,0.4-0.9,16.1-1.2,18.7c-0.3,2.2-0.6,4.5-1,6.7
			c-0.3,1.8-2.8,11.9-0.6,11.8c0.5,0,1-0.3,1.4-0.6C172.5,313.5,173.6,303.2,173.4,296.2z"/>
		<path class="st0" d="M181.5,283c-0.1-1.8-0.7-3.7-1.7-5.3c-1.6-2.6-3.6-2.2-4.2,0.3c-0.5,1.8-0.3,3.9-0.3,5.7c0,3.3,0,6.6,0,9.9
			c0,12.1-3.5,22.3-6.8,33.7c-1.4,4.8-3.8,9-6,13.6c-0.9,1.8-3.5,6.2-0.8,7.7c2.5,1.3,5-2.3,6.5-4.7
			C179.5,325.1,182.2,304.4,181.5,283z"/>
	</g>
	<g>
		<path class="st0" d="M345.9,457.3c-30.9,10.1-57.6,11.7-79.3-12.8c-19.4-21.8-19.6-38.1-27.6-81c-3.3-17.6-0.8-19.4,10-24.9
			c23.3-11.9,32.6-53.1,83.3-56.8c6-0.4,12.1-1.6,18-1.3c34.8,1.9,41,18,49,29.2c1.1-0.5,2.4-0.6,2.9-1.3
			c17.1-23.9,43.4-27.2,85.3-35.7c13-2.6,26.2-2.4,39.4-1.9c15,0.6,31.3,15.5,37.6,29.2c3.1,6.8,9.9,14.8,23,42.7
			c5.4,11.4,7.2,23.6,8.2,36.2c1.4,16.7-5.3,29.4-17.7,39.5c-6.4,5.2-13.2,10.4-20.7,13.6c-9.7,4.1-13.6,10.4-14,20.6
			c-0.4,11.1-5.8,22.5-18.1,47.1c-12.6,25.2-43.8,31.2-63.1,25.3c-48.9-15.1-81.5,3.8-102.6-29.6C352.6,484,347.1,472.1,345.9,457.3
			z M534.6,440.4c-0.1-19.9-9.1-32.3-22.3-45.5c-28.1-28.1-34.3-51.5-46.4-45.6c-12.2,5.9-18.1,10-41.4,14.5
			c-27.8,5.4-39.5,23.6-51.3,36.5c-14,15.2-13.4,30.3-16.4,49.4c-2.3,14.9,5.3,30.7,14.2,43c9.6,13.2,25.9,13.8,42.2,14.2
			c54.8,1.2,53.1,16.1,83.5,5.5c5.8-2,10.8-5.5,14.4-10.5C533.2,470.3,533.5,447.1,534.6,440.4z M415.6,354.2
			c-9.6-21.4-18.8-27.9-28.8-44.4c-10.9-17.9-29.4-19.4-50.1-18c-29.3,2-44.5,15.8-62.1,38.4c-12.1,15.6-20.2,17.3-26,21
			c1.6,18-0.8,0.1,8.1,49.7c4.1,23.1,20,46.8,43,51.8c11,2.4,21.7,0.6,32.5-1.4c3.9-0.7,6.8-3,8.9-6.4c3.5-5.8,6.9-11.5,8.2-18.4
			c2.5-13.6,8.4-25.7,18.3-35.7c8-8.1,15.2-21.2,37.7-31.6C408.3,357.7,411.3,356.2,415.6,354.2z M585.5,384
			c-0.9-11.8-1.7-23.4-6.3-34.4c-4.3-10.1-8.9-19.9-14.8-29.1c-10.7-16.6-17.1-39.7-45.5-39.7c-25.9,0.1-80.2,8.1-102.4,26.4
			c-3.5,2.9-5.1,6.3-5,10.8c0.2,10,4.2,13.2,14.5,23c3.2,3,6.8,4.3,11.4,3.3c8.4-1.9,17-3,25.4-5.3c18.2-5,24.6,9.7,35.1,22.5
			c28.7,35,35.5,38.2,42.4,53.9c1.7,4,8.2,9.8,13.7,6.6C569.1,413,585.3,402.3,585.5,384z"/>
		<path class="st0" d="M471.9,406.9c-4,41.3-8.9,53.2-20.4,69.3c-10.7,15.1-12.2,21.2-17,18.9c-4.1-2-3.3-6.9-0.9-10.8
			c6.6-10.9,18.9-21,23.7-51.5c1.8-11.6,3.4-23.2,4.7-28.9C463.5,398,472.8,398,471.9,406.9z"/>
		<path class="st0" d="M460.3,496.8c2.4-31,4.7-27.4,14.5-66.7c2.9-11.7,0.7-17.9,6.1-20.6c2.6-1.3,8.3,2.4,5,16.7
			c-11.5,49.1-15.6,56.7-14.6,75.2c0,0.7,0.2,1.7-0.1,2.2c-1,1.5-2,3.2-3.4,4.1c-1.6,1-4.9-0.7-5.5-2.8
			C461.2,501.8,460.6,498.5,460.3,496.8z"/>
		<path class="st0" d="M466.3,372.5c-0.7-3.8-2.1-8.2,2.5-9.6c2.5-0.7,5.8,1,6.1,3.6c0.4,4,0.5,8.2,0,12.2c-0.2,1.5-2.2,2.9-3.7,3.9
			c-1.8,1.3-5.1-0.2-5.3-2.4c-0.2-2.6-0.1-5.2-0.1-7.8L466.3,372.5z"/>
		<path class="st0" d="M340.8,329.7c15,0.9,28.4,4.5,41.7,8.7c6.6,2.1,4.9,9.1,1.4,9.5c-5.1,0.6-9-0.6-23-4.4
			c-32-8.8-56.9,6.6-61.6,6.8c-3.6,0.2-6.5-4-3.4-6.9C305,334.9,328.5,330.6,340.8,329.7z"/>
		<path class="st0" d="M351.8,325.5c-8.2-0.4-15.4,0.4-14.4-4.5c0.3-1.6,1.6-3.9,2.9-4.2c7.3-1.7,17.2-1,24.6,0
			c2.4,0.3,4,2.1,3.9,4.7c-0.3,5.3-6.4,4.1-17,4.1V325.5z"/>
		<path class="st0" d="M547.7,413.6l-4.6-9.3c12-14.8,11.7-15.3,15.4-15.3c1.4,0,1.6,2.9,0.4,4.9c-1.6,2.6-1.3,1.4-5.9,8.8
			c16.2-8.6,13.4-19.9,20.8-26.8c0.4-0.4,1.5-0.4,2.1-0.2c1.8,0.6,1.8,3.6,1.3,4.8c-5,13.9-13.2,25.3-26.3,32.8
			C550.3,413.6,549.4,413.4,547.7,413.6z"/>
		<path class="st0" d="M373.4,489.1c-2.8-2.2-4.8-3-5.4-4.4c-11.7-26.3-9.1-49.2-4.7-56.6c0.3-0.5,1.4-0.7,2-0.6
			c7.7,1.1-7.1,16.7,7.4,53.9C373.3,483.2,373,485.4,373.4,489.1z"/>
		<path class="st0" d="M332.4,439.1c1,3.3-0.7,4.7-3,5.4c-21.4,6.2-40.9-0.4-52.4-11.6c-0.6-0.6-0.6-2.3-0.2-3
			c3.9-6.6,19,17.4,48.3,9.3C327.4,438.5,330.1,439.1,332.4,439.1z"/>
		<path class="st0" d="M421.2,491.5c-1.4,2.1-6.9,2.7-3.9-5.2c2-5.3,16-23.4,22.8-40.1c0.8-1.9,3.1-2.1,4.6-1.7
			C451.3,446.1,424.8,485.8,421.2,491.5z"/>
		<path class="st0" d="M480.2,486.2l6.1,1.4c0.6,4.4,1.8,8.9-0.7,12.2c-2.2,2.9-6.1,4.5-9.9,7.2c-2.2-7.4-3.5-1.4,0.2-34.3
			c0.1-0.9,2.1-2.4,3-2.3c1,0.1,2.6,1.8,2.6,2.8C481.4,477.3,480.8,481.3,480.2,486.2z"/>
		<path class="st0" d="M518.7,440.5c0.5-7.9,0.3-10.3,2.1-10.2c2.3,0,4,1.1,4.2,3.9c1.8,21.4-6.3,42.2-7.5,42.6
			c-1,0.3-2.2,1-2.9,0.7c-0.8-0.4-1.6-1.9-1.4-2.7c3.5-17.1,2.2-3.7,6.2-34.2L518.7,440.5z"/>
		<path class="st0" d="M279,401.1c-3.4-3.4-6.3-7.2-8.5-11.2c-1.3-2.3-1.4-2.3,0.1-7.4c5.4,1.3,6.5,6.8,9.8,10
			c9.8,9.7,1.6,3.8,20.3,18.2c-0.5,3.2-2.6,3.6-4.2,2.8C290.3,410.6,284.2,406.3,279,401.1z"/>
		<path class="st0" d="M399,498.4c-0.8-0.6-2.3-1.1-2.4-1.8c-0.7-5.1-1.1-5,7.6-31.3c0.3-1,2.4-2.2,3.3-1.9c1,0.3,1.8,2,2.1,3.3
			c0.4,1.5,0.3,1.9-8.9,30.1C400.6,497.3,399.8,497.7,399,498.4z"/>
		<path class="st0" d="M448.5,415c-1.5-10.2,0.7-20.4,2.6-30.5c0.4-2.3,2.3-6.8,4.9-6.2c0.8,0.2,1.4,1.4,1.9,2.2
			c0.2,0.3,0.2,0.7,0.1,1.1c-1.7,10.3-3.4,20.6-5.1,30.8C452.6,414.5,451.4,415.7,448.5,415z"/>
		<path class="st0" d="M517.4,327.4c5.9-25.4,5.4-24.4,7.3-32.2c0.2-0.7,1.7-1.6,2.5-1.5c2.5,0.3,2.6,4.1,2.2,6.5
			c-1.6,7.7-3.1,15.5-5,23.1C523.8,325.9,522.8,328.6,517.4,327.4z"/>
		<path class="st0" d="M322.9,437.4c-7-0.9-13.7-1.8-19.9-4.7c-0.7-0.3-1.3-1.9-1.2-2.7c0.6-2.7,3.9-2.3,6.6-1.6
			c20.9,5,24.2,0,25.5,0.7c1.1,0.7,2.5,1.3,3.2,2.2c0.3,0.4-0.7,2.4-1.4,2.6C331.5,435.2,327.2,436.3,322.9,437.4z"/>
		<path class="st0" d="M528.5,386.5c-2.5-0.7-3.6-2.5-2.5-4.3c4.9-7.9,10-15.7,15.2-23.4c0.5-0.8,2.5-0.5,3.8-0.7
			c0.1,1.4,0.8,3.1,0.3,4.1c-1.9,3.5-4.3,6.8-6.3,10.3C536.3,377.2,532.8,383.2,528.5,386.5z"/>
		<path class="st0" d="M511.4,371.4c-1-1.1-2.6-2.1-1.6-4.3c11.3-25.5,11.4-25.8,12.5-26.2c0.9-0.3,2.1-0.4,3-0.1
			c0.7,0.2,1.7,2.2,0.8,3.9c-3.8,8.2-7.5,16.3-11.5,24.4C514.1,370.2,512.4,370.7,511.4,371.4z"/>
		<path class="st0" d="M440.4,414c-2-1.2-3.5-1.7-3.6-2.3c-0.9-10.7,2.2-20.6,5.8-30.5c0.2-0.6,3.7-1.7,4.3,0.7
			C447.5,384.3,447.7,382.2,440.4,414z"/>
		<path class="st0" d="M404.7,381.4c-0.1,0.4-0.1,0.8-0.4,1c-7.2,5.8-14.4,11.7-21.7,17.3c-0.7,0.5-2.8,0.5-3,0.1
			c-0.5-1.1-1-3.1-0.5-3.8c6.1-7.1,13.4-12.8,21.6-17.3C402,378.2,402.1,378.3,404.7,381.4z"/>
		<path class="st0" d="M406.9,501.5c-1.7-9.4-3.9-1.6,8.1-30.2c0.4-0.9,0.5-0.8,4.6-2.3c1.6,5.5,1.3,3.5,0.2,6
			C408.7,500.9,412.2,493.8,406.9,501.5z"/>
		<path class="st0" d="M355,349.7c8.6,2.7,16.8,5.1,24.9,7.9c0.9,0.3,1.3,2.3,1.5,3.6c0,0.3-1.9,1.5-2.7,1.3
			c-8.4-1.9-16.8-3.9-25.1-6.2c-1.1-0.3-2.8-2.6-2.5-3C351.9,352,353.5,351.1,355,349.7z"/>
		<path class="st0" d="M329.1,385.9c8.3,1.4,16.1,3.6,23.4,7.5c0.4,0.2,0.8,1.5,0.6,1.9c-0.5,0.8-1.6,2.2-2.1,2
			c-7.5-2-15.1-4.2-22.5-6.5c-0.7-0.2-1.5-1.8-1.4-2.6C327.1,387.4,328.3,386.7,329.1,385.9z"/>
		<path class="st0" d="M515.8,341.2c-0.1,1.2,0.1,2-0.2,2.6c-2.7,5.7-5.5,11.3-8.5,16.8c-0.5,0.9-2.4,1.1-3.7,1.7
			c-0.5-1.2-1.7-2.8-1.3-3.7c3-6.3,6.3-12.5,9.6-18.7c0.2-0.4,1.5-0.7,1.9-0.5C514.6,339.8,515.3,340.7,515.8,341.2z"/>
		<path class="st0" d="M374.7,368.9c-3,1-4.2,1.8-5,1.6c-6.3-2.2-12.6-4.6-18.8-7.1c-0.7-0.3-1.3-2-1.1-2.8c0.2-0.7,1.6-1.5,2.5-1.6
			c6.3-0.2,11.3,3.5,16.9,5.5C370.7,365.2,371.9,366.7,374.7,368.9z"/>
		<path class="st0" d="M471.3,294.9c1.7-1.8,6.9-5.7,9.7-4c2.1,1.4-0.4,3.2-1.8,4.9c-3.2,3.8-6.6,7.4-9.9,11.2
			c-3.7,4.2-4.2-2.4-2.9-4.9C467.7,299.5,469.3,296.9,471.3,294.9z"/>
		<path class="st0" d="M469.5,293.9c-0.3,1.2-1.1,2.3-1.7,3.2c-2,3-5,5.3-7.6,7.8c-0.5,0.4-6.3,4.6-6.3,5c-0.4-2.5-1.3-4.1-0.8-5
			c3.6-6.1,8-11.5,14.9-15.8c0,0,1.6,3.1,1.6,3.6C469.7,293.1,469.6,293.5,469.5,293.9z"/>
		<path class="st0" d="M344.4,367.7c7.2,0.7,13.3,2.7,19,5.6c2.1,1,2,5.6-2.1,4.5c-5.8-1.5-11.6-3-17.3-4.8c-1-0.3-2.3-2.2-2.2-3.2
			C342,368.9,343.8,368.2,344.4,367.7z"/>
		<path class="st0" d="M255.8,375.1c2.9,1.9,2.5-0.7,6.2,12.4c1.2,4.2,0.7,6.7-1.2,6.6c-3.2-0.2-4.8-2.2-6.8-16.2
			C253.9,377.1,255,376.2,255.8,375.1z"/>
		<path class="st0" d="M532,304.7c2-12.9,0.9-9.3,4.6-12.2c0.7,1.2,2.1,2.4,2.1,3.5c-0.2,4.5-0.8,8.9-1.6,13.3c-0.2,1-2,1.6-3,2.4
			C531.2,307.1,532,309,532,304.7z"/>
		<path class="st0" d="M341,416.6c-13.1-2.9-18.3-3.2-16.4-6.5c1.8-3.1,5.8-1.9,8.9-1.1c2.9,0.7,5.8,1.3,8.5,2.3
			c1,0.4,2.2,2.3,2,3.1C343.7,415.3,342,415.9,341,416.6z"/>
		<path class="st0" d="M393.2,477.5c1.9,5.1,0.4,10.2-0.1,15.4c-0.1,0.8-1.4,2-2.3,2c-0.8,0.1-2.4-0.9-2.6-1.7
			c-1.2-5.6-1.3-11.1,2.5-15.8C391,477.1,392.1,477.4,393.2,477.5z"/>
		<path class="st0" d="M534.5,382.9c2.4-3.8,5.4-6.8,8.1-4.3c2.8,2.6-1.6,5.7-3.3,8.4c-1.7,2.7-3.8,5.2-6.4,8.7
			c-1.2-2.2-2.6-3.6-2.4-4.5C531,389.8,532.5,386.1,534.5,382.9z"/>
		<path class="st0" d="M277.2,404c0.3,0.1,0.6,0.2,0.9,0.4c3,1.5,7.6,7.7,9.2,10.6c-0.9,7.1-7.3,0.7-11.7-5
			C273.8,407.6,273.7,403,277.2,404z"/>
		<path class="st0" d="M429.8,327.3c-0.2,1.8-0.5,3.5-1,5c-0.2,0.5-3.8,5.8-4.5,4.3c-2.1-5-1.2-9-0.2-14c0.4-2.2,1.4-9.6,5.5-6.8
			c1.4,0.9,1.2,3,0.9,4.6C430.3,322.5,430.1,325,429.8,327.3z"/>
		<path class="st0" d="M333,427.8c-2.7-0.6-4.6-0.8-6.3-1.5c-0.8-0.3-1.7-1.8-1.5-2.5c0.2-0.9,1.3-2.2,2.2-2.2
			c3.7-0.4,7.4-0.6,11.1-0.4c1.1,0.1,2.3,1.5,2.9,2.6c0.2,0.3-1,2.1-1.8,2.4C337.3,426.9,334.7,427.4,333,427.8z"/>
		<path class="st0" d="M424.9,407.9c-0.7-0.7-1.2-0.9-1.2-1.2c-1-6.7,3.1-11.1,7.3-15.2c0.3-0.3,1.5,0,2,0.3c0.5,0.4,1.2,1.3,1,1.8
			C432.2,399.1,430.4,404.7,424.9,407.9z"/>
		<path class="st0" d="M499.1,502.8c-1.5-6.9,0.2-10.4,7.5-14.3c0,2.1,0.6,4.1-0.1,5.3C504.7,497.2,503.9,501.7,499.1,502.8z"/>
		<path class="st0" d="M431.4,328.2c0.5-1.2,1-2.3,1.3-3.1c0.3-0.9,0.6-1.8,1.2-2.5s1.6-1.1,2.5-0.8c4,1.6-0.9,12.7-2.6,14.8
			c-1.2,1.5-3.3-1.1-3.6-1.8C429.5,333.2,430.5,330.6,431.4,328.2z"/>
		<path class="st0" d="M509.9,402.7c1.1,0.1,2.2,0,2.5,0.4c1.8,2.4,3.5,4.8,5,7.4c0.3,0.6-0.6,2-1.2,2.7c-0.3,0.4-1.8,0.4-2,0.1
			c-2-2.6-3.9-5.3-5.6-8.1C508.3,404.7,509.4,403.4,509.9,402.7z"/>
		<path class="st0" d="M527.5,368.3c-0.8,4-2,7.3-5.2,9.7c-0.8,0.6-3.2-0.7-3.2-2c-0.1-4.1,1.9-7.1,5.4-9
			C525.1,366.6,526.3,367.7,527.5,368.3z"/>
		<path class="st0" d="M538.2,399c0.1-1-0.1-1.9,0.2-2.5c1.8-3.1,3.1-6.9,7.8-6.7c1.5,0.1,2.2,6.4-5.2,10.1
			C540.3,400.2,539.1,399.3,538.2,399z"/>
		<path class="st0" d="M510,298c-2.3-5.3,0.5-8.7,3.5-11.9c0.4-0.4,1.5-0.4,2-0.1c0.6,0.3,1.3,1.1,1.3,1.6
			C516.4,292.1,515.3,296.2,510,298z"/>
		<path class="st0" d="M492,503c-3.2-0.4-3.2-2.7-3.1-4.9c0.1-2.2,0.5-4.7,2.9-5.4c0.8-0.3,3,0.9,3.2,1.7
			C495.8,497.7,494.9,500.8,492,503z"/>
		<path class="st0" d="M494.7,289.4c-0.6,4.1-4.8,8.2-8.4,8.1c-0.6,0-1.9-1.8-1.7-2.3c1.2-3.8,4-6.3,7.8-7.3
			C493,287.6,494,288.9,494.7,289.4z"/>
		<path class="st0" d="M569.7,344.9c-4.9-3.2-5.9-5.1-4.5-8.6c0.5-1.3,3.1-1.6,3.7-0.6C570.9,338.5,571.5,341.5,569.7,344.9z"/>
		<path class="st0" d="M347.5,406.1c-2.4,2-7.3,0.9-8.5-2c-0.3-0.7,0.5-2.4,1.2-2.7C344.4,399.6,349.6,404.4,347.5,406.1z"/>
		<path class="st0" d="M504.9,289.7c-0.2,6.1-5.4,7-6.4,5.3c-1.5-2.5,1.5-7.5,4.5-7.2C503.8,287.9,504.4,289.2,504.9,289.7z"/>
		<path class="st0" d="M270.2,418.3c-1.6,0.9-2.5,1.9-3.2,1.7c-3.1-0.5-4.9-3.4-3.8-6.4c0.2-0.7,2.3-1.5,2.4-1.3
			C267.2,414.1,268.5,416,270.2,418.3z"/>
		<path class="st0" d="M448.5,299.9c-1.2,3.7-3.3,6.1-6.6,7.1c-0.6,0.2-2.3-0.9-2.4-1.4c-0.2-3.5,2.9-6.9,6.7-7.3
			C446.8,298.2,447.7,299.4,448.5,299.9z"/>
		<path class="st0" d="M383.1,488.8c-0.6,0.4-1.3,1.1-2.2,1.4c-3.5,0.9-5.6-10.6-1.4-10.1C382,480.5,383.4,483.6,383.1,488.8z"/>
		<path class="st0" d="M497.4,403.4c-1.8,0.5-3.2,1.3-4.2,1c-4-1.2-3.9-6.6-1.3-7.5C494.6,395.9,496,400.6,497.4,403.4z"/>
		<path class="st0" d="M446.9,332.5c-1.3,1.9-2.4,3.6-3.8,5c-0.2,0.3-2.2-0.4-2.6-1.1c-1.4-2.6,0.7-6.2,3.7-6.1
			C445,330.4,445.7,331.5,446.9,332.5z"/>
		<path class="st0" d="M504.4,344.7c-0.7,1.4-1.1,2.9-2,3.9c-0.6,0.7-2,1.2-2.7,0.9c-3.3-1.2-0.6-8.2,2.7-7.2
			C503.2,342.6,503.7,343.8,504.4,344.7z"/>
		<path class="st0" d="M349.3,384.4c6,0,6.8-0.8,7.4,2.8C356.8,388.2,350.7,391.4,349.3,384.4z"/>
		<path class="st0" d="M425.8,390c-1.7,1-3,2.2-4.5,2.7c-1.3,0.4-2.5-1.6-1.9-3c0.8-1.8,2.1-3.1,4.2-2.4
			C424.3,387.5,424.8,388.7,425.8,390z"/>
	</g>
</g>
</svg>
