<?xml version="1.0" encoding="utf-8"?>
<!-- Generator: Adobe Illustrator 26.0.1, SVG Export Plug-In . SVG Version: 6.00 Build 0)  -->
<svg version="1.1" id="Layer_2" xmlns="http://www.w3.org/2000/svg" xmlns:xlink="http://www.w3.org/1999/xlink" x="0px" y="0px"
	 viewBox="0 0 406 410" style="enable-background:new 0 0 406 410;" xml:space="preserve">
<style type="text/css">
	.st0{fill:#DD73E0;}
	.st1{fill:#FF87FF;}
	.st2{fill:#00FFCE;}
	.st3{fill:#459922;}
	.st4{fill:#04968E;}
	.st5{fill:#08B5B0;}
	.st6{fill:#00FFFF;}
	.st7{fill:#419044;}
	.st8{fill:#F2E7CC;}
	.st9{fill:#D5FF00;}
	.st10{fill:#501792;}
	.st11{fill:#E66EEA;}
</style>
<g id="XMLID_241_">
	<g id="XMLID_274_">
		<path id="XMLID_295_" class="st0" d="M334.7,375.8c-0.3,0-0.6-0.1-0.9-0.2c-0.3-0.1-0.6-0.3-0.8-0.5c-0.2-0.2-0.4-0.5-0.4-0.7
			c0-0.2,0-0.4,0.1-0.6c-0.2,0.1-0.3,0.3-0.5,0.4C330.6,375.6,333.3,377.1,334.7,375.8z"/>
		<path id="XMLID_294_" class="st0" d="M334.2,372.3c0.1-0.1,0.3-0.2,0.4-0.4c0.1-0.1,0.2-0.2,0.3-0.4c0,0-0.1,0.1-0.1,0.1
			C334.5,371.9,334.3,372.1,334.2,372.3z"/>
		<path id="XMLID_293_" class="st0" d="M308.6,382.9c0,0-0.1,0-0.1,0c0.2,0.2,0.4,0.4,0.5,0.6c0.1,0.3,0.2,0.6,0.1,0.8
			c-0.1,0.3-0.2,0.6-0.4,0.8c-0.2,0.2-0.5,0.4-0.8,0.6c0.1,0,0.2,0,0.2,0C310.3,385.5,310.8,383.2,308.6,382.9z"/>
		<path id="XMLID_292_" class="st0" d="M328.8,394.4c0,0.4,0.1,0.9,0.3,1.3c0,0,0,0,0,0l0-0.2l0-0.1l0-0.1l0-0.1l0,0l0,0l0,0l0,0
			l0-0.2c0-0.3,0.2-0.6,0.4-0.9c0.3-0.3,0.6-0.5,1-0.6c0.4-0.1,0.7-0.2,1.1-0.2C330.4,392.8,328.7,393.2,328.8,394.4z"/>
		
			<rect id="XMLID_291_" x="349.9" y="375.7" transform="matrix(0.7949 -0.6068 0.6068 0.7949 -156.1656 289.3967)" class="st0" width="0" height="0"/>
		<path id="XMLID_290_" class="st0" d="M359.3,384.2c0-0.3-0.1-0.6-0.2-0.9l-0.1-0.4l-0.1-0.4c-0.1-0.3-0.2-0.6-0.3-0.9
			c-0.1-0.3-0.3-0.6-0.4-0.9v0c0.1,0.3,0.2,0.6,0.3,0.9c0.1,0.3,0.2,0.6,0.2,0.9l0.1,0.4l0.1,0.4c0,0.3,0.1,0.6,0.1,0.9
			c0,0.3,0,0.6,0,0.9l0,0.4c0,0.1,0,0.3-0.1,0.4l-0.1,0.4c0,0.1-0.1,0.3-0.1,0.4c0,0.1-0.1,0.3-0.1,0.4l-0.1,0.4
			c0,0.1-0.1,0.3-0.2,0.4l-0.2,0.4c-0.1,0.1-0.1,0.3-0.2,0.4c-0.1,0.1-0.1,0.3-0.2,0.4c-0.2,0.3-0.3,0.6-0.5,0.8l-0.3,0.4l-0.3,0.4
			c-0.2,0.3-0.4,0.5-0.7,0.8l-0.1,0.1l0,0c0,0,0,0,0,0l0,0l0,0l0,0l-0.2,0.2l-0.4,0.4c-0.5,0.5-1,0.9-1.6,1.4l-0.4,0.3l-0.4,0.3
			c-0.3,0.2-0.6,0.4-0.9,0.6c-0.3,0.2-0.6,0.4-1,0.6c-0.3,0.2-0.6,0.4-1,0.6c-0.3,0.2-0.7,0.4-1,0.5c-0.2,0.1-0.3,0.2-0.5,0.3
			l-0.5,0.2l-0.3,0.1l-0.3,0.1l-0.5,0.2c-0.4,0.1-0.7,0.3-1.1,0.4c-0.4,0.1-0.8,0.3-1.1,0.4l-0.6,0.2l-0.6,0.2
			c-0.8,0.2-1.6,0.4-2.4,0.5c-0.8,0.1-1.6,0.2-2.4,0.2c-0.8,0-1.6-0.1-2.3-0.2l-0.8-0.1l-0.2,0.6c-0.3,0.9-0.7,1.8-1.4,2.5
			c-0.3,0.4-0.7,0.8-1.1,1.1c-0.1,0.1-0.2,0.2-0.3,0.2c0,0-0.1,0.1-0.2,0.1l-0.2,0.1l-0.4,0.2c-0.1,0.1-0.3,0.1-0.4,0.2
			c-1,0.6-2.2,1-3.4,1.4c-0.6,0.2-1.2,0.4-1.9,0.5c-0.3,0.1-0.6,0.1-1,0.2c-0.2,0-0.3,0.1-0.5,0.1l-0.2,0l-0.2,0
			c-1.3,0.2-2.7,0.4-4,0.6c-1.3,0.1-2.7,0.2-4,0.2c-0.2,0-0.3,0-0.5,0l-0.1,0l-0.1,0l-0.2,0c-0.3,0-0.6,0-1-0.1
			c-0.6-0.1-1.2-0.2-1.8-0.4c-0.3-0.1-0.6-0.2-0.8-0.3l-0.2-0.1c-0.1,0-0.1-0.1-0.2-0.1c-0.1-0.1-0.3-0.1-0.4-0.2
			c-0.5-0.3-1-0.6-1.5-0.9c-0.5-0.3-1-0.6-1.5-1l-1.5-1l-3-2l-3-2c-0.5-0.3-1-0.7-1.5-1l-1.5-1c-1-0.6-2-1.3-2.8-2
			c-0.7-0.6-1.3-1.3-1.8-2l0.1,0.2c0.1,0.1,0.1,0.2,0.2,0.3l0.1,0.1l0.1,0.1c0.1,0.1,0.1,0.2,0.2,0.3c0.3,0.4,0.6,0.7,1,1.1
			c0.4,0.3,0.7,0.7,1.1,1c0.4,0.3,0.8,0.6,1.2,0.9c0.8,0.6,1.7,1.2,2.6,1.8c-1-0.5-1.9-1.1-2.8-1.6c-0.9-0.6-1.8-1.2-2.5-1.9
			c-0.4-0.3-0.8-0.7-1.1-1.1c-0.1-0.1-0.2-0.2-0.2-0.3l-0.1-0.1l-0.1-0.1c-0.1-0.1-0.1-0.2-0.2-0.3l0-0.1c0.4,0.7,1,1.4,1.6,2
			c0.8,0.8,1.8,1.5,2.8,2.2l1.5,1c0.5,0.3,1,0.7,1.4,1l2.9,2l2.9,2c1,0.7,1.9,1.3,2.9,2c0.5,0.3,1,0.7,1.6,1
			c0.1,0.1,0.3,0.1,0.4,0.2c0.1,0,0.1,0.1,0.2,0.1l0.2,0.1c0.3,0.1,0.7,0.3,1,0.4c0.7,0.2,1.4,0.4,2.1,0.5c0.4,0,0.7,0.1,1.1,0.1
			l0.3,0l0.1,0l0.1,0c0.2,0,0.3,0,0.5,0c1.5,0,2.9-0.1,4.3-0.2c1.4-0.1,2.8-0.3,4.1-0.6l0.3,0l0.3,0c0.2,0,0.3-0.1,0.5-0.1
			c0.4-0.1,0.7-0.1,1-0.2c0.7-0.2,1.4-0.3,2-0.5c1.3-0.4,2.6-0.9,3.7-1.6c0.1-0.1,0.3-0.2,0.4-0.2l0.4-0.3l0.2-0.1
			c0.1,0,0.1-0.1,0.2-0.1c0.1-0.1,0.3-0.2,0.4-0.3c0.5-0.4,0.9-0.8,1.3-1.3c0.6-0.7,1.1-1.5,1.4-2.4c0.6,0.1,1.3,0.1,1.9,0.1
			c0.9,0,1.8-0.1,2.7-0.2c0.9-0.1,1.8-0.3,2.6-0.6l0.6-0.2l0.6-0.2c0.4-0.1,0.8-0.3,1.2-0.4c0.4-0.1,0.8-0.3,1.2-0.5l0.6-0.2
			l0.3-0.1l0.3-0.1l0.6-0.3c0.2-0.1,0.4-0.2,0.5-0.3c0.4-0.2,0.7-0.4,1.1-0.6c0.4-0.2,0.7-0.4,1-0.6c0.3-0.2,0.7-0.4,1-0.6
			c0.3-0.2,0.6-0.4,0.9-0.7l0.4-0.3c0.1-0.1,0.3-0.2,0.4-0.4c0.6-0.5,1.1-1,1.6-1.5l0.4-0.4l0.2-0.2l0.1-0.1l0,0l0.1-0.1
			c0.2-0.3,0.4-0.5,0.6-0.8l0.3-0.4l0.3-0.4c0.2-0.3,0.3-0.6,0.5-0.9c0.1-0.1,0.1-0.3,0.2-0.4c0.1-0.1,0.1-0.3,0.2-0.4l0.2-0.5
			c0.1-0.1,0.1-0.3,0.1-0.5l0.1-0.5c0-0.2,0.1-0.3,0.1-0.5c0-0.2,0.1-0.3,0.1-0.5l0-0.5c0-0.2,0-0.3,0-0.5l0-0.5
			C359.4,384.8,359.4,384.5,359.3,384.2z"/>
		<path id="XMLID_289_" class="st0" d="M354.9,382.4c-0.2-0.6-0.6-1.2-0.9-1.8c-0.3-0.6-0.7-1.2-1.2-1.7c-0.9-1.1-1.9-2.2-2.9-3.2
			l0,0c0.9,1.1,1.8,2.2,2.6,3.3c0.4,0.6,0.7,1.1,1.1,1.7c0.3,0.6,0.6,1.2,0.8,1.8c0.2,0.6,0.3,1.2,0.4,1.8c0.1,0.6,0.1,1.2,0,1.9
			c-0.1,0.6-0.3,1.2-0.5,1.8c-0.1,0.1-0.1,0.3-0.2,0.4l-0.1,0.2l-0.1,0.2l-0.1,0.2l-0.1,0.1l-0.1,0.1c-0.1,0.1-0.2,0.3-0.3,0.4
			c-0.4,0.5-0.9,1.1-1.4,1.6c-0.5,0.5-1.1,1-1.7,1.4c-1.3,0.9-2.7,1.7-4.2,2.4c-0.4,0.2-0.8,0.3-1.1,0.5c-0.4,0.2-0.8,0.3-1.2,0.5
			c-0.8,0.3-1.6,0.5-2.4,0.7c-0.8,0.2-1.7,0.3-2.5,0.3l-0.3,0l-0.3,0l-0.1,0l-0.2,0c-0.1,0-0.2,0-0.3,0c-0.3,0-0.6-0.1-0.9-0.2
			c0-0.1,0-0.1-0.1-0.2c-0.3-0.8-0.9-1.6-1.8-2.3c-0.2-0.2-0.5-0.4-0.8-0.5c-0.1-0.1-0.3-0.2-0.4-0.2l-0.2-0.1l-0.1,0l-0.1,0
			l-0.2-0.1c-0.1,0-0.1,0-0.2,0l-0.1,0c-0.1,0-0.2,0-0.3-0.1c-0.1,0-0.2,0-0.3,0l-0.3,0c0,0-0.1,0-0.1,0c-0.4,0-0.7,0.1-1.1,0.2
			c-0.4,0.1-0.8,0.3-1,0.6c-0.3,0.3-0.4,0.6-0.4,0.9l0,0.2l0,0l0,0l0,0l0,0l0,0.1l0,0.1l0,0.1l0,0.2c0,0,0,0,0,0
			c0.1,0.2,0.1,0.5,0.2,0.7c0.3,0.7,0.8,1.4,1.4,1.9c0.2,0.2,0.4,0.3,0.6,0.4c0,0.6-0.2,1.2-0.6,1.8c-0.2,0.3-0.5,0.6-0.8,0.9
			c-0.1,0.1-0.2,0.1-0.2,0.2l-0.1,0.1l0,0l0,0l0,0l-0.1,0c-0.2,0.1-0.4,0.3-0.6,0.4l-0.6,0.3l-0.6,0.3l-0.7,0.3
			c-0.2,0.1-0.5,0.2-0.7,0.2c-0.9,0.3-1.9,0.5-2.9,0.7c-2,0.4-4.1,0.5-6.2,0.7c-1,0.1-2.1,0.1-2.9-0.1c-0.9-0.2-1.7-0.7-2.4-1.2
			l-4.6-3c-1.5-1-3-2-4.6-3c-0.8-0.5-1.5-1-2.3-1.5c-0.4-0.3-0.8-0.5-1.1-0.8c-0.4-0.3-0.8-0.5-1.1-0.8c-0.7-0.5-1.3-1.1-1.7-1.7
			c0,0,0-0.1-0.1-0.1c-0.1-0.2-0.2-0.4-0.3-0.6c0-0.1-0.1-0.2-0.1-0.3l0-0.2l0-0.2c0-0.2-0.1-0.5,0-0.7c0-0.2,0-0.5,0.1-0.7
			c0-0.1,0-0.2,0.1-0.3c0-0.1,0.1-0.2,0.1-0.3c0-0.1,0.1-0.2,0.1-0.3c0-0.1,0.1-0.2,0.1-0.3c0.2-0.4,0.4-0.9,0.6-1.3
			c0.1-0.2,0.2-0.4,0.4-0.6c0.1-0.2,0.3-0.4,0.4-0.6l0.4-0.6l0.2-0.3l0.1-0.1l0,0l0,0l0,0l1.9,0.3l0.3,0c1.2,0.5,2.5,0.8,3.9,0.9
			c0.3,0,0.7,0,1.1,0c0.2,0,0.4,0,0.5,0l0.3,0l0.1,0l0.1,0c0.1,0,0.2,0,0.3,0c0.1,0,0.2,0,0.3-0.1c0.2-0.1,0.4-0.1,0.5-0.2
			c0,0,0,0,0,0c0.3-0.2,0.6-0.4,0.8-0.6c0.2-0.2,0.3-0.5,0.4-0.8c0.1-0.3,0-0.6-0.1-0.8c-0.1-0.2-0.3-0.4-0.5-0.6
			c-0.1,0-0.1-0.1-0.2-0.1c-0.3-0.2-0.7-0.3-1.1-0.4l-3-0.4l-0.9-0.1c-1-0.4-1.9-1-2.6-1.7c-0.3-0.4-0.6-0.7-0.9-1.1
			c-0.1-0.2-0.2-0.4-0.3-0.6c0-0.1-0.1-0.2-0.1-0.3l-0.1-0.2l0,0l0,0l0,0l0-0.1c-0.1-0.2-0.1-0.5-0.1-0.7l0-0.3l0-0.3
			c0-0.4,0.1-0.9,0.2-1.3c0.3-0.9,0.8-1.7,1.4-2.5c0.6-0.8,1.3-1.5,2.1-2.2c0.8-0.7,1.7-1.4,2.7-2c1.9-1.2,4-2.3,6.3-3.2
			c2.3-0.9,4.7-1.5,7.2-1.8c2.5-0.3,5.1-0.4,7.6,0c1.2,0.2,2.4,0.5,3.6,0.8c1.2,0.4,2.2,0.8,3.2,1.4c1,0.5,1.8,1.2,2.4,1.9
			c0.6,0.7,0.9,1.5,1,2.3c-0.4,0.3-0.9,0.6-1.2,1c0,0,0,0,0,0c-0.2,0.3-0.5,0.5-0.7,0.7c-0.1,0.1-0.2,0.2-0.3,0.4
			c-0.1,0.1-0.3,0.2-0.4,0.4c-0.3,0.2-0.5,0.4-0.8,0.7c-0.2,0.2-0.4,0.4-0.6,0.6c0,0.1-0.1,0.1-0.1,0.2c-0.1,0.2-0.1,0.4-0.1,0.6
			c0,0.3,0.2,0.5,0.4,0.7c0.2,0.2,0.5,0.4,0.8,0.5c0.3,0.1,0.6,0.2,0.9,0.2c0.1,0,0.1,0,0.2,0c0.4,0,0.8-0.1,1.1-0.2
			c0.3-0.1,0.6-0.3,0.8-0.6c0.2-0.2,0.3-0.4,0.5-0.6c0.3-0.4,0.7-0.7,1.2-1c0.2-0.1,0.5-0.3,0.7-0.4l0.7-0.4
			c0.2-0.1,0.3-0.2,0.5-0.3c0.3-0.2,0.7-0.4,1-0.5l0.2-0.1l0.2-0.1c0.1,0,0.3-0.1,0.4-0.1c0.3-0.1,0.6-0.1,0.9-0.1
			c0.6,0,1.2,0.1,1.8,0.2c0.3,0.1,0.5,0.2,0.8,0.4c0.2,0.1,0.5,0.3,0.7,0.4c0.4,0.3,0.9,0.7,1.2,1c0.8,0.7,1.5,1.5,2.2,2.2l0,0
			c-0.7-0.8-1.3-1.5-2-2.3c-0.4-0.4-0.8-0.7-1.2-1c-0.2-0.2-0.5-0.3-0.7-0.5c-0.3-0.2-0.5-0.3-0.8-0.4c-0.6-0.2-1.3-0.3-1.9-0.3
			c-0.7,0-1.3,0.2-1.9,0.4c-0.6,0.2-1.1,0.5-1.6,0.8l-0.8,0.4c-0.3,0.1-0.5,0.3-0.8,0.4c-0.5,0.3-1,0.7-1.4,1.1
			c-0.2,0.2-0.4,0.4-0.5,0.6c-0.2,0.2-0.4,0.3-0.6,0.4c-0.4,0.2-1,0.2-1.5,0c-0.5-0.2-0.8-0.5-0.8-0.9c0-0.2,0-0.3,0.1-0.5
			c0.1-0.2,0.3-0.3,0.5-0.5c0.4-0.3,0.9-0.7,1.3-1c0.4-0.4,0.7-0.8,1.1-1.1c0.3-0.3,0.8-0.7,1.3-0.9l0.2-0.1l0-0.1
			c0.1-1-0.4-2-1-2.8c-0.7-0.8-1.6-1.6-2.6-2.2c-1-0.6-2.2-1.1-3.4-1.5c-1.2-0.4-2.5-0.7-3.8-0.9c-1.3-0.2-2.7-0.3-4-0.3
			c-1.3,0-2.7,0.1-4,0.3c-2.7,0.4-5.2,1-7.6,1.9c-2.4,0.9-4.6,2-6.6,3.3c-1,0.7-1.9,1.3-2.8,2.1c-0.9,0.7-1.6,1.5-2.3,2.4
			c-0.6,0.8-1.1,1.8-1.4,2.7c-0.1,0.5-0.2,1-0.2,1.5l0,0.4l0,0.4c0,0.3,0.1,0.5,0.2,0.7l0,0.1l0,0l0,0l0,0l0,0l0.1,0.2
			c0,0.1,0.1,0.2,0.1,0.3c0.1,0.2,0.2,0.5,0.4,0.7c0.3,0.4,0.6,0.9,1,1.3c0.8,0.8,1.8,1.5,3,1.9l0.1,0l0.1,0l4,0.5
			c0.3,0,0.5,0.1,0.7,0.2c0.2,0.1,0.3,0.3,0.4,0.4c0.1,0.2,0.1,0.4,0.1,0.6c0,0.2-0.1,0.4-0.3,0.6c-0.1,0.2-0.3,0.3-0.5,0.4
			c-0.1,0.1-0.2,0.1-0.4,0.1c-0.1,0-0.1,0-0.2,0c-0.1,0-0.1,0-0.2,0l-0.1,0l-0.1,0l-0.2,0c-0.2,0-0.3,0-0.5,0c-0.3,0-0.6,0-1,0
			c-1.3-0.1-2.6-0.3-3.7-0.8l0,0l0,0l-2.5-0.3l-0.2,0l-0.1,0.1l-0.1,0.2l0,0l0,0l-0.1,0.1l-0.2,0.3l-0.4,0.6
			c-0.1,0.2-0.3,0.4-0.4,0.7c-0.1,0.2-0.2,0.4-0.3,0.7c-0.2,0.4-0.4,0.9-0.6,1.4c0,0.1-0.1,0.2-0.1,0.3c0,0.1-0.1,0.2-0.1,0.3
			c0,0.1-0.1,0.2-0.1,0.3c0,0.1,0,0.2-0.1,0.4c0,0.2,0,0.5,0,0.7c0,0.2,0,0.5,0.1,0.7l0,0.2l0.1,0.2c0,0.1,0.1,0.2,0.1,0.3
			c0.1,0.2,0.2,0.4,0.3,0.7c0,0,0,0.1,0.1,0.1c0.4,0.7,1,1.3,1.7,1.9c0.7,0.6,1.4,1.1,2.1,1.6c0.7,0.5,1.5,1,2.2,1.6l4.4,3.1
			c1.5,1,3,2.1,4.4,3.1c0.4,0.3,0.8,0.5,1.2,0.8c0.2,0.1,0.5,0.2,0.7,0.3c0.1,0,0.3,0.1,0.4,0.1l0.1,0l0,0c0,0,0,0,0.1,0
			c0.1,0,0.1,0,0.2,0.1c0.6,0.1,1.1,0.2,1.7,0.2c0.6,0,1.1,0,1.6,0c2.1-0.1,4.3-0.3,6.4-0.6c1.1-0.2,2.1-0.4,3.1-0.7
			c0.3-0.1,0.5-0.2,0.8-0.3c0.2-0.1,0.5-0.2,0.7-0.3l0.7-0.3l0.7-0.4c0.2-0.1,0.4-0.3,0.6-0.4l0.1,0l0,0l0,0l0,0l0,0l0.1-0.1
			c0.1-0.1,0.2-0.2,0.3-0.2c0.4-0.3,0.7-0.7,0.9-1c0.5-0.7,0.8-1.5,0.8-2.4l0-0.2l-0.2-0.1c-0.9-0.6-1.5-1.3-1.9-2.1
			c-0.1-0.2-0.1-0.4-0.2-0.6l0-0.2l0-0.1l0-0.1l0-0.1l0,0l0,0l0,0l0,0l0-0.1c0-0.2,0.1-0.3,0.2-0.4c0.1-0.1,0.3-0.2,0.5-0.3
			c0.2-0.1,0.5-0.1,0.7-0.1l0.2,0c0.1,0,0.1,0,0.2,0c0.1,0,0.1,0,0.2,0l0.1,0c0,0,0,0,0.1,0l0.1,0l0,0l0.1,0l0.1,0l0.1,0l0,0l0,0
			c0.1,0.1,0.2,0.1,0.3,0.2c0.2,0.1,0.4,0.3,0.7,0.4c0.8,0.6,1.4,1.4,1.6,2.2l0.1,0.2l0.2,0.1c0.4,0.2,0.9,0.3,1.4,0.3
			c0.1,0,0.2,0,0.4,0l0.2,0l0.2,0l0.4,0l0.4,0c1,0,1.9-0.2,2.8-0.4c0.9-0.2,1.8-0.5,2.6-0.8c0.4-0.2,0.8-0.3,1.2-0.5
			c0.4-0.2,0.8-0.3,1.2-0.5c1.5-0.7,3-1.6,4.3-2.5c0.6-0.5,1.2-1,1.8-1.5c0.5-0.5,1-1.1,1.5-1.7c0.1-0.1,0.2-0.3,0.3-0.4l0.1-0.1
			l0.1-0.1l0.1-0.2l0.1-0.2l0.1-0.2c0.1-0.2,0.2-0.3,0.2-0.5c0.3-0.6,0.4-1.3,0.5-1.9c0.1-0.6,0.1-1.3-0.1-1.9
			C355.3,383.6,355.1,383,354.9,382.4z"/>
		<path id="XMLID_288_" class="st0" d="M292.3,394.5l0.1,0.1l0.1,0.1c0.1,0.1,0.1,0.2,0.2,0.3c0.3,0.4,0.7,0.7,1.1,1.1
			c0.8,0.7,1.6,1.3,2.5,1.9c0.9,0.6,1.9,1.1,2.8,1.6c-0.9-0.6-1.8-1.2-2.6-1.8c-0.4-0.3-0.8-0.6-1.2-0.9c-0.4-0.3-0.8-0.6-1.1-1
			c-0.3-0.3-0.7-0.7-1-1.1c-0.1-0.1-0.1-0.2-0.2-0.3l-0.1-0.1l-0.1-0.1c-0.1-0.1-0.1-0.2-0.2-0.3l-0.1-0.2l0-0.1
			c-0.2-0.4-0.4-0.8-0.5-1.2c-0.1-0.4-0.2-0.8-0.2-1.2c0-0.4,0-0.8,0-1.3c0.1-0.4,0.1-0.8,0.3-1.3c0.1-0.2,0.1-0.4,0.2-0.6l0.1-0.3
			c0-0.1,0.1-0.2,0.1-0.3c0.2-0.4,0.4-0.8,0.6-1.2c0.2-0.4,0.5-0.8,0.7-1.2l0.4-0.6l0.4-0.6c0.3-0.4,0.5-0.8,0.8-1.1
			c0.3-0.3,0.7-0.6,1.1-0.8l0.6-0.2l-0.3-0.4c-0.7-0.9-1.3-1.8-1.6-2.8c-0.1-0.2-0.2-0.5-0.2-0.7c0-0.1,0-0.2-0.1-0.4
			c0-0.1,0-0.2,0-0.4l0-0.4c0-0.1,0-0.2,0-0.4l0-0.4c0-0.1,0-0.2,0.1-0.4c0.1-1,0.5-2,1-2.9c0.5-0.9,1.2-1.9,2-2.7
			c0.8-0.9,1.7-1.7,2.7-2.4c0.1-0.1,0.2-0.2,0.4-0.3l0.4-0.3l0.2-0.1l0.1-0.1l0.1-0.1l0.4-0.3l0.4-0.3l0.4-0.3l0.4-0.3l0.4-0.2
			c1.1-0.7,2.3-1.3,3.6-1.8c1.2-0.6,2.5-1.1,3.9-1.5c1.3-0.4,2.7-0.8,4.1-1.1c0.4-0.1,0.7-0.1,1-0.2l0.5-0.1l0.6-0.1l0.6-0.1
			l0.5-0.1l0.5-0.1c0.2,0,0.4,0,0.5,0c1.4-0.1,2.9-0.2,4.3-0.1c1.4,0.1,2.9,0.2,4.3,0.5c1.4,0.3,2.7,0.6,4,1.1l0.9,0.4l0.9,0.4
			c0.3,0.1,0.6,0.3,0.9,0.5l0.1,0l0.1,0.1l0.2,0.1c0.1,0.1,0.3,0.2,0.4,0.2c1,0.7,1.9,1.4,2.6,2.3c0.7,0.9,1.2,1.8,1.3,2.8l0.1,0.6
			l0.7-0.2c0.1,0,0.3-0.1,0.4-0.1c0.1,0,0.2-0.1,0.4-0.1c0.3-0.1,0.5-0.1,0.8-0.1c0.3,0,0.5-0.1,0.8-0.1c0.3,0,0.5,0,0.8,0
			c0.3,0,0.5,0,0.8,0c0.3,0,0.5,0.1,0.8,0.1c0.5,0.1,1,0.2,1.5,0.4c0.5,0.2,0.9,0.4,1.4,0.6l0.3,0.2c0.1,0.1,0.2,0.1,0.3,0.2
			l0.1,0.1l0.1,0.1c0.1,0.1,0.2,0.1,0.3,0.2c0.8,0.6,1.5,1.2,2.1,1.8c0.7,0.6,1.3,1.3,1.9,2c0.6,0.7,1.2,1.3,1.8,2
			c0.6,0.7,1.1,1.4,1.6,2.1c0.5,0.7,1,1.5,1.3,2.2c0-0.1,0-0.1-0.1-0.2c-0.3-0.7-0.7-1.4-1.1-2.1c-0.4-0.7-0.9-1.5-1.5-2.2
			c-0.5-0.7-1.1-1.4-1.7-2.1c-0.6-0.7-1.1-1.4-1.8-2.1c-0.3-0.3-0.6-0.7-1-1c-0.3-0.3-0.7-0.6-1.1-1c-0.1-0.1-0.2-0.2-0.3-0.2
			l-0.2-0.1l-0.2-0.1c-0.1-0.1-0.2-0.1-0.3-0.2l-0.4-0.2c-0.5-0.3-1-0.5-1.5-0.7c-0.5-0.2-1.1-0.4-1.7-0.5c-0.3-0.1-0.6-0.1-0.9-0.1
			c-0.3,0-0.6-0.1-0.9-0.1c-0.3,0-0.6,0-0.9,0c-0.3,0-0.6,0-0.9,0.1c-0.3,0-0.6,0.1-0.9,0.1c-0.1,0-0.1,0-0.2,0
			c-0.2-0.9-0.6-1.8-1.2-2.6c-0.7-1-1.7-1.8-2.8-2.6c-0.1-0.1-0.3-0.2-0.4-0.3l-0.2-0.1l-0.1-0.1l-0.1-0.1c-0.3-0.2-0.6-0.3-0.9-0.5
			l-1-0.4l-1-0.4c-1.4-0.5-2.8-0.9-4.3-1.2c-1.5-0.3-3-0.5-4.6-0.5c-1.5-0.1-3.1,0-4.6,0.1c-0.2,0-0.4,0-0.6,0l-0.6,0.1l-0.6,0.1
			l-0.6,0.1l-0.6,0.1l-0.6,0.1c-0.4,0.1-0.8,0.1-1.1,0.2c-1.5,0.3-2.9,0.7-4.3,1.2c-1.4,0.5-2.8,1-4.1,1.6c-1.3,0.6-2.5,1.2-3.7,1.9
			l-0.4,0.3l-0.4,0.3l-0.4,0.3l-0.4,0.3l-0.4,0.3l-0.1,0l-0.1,0l-0.1,0.1l-0.2,0.1l-0.4,0.3c-0.1,0.1-0.3,0.2-0.4,0.3
			c-1.1,0.8-2,1.7-2.9,2.6c-0.8,0.9-1.6,1.9-2.1,2.9c-0.6,1-0.9,2.1-1.1,3.2c0,0.1,0,0.3,0,0.4l0,0.4c0,0.1,0,0.3,0,0.4l0,0.4
			c0,0.1,0,0.3,0.1,0.4c0,0.1,0.1,0.3,0.1,0.4c0.1,0.3,0.2,0.5,0.3,0.8c0.3,0.9,0.9,1.8,1.6,2.6c-0.4,0.2-0.7,0.5-1,0.8
			c-0.4,0.4-0.6,0.8-0.9,1.2l-0.4,0.6l-0.4,0.6c-0.2,0.4-0.5,0.8-0.7,1.2c-0.2,0.4-0.4,0.8-0.6,1.3c0,0.1-0.1,0.2-0.1,0.3l-0.1,0.3
			c-0.1,0.2-0.1,0.4-0.2,0.7c-0.1,0.4-0.2,0.9-0.2,1.3c0,0.4,0,0.9,0,1.3c0,0.4,0.2,0.9,0.3,1.3c0.1,0.4,0.4,0.8,0.6,1.3l0.1,0.2
			l0,0.1C292.2,394.4,292.3,394.4,292.3,394.5z"/>
		<g id="XMLID_275_">
			<path id="XMLID_287_" class="st0" d="M350.5,381.3c1.3,2.5,1.6,5.2,0,7.8c-1.1,1.7-2.7,3.2-4.7,4.4c0.1,0.5,0.3,1,0.4,1.5
				c1.4-0.6,2.6-1.4,3.8-2.2c0.6-0.5,1.2-0.9,1.7-1.4c0.5-0.5,1-1,1.4-1.6c0.1-0.1,0.2-0.3,0.3-0.4l0.1-0.1l0.1-0.1l0.1-0.2l0.1-0.2
				l0.1-0.2c0.1-0.1,0.2-0.3,0.2-0.4c0.3-0.6,0.4-1.2,0.5-1.8c0.1-0.6,0.1-1.2,0-1.9c-0.1-0.6-0.2-1.2-0.4-1.8
				c-0.2-0.6-0.5-1.2-0.8-1.8c-0.2-0.3-0.4-0.7-0.6-1c-0.6,0.3-1.2,0.7-1.7,1C351,380.9,350.8,381.1,350.5,381.3z"/>
			<path id="XMLID_286_" class="st0" d="M301,394.1c-0.5-0.4-1-0.8-1.4-1.3c-0.9,0.2-1.7,0.3-2.6,0.5c0.4,0.4,0.8,0.8,1.2,1.1
				c0.4,0.3,0.7,0.5,1.1,0.8c0.4,0.3,0.7,0.5,1.1,0.8c0.8,0.5,1.5,1,2.3,1.5c0.9,0.6,1.8,1.2,2.7,1.8c0-0.6,0.1-1.1,0.3-1.7
				C304.2,396.4,302.6,395.2,301,394.1z"/>
			<path id="XMLID_285_" class="st0" d="M325.4,402.6c-2.5,0.7-5.3,0.9-7.8,1.1c-0.7,0-1.5,0.1-2.2,0c-0.1,0.4-0.3,0.7-0.4,1.1
				c0.7,0.1,1.5,0,2.3,0c2.1-0.1,4.2-0.3,6.2-0.7c0.9-0.2,1.8-0.4,2.6-0.6c-0.2-0.2-0.3-0.4-0.5-0.6
				C325.5,402.7,325.5,402.7,325.4,402.6z"/>
			<path id="XMLID_284_" class="st0" d="M305.2,370.5c5.9-4.7,15.9-7.9,24.3-5.1c0,0,0,0,0.1,0c0.2-0.4,0.4-0.8,0.7-1.2
				c-1.1-0.4-2.3-0.6-3.5-0.8c-2.5-0.4-5.1-0.3-7.6,0c-2.5,0.3-5,1-7.2,1.8c-2.3,0.9-4.4,1.9-6.3,3.2c-0.9,0.6-1.8,1.2-2.6,1.9
				c0.4,0.3,0.9,0.6,1.3,1C304.6,371,304.9,370.8,305.2,370.5z"/>
			<path id="XMLID_283_" class="st0" d="M298.5,390c0-1.7,1-3.4,1.9-4.9l-1.9-0.3l0,0l0,0l0,0l-0.1,0.1l-0.2,0.3l-0.4,0.6
				c-0.1,0.2-0.3,0.4-0.4,0.6c-0.1,0.2-0.3,0.4-0.4,0.6c-0.2,0.4-0.4,0.9-0.6,1.3c0,0.1-0.1,0.2-0.1,0.3c0,0.1-0.1,0.2-0.1,0.3
				c0,0.1-0.1,0.2-0.1,0.3c0,0.1-0.1,0.2-0.1,0.3c0,0.2-0.1,0.5-0.1,0.7c0,0.2,0,0.5,0,0.7l0,0.2l0,0.2c0,0.1,0.1,0.2,0.1,0.3
				c0.1,0.2,0.2,0.4,0.3,0.6c0,0,0,0.1,0.1,0.1c0.2,0.2,0.3,0.4,0.5,0.6c0.9-0.2,1.7-0.3,2.6-0.5C298.9,392,298.5,391.1,298.5,390z"
				/>
			<path id="XMLID_282_" class="st0" d="M342.9,395c-1.9,0.8-4.2,1.7-6.5,1.6c0,0.1,0,0.1,0.1,0.2c0.3,0.1,0.6,0.2,0.9,0.2
				c0.1,0,0.2,0,0.3,0l0.2,0l0.1,0l0.3,0l0.3,0c0.8,0,1.7-0.1,2.5-0.3c0.8-0.2,1.6-0.4,2.4-0.7c0.4-0.1,0.8-0.3,1.2-0.5
				c0.4-0.2,0.8-0.3,1.1-0.5c0.1-0.1,0.2-0.1,0.4-0.2c-0.2-0.5-0.3-1-0.4-1.5C344.9,394,343.9,394.5,342.9,395z"/>
			<path id="XMLID_281_" class="st0" d="M349.9,375.7L349.9,375.7L349.9,375.7c-0.7-0.7-1.4-1.5-2.2-2.2c-0.4-0.4-0.8-0.7-1.2-1
				c-0.2-0.2-0.5-0.3-0.7-0.4c-0.2-0.1-0.5-0.3-0.8-0.4c-0.5-0.2-1.2-0.3-1.8-0.2c-0.3,0-0.6,0.1-0.9,0.1c-0.1,0-0.3,0.1-0.4,0.1
				l-0.2,0.1l-0.2,0.1c-0.4,0.1-0.7,0.3-1,0.5c1-0.1,1.9,0,2.8,0.6c1.5,0.9,2.5,2.3,3.6,3.5c1.2,1.3,2.4,2.7,3.2,4.2
				c0.1,0.2,0.3,0.4,0.4,0.7c0.3-0.2,0.5-0.4,0.8-0.6c0.6-0.3,1.2-0.7,1.7-1c-0.2-0.2-0.3-0.5-0.5-0.7
				C351.8,377.8,350.9,376.7,349.9,375.7z"/>
			<path id="XMLID_279_" class="st0" d="M300.8,372.7c-0.6,0.8-1.1,1.6-1.4,2.5c-0.1,0.4-0.2,0.9-0.2,1.3l0,0.3l0,0.3
				c0,0.2,0.1,0.4,0.1,0.7l0,0.1l0,0l0,0l0,0l0.1,0.2c0,0.1,0.1,0.2,0.1,0.3c0.1,0.2,0.2,0.4,0.3,0.6c0.2,0.4,0.5,0.8,0.9,1.1
				c0.7,0.7,1.5,1.3,2.6,1.7l0.9,0.1c-1.5-0.8-2.6-2.1-3-3.5c-0.8-2.5,0.9-5.1,3.1-7.1c-0.4-0.3-0.9-0.6-1.3-1c0,0-0.1,0.1-0.1,0.1
				C302.1,371.1,301.4,371.9,300.8,372.7z"/>
			<path id="XMLID_278_" class="st0" d="M334.7,368.6c0.5,0.7,0.9,1.5,0.9,2.3c0,0,0,0,0,0c0.4-0.4,0.8-0.7,1.2-1
				c0-0.8-0.4-1.6-1-2.3c-0.6-0.7-1.4-1.4-2.4-1.9c-1-0.5-2.1-1-3.2-1.4c0,0,0,0-0.1,0c-0.2,0.4-0.4,0.8-0.7,1.2
				C331.6,366.1,333.5,367.1,334.7,368.6z"/>
			<path id="XMLID_277_" class="st0" d="M314.7,403.5c-1-0.3-1.7-0.8-2.4-1.4c-1.9-1.3-3.8-2.7-5.7-4.1c-0.2-0.2-0.5-0.4-0.8-0.5
				c-0.2,0.5-0.3,1.1-0.3,1.7c0.6,0.4,1.2,0.8,1.9,1.2l4.6,3c0.7,0.5,1.5,1,2.4,1.2c0.2,0,0.4,0.1,0.7,0.1c0.1-0.4,0.3-0.7,0.4-1.1
				C315.2,403.6,315,403.5,314.7,403.5z"/>
			<path id="XMLID_276_" class="st0" d="M327.1,403.1l0.7-0.3l0.6-0.3l0.6-0.3c0.2-0.1,0.4-0.3,0.6-0.4l0.1,0l0,0l0,0l0,0l0.1-0.1
				c0.1-0.1,0.2-0.1,0.2-0.2c0.3-0.3,0.6-0.6,0.8-0.9c0.4-0.6,0.6-1.2,0.6-1.8c-0.2-0.1-0.4-0.3-0.6-0.4c-0.2,0.9-0.8,1.9-1.7,2.6
				c-1,0.8-2.3,1.3-3.7,1.7c0.1,0.1,0.1,0.1,0.2,0.2c0.2,0.2,0.3,0.4,0.5,0.6c0.1,0,0.2-0.1,0.3-0.1
				C326.6,403.3,326.9,403.2,327.1,403.1z"/>
		</g>
	</g>
	<g id="XMLID_242_">
		<path id="XMLID_271_" class="st1" d="M358.9,383.3l-0.1-0.4l-0.1-0.4c0-0.3-0.1-0.6-0.2-0.9c-0.1-0.3-0.2-0.6-0.3-0.9v0
			c0-0.1-0.1-0.1-0.1-0.2c0,0.1,0.1,0.1,0.1,0.2c-0.4-0.8-0.8-1.5-1.3-2.2c-0.5-0.7-1-1.4-1.6-2.1c-0.6-0.7-1.2-1.4-1.8-2
			c-0.6-0.7-1.2-1.4-1.9-2c-0.7-0.6-1.4-1.3-2.1-1.8c-0.1-0.1-0.2-0.1-0.3-0.2l-0.1-0.1l-0.1-0.1c-0.1-0.1-0.2-0.1-0.3-0.2l-0.3-0.2
			c-0.4-0.2-0.9-0.4-1.4-0.6c-0.5-0.2-1-0.3-1.5-0.4c-0.3-0.1-0.5-0.1-0.8-0.1c-0.3,0-0.5,0-0.8,0c-0.3,0-0.5,0-0.8,0
			c-0.3,0-0.5,0-0.8,0.1c-0.3,0-0.5,0.1-0.8,0.1c-0.1,0-0.3,0.1-0.4,0.1c-0.1,0-0.2,0.1-0.4,0.1l-0.7,0.2l-0.1-0.6
			c-0.1-1-0.6-1.9-1.3-2.8c-0.7-0.9-1.6-1.7-2.6-2.3c-0.1-0.1-0.3-0.2-0.4-0.2l-0.2-0.1l-0.1-0.1l-0.1,0c-0.3-0.2-0.6-0.3-0.9-0.5
			l-0.9-0.4l-0.9-0.4c-1.3-0.5-2.6-0.8-4-1.1c-1.4-0.3-2.8-0.4-4.3-0.5c-1.4-0.1-2.9,0-4.3,0.1c-0.2,0-0.4,0-0.5,0l-0.5,0.1
			l-0.5,0.1l-0.6,0.1l-0.6,0.1l-0.5,0.1c-0.3,0.1-0.7,0.1-1,0.2c-1.4,0.3-2.8,0.7-4.1,1.1c-1.3,0.4-2.6,0.9-3.9,1.5
			c-1.2,0.6-2.4,1.2-3.6,1.8l-0.4,0.2l-0.4,0.3l-0.4,0.3l-0.4,0.3l-0.4,0.3l-0.1,0.1l-0.1,0.1l-0.2,0.1l-0.4,0.3
			c-0.1,0.1-0.2,0.2-0.4,0.3c-1,0.8-1.9,1.6-2.7,2.4c-0.8,0.9-1.5,1.8-2,2.7c-0.5,0.9-0.9,1.9-1,2.9c0,0.1,0,0.2-0.1,0.4l0,0.4
			c0,0.1,0,0.2,0,0.4l0,0.4c0,0.1,0,0.3,0,0.4c0,0.1,0,0.3,0.1,0.4c0.1,0.2,0.1,0.5,0.2,0.7c0.3,1,0.9,1.9,1.6,2.8l0.3,0.4l-0.6,0.2
			c-0.4,0.2-0.8,0.4-1.1,0.8c-0.3,0.3-0.6,0.7-0.8,1.1l-0.4,0.6l-0.4,0.6c-0.2,0.4-0.5,0.8-0.7,1.2c-0.2,0.4-0.4,0.8-0.6,1.2
			c0,0.1-0.1,0.2-0.1,0.3l-0.1,0.3c-0.1,0.2-0.1,0.4-0.2,0.6c-0.1,0.4-0.2,0.8-0.3,1.3c-0.1,0.4-0.1,0.8,0,1.3
			c0,0.4,0.1,0.8,0.2,1.2c0.1,0.4,0.3,0.8,0.5,1.2l0,0.1c0.5,0.7,1.1,1.4,1.8,2c0.9,0.7,1.8,1.4,2.8,2l1.5,1c0.5,0.3,1,0.6,1.5,1
			l3,2l3,2l1.5,1c0.5,0.3,1,0.7,1.5,1c0.5,0.3,1,0.6,1.5,0.9c0.1,0.1,0.3,0.1,0.4,0.2c0.1,0,0.1,0.1,0.2,0.1l0.2,0.1
			c0.3,0.1,0.5,0.2,0.8,0.3c0.6,0.2,1.2,0.3,1.8,0.4c0.3,0,0.6,0.1,1,0.1l0.2,0l0.1,0l0.1,0c0.2,0,0.4,0,0.5,0c1.3,0,2.6-0.1,4-0.2
			c1.3-0.1,2.7-0.3,4-0.6l0.2,0l0.2,0c0.2,0,0.3-0.1,0.5-0.1c0.3-0.1,0.6-0.1,1-0.2c0.6-0.1,1.3-0.3,1.9-0.5
			c1.2-0.4,2.4-0.9,3.4-1.4c0.1-0.1,0.3-0.1,0.4-0.2l0.4-0.2l0.2-0.1c0.1,0,0.1-0.1,0.2-0.1c0.1-0.1,0.2-0.1,0.3-0.2
			c0.4-0.3,0.8-0.7,1.1-1.1c0.7-0.8,1.1-1.6,1.4-2.5l0.2-0.6l0.8,0.1c0.8,0.1,1.5,0.2,2.3,0.2c0.8,0,1.6-0.1,2.4-0.2
			c0.8-0.1,1.6-0.3,2.4-0.5l0.6-0.2l0.6-0.2c0.4-0.1,0.8-0.3,1.1-0.4c0.4-0.1,0.7-0.3,1.1-0.4l0.5-0.2l0.3-0.1l0.3-0.1l0.5-0.2
			c0.2-0.1,0.3-0.2,0.5-0.3c0.4-0.2,0.7-0.3,1-0.5c0.3-0.2,0.7-0.4,1-0.6c0.3-0.2,0.6-0.4,1-0.6c0.3-0.2,0.6-0.4,0.9-0.6l0.4-0.3
			l0.4-0.3c0.6-0.4,1.1-0.9,1.6-1.4l0.4-0.4l0.2-0.2l0,0l0,0l0,0c0,0,0,0,0,0l0,0l0.1-0.1c0.2-0.3,0.5-0.5,0.7-0.8l0.3-0.4l0.3-0.4
			c0.2-0.3,0.3-0.5,0.5-0.8c0.1-0.1,0.1-0.3,0.2-0.4c0.1-0.1,0.1-0.3,0.2-0.4l0.2-0.4c0.1-0.1,0.1-0.3,0.2-0.4l0.1-0.4
			c0-0.1,0.1-0.3,0.1-0.4c0-0.1,0.1-0.3,0.1-0.4l0.1-0.4c0-0.1,0-0.3,0.1-0.4l0-0.4c0-0.3,0-0.6,0-0.9
			C358.9,383.9,358.9,383.6,358.9,383.3z M356.8,386.8c-0.2,1.5-0.8,3-1.9,4.3c-1.2,1.4-2.9,2.5-4.7,3.6c-3.5,2.2-7.7,3.9-12.5,3.4
			c-1.6-0.2-3.1-0.6-4.4-1.3c0.5,1.4,0.5,2.8-0.5,4.2c-1.8,2.8-6.4,4.5-10.4,5.2c-4.2,0.8-8.6,0.5-11.9-1.6
			c-1.8-1.1-3.3-2.5-4.9-3.7c-1.7-1.3-3.3-2.6-5-3.9c-1.5-1.2-3.4-2.4-4.3-3.8c-0.3-0.4-0.4-0.9-0.4-1.3c0,0,0,0,0,0
			c0-0.1-0.1-0.2-0.1-0.3l-0.1-0.2l0-0.2c-0.1-0.2-0.1-0.5-0.1-0.7c0-0.2,0-0.5,0-0.7c0-0.1,0-0.2,0.1-0.4c0-0.1,0-0.2,0.1-0.3
			c0-0.1,0.1-0.2,0.1-0.3c0-0.1,0.1-0.2,0.1-0.3c0.2-0.5,0.3-0.9,0.6-1.4c0.1-0.2,0.2-0.4,0.3-0.7c0.1-0.2,0.2-0.4,0.4-0.7l0.4-0.6
			l0.2-0.3l0.1-0.1l0,0l0,0l0.1-0.2l0.1-0.1l0.2,0l2.5,0.3l0,0l0,0c1.2,0.4,2.4,0.7,3.7,0.8c0.3,0,0.6,0,1,0c0.2,0,0.3,0,0.5,0
			l0.2,0l0.1,0l0.1,0c0.1,0,0.1,0,0.2,0c0.1,0,0.1,0,0.2,0c0.1,0,0.2-0.1,0.4-0.1c0.2-0.1,0.3-0.2,0.4-0.3c0-0.1-0.1-0.1-0.1-0.2
			c-0.2-0.2-0.3-0.4-0.5-0.5c-0.4-0.3-1.2-0.4-1.7-0.6c-1.6-0.4-3.1-0.8-4.4-1.6c-2.6-1.4-4.3-3.7-3.9-6.1c0.3-2,1.9-4,3.6-5.6
			c1.6-1.6,3.5-3,5.6-4.3c4.3-2.5,9.4-4.3,14.8-5.1c1.8-0.2,3.6-0.4,5.4-0.1c1.5,0.2,3,0.7,4.4,1.2c2.8,1,5.3,2.2,6.2,4.4
			c0.4,1.1,0.7,2.3,0.6,3.5c0,0,0,0,0,0l0,0.1l0,0c-0.2,1.2-1,2.3-1.7,3.4c-0.4,0.6-0.8,1.2-1.3,1.8c0.3,0,0.6,0,0.9-0.1
			c0.2-0.1,0.4-0.2,0.6-0.4c0.2-0.2,0.4-0.4,0.5-0.6c0.4-0.4,0.8-0.8,1.4-1.1c0.3-0.2,0.5-0.3,0.8-0.4l0.8-0.4
			c0.5-0.3,1.1-0.6,1.6-0.8c0.6-0.2,1.3-0.4,1.9-0.4c0.7,0,1.4,0.1,1.9,0.3c0.3,0.1,0.6,0.2,0.8,0.4c0.2,0.1,0.5,0.3,0.7,0.5
			c0.4,0.3,0.8,0.7,1.2,1c0.7,0.7,1.4,1.5,2,2.3c0.8,0.8,1.5,1.5,2.2,2.3c0.3,0.2,0.6,0.5,0.9,0.7
			C355.7,380.9,357.2,383.8,356.8,386.8z"/>
		<path id="XMLID_245_" class="st1" d="M308.2,384.2c0-0.2,0-0.4-0.1-0.6c-0.1-0.2-0.2-0.3-0.4-0.4c-0.2-0.1-0.4-0.2-0.7-0.2l-4-0.5
			l-0.1,0l-0.1,0c-1.2-0.5-2.2-1.1-3-1.9c-0.4-0.4-0.7-0.8-1-1.3c-0.1-0.2-0.3-0.4-0.4-0.7c-0.1-0.1-0.1-0.2-0.1-0.3l-0.1-0.2l0,0
			l0,0l0,0l0,0l0-0.1c-0.1-0.2-0.1-0.4-0.2-0.7l0-0.4l0-0.4c0-0.5,0.1-1,0.2-1.5c0.3-1,0.8-1.9,1.4-2.7c0.6-0.8,1.4-1.6,2.3-2.4
			c0.9-0.7,1.8-1.4,2.8-2.1c2-1.3,4.2-2.4,6.6-3.3c2.4-0.9,4.9-1.6,7.6-1.9c1.3-0.2,2.7-0.3,4-0.3c1.3,0,2.7,0.1,4,0.3
			c1.3,0.2,2.6,0.5,3.8,0.9c1.2,0.4,2.4,0.9,3.4,1.5c1,0.6,2,1.3,2.6,2.2c0.6,0.8,1.1,1.8,1,2.8l0,0c0,0,0,0,0,0
			c0.1-1.1-0.2-2.4-0.6-3.5c-0.9-2.2-3.4-3.5-6.2-4.4c-1.4-0.5-2.8-1-4.4-1.2c-1.8-0.3-3.6-0.1-5.4,0.1c-5.4,0.7-10.6,2.6-14.8,5.1
			c-2.1,1.3-4,2.7-5.6,4.3c-1.6,1.6-3.2,3.6-3.6,5.6c-0.4,2.4,1.3,4.6,3.9,6.1c1.3,0.7,2.8,1.1,4.4,1.6c0.6,0.2,1.3,0.3,1.7,0.6
			c0.2,0.1,0.4,0.3,0.5,0.5c0,0.1,0.1,0.1,0.1,0.2c0.1,0,0.1-0.1,0.1-0.1C308.1,384.6,308.2,384.4,308.2,384.2z"/>
		<path id="XMLID_244_" class="st1" d="M336.4,371.2c-0.4,0.3-0.7,0.7-1.1,1.1c-0.4,0.4-0.9,0.7-1.3,1c-0.2,0.2-0.4,0.3-0.5,0.5
			c-0.1,0.2-0.2,0.3-0.1,0.5c0,0.3,0.4,0.7,0.8,0.9c0.2,0.1,0.4,0.1,0.6,0.1c0.4-0.6,0.9-1.2,1.3-1.8c0.7-1.1,1.5-2.2,1.7-3.4
			l-0.1,0.1C337.2,370.5,336.7,370.8,336.4,371.2z"/>
		<path id="XMLID_243_" class="st1" d="M352.1,378c0.2,0.3,0.5,0.6,0.7,0.8c0.4,0.6,0.8,1.1,1.2,1.7c0.3,0.6,0.7,1.2,0.9,1.8
			c0.2,0.6,0.4,1.2,0.5,1.9c0.1,0.6,0.1,1.3,0.1,1.9c-0.1,0.6-0.2,1.3-0.5,1.9c-0.1,0.2-0.1,0.3-0.2,0.5l-0.1,0.2l-0.1,0.2l-0.1,0.2
			l-0.1,0.1l-0.1,0.1c-0.1,0.1-0.2,0.3-0.3,0.4c-0.4,0.6-0.9,1.1-1.5,1.7c-0.5,0.5-1.1,1-1.8,1.5c-1.3,1-2.7,1.8-4.3,2.5
			c-0.4,0.2-0.8,0.4-1.2,0.5c-0.4,0.2-0.8,0.3-1.2,0.5c-0.8,0.3-1.7,0.6-2.6,0.8c-0.9,0.2-1.9,0.4-2.8,0.4l-0.4,0l-0.4,0l-0.2,0
			l-0.2,0c-0.1,0-0.2,0-0.4,0c-0.5-0.1-1-0.2-1.4-0.3l-0.2-0.1l-0.1-0.2c-0.3-0.8-0.8-1.6-1.6-2.2c-0.2-0.2-0.4-0.3-0.7-0.4
			c-0.1-0.1-0.2-0.1-0.3-0.2l0,0l0,0l-0.1,0l-0.1,0l-0.1,0l0,0l-0.1,0c0,0,0,0-0.1,0l-0.1,0c-0.1,0-0.1,0-0.2,0c-0.1,0-0.1,0-0.2,0
			l-0.2,0c-0.2,0-0.5,0-0.7,0.1c-0.2,0.1-0.4,0.2-0.5,0.3c-0.1,0.1-0.2,0.3-0.2,0.4l0,0.1l0,0l0,0l0,0l0,0l0,0.1l0,0.1l0,0.1l0,0.2
			c0.1,0.2,0.1,0.4,0.2,0.6c0.3,0.8,1,1.6,1.9,2.1l0.2,0.1l0,0.2c0,0.8-0.3,1.6-0.8,2.4c-0.3,0.4-0.6,0.7-0.9,1
			c-0.1,0.1-0.2,0.2-0.3,0.2l-0.1,0.1l0,0l0,0l0,0l0,0l-0.1,0c-0.2,0.1-0.4,0.3-0.6,0.4l-0.7,0.4l-0.7,0.3c-0.2,0.1-0.5,0.2-0.7,0.3
			c-0.2,0.1-0.5,0.2-0.8,0.3c-1,0.3-2.1,0.6-3.1,0.7c-2.1,0.4-4.3,0.5-6.4,0.6c-0.5,0-1.1,0-1.6,0c-0.6,0-1.1-0.1-1.7-0.2
			c-0.1,0-0.1,0-0.2-0.1c0,0,0,0-0.1,0l0,0l-0.1,0c-0.1,0-0.3-0.1-0.4-0.1c-0.3-0.1-0.5-0.2-0.7-0.3c-0.4-0.2-0.8-0.5-1.2-0.8
			c-1.5-1-3-2.1-4.4-3.1l-4.4-3.1c-0.7-0.5-1.5-1-2.2-1.6c-0.7-0.5-1.5-1.1-2.1-1.6c-0.7-0.6-1.3-1.2-1.7-1.9c0,0,0-0.1-0.1-0.1
			c-0.1-0.2-0.2-0.4-0.3-0.6c0,0.5,0.2,0.9,0.4,1.3c1,1.5,2.8,2.6,4.3,3.8c1.6,1.3,3.3,2.6,5,3.9c1.6,1.2,3.2,2.6,4.9,3.7
			c3.3,2.1,7.7,2.4,11.9,1.6c4-0.7,8.5-2.5,10.4-5.2c1-1.4,1-2.8,0.5-4.2c1.2,0.7,2.8,1.2,4.4,1.3c4.8,0.5,9-1.3,12.5-3.4
			c1.7-1.1,3.4-2.2,4.7-3.6c1.1-1.3,1.7-2.8,1.9-4.3c0.4-3-1.1-5.9-3.8-8.1C352.7,378.5,352.4,378.2,352.1,378z"/>
	</g>
</g>
<g id="XMLID_2_">
	<g id="XMLID_41_">
		<path id="XMLID_183_" class="st0" d="M59.2,170.6c-0.3-0.2-0.6-0.4-0.9-0.6c-0.3-0.3-0.5-0.7-0.7-1.1c-0.1-0.4-0.2-0.9-0.1-1.3
			c0.1-0.4,0.2-0.7,0.4-1c-0.3,0.1-0.5,0.3-0.8,0.5C54.9,168.5,57,171.9,59.2,170.6z"/>
		<path id="XMLID_182_" class="st0" d="M60.5,164.8c0.2-0.1,0.4-0.3,0.6-0.4c0.2-0.1,0.4-0.3,0.6-0.4c-0.1,0-0.1,0.1-0.2,0.1
			C61.1,164.3,60.8,164.6,60.5,164.8z"/>
		<path id="XMLID_181_" class="st0" d="M27.1,171.1c0,0-0.1-0.1-0.1-0.1c0.2,0.4,0.3,0.8,0.3,1.1c0,0.5-0.1,0.9-0.3,1.4
			c-0.2,0.4-0.5,0.8-0.8,1.1c-0.3,0.3-0.7,0.5-1.2,0.6c0.1,0,0.2,0,0.3,0.1C27.5,175.9,29.3,172.5,27.1,171.1z"/>
		<path id="XMLID_180_" class="st0" d="M43,197.1c-0.2,0.7-0.3,1.4-0.3,2.1c0,0,0,0,0,0l0.1-0.3l0-0.2l0-0.1l0-0.1l0-0.1l0,0l0,0
			l0,0l0.1-0.3c0.2-0.5,0.5-0.9,0.9-1.2c0.4-0.3,0.9-0.5,1.4-0.5c0.4,0,0.9,0,1.3,0.2C45.6,195.2,43.5,195.2,43,197.1z"/>
		
			<rect id="XMLID_178_" x="75.8" y="176.3" transform="matrix(0.9873 -0.159 0.159 0.9873 -27.0777 14.3031)" class="st0" width="0" height="0"/>
		<path id="XMLID_166_" class="st0" d="M81.5,193.4c0.1-0.5,0.2-1,0.3-1.5l0.1-0.7l0.1-0.7c0.1-0.5,0.1-1,0.1-1.5c0-0.5,0-1,0-1.5
			l0,0c0,0.5-0.1,1-0.1,1.5c-0.1,0.5-0.1,1-0.2,1.5l-0.1,0.7l-0.2,0.7c-0.1,0.5-0.3,1-0.4,1.4c-0.1,0.5-0.3,0.9-0.5,1.4l-0.3,0.7
			c-0.1,0.2-0.2,0.5-0.3,0.7l-0.3,0.7c-0.1,0.2-0.2,0.4-0.3,0.6c-0.1,0.2-0.2,0.4-0.4,0.6l-0.4,0.6c-0.1,0.2-0.3,0.4-0.4,0.6
			l-0.4,0.6c-0.1,0.2-0.3,0.4-0.5,0.6c-0.2,0.2-0.3,0.4-0.5,0.6c-0.3,0.4-0.6,0.7-1,1.1l-0.5,0.5l-0.5,0.5c-0.3,0.3-0.7,0.6-1.1,0.9
			l-0.1,0.1l-0.1,0.1c0,0,0,0,0,0l0,0l0,0l0,0l-0.3,0.2l-0.6,0.4c-0.8,0.5-1.6,1.1-2.5,1.5l-0.6,0.3l-0.7,0.3
			c-0.4,0.2-0.9,0.4-1.3,0.6c-0.4,0.2-0.9,0.4-1.3,0.5c-0.5,0.2-0.9,0.3-1.4,0.5c-0.5,0.1-0.9,0.3-1.4,0.4c-0.2,0.1-0.5,0.1-0.7,0.2
			l-0.7,0.2l-0.4,0.1l-0.4,0.1l-0.7,0.1c-0.5,0.1-1,0.1-1.4,0.2c-0.5,0-1,0.1-1.4,0.1l-0.7,0l-0.7,0c-1,0-1.9,0-2.8-0.1
			c-0.9-0.1-1.8-0.4-2.7-0.7c-0.9-0.3-1.7-0.7-2.5-1.2l-0.8-0.5l-0.5,0.8c-0.8,1.3-1.7,2.4-2.9,3.4c-0.6,0.5-1.2,0.9-1.8,1.2
			c-0.2,0.1-0.3,0.2-0.5,0.2c-0.1,0-0.2,0.1-0.3,0.1l-0.3,0.1l-0.5,0.2c-0.2,0.1-0.4,0.1-0.5,0.2c-1.4,0.5-2.9,0.7-4.4,0.9
			c-0.8,0.1-1.5,0.1-2.3,0.1c-0.4,0-0.8,0-1.1-0.1c-0.2,0-0.4,0-0.6,0l-0.3,0l-0.3,0c-1.6-0.2-3.1-0.4-4.6-0.7
			c-1.5-0.3-3-0.7-4.4-1.2c-0.2-0.1-0.4-0.1-0.5-0.2l-0.1-0.1l-0.1-0.1l-0.3-0.1c-0.3-0.2-0.7-0.3-1-0.5c-0.6-0.4-1.2-0.8-1.8-1.3
			c-0.3-0.2-0.5-0.5-0.8-0.8l-0.2-0.2c-0.1-0.1-0.1-0.2-0.2-0.2c-0.1-0.1-0.2-0.3-0.3-0.5c-0.4-0.6-0.8-1.3-1.2-2
			c-0.4-0.7-0.7-1.4-1.1-2.1l-1.1-2.1l-2.2-4.2L9,194.1c-0.4-0.7-0.7-1.4-1.1-2.1l-1.2-2.1c-0.8-1.4-1.5-2.8-2-4.3
			c-0.5-1.2-0.8-2.5-0.9-3.8l0,0.4c0,0.2,0,0.3,0.1,0.5l0,0.3l0,0.3c0,0.2,0.1,0.4,0.1,0.5c0.1,0.7,0.3,1.4,0.5,2
			c0.2,0.7,0.4,1.3,0.7,2c0.3,0.7,0.6,1.3,0.8,1.9c0.6,1.3,1.3,2.5,1.9,3.8c-0.8-1.2-1.5-2.4-2.2-3.7c-0.7-1.3-1.3-2.6-1.8-3.9
			c-0.2-0.7-0.5-1.4-0.6-2.1c0-0.2-0.1-0.4-0.1-0.5l-0.1-0.3l0-0.3c0-0.2-0.1-0.4-0.1-0.5l0-0.1c0.1,1.3,0.3,2.5,0.7,3.7
			c0.5,1.6,1.2,3,1.9,4.5l1.1,2.1c0.4,0.7,0.7,1.4,1,2.1L10,199l2.1,4.3c0.7,1.4,1.4,2.9,2.1,4.3c0.4,0.7,0.8,1.4,1.3,2.1
			c0.1,0.2,0.2,0.3,0.4,0.5c0.1,0.1,0.1,0.2,0.2,0.2l0.2,0.3c0.3,0.3,0.6,0.7,0.9,1c0.6,0.6,1.3,1.1,2.1,1.6
			c0.4,0.2,0.7,0.4,1.1,0.6l0.3,0.1l0.2,0.1l0.1,0.1c0.2,0.1,0.4,0.2,0.6,0.2c1.6,0.6,3.1,1,4.8,1.4c1.6,0.3,3.2,0.6,4.8,0.8l0.3,0
			l0.3,0c0.2,0,0.4,0,0.6,0.1c0.4,0,0.8,0.1,1.2,0.1c0.8,0,1.7,0,2.5,0c1.7-0.1,3.3-0.4,4.9-1c0.2-0.1,0.4-0.1,0.6-0.2l0.6-0.2
			l0.3-0.1c0.1,0,0.2-0.1,0.3-0.1c0.2-0.1,0.4-0.2,0.6-0.3c0.8-0.4,1.5-0.9,2.1-1.5c1.1-0.9,2-2,2.8-3.1c0.7,0.4,1.4,0.7,2.1,0.9
			c1,0.3,2,0.6,3.1,0.7c1,0.1,2.1,0.2,3.1,0.1l0.7,0l0.8-0.1c0.5,0,1-0.1,1.5-0.2c0.5-0.1,1-0.2,1.5-0.3l0.7-0.2l0.4-0.1l0.4-0.1
			l0.7-0.2c0.2-0.1,0.5-0.1,0.7-0.2c0.5-0.1,1-0.3,1.4-0.5c0.5-0.2,0.9-0.4,1.4-0.5c0.5-0.2,0.9-0.4,1.4-0.6
			c0.5-0.2,0.9-0.4,1.4-0.7l0.7-0.4c0.2-0.1,0.4-0.3,0.7-0.4c0.9-0.5,1.7-1.1,2.5-1.7l0.6-0.5l0.3-0.2l0.1-0.1l0.1-0.1l0.1-0.1
			c0.4-0.3,0.8-0.6,1.1-1l0.6-0.5l0.5-0.6c0.4-0.4,0.7-0.8,1-1.2c0.2-0.2,0.3-0.4,0.5-0.6c0.1-0.2,0.3-0.4,0.4-0.6l0.4-0.6
			c0.1-0.2,0.3-0.4,0.4-0.7l0.4-0.7c0.1-0.2,0.2-0.5,0.3-0.7c0.1-0.2,0.2-0.5,0.3-0.7l0.3-0.7c0.1-0.2,0.2-0.5,0.3-0.7l0.2-0.7
			C81.2,194.4,81.4,193.9,81.5,193.4z"/>
		<path id="XMLID_165_" class="st0" d="M77.6,188.7c0.1-1.1,0-2.1,0-3.2c-0.1-1-0.2-2.1-0.4-3.1c-0.3-2.1-0.9-4.1-1.4-6.1l0,0
			c0.4,2,0.9,4.1,1.1,6.2c0.1,1,0.2,2.1,0.2,3.1c0,1,0,2.1-0.1,3.1c-0.1,1-0.3,2-0.5,3c-0.2,1-0.6,2-1,2.9c-0.4,0.9-0.9,1.8-1.5,2.6
			c-0.1,0.2-0.3,0.4-0.5,0.6l-0.2,0.3l-0.3,0.3l-0.3,0.3l-0.1,0.1l-0.1,0.1c-0.2,0.2-0.4,0.4-0.6,0.5c-0.7,0.7-1.6,1.3-2.4,1.9
			c-0.8,0.6-1.7,1.1-2.6,1.5c-1.8,0.9-3.8,1.6-5.8,2c-0.5,0.1-1,0.2-1.5,0.3c-0.5,0.1-1,0.2-1.5,0.2c-1,0.1-2,0.2-3,0.2
			c-1-0.1-2-0.2-2.9-0.5l-0.3-0.1l-0.3-0.2l-0.2-0.1l-0.2-0.1c-0.1-0.1-0.2-0.1-0.3-0.2c-0.3-0.2-0.6-0.4-0.9-0.7c0-0.1,0-0.2,0-0.3
			c0.1-1.4-0.1-2.9-0.7-4.2c-0.2-0.4-0.3-0.8-0.6-1.1c-0.1-0.2-0.2-0.3-0.3-0.5l-0.2-0.3l0-0.1l-0.1-0.1l-0.1-0.1
			c0,0-0.1-0.1-0.1-0.1l-0.1-0.1c-0.1-0.1-0.2-0.1-0.3-0.2c-0.1-0.1-0.2-0.1-0.3-0.2l-0.3-0.1c-0.1,0-0.1,0-0.2,0
			c-0.4-0.1-0.8-0.2-1.3-0.2c-0.5,0-1,0.2-1.4,0.5c-0.4,0.3-0.7,0.8-0.9,1.2l-0.1,0.3l0,0l0,0l0,0l0,0.1l0,0.1l0,0.1l0,0.2l-0.1,0.3
			c0,0,0,0,0,0c-0.1,0.4-0.1,0.8-0.1,1.2c-0.1,1.2,0.1,2.4,0.5,3.6c0.1,0.3,0.2,0.6,0.4,0.9c-0.4,0.9-0.9,1.8-1.6,2.6
			c-0.4,0.4-0.8,0.8-1.3,1.1c-0.1,0.1-0.2,0.1-0.4,0.2l-0.2,0.1l0,0l0,0l0,0l-0.1,0c-0.3,0.1-0.6,0.3-0.8,0.4l-0.8,0.3l-0.8,0.2
			l-0.9,0.2c-0.3,0-0.6,0.1-0.9,0.1c-1.2,0.1-2.4,0.1-3.5,0c-2.4-0.2-4.7-0.8-7.1-1.4c-1.2-0.3-2.3-0.7-3.2-1.3
			c-0.9-0.7-1.4-1.7-2-2.8l-3.3-6.5c-1.1-2.2-2.2-4.4-3.4-6.5c-0.6-1.1-1.1-2.2-1.7-3.3c-0.3-0.5-0.6-1.1-0.8-1.6
			c-0.3-0.5-0.5-1.1-0.8-1.7c-0.5-1.1-0.8-2.2-1-3.4c0-0.1,0-0.1,0-0.2c0-0.4,0-0.8,0-1.1c0-0.2,0-0.4,0.1-0.6l0-0.3l0.1-0.3
			c0.1-0.4,0.2-0.7,0.3-1.1c0.1-0.3,0.3-0.7,0.4-1c0.1-0.2,0.2-0.3,0.3-0.5c0.1-0.2,0.2-0.3,0.3-0.5c0.1-0.2,0.2-0.3,0.3-0.5
			c0.1-0.2,0.2-0.3,0.3-0.5c0.4-0.6,0.9-1.2,1.4-1.8c0.2-0.3,0.5-0.6,0.7-0.9c0.3-0.3,0.5-0.6,0.8-0.8l0.8-0.8l0.4-0.4l0.1-0.1l0,0
			l0.1,0l0,0l1.9,1.2l0.3,0.2c1.1,1.2,2.3,2.2,3.8,2.9c0.4,0.2,0.7,0.3,1.1,0.5c0.2,0.1,0.4,0.1,0.6,0.2l0.3,0.1l0.1,0l0.2,0
			c0.1,0,0.2,0,0.3,0.1c0.1,0,0.2,0,0.4,0c0.2,0,0.5,0,0.7-0.1c0,0,0,0,0,0c0.4-0.1,0.8-0.3,1.2-0.6c0.4-0.3,0.6-0.7,0.8-1.1
			c0.2-0.4,0.3-0.9,0.3-1.4c0-0.4-0.1-0.8-0.3-1.1c0-0.1-0.1-0.2-0.1-0.2c-0.3-0.4-0.6-0.7-1-1l-3-1.9l-0.9-0.5
			c-0.9-1-1.5-2.3-1.9-3.7c-0.2-0.7-0.3-1.4-0.3-2.1c0-0.4,0-0.7,0-1.1c0-0.2,0-0.4,0-0.5l0-0.3l0-0.1l0,0l0,0l0-0.1
			c0.1-0.4,0.1-0.8,0.2-1.1l0.1-0.5l0.2-0.5c0.2-0.7,0.6-1.3,0.9-1.9c0.8-1.2,1.7-2.3,2.8-3.3c1.1-1,2.3-1.9,3.5-2.6
			c1.2-0.8,2.6-1.4,3.9-2c2.7-1.2,5.6-2,8.5-2.4c2.9-0.4,5.9-0.5,8.8,0c2.9,0.5,5.7,1.5,8.2,3c1.2,0.8,2.4,1.7,3.5,2.7
			c1.1,1,2,2.2,2.8,3.4c0.8,1.2,1.3,2.6,1.6,4c0.2,1.3,0.2,2.7-0.2,4c-0.6,0.3-1.2,0.6-1.8,1c0,0,0,0-0.1,0
			c-0.4,0.3-0.8,0.6-1.1,0.9c-0.2,0.1-0.4,0.3-0.6,0.4c-0.2,0.1-0.4,0.3-0.6,0.4c-0.4,0.2-0.8,0.5-1.2,0.7c-0.3,0.2-0.7,0.4-1,0.8
			c-0.1,0.1-0.1,0.1-0.2,0.2c-0.2,0.3-0.4,0.6-0.4,1c-0.1,0.4-0.1,0.9,0.1,1.3c0.1,0.4,0.4,0.8,0.7,1.1c0.2,0.3,0.5,0.5,0.9,0.6
			c0.1,0,0.1,0.1,0.2,0.1c0.4,0.2,0.9,0.2,1.3,0.1c0.4-0.1,0.8-0.3,1.1-0.6c0.3-0.2,0.6-0.5,0.9-0.7c0.6-0.4,1.2-0.8,1.8-1.1
			c0.3-0.1,0.7-0.2,1-0.4l1-0.4c0.2-0.1,0.5-0.2,0.7-0.2c0.5-0.2,0.9-0.3,1.4-0.4l0.3,0l0.3,0c0.2,0,0.4,0,0.5,0
			c0.4,0,0.7,0.1,1,0.1c0.7,0.2,1.3,0.6,1.8,1.1c0.2,0.3,0.5,0.6,0.6,0.9c0.2,0.3,0.4,0.6,0.5,1c0.3,0.7,0.6,1.4,0.8,2.1
			c0.5,1.4,0.8,2.9,1.2,4.3l0,0c-0.3-1.4-0.6-2.9-1-4.3c-0.2-0.7-0.5-1.4-0.8-2.1c-0.1-0.3-0.3-0.7-0.5-1c-0.2-0.3-0.4-0.7-0.7-0.9
			c-0.5-0.6-1.2-1-1.9-1.3c-0.7-0.2-1.6-0.3-2.3-0.1c-0.8,0.1-1.5,0.3-2.2,0.6l-1.1,0.3c-0.4,0.1-0.7,0.2-1.1,0.3
			c-0.7,0.3-1.4,0.7-2,1.1c-0.3,0.2-0.6,0.5-0.9,0.7c-0.3,0.2-0.5,0.3-0.8,0.4c-0.6,0.1-1.2-0.1-1.6-0.6c-0.4-0.5-0.6-1.1-0.5-1.7
			c0.1-0.3,0.2-0.5,0.4-0.7c0.2-0.2,0.5-0.4,0.8-0.6c0.6-0.4,1.3-0.7,2-1.1c0.6-0.4,1.2-0.9,1.8-1.3c0.6-0.4,1.2-0.7,1.9-1l0.2-0.1
			l0.1-0.2c0.6-1.5,0.6-3.2,0.4-4.8c-0.3-1.6-0.9-3.1-1.7-4.4c-0.8-1.4-1.8-2.6-2.9-3.7c-1.1-1.1-2.3-2.1-3.7-2.9
			c-1.3-0.8-2.7-1.5-4.2-2.1c-1.5-0.5-3-0.9-4.5-1.2c-3.1-0.5-6.2-0.5-9.3,0c-3.1,0.4-6.1,1.3-8.9,2.5c-1.4,0.6-2.8,1.3-4.1,2.1
			c-1.3,0.8-2.6,1.8-3.7,2.8c-1.1,1.1-2.2,2.3-3,3.6c-0.4,0.7-0.8,1.4-1,2.2l-0.2,0.6l-0.2,0.6c-0.1,0.4-0.1,0.8-0.2,1.2l0,0.1l0,0
			l0,0l0,0l0,0.1l0,0.3c0,0.2,0,0.4,0,0.6c0,0.4,0,0.8,0,1.2c0.1,0.8,0.2,1.6,0.4,2.4c0.4,1.5,1.2,3,2.3,4.2l0.1,0.1l0.1,0l4,2.4
			c0.3,0.2,0.5,0.4,0.7,0.6c0.2,0.2,0.2,0.5,0.3,0.8c0,0.3-0.1,0.6-0.2,0.9c-0.1,0.3-0.3,0.6-0.6,0.8c-0.2,0.2-0.5,0.4-0.8,0.5
			c-0.1,0-0.3,0.1-0.5,0.1c-0.1,0-0.2,0-0.2,0c-0.1,0-0.1,0-0.2,0l-0.1,0l-0.1,0l-0.3-0.1c-0.2-0.1-0.4-0.1-0.5-0.2
			c-0.4-0.1-0.7-0.3-1-0.4c-1.4-0.6-2.6-1.5-3.6-2.7l0,0l0,0l-2.5-1.5l-0.2-0.1l-0.2,0.2l-0.2,0.2l-0.1,0l-0.1,0.1l-0.1,0.1
			l-0.4,0.4l-0.8,0.9c-0.3,0.3-0.5,0.6-0.8,0.9c-0.2,0.3-0.5,0.6-0.7,0.9c-0.5,0.6-0.9,1.2-1.3,1.9c-0.1,0.2-0.2,0.3-0.3,0.5
			c-0.1,0.2-0.2,0.3-0.3,0.5c-0.1,0.2-0.2,0.3-0.3,0.5c-0.1,0.2-0.2,0.3-0.2,0.5c-0.2,0.4-0.3,0.7-0.4,1.1c-0.1,0.4-0.2,0.7-0.3,1.1
			l-0.1,0.3l0,0.3c0,0.2,0,0.4,0,0.6c0,0.4,0,0.8,0,1.2c0,0.1,0,0.1,0,0.2c0.1,1.2,0.4,2.4,0.8,3.6c0.5,1.2,1,2.3,1.5,3.4
			c0.5,1.1,1,2.2,1.6,3.3l3.2,6.6c1.1,2.2,2.1,4.4,3.2,6.6c0.3,0.6,0.6,1.1,0.9,1.7c0.2,0.3,0.4,0.5,0.6,0.8
			c0.1,0.1,0.2,0.3,0.4,0.4l0.1,0.1l0,0c0,0,0,0,0.1,0.1c0.1,0.1,0.1,0.1,0.2,0.2c0.5,0.4,1.1,0.7,1.7,1c0.6,0.2,1.2,0.4,1.8,0.6
			c2.4,0.7,4.8,1.3,7.3,1.6c1.2,0.1,2.5,0.2,3.8,0.1c0.3,0,0.6-0.1,1-0.1c0.3-0.1,0.6-0.1,1-0.2l0.9-0.2l1-0.3
			c0.3-0.1,0.6-0.3,0.8-0.4l0.1,0l0,0l0,0l0,0l0.1,0l0.2-0.1c0.1-0.1,0.3-0.2,0.4-0.3c0.6-0.4,1.1-0.8,1.5-1.3
			c0.9-0.9,1.7-2.1,2.1-3.4l0.1-0.3l-0.1-0.3c-0.6-1.3-1-2.7-0.9-4.1c0-0.4,0.1-0.7,0.1-1l0-0.2l0-0.1l0-0.1l0-0.1l0-0.1l0,0l0,0
			l0,0l0.1-0.2c0.1-0.3,0.3-0.5,0.4-0.6c0.2-0.1,0.4-0.2,0.7-0.2c0.3,0,0.6,0,0.8,0.1l0.2,0.1c0.1,0,0.1,0.1,0.2,0.1
			c0.1,0,0.1,0.1,0.2,0.1l0.1,0.1c0,0,0,0,0.1,0.1l0.1,0.1l0,0l0,0.1l0.1,0.1l0,0.1l0,0l0,0c0.1,0.1,0.2,0.3,0.3,0.4
			c0.2,0.3,0.3,0.6,0.5,0.9c0.6,1.3,0.7,2.7,0.6,4.1l0,0.3l0.2,0.2c0.4,0.4,0.9,0.8,1.3,1.1c0.1,0.1,0.2,0.1,0.4,0.2l0.2,0.1
			l0.2,0.1l0.4,0.2l0.4,0.1c1.1,0.4,2.2,0.5,3.3,0.6c1.1,0,2.2-0.1,3.2-0.2c0.5-0.1,1.1-0.2,1.6-0.3c0.5-0.1,1-0.2,1.6-0.3
			c2.1-0.5,4.1-1.3,6-2.2c0.9-0.5,1.9-1,2.7-1.7c0.9-0.6,1.7-1.3,2.5-2c0.2-0.2,0.4-0.4,0.6-0.6l0.1-0.1l0.1-0.2l0.3-0.3l0.3-0.3
			l0.2-0.3c0.2-0.2,0.3-0.4,0.5-0.6c0.6-0.9,1.1-1.8,1.6-2.8c0.4-1,0.8-2,1-3.1C77.4,190.8,77.6,189.8,77.6,188.7z"/>
		<path id="XMLID_154_" class="st0" d="M3.3,182.9l0,0.3l0.1,0.3c0,0.2,0.1,0.3,0.1,0.5c0.2,0.7,0.4,1.4,0.6,2.1
			c0.5,1.4,1.1,2.7,1.8,3.9c0.7,1.3,1.4,2.5,2.2,3.7c-0.7-1.3-1.3-2.5-1.9-3.8c-0.3-0.6-0.6-1.3-0.8-1.9c-0.3-0.7-0.5-1.3-0.7-2
			c-0.2-0.7-0.4-1.4-0.5-2c0-0.2-0.1-0.3-0.1-0.5l0-0.3l0-0.3c0-0.2,0-0.3-0.1-0.5l0-0.4l0-0.1c0-0.7,0-1.4,0.1-2.1
			c0.1-0.7,0.2-1.4,0.4-2c0.2-0.7,0.4-1.3,0.7-1.9c0.3-0.6,0.6-1.3,0.9-1.8c0.2-0.3,0.4-0.6,0.5-0.9l0.3-0.4
			c0.1-0.1,0.2-0.3,0.3-0.4c0.4-0.6,0.8-1.1,1.3-1.6c0.5-0.5,0.9-1.1,1.4-1.6l0.7-0.8l0.7-0.8c0.5-0.5,1-1,1.5-1.4
			c0.5-0.4,1-0.7,1.6-0.7l0.7-0.1l-0.2-0.7c-0.3-1.6-0.4-3.3-0.3-4.9c0-0.4,0.1-0.8,0.2-1.2c0-0.2,0.1-0.4,0.1-0.6
			c0-0.2,0.1-0.4,0.2-0.6l0.2-0.6c0.1-0.2,0.1-0.4,0.2-0.6l0.2-0.6c0.1-0.2,0.2-0.4,0.3-0.6c0.7-1.5,1.6-2.9,2.7-4.2
			c1.1-1.3,2.3-2.4,3.7-3.4c1.3-1,2.8-1.9,4.2-2.7c0.2-0.1,0.4-0.2,0.6-0.3l0.6-0.3l0.3-0.1l0.1-0.1l0.1-0.1l0.6-0.3l0.6-0.3
			l0.6-0.2l0.6-0.2l0.6-0.2c1.6-0.6,3.2-1.1,4.9-1.5c1.6-0.4,3.3-0.7,5-0.8c1.7-0.2,3.4-0.2,5-0.1c0.4,0,0.8,0.1,1.2,0.1l0.6,0.1
			l0.6,0.1l0.6,0.1l0.6,0.1l0.6,0.1c0.2,0,0.4,0.1,0.6,0.1c1.6,0.4,3.2,0.9,4.8,1.6c1.5,0.7,3,1.5,4.4,2.4c1.4,0.9,2.7,2,3.8,3.3
			l0.8,0.9l0.8,1c0.2,0.3,0.5,0.7,0.7,1.1l0.1,0.1l0.1,0.1l0.2,0.3c0.1,0.2,0.2,0.4,0.3,0.5c0.8,1.4,1.3,3,1.6,4.6
			c0.3,1.6,0.3,3.3-0.1,4.9l-0.2,1l0.9-0.1c0.2,0,0.3,0,0.5,0c0.2,0,0.3,0,0.5,0c0.3,0,0.6,0,0.9,0.1c0.3,0,0.6,0.1,0.9,0.2
			c0.3,0.1,0.6,0.2,0.9,0.3c0.3,0.1,0.6,0.3,0.8,0.4c0.3,0.2,0.5,0.3,0.8,0.5c0.5,0.3,1,0.8,1.4,1.2c0.4,0.4,0.8,1,1.2,1.5l0.2,0.4
			c0.1,0.1,0.2,0.3,0.2,0.4l0.1,0.2l0.1,0.2c0.1,0.1,0.1,0.3,0.2,0.4c0.5,1.2,1,2.4,1.3,3.7c0.4,1.3,0.7,2.6,1,3.9
			c0.3,1.3,0.6,2.6,0.9,3.9c0.3,1.3,0.5,2.6,0.7,3.9c0.2,1.3,0.3,2.7,0.3,4c0-0.1,0-0.2,0-0.3c0.1-1.2,0-2.5,0-3.7
			c-0.1-1.3-0.2-2.7-0.4-4c-0.2-1.3-0.4-2.6-0.7-4c-0.3-1.3-0.5-2.6-0.8-3.9c-0.2-0.7-0.3-1.3-0.5-2c-0.2-0.6-0.4-1.3-0.7-1.9
			c-0.1-0.2-0.1-0.3-0.2-0.5l-0.1-0.2l-0.1-0.2c-0.1-0.1-0.1-0.3-0.2-0.4l-0.3-0.5c-0.4-0.6-0.8-1.2-1.3-1.7c-0.5-0.5-1-1-1.6-1.4
			c-0.3-0.2-0.6-0.4-0.9-0.6c-0.3-0.2-0.6-0.3-1-0.5c-0.3-0.2-0.7-0.3-1-0.4c-0.3-0.1-0.7-0.2-1-0.2c-0.4-0.1-0.7-0.1-1.1-0.1
			c-0.1,0-0.1,0-0.2,0c0.3-1.5,0.3-3.1,0-4.6c-0.3-1.8-0.8-3.5-1.7-5.2c-0.1-0.2-0.2-0.4-0.3-0.6l-0.2-0.3l-0.1-0.1l-0.1-0.2
			c-0.2-0.4-0.5-0.7-0.7-1.1l-0.8-1.1l-0.9-1c-1.2-1.3-2.6-2.5-4-3.6c-1.5-1-3-1.9-4.7-2.6c-1.6-0.7-3.3-1.3-5.1-1.7
			c-0.2-0.1-0.4-0.1-0.7-0.2l-0.7-0.1l-0.7-0.1l-0.6-0.1l-0.6-0.1l-0.7-0.1c-0.5,0-0.9-0.1-1.3-0.1c-1.8-0.1-3.6-0.1-5.3,0.1
			c-1.8,0.2-3.5,0.5-5.3,0.9c-1.7,0.4-3.4,0.9-5.1,1.5l-0.6,0.2l-0.6,0.3l-0.6,0.3l-0.6,0.3l-0.6,0.3l-0.1,0l-0.1,0l-0.1,0.1
			l-0.3,0.1l-0.6,0.3c-0.2,0.1-0.4,0.2-0.6,0.3c-1.6,0.8-3.1,1.8-4.5,2.9c-1.4,1.1-2.7,2.3-3.9,3.7c-1.2,1.4-2.1,2.9-2.9,4.6
			c-0.1,0.2-0.2,0.4-0.3,0.6l-0.2,0.6c-0.1,0.2-0.2,0.4-0.2,0.6l-0.2,0.7c-0.1,0.2-0.1,0.4-0.2,0.7c0,0.2-0.1,0.4-0.1,0.7
			c-0.1,0.5-0.1,0.9-0.2,1.4c-0.1,1.6,0,3.2,0.3,4.7c-0.6,0.2-1.1,0.5-1.5,0.9c-0.6,0.5-1.1,1-1.6,1.6l-0.7,0.8L8.9,168
			c-0.5,0.5-0.9,1.1-1.4,1.7c-0.4,0.6-0.9,1.2-1.3,1.8c-0.1,0.2-0.2,0.3-0.3,0.5l-0.3,0.5c-0.2,0.3-0.4,0.6-0.5,1
			c-0.4,0.6-0.7,1.3-0.9,2c-0.3,0.7-0.5,1.4-0.7,2.1c-0.2,0.7-0.3,1.4-0.4,2.2c-0.1,0.7-0.1,1.5,0,2.2l0,0.4l0,0.1
			C3.2,182.5,3.2,182.7,3.3,182.9z"/>
		<g id="XMLID_44_">
			<path id="XMLID_150_" class="st0" d="M73.5,185.3c0.1,4.4-1,8.8-4.1,12.1c-2.1,2.2-4.7,3.9-7.4,5c-0.1,0.8-0.2,1.6-0.3,2.5
				c1.8-0.5,3.6-1.1,5.3-1.9c0.9-0.5,1.8-1,2.6-1.5c0.8-0.6,1.7-1.2,2.4-1.9c0.2-0.2,0.4-0.4,0.6-0.5l0.1-0.1l0.1-0.1l0.3-0.3
				l0.3-0.3l0.2-0.3c0.2-0.2,0.3-0.4,0.5-0.6c0.6-0.8,1.1-1.7,1.5-2.6c0.4-0.9,0.8-1.9,1-2.9c0.3-1,0.4-2,0.5-3
				c0.1-1,0.1-2.1,0.1-3.1c0-0.6,0-1.2-0.1-1.8c-0.8,0.3-1.6,0.6-2.4,0.9C74.3,184.9,73.9,185.1,73.5,185.3z"/>
			<path id="XMLID_145_" class="st0" d="M13,185.5c-0.4-0.8-0.7-1.7-0.8-2.5c-1-0.1-2-0.2-3-0.3c0.2,0.8,0.4,1.5,0.8,2.2
				c0.2,0.6,0.5,1.1,0.8,1.7c0.3,0.5,0.5,1.1,0.8,1.6c0.6,1.1,1.1,2.2,1.7,3.3c0.7,1.3,1.3,2.6,2,3.9c0.3-0.9,0.7-1.7,1.2-2.5
				C15.2,190.4,14,188,13,185.5z"/>
			<path id="XMLID_144_" class="st0" d="M34.9,208.6c-3.1,0.1-6.3-0.7-9-1.4c-0.8-0.2-1.7-0.5-2.4-1c-0.3,0.5-0.7,1-1,1.6
				c0.7,0.4,1.6,0.6,2.5,0.9c2.3,0.6,4.7,1.2,7.1,1.4c1.1,0.1,2.1,0.1,3.2,0.1c-0.1-0.4-0.1-0.8-0.2-1.2
				C35,208.8,35,208.7,34.9,208.6z"/>
			<path id="XMLID_142_" class="st0" d="M30,150.5c8.9-5,21.5-6,29,1.7c0,0,0,0,0.1,0.1c0.4-0.6,0.9-1.1,1.3-1.6
				c-1-1-2.2-1.9-3.4-2.6c-2.5-1.5-5.3-2.5-8.2-3c-2.9-0.5-5.9-0.4-8.8,0c-2.9,0.4-5.8,1.2-8.5,2.4c-1.3,0.6-2.6,1.2-3.8,1.9
				c0.3,0.7,0.6,1.3,0.9,2C29.1,151.1,29.5,150.8,30,150.5z"/>
			<path id="XMLID_139_" class="st0" d="M12.4,178.3c0.9-2.6,2.8-4.9,4.7-6.9l-1.9-1.2l0,0l-0.1,0l0,0l-0.1,0.1l-0.4,0.4l-0.8,0.8
				c-0.3,0.3-0.5,0.6-0.8,0.8c-0.3,0.3-0.5,0.6-0.7,0.9c-0.5,0.6-0.9,1.2-1.4,1.8c-0.1,0.2-0.2,0.3-0.3,0.5
				c-0.1,0.2-0.2,0.3-0.3,0.5c-0.1,0.2-0.2,0.3-0.3,0.5c-0.1,0.2-0.2,0.3-0.3,0.5c-0.2,0.3-0.3,0.7-0.4,1c-0.1,0.4-0.2,0.7-0.3,1.1
				L9,179.4l0,0.3c0,0.2,0,0.4-0.1,0.6c0,0.4,0,0.7,0,1.1c0,0.1,0,0.1,0,0.2c0,0.4,0.1,0.8,0.2,1.2c1,0.1,2,0.2,3,0.3
				C11.8,181.5,11.8,179.9,12.4,178.3z"/>
			<path id="XMLID_138_" class="st0" d="M58,203.6c-2.5,0.6-5.4,1-7.9,0c0,0.1,0,0.2,0,0.3c0.3,0.3,0.6,0.5,0.9,0.7
				c0.1,0.1,0.2,0.1,0.3,0.2l0.2,0.1l0.2,0.1l0.3,0.2l0.3,0.1c0.9,0.3,1.9,0.5,2.9,0.5c1,0,2,0,3-0.2c0.5-0.1,1-0.2,1.5-0.2
				c0.5-0.1,1-0.2,1.5-0.3c0.2,0,0.3-0.1,0.5-0.1c0.1-0.8,0.2-1.6,0.3-2.5C60.6,202.9,59.3,203.3,58,203.6z"/>
			<path id="XMLID_100_" class="st0" d="M75.8,176.3L75.8,176.3L75.8,176.3c-0.4-1.4-0.7-2.9-1.2-4.3c-0.2-0.7-0.5-1.4-0.8-2.1
				c-0.2-0.3-0.3-0.6-0.5-1c-0.2-0.3-0.4-0.6-0.6-0.9c-0.5-0.5-1.1-0.9-1.8-1.1c-0.3-0.1-0.7-0.1-1-0.1c-0.2,0-0.4,0-0.5,0l-0.3,0
				l-0.3,0c-0.5,0.1-0.9,0.2-1.4,0.4c1.1,0.2,2.1,0.8,2.7,2c1.1,2.1,1.6,4.5,2.1,6.8c0.6,2.6,1.1,5.2,1.3,7.9c0,0.4,0,0.8,0,1.2
				c0.4-0.2,0.8-0.4,1.2-0.6c0.8-0.3,1.6-0.6,2.4-0.9c0-0.4-0.1-0.9-0.1-1.3C76.7,180.4,76.3,178.4,75.8,176.3z"/>
			<path id="XMLID_83_" class="st0" d="M24,152.1c-1.1,1-2,2.1-2.8,3.3c-0.4,0.6-0.7,1.3-0.9,1.9l-0.2,0.5l-0.1,0.5
				c-0.1,0.3-0.1,0.7-0.2,1.1l0,0.1l0,0l0,0l0,0.1l0,0.3c0,0.2,0,0.4,0,0.5c0,0.4,0,0.7,0,1.1c0,0.7,0.2,1.4,0.3,2.1
				c0.4,1.4,1,2.7,1.9,3.7l0.9,0.5c-1.2-1.9-1.6-4.4-1.4-6.7c0.5-4.2,3.7-7.6,7.2-9.9c-0.3-0.7-0.6-1.3-0.9-2c0,0-0.1,0.1-0.1,0.1
				C26.2,150.2,25.1,151.1,24,152.1z"/>
			<path id="XMLID_74_" class="st0" d="M63,159.2c0.2,1.3,0.2,2.6-0.2,3.9c0,0,0,0,0.1,0c0.6-0.4,1.2-0.7,1.8-1
				c0.4-1.3,0.4-2.6,0.2-4c-0.3-1.4-0.8-2.8-1.6-4c-0.8-1.2-1.7-2.4-2.8-3.4c0,0,0,0-0.1-0.1c-0.5,0.5-0.9,1.1-1.3,1.6
				C61,154.2,62.5,156.5,63,159.2z"/>
			<path id="XMLID_73_" class="st0" d="M22.9,205.7c-0.9-0.8-1.4-2-1.9-3.1c-1.4-2.9-2.7-5.7-4.1-8.6c-0.2-0.4-0.4-0.8-0.5-1.1
				c-0.5,0.7-1,1.6-1.2,2.5c0.5,0.9,0.9,1.8,1.4,2.7l3.3,6.5c0.5,1.1,1.1,2.1,2,2.8c0.2,0.2,0.4,0.3,0.7,0.4c0.4-0.5,0.7-1,1-1.6
				C23.3,206,23.1,205.9,22.9,205.7z"/>
			<path id="XMLID_47_" class="st0" d="M36.5,210l0.9-0.2l0.8-0.2l0.8-0.3c0.3-0.1,0.6-0.3,0.8-0.4l0.1,0l0,0l0,0l0,0l0.2-0.1
				c0.1-0.1,0.2-0.1,0.4-0.2c0.5-0.3,0.9-0.7,1.3-1.1c0.7-0.7,1.3-1.6,1.6-2.6c-0.1-0.3-0.3-0.6-0.4-0.9c-0.7,1.4-1.9,2.6-3.2,3.3
				c-1.5,0.8-3.2,1.2-4.9,1.2c0,0.1,0.1,0.2,0.1,0.4c0.1,0.4,0.1,0.8,0.2,1.2c0.1,0,0.2,0,0.4,0C35.9,210.1,36.2,210,36.5,210z"/>
		</g>
	</g>
	<g id="XMLID_20_">
		<path id="XMLID_30_" class="st1" d="M81.5,191.9l0.2-0.7l0.1-0.7c0.1-0.5,0.2-1,0.2-1.5c0.1-0.5,0.1-1,0.1-1.5l0,0
			c0-0.1,0-0.2,0-0.3c0,0.1,0,0.2,0,0.3c0-1.3-0.1-2.7-0.3-4c-0.2-1.3-0.4-2.6-0.7-3.9c-0.3-1.3-0.6-2.6-0.9-3.9
			c-0.3-1.3-0.6-2.6-1-3.9c-0.4-1.3-0.8-2.5-1.3-3.7c-0.1-0.1-0.1-0.3-0.2-0.4l-0.1-0.2l-0.1-0.2c-0.1-0.1-0.2-0.3-0.2-0.4l-0.2-0.4
			c-0.4-0.5-0.7-1-1.2-1.5c-0.4-0.5-0.9-0.9-1.4-1.2c-0.3-0.2-0.5-0.3-0.8-0.5c-0.3-0.1-0.6-0.3-0.8-0.4c-0.3-0.1-0.6-0.2-0.9-0.3
			c-0.3-0.1-0.6-0.1-0.9-0.2c-0.3-0.1-0.6-0.1-0.9-0.1c-0.2,0-0.3,0-0.5,0c-0.2,0-0.3,0-0.5,0l-0.9,0.1l0.2-1
			c0.4-1.6,0.4-3.2,0.1-4.9c-0.3-1.6-0.8-3.2-1.6-4.6c-0.1-0.2-0.2-0.4-0.3-0.5l-0.2-0.3l-0.1-0.1l-0.1-0.1
			c-0.2-0.4-0.5-0.7-0.7-1.1l-0.8-1l-0.8-0.9c-1.1-1.2-2.4-2.3-3.8-3.3c-1.4-0.9-2.9-1.7-4.4-2.4c-1.5-0.7-3.1-1.2-4.8-1.6
			c-0.2,0-0.4-0.1-0.6-0.1l-0.6-0.1l-0.6-0.1l-0.6-0.1l-0.6-0.1l-0.6-0.1c-0.4,0-0.8-0.1-1.2-0.1c-1.7-0.1-3.4-0.1-5,0.1
			c-1.7,0.2-3.4,0.4-5,0.8c-1.6,0.4-3.3,0.9-4.9,1.5l-0.6,0.2l-0.6,0.2l-0.6,0.2l-0.6,0.3l-0.6,0.3l-0.1,0.1l-0.1,0.1l-0.3,0.1
			l-0.6,0.3c-0.2,0.1-0.4,0.2-0.6,0.3c-1.5,0.8-2.9,1.7-4.2,2.7c-1.3,1-2.6,2.2-3.7,3.4c-1.1,1.3-2,2.7-2.7,4.2
			c-0.1,0.2-0.2,0.4-0.3,0.6l-0.2,0.6c-0.1,0.2-0.1,0.4-0.2,0.6l-0.2,0.6c-0.1,0.2-0.1,0.4-0.2,0.6c0,0.2-0.1,0.4-0.1,0.6
			c-0.1,0.4-0.1,0.8-0.2,1.2c-0.2,1.6-0.1,3.3,0.3,4.9l0.2,0.7l-0.7,0.1c-0.6,0.1-1.1,0.4-1.6,0.7c-0.5,0.4-1,0.9-1.5,1.4l-0.7,0.8
			l-0.7,0.8c-0.5,0.5-0.9,1-1.4,1.6c-0.5,0.5-0.9,1.1-1.3,1.6c-0.1,0.1-0.2,0.3-0.3,0.4L6.5,173c-0.2,0.3-0.4,0.6-0.5,0.9
			c-0.4,0.6-0.7,1.2-0.9,1.8c-0.3,0.6-0.5,1.3-0.7,1.9c-0.2,0.7-0.3,1.3-0.4,2c-0.1,0.7-0.1,1.4-0.1,2.1l0,0.1
			c0.1,1.3,0.4,2.6,0.9,3.8c0.6,1.5,1.3,2.9,2,4.3l1.2,2.1c0.4,0.7,0.8,1.4,1.1,2.1l2.2,4.2l2.2,4.2l1.1,2.1
			c0.4,0.7,0.7,1.4,1.1,2.1c0.4,0.7,0.8,1.3,1.2,2c0.1,0.2,0.2,0.3,0.3,0.5c0.1,0.1,0.1,0.2,0.2,0.2l0.2,0.2
			c0.2,0.3,0.5,0.5,0.8,0.8c0.5,0.5,1.1,0.9,1.8,1.3c0.3,0.2,0.6,0.4,1,0.5l0.3,0.1l0.1,0.1l0.1,0.1c0.2,0.1,0.4,0.2,0.5,0.2
			c1.4,0.5,2.9,0.9,4.4,1.2c1.5,0.3,3.1,0.5,4.6,0.7l0.3,0l0.3,0c0.2,0,0.4,0,0.6,0c0.4,0,0.8,0,1.1,0.1c0.8,0,1.5,0,2.3-0.1
			c1.5-0.1,3-0.4,4.4-0.9c0.2-0.1,0.4-0.1,0.5-0.2l0.5-0.2l0.3-0.1c0.1,0,0.2-0.1,0.3-0.1c0.2-0.1,0.3-0.1,0.5-0.2
			c0.6-0.4,1.3-0.8,1.8-1.2c1.1-1,2.1-2.1,2.9-3.4l0.5-0.8l0.8,0.5c0.8,0.5,1.6,0.9,2.5,1.2c0.9,0.3,1.8,0.5,2.7,0.7
			c0.9,0.1,1.9,0.2,2.8,0.1l0.7,0l0.7,0c0.5,0,1-0.1,1.4-0.1c0.5-0.1,1-0.1,1.4-0.2l0.7-0.1l0.4-0.1l0.4-0.1l0.7-0.2
			c0.2-0.1,0.5-0.1,0.7-0.2c0.5-0.1,0.9-0.3,1.4-0.4c0.5-0.1,0.9-0.3,1.4-0.5c0.5-0.2,0.9-0.4,1.3-0.5c0.4-0.2,0.9-0.4,1.3-0.6
			l0.7-0.3l0.6-0.3c0.9-0.5,1.7-1,2.5-1.5l0.6-0.4l0.3-0.2l0,0l0,0l0,0c0,0,0,0,0,0l0.1-0.1l0.1-0.1c0.4-0.3,0.8-0.6,1.1-0.9
			l0.5-0.5l0.5-0.5c0.3-0.3,0.7-0.7,1-1.1c0.2-0.2,0.3-0.4,0.5-0.6c0.1-0.2,0.3-0.4,0.5-0.6l0.4-0.6c0.1-0.2,0.3-0.4,0.4-0.6L79,198
			c0.1-0.2,0.2-0.4,0.4-0.6c0.1-0.2,0.2-0.4,0.3-0.6L80,196c0.1-0.2,0.2-0.4,0.3-0.7l0.3-0.7c0.2-0.5,0.3-0.9,0.5-1.4
			C81.2,192.8,81.4,192.4,81.5,191.9z M77.5,196.5c-1,2.3-2.4,4.4-4.4,6c-2.1,1.7-4.5,2.8-7,3.8c-5,2-10.5,3-15.4,0.4
			c-1.6-0.9-3.1-2.2-4-3.8c-0.2,2.4-1,4.6-2.8,6.4c-3.4,3.6-9.3,4.5-14,4c-5-0.5-9.6-2.7-12.1-7.2c-1.3-2.5-2.3-5.2-3.4-7.8
			c-1.1-2.7-2.3-5.3-3.4-8c-1-2.5-2.4-5-2.7-7.7c-0.1-0.8,0-1.6,0.2-2.3c0,0,0,0,0,0c0-0.2,0-0.4,0-0.6l0-0.3l0.1-0.3
			c0.1-0.4,0.2-0.8,0.3-1.1c0.1-0.4,0.2-0.7,0.4-1.1c0.1-0.2,0.2-0.4,0.2-0.5c0.1-0.2,0.2-0.3,0.3-0.5c0.1-0.2,0.2-0.3,0.3-0.5
			c0.1-0.2,0.2-0.3,0.3-0.5c0.4-0.7,0.9-1.3,1.3-1.9c0.2-0.3,0.5-0.6,0.7-0.9c0.2-0.3,0.5-0.6,0.8-0.9l0.8-0.9l0.4-0.4l0.1-0.1
			l0.1-0.1l0.1,0l0.2-0.2l0.2-0.2l0.2,0.1l2.5,1.5l0,0l0,0c1,1.1,2.3,2,3.6,2.7c0.3,0.2,0.7,0.3,1,0.4c0.2,0.1,0.4,0.1,0.5,0.2
			l0.3,0.1l0.1,0l0.1,0c0.1,0,0.2,0,0.2,0c0.1,0,0.2,0,0.2,0c0.2,0,0.3,0,0.5-0.1c0.2-0.1,0.4-0.2,0.6-0.3c0-0.1,0-0.2,0-0.3
			c-0.1-0.3-0.1-0.7-0.3-1c-0.3-0.6-1-1.2-1.6-1.6c-1.5-1.3-2.9-2.5-3.9-4.2c-2.1-3.3-2.7-7.4-1-11c1.4-3,4.2-5.4,6.9-7.4
			c2.6-1.9,5.4-3.4,8.4-4.5c6-2.2,12.5-3,18.8-2c2.1,0.3,4.1,0.8,6,2c1.5,1,2.9,2.3,4.1,3.6c2.6,2.6,4.6,5.6,4.4,9.4
			c-0.1,1.8-0.5,3.9-1.2,5.6c0,0,0,0,0,0.1l-0.1,0.2l0,0c-0.8,1.8-2.3,3.2-3.7,4.6c-0.8,0.8-1.6,1.6-2.4,2.3c0.3,0.2,0.7,0.2,1,0.1
			c0.3-0.1,0.6-0.2,0.8-0.4c0.3-0.2,0.6-0.5,0.9-0.7c0.6-0.4,1.3-0.9,2-1.1c0.4-0.1,0.7-0.2,1.1-0.3l1.1-0.3
			c0.7-0.2,1.4-0.4,2.2-0.6c0.7-0.1,1.6-0.1,2.3,0.1c0.8,0.2,1.4,0.7,1.9,1.3c0.3,0.3,0.5,0.6,0.7,0.9c0.2,0.3,0.3,0.7,0.5,1
			c0.3,0.7,0.5,1.4,0.8,2.1c0.4,1.4,0.7,2.9,1,4.3c0.4,1.5,0.8,3,1.1,4.5c0.2,0.5,0.5,1,0.7,1.5C79.4,186.8,79.5,192,77.5,196.5z"/>
		<path id="XMLID_29_" class="st1" d="M26,173.1c0.1-0.3,0.2-0.6,0.2-0.9c0-0.3-0.1-0.6-0.3-0.8c-0.2-0.2-0.4-0.5-0.7-0.6l-4-2.4
			l-0.1,0l-0.1-0.1c-1.1-1.2-1.8-2.7-2.3-4.2c-0.2-0.8-0.3-1.6-0.4-2.4c0-0.4,0-0.8,0-1.2c0-0.2,0-0.4,0-0.6l0-0.3l0-0.1l0,0l0,0
			l0,0l0-0.1c0.1-0.4,0.1-0.7,0.2-1.2l0.2-0.6l0.2-0.6c0.3-0.8,0.6-1.5,1-2.2c0.8-1.4,1.9-2.6,3-3.6c1.1-1.1,2.4-2,3.7-2.8
			c1.3-0.8,2.7-1.5,4.1-2.1c2.8-1.2,5.8-2.1,8.9-2.5c3.1-0.4,6.2-0.5,9.3,0c1.5,0.3,3.1,0.6,4.5,1.2c1.5,0.5,2.9,1.2,4.2,2.1
			c1.3,0.8,2.5,1.8,3.7,2.9c1.1,1.1,2.1,2.3,2.9,3.7c0.8,1.4,1.4,2.9,1.7,4.4c0.3,1.6,0.2,3.2-0.4,4.8l0,0c0,0,0,0,0-0.1
			c0.7-1.7,1.1-3.8,1.2-5.6c0.2-3.8-1.8-6.8-4.4-9.4c-1.3-1.3-2.6-2.6-4.1-3.6c-1.8-1.1-3.9-1.6-6-2c-6.3-1-12.8-0.2-18.8,2
			c-3,1.1-5.8,2.6-8.4,4.5c-2.7,1.9-5.4,4.4-6.9,7.4c-1.7,3.5-1.1,7.7,1,11c1.1,1.7,2.5,2.9,3.9,4.2c0.5,0.5,1.2,1,1.6,1.6
			c0.2,0.3,0.2,0.7,0.3,1c0,0.1,0,0.2,0,0.3c0.1-0.1,0.2-0.1,0.2-0.2C25.6,173.6,25.8,173.4,26,173.1z"/>
		<path id="XMLID_28_" class="st1" d="M63.5,163.9c-0.6,0.4-1.1,0.9-1.8,1.3c-0.7,0.4-1.3,0.8-2,1.1c-0.3,0.2-0.6,0.4-0.8,0.6
			c-0.2,0.2-0.4,0.5-0.4,0.7c-0.1,0.6,0,1.2,0.5,1.7c0.2,0.2,0.4,0.3,0.6,0.4c0.8-0.8,1.6-1.5,2.4-2.3c1.3-1.4,2.8-2.8,3.7-4.6
			l-0.2,0.1C64.7,163.2,64,163.6,63.5,163.9z"/>
		<path id="XMLID_27_" class="st1" d="M76.9,180.8c0.1,0.5,0.2,1.1,0.3,1.6c0.2,1,0.3,2.1,0.4,3.1c0.1,1.1,0.1,2.1,0,3.2
			c-0.1,1.1-0.2,2.1-0.4,3.2c-0.2,1-0.5,2.1-1,3.1c-0.4,1-0.9,1.9-1.6,2.8c-0.1,0.2-0.3,0.4-0.5,0.6l-0.2,0.3l-0.3,0.3l-0.3,0.3
			l-0.1,0.2l-0.1,0.1c-0.2,0.2-0.4,0.4-0.6,0.6c-0.8,0.8-1.6,1.4-2.5,2c-0.9,0.6-1.8,1.2-2.7,1.7c-1.9,1-3.9,1.7-6,2.2
			c-0.5,0.1-1,0.2-1.6,0.3c-0.5,0.1-1.1,0.2-1.6,0.3c-1.1,0.2-2.1,0.2-3.2,0.2c-1.1,0-2.2-0.2-3.3-0.6l-0.4-0.1l-0.4-0.2l-0.2-0.1
			l-0.2-0.1c-0.1-0.1-0.3-0.1-0.4-0.2c-0.5-0.3-0.9-0.7-1.3-1.1l-0.2-0.2l0-0.3c0.2-1.4,0-2.9-0.6-4.1c-0.1-0.3-0.3-0.6-0.5-0.9
			c-0.1-0.1-0.2-0.3-0.3-0.4l0,0l0,0l0-0.1l-0.1-0.1l0-0.1l0,0l-0.1-0.1c0,0,0,0-0.1-0.1l-0.1-0.1c-0.1,0-0.1-0.1-0.2-0.1
			c-0.1,0-0.1-0.1-0.2-0.1l-0.2-0.1c-0.3-0.1-0.6-0.1-0.8-0.1c-0.3,0-0.5,0.1-0.7,0.2c-0.2,0.1-0.3,0.4-0.4,0.6l-0.1,0.2l0,0l0,0
			l0,0l0,0.1l0,0.1l0,0.1l0,0.1l0,0.2c-0.1,0.3-0.1,0.7-0.1,1c-0.1,1.4,0.3,2.8,0.9,4.1l0.1,0.3l-0.1,0.3c-0.4,1.3-1.2,2.4-2.1,3.4
			c-0.5,0.5-1,0.9-1.5,1.3c-0.1,0.1-0.3,0.2-0.4,0.3l-0.2,0.1l-0.1,0l0,0l0,0l0,0l-0.1,0c-0.3,0.1-0.5,0.3-0.8,0.4l-1,0.3l-0.9,0.2
			c-0.3,0.1-0.6,0.1-1,0.2c-0.3,0-0.6,0.1-1,0.1c-1.3,0.1-2.5,0-3.8-0.1c-2.5-0.3-4.9-0.9-7.3-1.6c-0.6-0.2-1.2-0.4-1.8-0.6
			c-0.6-0.2-1.2-0.6-1.7-1c-0.1-0.1-0.1-0.1-0.2-0.2c0,0,0,0-0.1-0.1l0,0l-0.1-0.1c-0.1-0.1-0.3-0.3-0.4-0.4
			c-0.2-0.3-0.4-0.5-0.6-0.8c-0.4-0.5-0.6-1.1-0.9-1.7c-1.1-2.2-2.1-4.4-3.2-6.6l-3.2-6.6c-0.5-1.1-1.1-2.2-1.6-3.3
			c-0.5-1.1-1-2.2-1.5-3.4c-0.4-1.1-0.8-2.3-0.8-3.6c0-0.1,0-0.1,0-0.2c0-0.4,0-0.8,0-1.1c-0.2,0.7-0.3,1.5-0.2,2.3
			c0.3,2.7,1.7,5.2,2.7,7.7c1.1,2.7,2.2,5.4,3.4,8c1.1,2.6,2.1,5.3,3.4,7.8c2.5,4.5,7.1,6.7,12.1,7.2c4.7,0.5,10.6-0.5,14-4
			c1.8-1.9,2.6-4,2.8-6.4c1,1.6,2.4,3,4,3.8c4.9,2.6,10.4,1.6,15.4-0.4c2.5-1,4.9-2.1,7-3.8c1.9-1.6,3.4-3.7,4.4-6
			c2-4.5,1.9-9.6,0.1-14.1C77.4,181.8,77.2,181.3,76.9,180.8z"/>
	</g>
</g>
<g id="XMLID_300_">
	<path id="XMLID_323_" class="st2" d="M404.4,385c-0.5,0.7-1.1,1.3-1.7,1.9c-0.7,0.7-1.8,1-2.7,1.4c-0.9,0.4-1.8,0.8-2.8,1
		c-1,0.3-1.9,0.4-2.9,0.8c-0.8,0.3-1.4,0.6-2,1.2c0-0.2-0.1-0.4-0.2-0.6c0-0.2,0-0.3,0.1-0.5c0.1-0.3,0.5-0.5,0.8-0.7
		c0.9-0.6,1.7-1.1,2.4-1.8c0.2-0.2,0.5-0.5,0.7-0.8c2,0.5,4-1.4,5.4-2.6c0.9-0.8,2.1-1.9,3.3-1.6c0.3,0.1,0.5,0.2,0.7,0.4
		C405.3,383.7,404.9,384.4,404.4,385z"/>
	<path id="XMLID_322_" class="st3" d="M403.3,387.4c0.9-0.6,1.6-1.3,2.3-2.2c-0.3,0.7-0.7,1.3-1.1,1.8c-1.1,1.3-2.6,2.2-4.1,2.9
		c0.4-0.2,0.8-0.5,1.1-0.8C402.1,388.5,402.6,387.9,403.3,387.4z"/>
	<path id="XMLID_321_" class="st2" d="M381.7,372c0.6,0.2,1.2,0.3,1.7,0.5c1,0.2,1.9,0.8,2.6,1.5c0.4,0.4,0.8,0.9,1.1,1.3
		c-0.7-0.3-1.5-0.5-2.2-0.8c-1.5-0.6-3-1.1-4.5-1.7c-0.5-0.2-0.7-0.8-0.6-1.3c0.1-0.2,0.2-0.4,0.4-0.5
		C380.7,371.4,381.2,371.8,381.7,372z"/>
	<path id="XMLID_320_" class="st2" d="M395.8,380.7c-0.1-0.6-0.3-1.2-0.4-1.8c0.2-0.3,0.3-0.6,0.5-0.9c0.5-0.9,2-0.5,1.8,0.6
		c-0.4,1.8-1,3.5-1.6,5.2c0.7-0.2,1.5,0.6,1.1,1.4c-0.3,0.6-0.7,1.3-1.1,1.8c-0.1,0-0.2-0.1-0.3-0.1
		C396,384.8,396,382.7,395.8,380.7z"/>
	<path id="XMLID_317_" class="st4" d="M391.4,396.9c0.5-0.6,0.9-1.1,1.5-1.6c0.2-0.4,0.4-0.7,0.7-1c1.9-1.8,4.7-2,7-3.1
		c2.3-1,4.1-2.9,4.9-5.3c0.3-0.8,0.6-2.2,0-2.9c-0.3,0.7-0.7,1.4-1.1,1.9c-0.5,0.7-1.1,1.3-1.7,1.9c-0.7,0.7-1.8,1-2.7,1.4
		c-0.9,0.4-1.8,0.8-2.8,1c-1,0.3-1.9,0.4-2.9,0.8c-0.8,0.3-1.4,0.6-2,1.2c0-0.2-0.1-0.4-0.2-0.6c0-0.2,0-0.3,0.1-0.5
		c0.1-0.3,0.5-0.5,0.8-0.7c0.9-0.6,1.7-1.1,2.4-1.8c0.2-0.2,0.5-0.5,0.7-0.8c-0.1,0-0.2-0.1-0.3-0.1c0.2-2,0.2-4,0-6
		c-0.1-0.6-0.3-1.2-0.4-1.8c-0.2,0.4-0.4,0.8-0.6,1.2c0-0.3-0.1-0.5-0.2-0.8c-0.3-0.8-0.7-1.5-1-2.3c-0.1-0.2-0.1-0.4-0.2-0.6
		c0.1-0.1,0.2-0.3,0.3-0.5c0.6-2,0.8-4.1,1.2-6.2c0.2-1,0.4-2,0.5-3.1c0.1-0.5,0.2-1.1,0.2-1.6c0.1-0.5,0.2-1,0-1.4
		c-0.1-0.2-0.4-0.3-0.6-0.1c-0.1,0.1-0.2,0.3-0.2,0.5c-0.1,0.2-0.1,0.4-0.1,0.6c0,0.1,0,0.1,0,0.2c-0.1,0.3-0.1,0.6-0.2,0.9
		c-0.1,0.2-0.2,0.3-0.3,0.5c-0.2,0.2-0.5,0.3-0.7,0.5c-0.2,0.2-0.4,0.4-0.6,0.7c-0.4,0.5-0.7,1-0.9,1.7c-0.2,0.6-0.2,1.3-0.2,1.9
		c-0.4-0.7-1-1.2-1.7-1.6c-0.7-1.3-1.6-2.3-2.8-3.2c-0.6-0.5-1-1-1.3-1.7c-0.4-0.6-0.9-1.1-1.5-1.5c-0.7-0.5-1.4-0.8-2.1-1.3
		c-0.7-0.4-1.4-0.9-2.1-1.1c-0.3-0.1-0.6,0.4-0.4,0.6c0.5,0.7,1.2,1.1,1.8,1.7c0.6,0.5,1.1,0.9,1.7,1.4c0.5,0.4,0.9,0.9,1.2,1.5
		c0.4,0.7,0.8,1.2,1.3,1.7c0.5,0.4,1,0.8,1.5,1.3c0.1,0.1,0.1,0.2,0.2,0.3c-0.3,0-0.6,0.1-0.9,0.1c-1,0.2-2,0.3-3.1,0
		c-1-0.2-1.8-1-2.7-1.3c-1.1-0.4-2.2-0.1-3.3-0.1c-0.9,0-1.8-0.2-2.6-0.5c-1.5-0.6-2.8-1.7-3.7-3c-0.2,0.3-0.3,0.6-0.3,1
		c-0.1,1.2,0.8,2.2,1.9,2.8c1.2,0.6,2.7,0.8,4,1.2c0.6,0.2,1.3,0.3,1.9,0.6c0.1,0.1,0.3,0.1,0.4,0.2c0.3,0,0.6,0,0.8,0.1
		c0.3,0.2,0.7,0.4,1,0.6c-0.3,0-0.5,0.1-0.8,0.2c0.4,0.4,0.9,0.8,1.4,1c0.6,0.2,1.2,0.3,1.7,0.5c1,0.2,1.9,0.8,2.6,1.5
		c0.4,0.4,0.8,0.9,1.1,1.3c0.6,0.2,1.2,0.5,1.8,0.8c0.9,0.4,1.9,1,2.5,1.9c0.1,0.4,0.2,0.8,0.4,1.2c0.1,0.6,0.3,1.3,0.7,1.5
		c0,0,0,0.1,0,0.1c0.1,0.7-0.2,1.6-0.3,2.3c-0.3,1.7-0.7,3.4-1,5.1c0,0.1,0,0.2,0,0.3c-0.8,0.7-1,1.5-1.1,2.5c0,0,0,0.1,0,0.1
		c-0.2,0.6-0.5,1.2-0.7,1.7c-0.1,0.2-0.1,0.4-0.1,0.6c0,0,0,0,0,0.1c-0.1,0.1-0.1,0.3-0.2,0.4c-0.5,0.5-0.9,0.9-1.3,1.4
		c0.1-1.2,0.1-2.3-0.2-3.5c-0.5-2.3-1.8-4.5-4-5.6c-0.6-0.3-1.4,0.2-1.3,0.9c0.2,1,0.5,1.9,1,2.8c0.4,0.7,0.9,1.4,1,2.2
		c0.4,1.7,0.1,3.5-0.3,5.1c-0.6,3-1.2,6.3-3.3,8.7c-0.5,0.6,0.3,1.4,0.9,1l0,0c0,0,0,0,0,0c0,0,0.1,0,0.1-0.1c0,0,0,0,0,0
		c0.2-0.2,0.4-0.4,0.5-0.5c2-2.1,4.1-4.1,6.1-6.2C389.6,399,390.6,398,391.4,396.9z M400.4,389.9c0.4-0.2,0.8-0.5,1.1-0.8
		c0.6-0.6,1.2-1.2,1.9-1.7c0.9-0.6,1.6-1.3,2.3-2.2c-0.3,0.7-0.7,1.3-1.1,1.8C403.4,388.3,401.9,389.2,400.4,389.9z"/>
	<g id="XMLID_307_">
		<g>
			<path id="XMLID_00000178189960983449534680000011886473885589741709_" class="st5" d="M393.6,377.1c-0.1-0.2-0.1-0.4-0.2-0.6
				c0.1-0.1,0.2-0.3,0.3-0.5c0.6-2,0.8-4.1,1.2-6.2c0.2-1,0.4-2,0.5-3.1c0.1-0.5,0.2-1.1,0.2-1.6c0.1-0.5,0.2-1,0-1.4
				c-0.1-0.2-0.4-0.3-0.6-0.1c-0.1,0.1-0.2,0.3-0.2,0.5c-0.1,0.2-0.1,0.4-0.1,0.6c0,0.1,0,0.1,0,0.2c-0.1,0.3-0.1,0.6-0.2,0.9
				c-0.1,0.2-0.2,0.3-0.3,0.5c-0.2,0.2-0.5,0.3-0.7,0.5c-0.2,0.2-0.4,0.4-0.6,0.7c-0.4,0.5-0.7,1-0.9,1.7c-0.2,0.6-0.2,1.3-0.2,1.9
				c-0.4-0.7-1-1.2-1.7-1.6c-0.7-1.3-1.6-2.3-2.8-3.2c-0.6-0.5-1-1-1.3-1.7c-0.4-0.6-0.9-1.1-1.5-1.5c-0.7-0.5-1.4-0.8-2.1-1.3
				c-0.7-0.4-1.4-0.9-2.1-1.1c-0.3-0.1-0.6,0.4-0.4,0.6c0.5,0.7,1.2,1.1,1.8,1.7c0.6,0.5,1.1,0.9,1.7,1.4c0.5,0.4,0.9,0.9,1.2,1.5
				c0.4,0.7,0.8,1.2,1.3,1.7c0.5,0.4,1,0.8,1.5,1.3c0.1,0.1,0.1,0.2,0.2,0.3c-0.3,0-0.6,0.1-0.9,0.1c-1,0.2-2,0.3-3.1,0
				c-1-0.2-1.8-1-2.7-1.3c-1.1-0.4-2.2-0.1-3.3-0.1c-0.9,0-1.8-0.2-2.6-0.5c-1.5-0.6-2.8-1.7-3.7-3c0.4-0.7,1.2-1,2.1-1
				c1.5,0,3,0.7,4.4,1.1c0.8,0.3,1.5,0.5,2.3,0.8c-0.7-1.1-1.5-2.2-2.2-3.3c-0.2-0.3-0.2-0.6-0.1-0.9c1.3-2.3,4.2,0.3,5.5,1.2
				c0.7,0.4,1.3,0.9,2,1.3c-1-1.1-2.2-2.2-3.2-3.2c-2-2.1-3.9-4.8-4-7.8c0,0,0.1,0,0.1,0c0.7,0,1.5,0,2,0.4c0.7,0.5,1,1.6,1.5,2.3
				c0.5,0.9,1.2,1.8,1.8,2.6c1.3,1.7,2.8,3.3,4.2,5c0.7,0.9,1.3,1.8,1.8,2.7c0.5,1,1.2,2,1.4,3.1c0.1,0.7,1,0.6,1-0.1
				c0-1.3,0-2.5-0.4-3.7c0-0.1-0.1-0.3-0.1-0.4c0.4,0.8,0.8,1.6,1.2,2.4c0.2-2.4,0.8-4.8,3.1-6.2c0.5-0.3,1-0.1,1.3,0.4
				c0.9,1.7,1.2,3.7,0.9,5.6c-0.2,1.6-1.2,3.3-1,5c0.1,0.9,0.5,1.7,0.3,2.7c-0.1,0.7-0.5,1.4-0.9,2c-0.3,0.6-0.8,1.2-0.8,1.9
				c0,0.3,0,0.6,0,1c-0.2,0.4-0.4,0.8-0.6,1.2c0-0.3-0.1-0.5-0.2-0.8C394.3,378.6,393.9,377.9,393.6,377.1z"/>
			<path id="XMLID_00000163759458398287305750000001917492702255797388_" class="st5" d="M391.9,368.4c0,0.7-0.9,0.7-1,0.1
				c-0.2-1.1-0.8-2.1-1.4-3.1c-0.5-1-1.1-1.9-1.8-2.7c-1.3-1.7-2.8-3.3-4.2-5c-0.6-0.8-1.3-1.7-1.8-2.6c-0.4-0.7-0.8-1.8-1.5-2.3
				c-0.5-0.4-1.4-0.4-2-0.4c0,0-0.1,0-0.1,0c0-0.1,0-0.2,0-0.3c0-0.7,0.3-1.3,0.9-1.6c0.7-0.3,1.5,0,2,0.4c0.6,0.4,1.1,1,1.6,1.6
				c0.5,0.6,1.1,1.2,1.6,1.8c2.1,2.5,3.9,5.1,5.7,7.8c0.5,0.7,1,1.5,1.4,2.3c0,0.1,0.1,0.3,0.1,0.4
				C391.9,365.9,391.9,367.1,391.9,368.4z"/>
			<path id="XMLID_00000039827633653610017870000001644274442119964093_" class="st5" d="M378.7,406.2c-0.2,0.2-0.5,0.4-0.7,0.6
				C378.2,406.6,378.4,406.4,378.7,406.2C378.7,406.2,378.7,406.2,378.7,406.2z"/>
			<path id="XMLID_00000010310270286704440410000009613562775561086384_" class="st5" d="M374.6,382.7c0.6,0.7,1.6,0.9,2.4,1.3
				c1.1,0.5,2.1,1.3,2.9,2.1c0.8,0.9,1.8,1.8,2.3,2.9c0.6,1.2,0.4,2.5,0.3,3.8c-0.1,1.2-0.1,2.4-0.2,3.6c-0.2,2.3-0.5,4.6-1.5,6.6
				c-0.1,0.2-0.2,0.3-0.3,0.5c0-0.4-0.1-0.8-0.1-1.1c0-0.6,0-1.2,0-1.8c0-1.1,0.2-2.3,0.3-3.4c0.4-3.6,1-8.4-2.7-10.5
				c-1.8-1-4-1.8-4.4-4c-0.1-0.4,0.2-0.8,0.6-1C374.2,382.2,374.4,382.5,374.6,382.7z"/>
		</g>
	</g>
	<g id="XMLID_302_">
		<path id="XMLID_306_" class="st6" d="M387.8,405c-1.4,0.6-3,0.5-4.3,1.3c-0.4,0.2-0.7,0.4-1,0.6c-0.3,0.2-0.6,0.3-0.9,0.5
			c-0.1,0-0.2,0.1-0.3,0.1c-0.8,0.4-1.6,0.7-2.5,0.9c-0.5,0.1-0.6,0.6-0.5,1c-0.4,0.2-0.8,0.3-1.3,0.3c-0.3,0-0.5-0.1-0.7-0.3
			c-0.6,0.3-1.2-0.6-0.6-1c0.7-0.5,1.4-1.1,2.1-1.7c0.3-0.2,0.5-0.4,0.7-0.6c0.4-0.4,0.9-0.8,1.3-1.2c0.3-0.3,0.6-0.6,0.6-1.1
			c0-0.1,0-0.2,0-0.3c0.1-0.2,0.2-0.4,0.3-0.5c1-2.1,1.4-4.4,1.5-6.6c0.1-1.2,0.1-2.4,0.2-3.6c0.1-1.3,0.3-2.6-0.3-3.8
			c-0.5-1.1-1.5-2-2.3-2.9c-0.8-0.9-1.8-1.6-2.9-2.1c-0.8-0.4-1.8-0.7-2.4-1.3c-0.2-0.2-0.4-0.6-0.4-0.9c0.1-0.1,0.3-0.1,0.4,0
			c1.7,0.5,3.4,1,5,1.5c0.8,0.2,1.6,0.5,2.4,0.7c0.8,0.2,1.6,0.5,2.3,0.9c1.3,0.9,2.2,2.4,2.9,3.8c0.4,0.7,0.6,1.5,0.9,2.2
			c0,0.1,0.1,0.3,0.1,0.4c0.2,0,0.4-0.3,0.4-0.4c0.5-0.7,0.2-1.8,0.1-2.7c-0.1-1-0.3-2.1,0-3.1c0.2-0.5,0.4-1,0.8-1.4c0,0,0,0,0-0.1
			c0,0,0,0,0-0.1c-0.1-0.1-0.2-0.3-0.3-0.4c-0.3-0.3-0.6-0.6-0.9-0.8c-0.5-0.4-1.1-0.8-1.7-1.1c-0.7-0.3-1.4-0.5-2-0.9
			c-0.6-0.5-1-1.2-0.8-2c0.2-0.8,1-1.4,1.8-1.2c0.7,0.1,1.4,0.7,2.1,0.9c0.3,0.1,0.7,0.1,1,0.2c-0.5-1-1-2.1-1.7-3
			c0.6,0.2,1.2,0.5,1.8,0.8c0.9,0.4,1.9,1,2.5,1.9c0.1,0.4,0.2,0.8,0.4,1.2c0.1,0.6,0.3,1.3,0.7,1.5c0,0,0,0.1,0,0.1
			c0.1,0.7-0.2,1.6-0.3,2.3c-0.3,1.7-0.7,3.4-1,5.1c0,0.1,0,0.2,0,0.3c-0.8,0.7-1,1.5-1.1,2.5c0,0,0,0.1,0,0.1
			c-0.2,0.6-0.5,1.2-0.7,1.7c-0.1,0.2-0.1,0.4-0.1,0.6c0,0,0,0,0,0.1c-0.1,0.1-0.1,0.3-0.2,0.4c-0.5,0.5-0.9,0.9-1.3,1.4
			c0.1-1.2,0.1-2.3-0.2-3.5c-0.5-2.3-1.8-4.5-4-5.6c-0.6-0.3-1.4,0.2-1.3,0.9c0.2,1,0.5,1.9,1,2.8c0.4,0.7,0.9,1.4,1,2.2
			c0.4,1.7,0.1,3.5-0.3,5.1c-0.6,3-1.2,6.3-3.3,8.7c-0.5,0.6,0.3,1.4,0.9,1l0,0c0,0,0,0,0,0c0,0,0.1,0,0.1-0.1c0,0,0,0,0,0
			c0.2-0.2,0.4-0.4,0.5-0.5c2-2.1,4.1-4.1,6.1-6.2c1-1,1.9-2,2.8-3.2c0.5-0.6,0.9-1.1,1.5-1.6c-0.2,0.3-0.3,0.6-0.5,0.8
			c-0.4,0.7-0.9,1.3-1.4,1.9c-0.8,0.9-1.6,1.8-2.5,2.7c0.9,0.5,1.8,0.8,2.8,0.9c-0.2,0.4-0.3,0.7-0.6,1
			C390,403.7,389,404.5,387.8,405z"/>
		<path id="XMLID_305_" class="st6" d="M378.9,408.4c0.9-0.2,1.7-0.5,2.5-0.9c0.1,0,0.2-0.1,0.3-0.1c-0.3,0.2-0.6,0.4-0.9,0.6
			c-0.8,0.5-1.5,1-2.4,1.4C378.3,409.1,378.4,408.6,378.9,408.4z"/>
		<path id="XMLID_303_" class="st6" d="M392.8,403.3c-1.2,1-2.6,1.9-4,2.5c-0.7,0.3-1.5,0.5-2.2,0.6c-0.7,0.1-1.5,0-2.2,0
			c-0.7,0-1.3,0.2-1.9,0.5c0.3-0.2,0.7-0.4,1-0.6c1.3-0.7,2.9-0.7,4.3-1.3c1.2-0.5,2.2-1.3,2.9-2.3c0.2-0.3,0.4-0.7,0.6-1
			c0.3,0,0.6,0.1,0.9,0.1C393.1,401.8,393.5,402.7,392.8,403.3z"/>
	</g>
	<path id="XMLID_301_" class="st6" d="M384.5,401.2c0.1-0.3,0.3-0.6,0.5-0.9c0.2-0.9,0.7-1.7,1.1-2.4c0.2-0.3,0.4-0.7,0.4-1.1
		c0.1-0.4,0.1-0.8,0.1-1.2c0.1-0.3,0.2-0.6,0.3-0.9c0.1-0.5,0-1-0.1-1.5c-0.2-1.1-1.2-3.2-1.2-3.3c0.1-0.2,0.3-0.3,0.4-0.1
		c0.6,0.9,1,1.9,1.4,3c0.3,0.8,0.5,1.6,0.1,2.4c-0.1,0.3-0.2,0.6-0.2,0.9c0.2-0.2,0.4-0.5,0.5-0.7c0.3-0.6,0.7-1.3,1-1.9
		c0.6-1.2,1.1-2.4,1.5-3.7c0.8-2.6,2.5-4.9,2.4-7.7c0-1.3-0.3-2.6-0.9-3.7c-0.7-1.2-1.6-2.3-2.5-3.4c-0.5-0.6-0.8-1.2-1.4-1.7
		c-0.5-0.4-1.2-0.7-1.8-1c-0.7-0.3-1.4-0.5-2.2-0.8c-0.8-0.3-1.6-0.7-2.5-1c-0.4-0.2,1.8-0.4,2.5-0.2c0.8,0.2,1.6,0.4,2.4,0.6
		c0.6,0.2,1.2,0.3,1.8,0.6c0.7,0.3,1.2,0.8,1.7,1.2c1.2,0.9,2.2,2.2,3,3.5c0.1-1.1,0.4-2.1,0.7-3.2c0.3-1.1,0.3-2.3,0.5-3.4
		c0.3-1.2,0.7-2.2,1.1-3.3c0.1-0.2-0.3,2.1-0.6,3.2c-0.2,1-0.1,1.9-0.2,2.9c-0.2,1.8-1.3,3.7-0.6,5.5c0,0.1,0,0.2-0.1,0.3
		c0.3,0.7,0.5,1.4,0.6,2.2c0.2,1.4,0.1,2.8-0.2,4.2c-0.4,1.4-1.1,2.8-1.6,4.2c-0.3,0.9-0.6,1.8-0.8,2.8c0.5-0.3,1.1-0.7,1.6-0.9
		c1-0.4,2-0.5,3.1-0.5c1-0.1,2-0.2,3-0.4c0.5-0.1,1-0.3,1.4-0.5c0.4-0.2,0.8-0.5,1.2-0.7c0.2-0.1,0.4,0.2,0.4,0.4
		c-0.3,0.7-1.1,1.2-1.8,1.5c-0.8,0.4-1.7,0.7-2.6,0.9c-2,0.5-4,1-5.6,2.4c-1.3,1.1-2.6,2.3-3.7,3.5c0,0,0,0,0,0
		c-0.9,1.4-1.7,2.9-2.8,4.1c-1,1.1-2.4,2.4-3.8,3C381.9,404.5,383.6,402.1,384.5,401.2z"/>
</g>
<g id="XMLID_194_">
	<g id="XMLID_201_">
		<path id="XMLID_233_" class="st6" d="M191.9,222.2c0.6-0.3,1.3,0.3,1,0.9c-0.5,1.1-1,2.1-1.8,3c-0.4,0.5-0.9,0.9-1.4,1.2
			c-0.5,0.3-1,0.6-1.4,1c-0.9,0.8-1.6,1.7-2.4,2.6c-0.7,0.8-1.3,1.8-2,2.7c0.3-0.2,0.7-0.4,0.9-0.6c0.5-0.4,1-0.9,1.5-1.3
			c0.9-0.8,1.7-1.7,2.7-2.4c0.9-0.7,2-1.2,2.9-1.8c0.8-0.6,1.2-1.3,1.5-2.2c0.2-0.9,0.3-1.8,0.5-2.7c0.2-1.1,0.7-2,1.4-2.9
			c0.5-0.6,1.1-1.2,1.7-1.8c-0.8,0.5-1.7,0.7-2.6,0.9c-0.8,0.2-1.6,0.4-2.3,0.9c-0.1,0.1-0.3,0.2-0.4,0.3c-0.1,0.5-0.5,0.9-0.8,1.2
			c-0.3,0.2-0.6,0.5-0.9,0.7c-0.9,1.2-1.7,2.4-2.5,3.7c0,0.1-0.1,0.2-0.1,0.2C188.6,224.4,190,223,191.9,222.2z"/>
		<path id="XMLID_232_" class="st6" d="M217.1,213.3c0.1,0.6,0.2,1.2,0.2,1.8c0.1,1.1,0.1,2.3,0,3.4c0,0,0,0,0,0
			c0,0.1,0.1,0.1,0.1,0.2c0.2-0.1,0.5-0.2,0.7-0.3c0.8-0.5,1.2-1.3,1.3-2.1c-0.4-0.7-0.9-1.4-1.4-2
			C217.7,214,217.4,213.6,217.1,213.3z"/>
		<path id="XMLID_231_" class="st6" d="M200.6,220.8c0.9-0.8,1.7-1.9,2.4-2.9c0.8-1.2,1.5-2.5,2.2-3.8c-0.2,0.1-0.5,0.3-0.7,0.4
			c-1.2,0.6-2.4,1.1-3.6,1.8c-1,0.7-1.7,1.7-2.3,2.7c-0.7,1-1.3,2-1.8,3.1c0,0,0,0,0,0c0.3,0,0.7,0.1,1,0.1c0,0,0.1,0,0.1,0
			C199,221.9,199.9,221.5,200.6,220.8z"/>
		<path id="XMLID_230_" class="st7" d="M215.6,219C215.6,219,215.6,219,215.6,219C215.6,219,215.6,219,215.6,219c0-0.1,0-0.1,0-0.2
			C215.6,218.9,215.6,219,215.6,219z"/>
		<path id="XMLID_227_" class="st5" d="M222.6,198.1c-0.6,0.7-1.2,1.5-1.9,2.1c-0.6,0.6-1.2,1.2-1.9,1.8c-0.3,0.2-0.6,0.3-0.8,0.5
			c-0.5,0.3-0.9,0.7-1.2,1.2c-0.9,0.7-1.9,1.3-2.8,2c-1.7,1.1-3.3,2.2-5,3.4c-1.6,1.1-3.2,2.4-4.9,3.3c-1.6,0.9-3.5,1.3-5.1,2.1
			c-1,0.5-1.7,1.1-2.5,1.8c0,0-0.1,0.1-0.1,0.1c-0.7,0.2-1.4,0.5-2.1,0.8c-1,0.4-2.1,0.7-2.9,1.3c-0.4,0.3-0.8,0.7-1.3,0.9
			c-0.5,0.3-1.1,0.5-1.6,0.8c-1,0.5-2,1.1-2.9,1.7c-1,0.6-2.1,1.1-3.1,1.7c-0.9,0.6-1.9,1.1-2.8,1.8c-0.9,0.6-1.6,1.4-2.2,2.4
			c-0.4,0.8-0.7,1.6-1.2,2.3c-0.6,0.8-1.5,1.2-2.5,1.2c-0.4,0-0.8-0.1-1.2-0.3c0,0.2-0.1,0.4-0.1,0.5c-0.1,0.4,0.3,0.9,0.8,0.7
			c2.7-0.7,4.9-2.5,7.1-4.2c1.1-0.9,2.3-1.7,3.4-2.6c1.1-0.9,2.1-1.9,3.1-2.9c1-1,2.1-2,3.3-2.7c0.5-0.4,1.1-0.7,1.8-0.9
			c0.1,0,0.2,0,0.3-0.1c0,0.2-0.2,0.4-0.4,0.6c-0.7,0.8-1.4,1.7-2,2.5c0.3-0.2,0.6-0.4,0.9-0.7c0.3-0.3,0.7-0.7,0.8-1.2
			c0.1-0.1,0.3-0.2,0.4-0.3c0.7-0.5,1.5-0.7,2.3-0.9c0.9-0.2,1.8-0.4,2.6-0.9c-0.6,0.6-1.2,1.1-1.7,1.8c-0.7,0.8-1.2,1.8-1.4,2.9
			c-0.2,0.9-0.3,1.8-0.5,2.7c-0.2,0.9-0.7,1.6-1.5,2.2c-0.9,0.7-2,1.1-2.9,1.8c-1,0.7-1.8,1.6-2.7,2.4c-0.5,0.4-0.9,0.9-1.5,1.3
			c-0.3,0.2-0.6,0.4-0.9,0.6c0,0.1-0.1,0.1-0.1,0.2c0.1,0.3,0.5,0.5,0.8,0.3c1.7-1.2,3.5-2.5,5.2-3.7c1.4-1,2.9-2,3.9-3.3
			c0.5-0.7,1-1.4,1.3-2.2c0.3-0.7,0.4-1.6,0.9-2.2c0.3-0.4,0.6-0.5,1-0.5c0,0,0,0,0,0c0.5-1.1,1.1-2.1,1.8-3.1
			c0.6-1,1.3-2.1,2.3-2.7c1.1-0.7,2.4-1.1,3.6-1.8c0.2-0.1,0.5-0.3,0.7-0.4c-0.7,1.3-1.4,2.6-2.2,3.8c-0.7,1-1.5,2.1-2.4,2.9
			c-0.8,0.6-1.7,1.1-2.6,1.4c0.8,0.1,1.6,0,2.3-0.2c1.6-0.5,2.9-1.5,3.8-2.9c0.5-0.7,0.6-1.6,1-2.3c0.3-0.5,0.8-1,1.4-0.9
			c0.3-0.5,0.5-0.9,0.8-1.4c0.7-1,1.3-2,2.1-2.9c0.9-1,1.9-1.8,2.9-2.5c0.5-0.3,1-0.7,1.4-1c-0.2,0.9-0.4,1.7-0.5,2.6
			c-0.1,1-0.1,2.1,0,3.1c0.1,2.1,0.6,4.2,1.1,6.2c0.2,0.9,0.3,1.9,0.2,2.9c-0.1,0.4-0.2,0.7-0.3,1.1c0,0,0,0,0,0
			c-0.6,0.7-1,1.5-1.4,2.4c-0.5,1-0.9,2-1.3,2.9c-0.2,0.4-0.3,0.7-0.5,1.1c-0.4,0.9-0.9,1.8-1.3,2.7c-0.2,0.4,0.4,0.7,0.6,0.3
			c0.1-0.2,0.2-0.3,0.3-0.5c0.1,0,0.3-0.1,0.3-0.2c0.4-0.7,0.9-1.4,1.3-2.2c0.4-0.7,0.8-1.4,1.2-2.1c0.2-0.4,0.4-0.8,0.6-1.2
			c0.3-0.4,0.5-0.8,0.8-1.2c0.2-0.3,0.3-0.6,0.5-0.8c0.2-0.2,0.4-0.4,0.6-0.6c0.3-0.2,0.5-0.4,0.8-0.6c0.1-0.1,0.3-0.3,0.5-0.2
			c0.2,0.1,0.4,0.4,0.5,0.5c0.1,0.1,0.1,0.2,0.2,0.4c0.1-0.5,0.2-0.9,0.3-1.4c0.1-1.1-0.2-2.2-0.8-3.1c-0.1-0.2-0.6-0.7-0.5-1
			c0-0.1,0.2-0.2,0.4-0.2c0.1,0,0.1,0,0.2,0c0-0.1-0.1-0.1-0.1-0.2c0,0,0,0,0,0c0.1-1.1,0.1-2.3,0-3.4c0-0.6-0.1-1.2-0.2-1.8
			c0.3,0.3,0.6,0.7,0.9,1.1c0.5,0.6,1,1.3,1.4,2c0.2-1.4-0.4-3-1.1-4.1c-0.3-0.6-0.8-0.9-1.4-1.1c-0.6-0.2-0.7-0.7-0.8-1.3
			c-0.1-1-0.1-2.1,0.4-3c0.3-0.5,0.7-0.9,1.2-1.2c0.1-0.3,0.3-0.6,0.4-0.9c0.3-0.5,0.8-0.8,1.2-1.2c0.6-0.5,1.2-1,1.7-1.5
			c0.6-0.5,1.1-1.1,1.6-1.7c-0.1,0.2-0.1,0.4-0.1,0.6c0.1,0.7,0.4,1.4,0.7,2c0.6,1.3,1.1,2.7,1.3,4.2c0.1,0.8,0.1,1.9-0.5,2.5
			c0.6-0.1,1.1-0.4,1.5-0.8c0.7-0.9,0.9-2.1,0.8-3.2c-0.1-1.1-0.2-2.3-0.1-3.4c0.2-4.4,1.7-8.8,3.3-12.9c-1.1,1.4-2.2,2.7-3.3,4.1
			C225.1,195.1,223.9,196.6,222.6,198.1z M215.6,219C215.6,219,215.6,219,215.6,219c-0.1,0-0.1-0.1-0.1-0.2
			C215.6,218.9,215.6,218.9,215.6,219C215.6,219,215.6,219,215.6,219z"/>
		<path id="XMLID_226_" class="st4" d="M176.9,225.8c0.3-0.1,0.6-0.3,1-0.4c0.3-0.1,0.7-0.2,1-0.4c0.1-0.1,0.1-0.2-0.1-0.2
			c-0.4,0-0.7,0.2-1.1,0.2c-0.4,0.1-0.8,0.1-1.2,0.2c-0.7,0.1-1.4,0.2-2.1,0.4c-0.7,0.1-1.4,0.3-2,0.3c-0.7,0-1.3-0.2-1.9-0.3
			c-1.3-0.2-2.5-0.6-3.8-0.9c-0.9-0.3-1.9-0.7-2.5-1.4c-0.2,0.1-0.3,0.4-0.2,0.6c1.1,1.6,3,2.2,4.9,2.4c1.1,0.1,2.1,0,3.2,0
			c0.5,0,1,0,1.5,0c0,0,0.1,0,0.1,0c0,0,0,0.1,0,0.1c0,0.2-0.1,0.5-0.1,0.7c0.5-0.1,0.9-0.2,1.4-0.4
			C175.6,226.3,176.2,226,176.9,225.8z"/>
		<path id="XMLID_225_" class="st6" d="M203.5,201.5C203.5,201.5,203.5,201.5,203.5,201.5c0,0,0.1,0,0.1-0.1c0,0,0,0,0,0
			c0,0,0.1,0,0.1,0c0,0,0,0,0.1,0c0,0,0,0,0.1,0c0,0,0.1,0,0.1,0c0.7-0.2,1.4,0.2,2.2,0c0.3-0.1,0.6-0.3,0.8-0.4c0,0,0,0,0.1,0
			c0.1,0.1,0.3,0.1,0.4,0.2c0.2,0.1,0.5,0.1,0.7,0.1c0.4,0,0.8,0,1.3,0c0.5,0,1.1,0.1,1.4-0.2c0.6-0.6,0.3-1.5,0-2.1
			c-0.2-0.4-0.9-1-0.8-1.5c0,0,0-0.1,0-0.1c0,0,0,0,0,0c0,0,0,0,0-0.1c0,0,0,0,0,0c0,0,0,0,0-0.1c0,0,0-0.1,0-0.1
			c-0.7-0.1-1.4,0-2.1,0.4c-1.3,0.7-2.2,2.2-3.8,2.4c-0.7,0.1-1.4,0.5-1.4,1.2c0,0.2,0.1,0.5,0.2,0.7
			C203.2,201.7,203.3,201.6,203.5,201.5z"/>
		<path id="XMLID_224_" class="st6" d="M184.9,207.2c0.5-0.2,1.2-0.1,1.7,0c0.7,0.1,1.4,0.1,2.1,0.2c1.3,0.1,2.6,0.3,3.7-0.6
			c0.4-0.3,0.7-0.8,1.3-0.7c0.6,0,1.1,0.2,1.7,0.3c1.3,0.3,2.6,0.8,3.8,1.4c0.6,0.3,1.2-0.5,0.7-0.9c-0.8-0.7-1.5-1.5-2.1-2.4
			c0,0-0.1,0-0.1-0.1c-0.5-0.3-0.9-0.7-1.3-1.1c-0.5-0.4-1-0.7-1.7-0.7c-0.8,0-1.6,0.4-2.4,0.7c-1.8,0.7-3.6,1.4-5.3,2.1
			c-0.7,0.3-1.6,0.5-2.1,1.1c-0.2,0.3-0.3,0.6-0.3,1C184.5,207.4,184.7,207.3,184.9,207.2z"/>
		<path id="XMLID_223_" class="st6" d="M177.9,219.1c1.4,0,2.9,0.2,4.2-0.3c0.8-0.3,1.5-0.8,2.3-1.1c0.1,0.4,0,0.8,0.1,1.1
			c0.1,0.5,0.6,0.9,1.1,0.6c0,0,0,0,0.1,0c-0.1,0-0.1,0-0.2,0c-0.1-0.2-0.1-0.4-0.2-0.7c-0.1-0.5-0.1-1-0.3-1.4
			c-0.5-1.1-1.6-1.1-2.7-1.1c-2.7-0.1-5.4-0.1-8.1-0.2c-1.1,0-2.5-0.2-3.2-1.2c-0.1-0.2-0.4-0.2-0.5-0.1c-0.7,0.6-0.7,1.6-0.4,2.4
			c0.4,0.9,1.2,1.4,2,1.8c0.4,0.1,0.8,0.1,1.1,0.1C174.9,219.1,176.4,219.1,177.9,219.1z"/>
		<path id="XMLID_222_" class="st6" d="M217.3,223.7c-0.2,0-0.3,0.1-0.5,0.2c-0.3,0.2-0.5,0.4-0.8,0.6c-0.2,0.2-0.4,0.4-0.6,0.6
			c-0.1,0.3-0.3,0.6-0.5,0.8c-0.2,0.4-0.5,0.8-0.8,1.2c-0.2,0.4-0.4,0.8-0.6,1.2c-0.4,0.7-0.8,1.4-1.2,2.1c-0.4,0.7-0.9,1.4-1.3,2.2
			c-0.1,0.2-0.2,0.2-0.3,0.2c-0.1,0.2-0.2,0.3-0.3,0.5c-0.2,0.4-0.8,0.1-0.6-0.3c0.4-0.9,0.8-1.8,1.3-2.7c0.1-0.4,0.3-0.7,0.5-1.1
			c0.4-1,0.9-2,1.3-2.9c0.4-0.8,0.8-1.7,1.4-2.4c0,0,0,0,0,0c0.1-0.3,0.2-0.7,0.3-1.1c0.2-1,0-1.9-0.2-2.9c-0.4-2.1-0.9-4.1-1.1-6.2
			c-0.1-1-0.1-2.1,0-3.1c0.1-0.9,0.2-1.8,0.5-2.6c-0.5,0.3-0.9,0.7-1.4,1c-1.1,0.8-2.1,1.5-2.9,2.5c-0.8,0.9-1.4,1.9-2.1,2.9
			c-0.3,0.4-0.6,0.9-0.8,1.4c0.1,0,0.2,0.1,0.3,0.1c0.3,0.2,0.7,0.4,1.1,0.5c0.4,0.1,0.8,0,1.2,0.1c0.3,0.1,0.5,0.2,0.7,0.4
			c0-0.3,0-0.5,0-0.8c0-0.6,0.1-4,1.4-3c0.2,0.2,0.4,0.4,0.4,0.7c0.1,0.4,0.2,0.8,0.4,1.1c0.2,0.8,0.5,1.6,0.6,2.5
			c0.2,0.8,0.2,1.7,0.3,2.5c0.1,0.9,0.2,1.7,0,2.6c-0.1,0.9-0.5,1.6-0.9,2.4c-0.4,0.7-0.5,1.4-0.7,2.2c-0.3,1.6-1.3,2.9-1.9,4.3
			c-0.2,0.4-0.3,0.8-0.5,1.2c-0.1,0.7-0.2,1.5-0.4,2.2c0,0.2,0,0.4,0,0.6c0.2,0,0.3,0,0.5-0.2c1.9-2,3.7-4.1,5.6-6.2
			c1.2-1.4,2.5-2.9,3-4.6c0-0.1-0.1-0.2-0.2-0.4C217.7,224,217.5,223.7,217.3,223.7z"/>
		<path id="XMLID_221_" class="st7" d="M196.9,211.1C196.9,211.1,196.9,211.1,196.9,211.1C196.9,211.1,196.9,211.1,196.9,211.1
			c-0.1,0-0.2,0-0.2,0c0,0,0.1,0.1,0.1,0.1C196.8,211.2,196.9,211.1,196.9,211.1z"/>
		<path id="XMLID_220_" class="st7" d="M192.1,210.9c0.1,0.2,0.3,0.4,0.4,0.6c0.1,0,0.3-0.1,0.4-0.1
			C192.6,211.2,192.3,211.1,192.1,210.9z"/>
		<path id="XMLID_219_" class="st6" d="M209.1,232.6c0.1-0.4,0.3-0.8,0.5-1.2c0.6-1.4,1.6-2.7,1.9-4.3c0.2-0.8,0.3-1.5,0.7-2.2
			c0.4-0.8,0.8-1.5,0.9-2.4c0.1-0.9,0.1-1.7,0-2.6c-0.1-0.8-0.2-1.7-0.3-2.5c-0.2-0.8-0.4-1.7-0.6-2.5c-0.1-0.4-0.2-0.8-0.4-1.1
			c-0.1-0.3-0.2-0.5-0.4-0.7c-1.3-1-1.4,2.5-1.4,3c0,0.3,0,0.5,0,0.8c0.3,0.3,0.5,0.6,0.6,1c0.6,1.6-0.3,3.4-0.8,5
			c-1.2,3.9-1.7,7.9-1.4,11.9c0,0.3,0.2,0.5,0.5,0.5c0-0.2,0-0.4,0-0.6C208.9,234.1,209,233.4,209.1,232.6z"/>
		<path id="XMLID_218_" class="st6" d="M185.9,231c0.8-0.9,1.5-1.8,2.4-2.6c0.4-0.4,0.9-0.6,1.4-1c0.5-0.3,1-0.7,1.4-1.2
			c0.7-0.9,1.3-2,1.8-3c0.3-0.7-0.3-1.2-1-0.9c-1.8,0.8-3.2,2.2-4.6,3.7c-0.4,0.4-0.7,0.8-1.1,1.2c-0.8,0.9-1.6,1.7-2.3,2.7
			c-0.4,0.5-0.7,1-1,1.6c-0.3,0.5-0.6,1.1-0.6,1.7c0,0.2,0.3,0.4,0.5,0.3c0,0,0,0,0,0.1c-0.2,0.5,0.6,0.9,0.9,0.5c0,0,0,0,0.1-0.1
			c0-0.1,0.1-0.1,0.1-0.2C184.6,232.8,185.2,231.8,185.9,231z"/>
		<path id="XMLID_217_" class="st6" d="M174.4,230.3c1.3-0.4,1.6-1.9,2.3-2.8c0,0,0,0,0-0.1c0,0,0,0,0.1-0.1
			c0.2-0.2-0.1-0.6-0.4-0.4c-0.3,0.2-0.5,0.3-0.8,0.5c-0.3,0.2-0.5,0.4-0.8,0.5c-0.5,0.2-1,0.2-1.5,0.1c-0.1,0.7-0.3,1.4-0.4,2.1
			c0.2,0.1,0.3,0.1,0.5,0.2C173.7,230.4,174.1,230.4,174.4,230.3z"/>
		<path id="XMLID_214_" class="st6" d="M198.4,211c0.3-0.5-0.3-1-0.8-0.7c-0.1,0-0.2-0.2-0.3-0.2c-0.2-0.1-0.4-0.2-0.6-0.2
			c-0.2,0-0.3,0.1-0.5,0.1c-0.2,0-0.3-0.1-0.5-0.2c-0.2-0.1-0.6-0.1-0.8,0.1c-0.5,0.7-1.4,0.1-2-0.2c-0.7-0.4-1.5-0.8-2.3-0.9
			c0.3,0.4,0.6,0.8,0.9,1.2c0.2,0.3,0.4,0.6,0.6,0.8c0.3,0.2,0.5,0.4,0.8,0.5c-0.1,0-0.3,0-0.4,0.1c0.1,0.2,0.3,0.3,0.4,0.5
			c0.5,0.6,1.1,1.2,1.3,1.9c0.1,0.3,0.1,0.7,0,1c0.4-0.2,0.8-0.5,1.2-0.8C196.6,213.2,197.7,212.2,198.4,211z M196.9,211.1
			C196.9,211.1,196.9,211.1,196.9,211.1C196.9,211.1,196.9,211.1,196.9,211.1c0,0.1,0,0.1-0.1,0.2c0,0-0.1-0.1-0.1-0.1
			C196.7,211.1,196.8,211.1,196.9,211.1z"/>
		<path id="XMLID_213_" class="st6" d="M224.6,207.3c-0.2-1.4-0.7-2.9-1.3-4.2c-0.3-0.7-0.6-1.3-0.7-2c0-0.2,0-0.4,0.1-0.6
			c-0.5,0.6-1,1.1-1.6,1.7c-0.6,0.5-1.1,1.1-1.7,1.5c-0.5,0.4-0.9,0.7-1.2,1.2c-0.1,0.3-0.3,0.6-0.4,0.9c0.3-0.1,0.5-0.2,0.8-0.2
			c0.1,0,0.1-0.1,0.2-0.1c0.3-0.2,0.7-0.3,1.1-0.5c0.3-0.2,0.5-0.5,0.7-0.8c0.3-0.4,0.9-0.3,1.3,0c1.2,1,1.3,2.6,1.2,4
			c0,0.5-0.1,1,0,1.6c0.4,0.2,0.8,0.3,1.3,0.2C224.7,209.2,224.7,208.1,224.6,207.3z"/>
		<path id="XMLID_212_" class="st6" d="M221.8,204.1c-0.3-0.3-0.9-0.4-1.3,0c-0.2,0.3-0.4,0.6-0.7,0.8c-0.3,0.2-0.7,0.3-1.1,0.5
			c-0.1,0-0.1,0.1-0.2,0.1c0,0,0.1,0,0.1,0c1.1,0,1.7,0.9,2.2,1.8c0.5,0.9,1,1.8,1.9,2.3c0,0,0,0,0,0c0-0.5,0-1,0-1.6
			C223.1,206.6,223,205,221.8,204.1z"/>
		<path id="XMLID_211_" class="st6" d="M211.3,198.1c0.4,0.4,0.8,0.9,1.1,1.5c0.4,0.6,0.8,1.2,1.6,1.2c0.6,0,1.1-0.2,1.5-0.6
			c0.5-0.4,0.9-0.7,1.4-1.1c-0.7,0.1-1.4-0.1-2.1-0.4c-1.5-0.6-3-1.6-4.6-1.7c0,0,0,0,0,0C210.5,197.4,210.9,197.8,211.3,198.1z"/>
		<path id="XMLID_210_" class="st7" d="M178.7,221.5c0,0,0-0.1,0-0.1c0,0-0.1,0-0.1,0c-0.1,0-0.2,0-0.4,0
			C178.4,221.4,178.5,221.4,178.7,221.5z"/>
		<path id="XMLID_209_" class="st4" d="M178.4,220.4c1,0.1,2.2,0.2,3.1-0.2c0.3-0.1,0.6,0.3,0.3,0.4c-0.7,0.4-1.5,0.5-2.3,0.6
			c0,0,0,0.1,0,0.1c0,0,0,0,0,0c0.3-0.1,0.6-0.1,0.9-0.1c0.2,0,0.3,0.1,0.4,0.2c0.4-0.1,0.8-0.3,1.3-0.4c1.7-0.6,3.3-1.3,4.8-2
			c-0.4,0.1-0.8,0.2-1.2,0.3c0,0,0,0-0.1,0c-0.5,0.3-1-0.1-1.1-0.6c-0.1-0.4,0-0.8-0.1-1.1c-0.8,0.3-1.5,0.8-2.3,1.1
			c-1.3,0.5-2.8,0.3-4.2,0.3c-1.5,0-3,0-4.5-0.1c-0.4,0-0.8,0-1.1-0.1c0.1,0.1,0.2,0.1,0.4,0.2c0.7,0.3,1.4,0.7,2.1,1
			c0.3,0,0.5,0,0.8,0C176.4,220.3,177.4,220.3,178.4,220.4z"/>
		<path id="XMLID_208_" class="st6" d="M223.6,195.6c-2,1.9-3.7,4.2-5.8,6c-2.2,1.9-4.7,3.6-7.1,5.2c-1.2,0.8-2.5,1.6-3.8,2.4
			c-1.3,0.8-2.5,1.6-3.8,2.4c-2.5,1.6-5.1,3-7.7,4.5c-2.5,1.4-5,2.8-7.6,4.1c-2.5,1.3-5.2,2.4-7.9,3.1c-1.4,0.4-2.7,0.7-4.1,0.9
			c-1.4,0.2-2.8,0.3-4.3,0.4c-1.3,0.1-2.6,0.1-3.9,0.1c-1.1-0.1-2.3-0.3-3.1-1.2c0,0-0.1-0.1-0.1-0.1c-0.1,0-0.2,0-0.2,0
			c0.7,0.7,1.6,1.1,2.5,1.4c1.3,0.3,2.5,0.7,3.8,0.9c0.6,0.1,1.2,0.3,1.9,0.3c0.7,0,1.4-0.1,2-0.3c0.7-0.1,1.4-0.3,2.1-0.4
			c0.4-0.1,0.8-0.1,1.2-0.2c0.4-0.1,0.7-0.2,1.1-0.2c0.1,0,0.1,0.1,0.1,0.2c-0.3,0.2-0.7,0.3-1,0.4c-0.3,0.1-0.6,0.3-1,0.4
			c-0.7,0.3-1.3,0.6-2,0.8c-0.5,0.2-0.9,0.3-1.4,0.4c-0.1,0.4-0.1,0.7-0.2,1.1c0.5,0.1,1.1,0.1,1.5-0.1c0.3-0.1,0.5-0.4,0.8-0.5
			c0.3-0.2,0.5-0.3,0.8-0.5c0.3-0.2,0.6,0.2,0.4,0.4c0,0,0,0-0.1,0.1c0,0,0,0,0,0.1c-0.7,0.9-1,2.5-2.3,2.8c-0.3,0.1-0.7,0.1-1,0
			c-0.2,0-0.4-0.1-0.5-0.2c-0.1,0.3-0.1,0.5-0.2,0.8c0.3,0.2,0.7,0.2,1.2,0.3c1,0,1.9-0.4,2.5-1.2c0.5-0.7,0.8-1.5,1.2-2.3
			c0.5-1,1.2-1.8,2.2-2.4c0.9-0.6,1.9-1.2,2.8-1.8c1-0.6,2.1-1.1,3.1-1.7c1-0.6,1.9-1.2,2.9-1.7c0.5-0.3,1.1-0.5,1.6-0.8
			c0.5-0.3,0.8-0.6,1.3-0.9c0.9-0.6,1.9-0.9,2.9-1.3c0.7-0.3,1.4-0.5,2.1-0.8c0,0,0.1-0.1,0.1-0.1c0.8-0.7,1.5-1.4,2.5-1.8
			c1.7-0.8,3.5-1.2,5.1-2.1c1.7-1,3.3-2.2,4.9-3.3c1.6-1.2,3.3-2.3,5-3.4c1-0.7,1.9-1.3,2.8-2c0.3-0.5,0.7-0.9,1.2-1.2
			c0.3-0.2,0.5-0.3,0.8-0.5c0.6-0.6,1.3-1.2,1.9-1.8c0.7-0.7,1.3-1.4,1.9-2.1c1.3-1.5,2.5-3,3.8-4.5c1.1-1.3,2.2-2.7,3.3-4.1
			c0.1-0.1,0.1-0.3,0.2-0.4c0.1-0.3,0.3-0.6,0.4-0.9l0,0C228.3,189.8,225.4,193.8,223.6,195.6z"/>
		<path id="XMLID_207_" class="st4" d="M204.6,208.9c0.2-0.1,0.4-0.2,0.6-0.3c0,0,0,0,0,0c-0.3-0.1-0.7-0.2-1-0.4
			c-0.3-0.2-0.7-0.2-1-0.3c-0.2,0-0.4,0-0.6,0c-0.1,0-0.1,0-0.2-0.1c-0.2,0-0.6,0-0.6,0c-0.4-0.1-0.7-0.3-0.9-0.7
			c-0.2-0.3-0.3-0.7-0.3-1.1c0-0.1,0.1-0.3,0-0.4c0-0.2-0.1-0.3-0.2-0.4c-0.2-0.4-0.4-0.7-0.6-1c-0.2,0-0.4,0.1-0.7,0.1
			c-0.5,0.2-0.9,0.4-1.4,0.1c0.6,0.9,1.4,1.7,2.1,2.4c0.5,0.5-0.1,1.2-0.7,0.9c-1.2-0.6-2.5-1.1-3.8-1.4c-0.5-0.1-1.1-0.3-1.7-0.3
			c-0.6,0-0.9,0.4-1.3,0.7c-1.1,0.9-2.4,0.7-3.7,0.6c-0.7-0.1-1.4-0.1-2.1-0.2c-0.5-0.1-1.2-0.2-1.7,0c-0.2,0.1-0.3,0.2-0.5,0.3
			c0,0.3,0.1,0.7,0.4,0.9c0.4,0.5,1.2,0.7,1.8,0.7c0.7,0,1.4-0.4,2-0.7c0.6-0.2,1.2-0.4,1.8,0.1c0.1,0.1,0.2,0.2,0.3,0.3
			c0.8,0.2,1.6,0.5,2.3,0.9c0.6,0.3,1.4,0.8,2,0.2c0.2-0.2,0.6-0.3,0.8-0.1c0.1,0.1,0.3,0.2,0.5,0.2c0.2,0,0.3-0.1,0.5-0.1
			c0.2,0,0.4,0.1,0.6,0.2c0.1,0,0.2,0.2,0.3,0.2c0.5-0.2,1.1,0.2,0.8,0.7c-0.7,1.2-1.8,2.2-2.9,3c-0.4,0.3-0.8,0.6-1.2,0.8
			c0,0.1-0.1,0.2-0.1,0.3c1-0.5,1.9-1.1,2.9-1.7C199.6,212,202,210.4,204.6,208.9z"/>
		<path id="XMLID_206_" class="st4" d="M214,200.9c-0.8,0-1.2-0.6-1.6-1.2c-0.3-0.5-0.7-1-1.1-1.5c-0.4-0.4-0.8-0.7-1.2-1.1
			c0,0,0,0,0,0c0,0,0,0,0,0.1c0,0,0,0,0,0c0,0,0,0,0,0.1c0,0,0,0,0,0c0,0,0,0.1,0,0.1c-0.1,0.5,0.5,1.1,0.8,1.5
			c0.4,0.6,0.6,1.6,0,2.1c-0.4,0.4-1,0.2-1.4,0.2c-0.4,0-0.8,0-1.3,0c-0.2,0-0.5,0-0.7-0.1c-0.1,0-0.3-0.1-0.4-0.2c0,0,0,0-0.1,0
			c-0.2,0.1-0.5,0.3-0.8,0.4c-0.7,0.2-1.4-0.2-2.2,0c0,0-0.1,0-0.1,0c0,0,0,0-0.1,0c0,0,0,0-0.1,0c0,0-0.1,0-0.1,0c0,0,0,0,0,0
			c0,0-0.1,0-0.1,0.1c0,0,0,0,0,0c-0.2,0.1-0.3,0.2-0.4,0.3c0.5,0.1,0.9,0.4,1.4,0.5c0.5,0.2,0.9,0.3,1.4,0.3c0.4,0,0.9,0,1.3,0
			c0.4-0.1,0.7-0.2,1.1-0.3c0.9-0.1,1.6,0.7,1.5,1.5c0.2,0.4,0.2,0.9,0.2,1.3c0,0,0,0,0,0c0.3-0.2,0.6-0.4,0.9-0.6c0,0,0,0,0,0
			c0.3-0.2,0.6-0.4,0.9-0.6c2.3-1.5,4.7-3.1,6.7-5.1c0.4-0.4,0.8-0.8,1.2-1.3c-0.5,0.4-1,0.8-1.5,1.1c-0.4,0.2-0.8,0.3-1.3,0.4
			c-0.4,0.4-0.9,0.8-1.4,1.1C215.1,200.6,214.6,200.9,214,200.9z"/>
		<path id="XMLID_205_" class="st7" d="M225,192.1c-0.5,0.5-1,1.1-1.5,1.6c0.2-0.1,0.3-0.3,0.5-0.4C224.3,193,224.6,192.6,225,192.1
			z"/>
		<path id="XMLID_202_" class="st5" d="M229.8,187c-1.6,1.7-3.2,3.4-4.8,5.1c-0.4,0.5-0.7,0.9-1,1.2c-0.2,0.1-0.3,0.3-0.5,0.4
			c-0.8,0.7-1.5,1.4-2.2,2.2c-0.6,0.6-1.1,1.2-1.6,1.9c-0.4,0.4-0.8,0.9-1.2,1.3c-2,2-4.3,3.6-6.7,5.1c-0.3,0.2-0.6,0.4-0.9,0.6
			c0,0,0,0,0,0c-0.3,0.2-0.6,0.4-0.9,0.6c0,0,0,0,0,0c0.1-0.4,0-0.9-0.2-1.3c0.1-0.8-0.6-1.6-1.5-1.5c-0.4,0-0.7,0.2-1.1,0.3
			c-0.4,0-0.9,0-1.3,0c-0.5,0-1-0.2-1.4-0.3c-0.5-0.2-0.9-0.5-1.4-0.5c0,0,0,0,0,0c0.2,0.3,0.4,0.6,0.7,0.7c0.6,0.4,1.3,0.3,2,0.3
			c0.7,0,1.3,0,1.8,0.5c0.7,0.6,1.1,1.6,0.8,2.4c-0.4,0.6-1.1,1.3-1.7,1.3c-0.4,0-0.7,0-1.1-0.1c-0.1,0-0.3-0.1-0.4-0.1
			c-1.2-0.6-2.1-1.4-2.8-1.9c-0.8-0.5-1.6-0.8-2.5-0.8c0.2,0.3,0.4,0.7,0.6,1c0.1,0.1,0.2,0.3,0.2,0.4c0,0.1,0,0.3,0,0.4
			c0,0.4,0.1,0.8,0.3,1.1c0.2,0.3,0.6,0.6,0.9,0.7c0.1,0,0.4,0.1,0.6,0c0.1,0,0.1,0.1,0.2,0.1c0.2,0,0.4,0,0.6,0
			c0.3,0.1,0.7,0.2,1,0.3c0.3,0.2,0.7,0.3,1,0.4l0,0c0,0,0,0,0,0c-0.2,0.1-0.4,0.2-0.6,0.3c-2.5,1.5-5,3.1-7.5,4.6
			c-0.9,0.6-1.9,1.1-2.9,1.7c-1.5,0.9-3.1,1.8-4.7,2.6c-0.9,0.5-1.8,0.9-2.6,1.4c-1.6,0.8-3.2,1.5-4.8,2c-0.4,0.1-0.8,0.3-1.3,0.4
			c-0.1-0.1-0.3-0.2-0.4-0.2c-0.3-0.1-0.6,0-0.9,0.1c0,0,0,0,0,0c0,0,0-0.1,0-0.1c0.8-0.1,1.6-0.2,2.3-0.6c0.3-0.2,0-0.6-0.3-0.4
			c-0.9,0.4-2.1,0.3-3.1,0.2c-1-0.1-2-0.1-2.9-0.1c-0.3,0-0.5,0-0.8,0c0.5,0.2,1,0.5,1.5,0.7c0.6,0.6,1.3,1.3,2.1,1.6
			c0,0,0.1,0,0.1,0c-1.9,0.7-4,1.2-6,1.4c-2.7,0.3-5.3,0.1-7.8-0.7c0,0,0,0,0,0c0,0,0.1,0.1,0.1,0.1c0.8,0.8,1.9,1.1,3.1,1.2
			c1.3,0.1,2.6,0,3.9-0.1c1.4-0.1,2.9-0.2,4.3-0.4c1.4-0.2,2.7-0.6,4.1-0.9c2.7-0.8,5.3-1.9,7.9-3.1c2.6-1.3,5.1-2.7,7.6-4.1
			c2.6-1.5,5.2-2.9,7.7-4.5c1.3-0.8,2.5-1.6,3.8-2.4c1.3-0.8,2.5-1.6,3.8-2.4c2.4-1.6,4.9-3.3,7.1-5.2c2.1-1.8,3.8-4.1,5.8-6
			c1.8-1.7,4.8-5.7,6.7-7.3l0,0c0.1-0.2,0.2-0.4,0.3-0.7C230.7,187.1,230.2,186.6,229.8,187z M178.7,221.3c0,0,0,0.1,0,0.1
			c-0.1,0-0.3,0-0.4-0.1C178.4,221.4,178.5,221.3,178.7,221.3C178.7,221.3,178.7,221.3,178.7,221.3z"/>
	</g>
	<path id="XMLID_199_" class="st6" d="M228.2,189.4c-3.5,3.4-7,7-10.6,10.3c-1.8,1.7-3.8,3.2-5.9,4.5c-2.1,1.3-4.3,2.6-6.5,4
		c-1.5,0.9-4.6,2.7-4.8,2.8c-1.7,0.9-3.2,2.3-4.9,3.3c-1.8,1-3.6,1.9-5.4,2.8c-1.8,0.9-3.6,1.9-5.5,2.6c-0.9,0.3-3.4,1.5-6.1,2.4
		c-3.1,1.1-6.3,2-6.2,2c2-0.3,4.1-1,6.1-1.6c2-0.6,3.9-1.1,5.9-1.8c1.9-0.7,3.6-1.6,5.4-2.5c1.8-0.9,3.6-1.9,5.4-2.8
		c1.2-0.7,2.4-1.5,3.5-2.4c2.1-1.2,4.2-2.4,6.3-3.6c2.2-1.3,4.3-2.7,6.4-4c2.1-1.3,4-2.7,5.9-4.4c1.9-1.7,3.7-3.4,5.5-5.2
		C224.7,193.8,228.2,189.3,228.2,189.4z"/>
</g>
<g id="XMLID_196_">
	<path id="XMLID_270_" class="st2" d="M82.7,77.8c-0.3-1.1-0.7-2.1-1.1-3.1c-0.5-1.2-1.7-2-2.6-3c-0.9-0.9-1.8-1.8-2.8-2.5
		c-1-0.8-2.1-1.5-3.1-2.3c-0.8-0.7-1.4-1.4-1.9-2.3c-0.1,0.3-0.3,0.4-0.5,0.6c-0.1,0.2-0.1,0.4-0.1,0.6c0,0.5,0.3,0.9,0.6,1.2
		c0.8,1.1,1.5,2.1,2.1,3.3c0.2,0.4,0.3,0.8,0.4,1.3c2.6,0.4,4.1,3.5,5.2,5.7c0.7,1.3,1.5,3.3,3.2,3.5c0.4,0.1,0.7,0,1-0.1
		C83.1,79.7,83,78.7,82.7,77.8z"/>
	<path id="XMLID_269_" class="st3" d="M82.5,74.4c0.7,1.1,1.3,2.4,1.7,3.7c-0.1-0.9-0.2-1.8-0.5-2.7c-0.7-2.1-2-3.8-3.5-5.4
		c0.4,0.5,0.7,1,0.9,1.5C81.6,72.5,81.9,73.5,82.5,74.4z"/>
	<path id="XMLID_268_" class="st2" d="M49.4,82.5c0.8,0,1.5,0.2,2.3,0.3c1.3,0.2,2.6-0.1,3.8-0.6c0.7-0.3,1.4-0.6,2-1.1
		c-1,0-2-0.1-3-0.1c-2.1,0-4.1-0.1-6.2-0.1c-0.7,0-1.2,0.6-1.3,1.2c0,0.3,0.1,0.6,0.2,0.8C48,82.7,48.7,82.5,49.4,82.5z"/>
	<path id="XMLID_267_" class="st2" d="M70.4,78.7c-0.4,0.7-0.9,1.3-1.3,2c0,0.5,0.1,0.9,0.2,1.4c0.2,1.3,2.2,1.6,2.4,0.2
		c0.4-2.3,0.5-4.6,0.5-6.9c0.7,0.6,2-0.1,2-1.1c0-0.9-0.2-1.8-0.4-2.7c-0.1,0-0.3,0-0.4,0C72.6,74.1,71.6,76.5,70.4,78.7z"/>
	<path id="XMLID_250_" class="st4" d="M71,52.3c-1.4-3.4-3-6.8-4.3-10.3c-0.1-0.3-0.2-0.6-0.4-0.9c0,0,0,0,0-0.1c0,0,0-0.1-0.1-0.1
		c0,0,0-0.1,0-0.1l0,0c-0.5-0.8-1.9-0.3-1.5,0.7c1.4,3.9,0.6,8.1-0.2,12c-0.4,2.1-0.9,4.4-2.1,6.2c-0.6,0.9-1.5,1.5-2.3,2.2
		c-1.1,0.8-1.9,1.7-2.6,2.8c-0.5,0.8,0.3,1.8,1.1,1.7c3.1-0.2,5.7-2.2,7.4-4.7c0.8-1.3,1.4-2.6,1.9-4.1c0.3,0.8,0.6,1.6,0.9,2.3
		c0,0.2-0.1,0.4,0,0.6c0,0,0,0.1,0,0.1c-0.1,0.2-0.2,0.5-0.2,0.7c0,0.8,0,1.6,0,2.4c0,0.1,0,0.1-0.1,0.2c-0.5,1.3-0.5,2.4,0.1,3.5
		c-0.1,0.1-0.1,0.2-0.1,0.3c-0.4,2.2-0.8,4.4-1.2,6.6c-0.2,0.9-0.3,2-0.7,2.9c0,0,0,0.1-0.1,0.1c-0.7,0-1.2,0.8-1.6,1.4
		c-0.4,0.4-0.7,0.8-1,1.2c-1.1,0.8-2.5,1-3.8,1.1c-0.8,0-1.7,0-2.5,0c-0.6,0.4-1.3,0.8-2,1.1c-1.2,0.5-2.5,0.7-3.8,0.6
		c-0.8-0.1-1.5-0.3-2.3-0.3c-0.8,0-1.5,0.2-2.2,0.5c0.2,0.3,0.5,0.5,0.8,0.6c-0.5,0.1-1,0.2-1.5,0.3c-0.4,0-0.7-0.1-1.1-0.2
		c-0.2,0-0.4,0.1-0.6,0.1c-0.8,0-1.7-0.1-2.5-0.2c-1.7-0.2-3.6-0.6-5.3-0.4c-1.5,0.1-3,0.9-3.5,2.4c-0.2,0.5-0.2,0.9-0.1,1.4
		c1.7-1.2,3.8-1.9,5.9-1.9c1.1,0,2.3,0.2,3.4,0.6c1.4,0.5,2.5,1.4,4,1.4c1.3,0,2.5-0.5,3.9-0.3c1.4,0.2,2.5,0.8,3.6,1.5
		c0.3,0.2,0.6,0.4,1,0.5c-0.1,0.1-0.2,0.1-0.4,0.2c-0.7,0.4-1.6,0.6-2.4,0.8c-0.9,0.3-1.6,0.7-2.4,1.3c-0.7,0.6-1.3,0.9-2.2,1.2
		c-0.9,0.3-1.8,0.6-2.7,0.9c-1,0.3-2,0.6-2.9,1.1c-0.4,0.2-0.3,0.9,0.2,0.9c1.1,0.1,2-0.1,3.1-0.3c1-0.2,2.1-0.3,3.1-0.5
		c0.9-0.2,1.8-0.6,2.5-1.1c0.8-0.6,1.4-1.1,2.4-1.4c1.8-0.5,3.4-1.3,4.8-2.5c1-0.1,2-0.5,2.8-1.1c-0.3,0.8-0.6,1.6-0.7,2.4
		c-0.1,0.8,0,1.6,0.2,2.4c0.1,0.4,0.2,0.7,0.4,1.1c0.2,0.3,0.4,0.6,0.6,0.9c0.1,0.2,0.1,0.5,0.1,0.7c-0.1,0.4-0.1,0.8-0.2,1.2
		c0,0.1,0,0.2-0.1,0.3c-0.1,0.3-0.1,0.5-0.1,0.8c0,0.2,0,0.5,0.1,0.7c0.1,0.3,0.6,0.4,0.8,0.2c0.4-0.4,0.5-1.1,0.6-1.7
		c0.2-0.7,0.3-1.3,0.5-2c0.3-1.3,0.5-2.6,0.8-3.9c0.5-2.7,1.2-5.3,1.5-8c0-0.2,0-0.5-0.1-0.7c0.2-0.2,0.3-0.4,0.5-0.7
		c0.7-0.9,1.5-1.5,2.2-2.3c0.2-0.3,0.4-0.5,0.6-0.8c0.1,0.6,0.1,1.2,0.2,1.8c0.4-0.7,0.9-1.4,1.3-2c1.3-2.2,2.2-4.7,2.9-7.2
		c0.1,0,0.3,0,0.4,0c-0.1-0.4-0.3-0.9-0.4-1.3c-0.5-1.2-1.3-2.2-2.1-3.3c-0.3-0.4-0.6-0.8-0.6-1.2c0-0.2,0-0.4,0.1-0.6
		c0.2-0.1,0.4-0.3,0.5-0.6c0.5,0.9,1.1,1.7,1.9,2.3c1,0.8,2.1,1.5,3.1,2.3c1,0.8,1.9,1.6,2.8,2.5c0.9,0.9,2.1,1.7,2.6,3
		c0.4,1,0.8,2,1.1,3.1c0.2,0.9,0.4,1.9,0.4,2.9c1.1-0.5,1.3-2.3,1.4-3.4c0.2-3.3-1.1-6.4-3.4-8.7c-2.2-2.3-5.6-3.9-6.9-7
		c-0.2-0.5-0.3-1-0.4-1.5c-0.4-0.8-0.7-1.7-1-2.6C72.4,55.6,71.7,54,71,52.3z M83.7,75.4c0.3,0.8,0.5,1.8,0.5,2.7
		c-0.4-1.3-1-2.5-1.7-3.7c-0.6-0.9-0.9-1.9-1.4-2.9c-0.3-0.5-0.6-1-0.9-1.5C81.7,71.5,83,73.3,83.7,75.4z"/>
	<g id="XMLID_240_">
		<g>
			<path id="XMLID_00000031201188785099971640000012349676907818948778_" class="st5" d="M66.1,82.1c-0.2,0.2-0.3,0.4-0.5,0.7
				c0.1,0.2,0.1,0.5,0.1,0.7c-0.3,2.7-0.9,5.3-1.5,8c-0.3,1.3-0.5,2.6-0.8,3.9c-0.1,0.7-0.3,1.3-0.5,2c-0.1,0.6-0.2,1.2-0.6,1.7
				c-0.2,0.2-0.7,0.2-0.8-0.2c-0.1-0.2-0.1-0.5-0.1-0.7c0-0.3,0.1-0.5,0.1-0.8c0-0.1,0-0.2,0.1-0.3c0.1-0.4,0.1-0.8,0.2-1.2
				c0-0.2,0-0.5-0.1-0.7c-0.1-0.3-0.4-0.6-0.6-0.9c-0.2-0.4-0.3-0.7-0.4-1.1c-0.2-0.8-0.3-1.6-0.2-2.4c0.1-0.8,0.4-1.6,0.7-2.4
				c-0.8,0.6-1.8,1-2.8,1.1c-1.4,1.2-3,2-4.8,2.5c-1,0.3-1.6,0.8-2.4,1.4c-0.7,0.6-1.6,0.9-2.5,1.1c-1,0.2-2,0.3-3.1,0.5
				c-1,0.2-2,0.4-3.1,0.3c-0.5,0-0.5-0.7-0.2-0.9c0.9-0.6,1.9-0.8,2.9-1.1c0.9-0.3,1.8-0.6,2.7-0.9c0.8-0.3,1.5-0.6,2.2-1.2
				c0.7-0.6,1.5-1,2.4-1.3c0.8-0.3,1.6-0.4,2.4-0.8c0.1-0.1,0.2-0.1,0.4-0.2c-0.3-0.2-0.7-0.3-1-0.5c-1.2-0.7-2.3-1.3-3.6-1.5
				c-1.3-0.2-2.6,0.3-3.9,0.3c-1.5,0-2.7-0.9-4-1.4c-1.1-0.4-2.2-0.6-3.4-0.6c-2.1,0-4.2,0.7-5.9,1.9c0.2,1,1,1.8,2,2.2
				c1.8,0.7,3.9,0.6,5.8,0.7c1,0.1,2,0.1,3.1,0.2c-1.4,1-2.8,1.9-4.2,2.9c-0.3,0.2-0.6,0.6-0.5,1.1c0.4,3.4,5.1,1.6,7.1,1.2
				c1-0.2,2-0.4,3-0.7c-1.8,0.8-3.6,1.5-5.3,2.4c-3.3,1.6-7,3.9-8.5,7.4c0,0,0.1,0,0.1,0.1c0.8,0.3,1.8,0.7,2.6,0.5
				c1.1-0.3,2-1.4,2.8-2c1.1-0.8,2.2-1.6,3.4-2.2c2.4-1.4,5-2.6,7.3-4c1.2-0.7,2.4-1.5,3.4-2.4c1.1-0.9,2.3-1.8,3.1-3
				c0.4-0.7,1.5-0.2,1.2,0.6c-0.7,1.5-1.2,3-2.2,4.3c-0.1,0.1-0.2,0.3-0.4,0.4c0.9-0.7,1.8-1.5,2.6-2.3c-0.9,3-1.4,6.1,0.7,8.8
				c0.4,0.6,1.1,0.6,1.7,0.1c1.8-1.6,3.2-3.9,3.7-6.3c0.5-2.1,0.2-4.4,1.2-6.4c0.5-1.1,1.4-1.8,1.6-3c0.2-0.9,0.1-1.9-0.1-2.8
				c-0.1-0.8-0.4-1.8-0.1-2.6c0.1-0.4,0.3-0.8,0.5-1.1C69,80.2,69,79.6,68.9,79c-0.2,0.3-0.4,0.6-0.6,0.8
				C67.6,80.6,66.7,81.2,66.1,82.1z"/>
			<path id="XMLID_00000116199854555766916900000003205096436844540066_" class="st5" d="M59.9,91.7c0.3-0.8-0.7-1.3-1.2-0.6
				c-0.7,1.2-2,2.1-3.1,3c-1.1,0.9-2.2,1.7-3.4,2.4c-2.4,1.5-4.9,2.6-7.3,4c-1.2,0.7-2.3,1.4-3.4,2.2c-0.9,0.7-1.8,1.8-2.8,2
				c-0.8,0.2-1.8-0.2-2.6-0.5c0,0-0.1,0-0.1-0.1c-0.1,0.1-0.1,0.3-0.2,0.4c-0.3,0.8-0.3,1.7,0.3,2.4c0.7,0.7,1.7,0.7,2.6,0.5
				c0.9-0.2,1.8-0.7,2.7-1.1c0.9-0.4,1.8-0.9,2.7-1.4c3.6-2,7.1-4.3,10.5-6.6c0.9-0.7,1.9-1.3,2.8-2.1c0.1-0.1,0.2-0.3,0.4-0.4
				C58.7,94.7,59.2,93.2,59.9,91.7z"/>
			<path id="XMLID_00000181779864497211349220000002477278775716348290_" class="st5" d="M62,40.3c-0.2-0.4-0.4-0.8-0.6-1.1
				C61.6,39.5,61.8,39.9,62,40.3C62,40.3,62,40.3,62,40.3z"/>
			<path id="XMLID_00000040537845942790044130000014308015965219802007_" class="st5" d="M46,66.3c1-0.5,2.3-0.4,3.5-0.5
				c1.6-0.1,3.1-0.5,4.5-1.2c1.4-0.7,3-1.3,4.1-2.4c1.2-1.2,1.6-2.8,2.2-4.4c0.5-1.5,1-2.9,1.5-4.4c0.9-2.8,1.5-5.7,1.3-8.6
				c0-0.2,0-0.5-0.1-0.8c-0.2,0.4-0.5,0.9-0.7,1.3c-0.3,0.7-0.6,1.4-0.9,2.1c-0.5,1.4-0.9,2.8-1.2,4.2C59,56.1,57.4,62.2,52,62.9
				c-2.6,0.3-5.5,0.2-7.1,2.7c-0.3,0.4-0.1,1.1,0.3,1.4C45.3,66.8,45.7,66.5,46,66.3z"/>
		</g>
	</g>
	<g id="XMLID_236_">
		<path id="XMLID_239_" class="st6" d="M72.4,46c-1.4-1.3-3.3-2.1-4.5-3.6c-0.3-0.4-0.6-0.8-0.9-1.3c-0.3-0.3-0.5-0.7-0.8-1
			c-0.1-0.1-0.2-0.2-0.2-0.3c-0.8-0.8-1.6-1.6-2.6-2.2c-0.5-0.4-0.5-1.1-0.1-1.4c-0.4-0.4-0.9-0.7-1.4-1c-0.3-0.2-0.7-0.2-0.9,0
			c-0.6-0.6-1.7,0.1-1.2,0.9c0.6,1,1.2,2,1.7,3c0.2,0.3,0.4,0.7,0.6,1.1c0.3,0.7,0.7,1.3,1,2c0.2,0.5,0.4,1,0.2,1.5
			c0,0.1-0.1,0.2-0.1,0.3c0,0.3,0.1,0.5,0.1,0.8c0.2,2.9-0.5,5.8-1.3,8.6c-0.5,1.5-1,2.9-1.5,4.4c-0.5,1.5-0.9,3.2-2.2,4.4
			c-1.2,1.1-2.7,1.7-4.1,2.4c-1.4,0.7-2.9,1-4.5,1.2c-1.1,0.1-2.4,0-3.5,0.5c-0.4,0.2-0.7,0.5-0.9,0.8c0.1,0.1,0.3,0.2,0.5,0.2
			c2.2,0.2,4.5,0.4,6.7,0.6c1.1,0.1,2.1,0.2,3.2,0.3c1.1,0.1,2.1,0.2,3.2,0c2-0.4,3.8-1.9,5.3-3.2c0.8-0.7,1.5-1.4,2.1-2.2
			c0.1-0.1,0.2-0.3,0.3-0.4c0.2,0.1,0.3,0.5,0.3,0.7c0.2,1.1-0.6,2.3-1.1,3.2c-0.6,1.2-1.3,2.4-1.4,3.7c-0.1,0.7,0,1.4,0.3,2.1
			c0,0,0,0.1,0,0.1c0,0-0.1,0-0.1,0.1c-0.2,0-0.4,0.2-0.5,0.3c-0.5,0.2-1,0.4-1.4,0.5c-0.8,0.3-1.7,0.4-2.5,0.5
			c-1,0.1-2-0.1-2.9,0.2c-1,0.3-1.8,1-1.9,2c-0.2,1.1,0.5,2.1,1.6,2.3c1,0.2,2-0.1,3,0c0.4,0.1,0.9,0.1,1.3,0.3
			c-1.1,1-2.2,2-3.4,2.8c0.9,0,1.7,0,2.5,0c1.3-0.1,2.8-0.3,3.8-1.1c0.3-0.4,0.6-0.8,1-1.2c0.4-0.7,0.9-1.4,1.6-1.4
			c0,0,0-0.1,0.1-0.1c0.5-0.8,0.5-1.9,0.7-2.9c0.5-2.2,0.8-4.4,1.2-6.6c0-0.1,0.1-0.2,0.1-0.3c-0.6-1.2-0.5-2.3-0.1-3.5
			c0-0.1,0-0.1,0.1-0.2c0-0.8,0-1.6,0-2.4c0-0.3,0.1-0.5,0.2-0.7c0,0,0-0.1,0-0.1c0-0.2,0-0.4,0-0.6c-0.3-0.8-0.6-1.5-0.9-2.3
			c-0.4,1.4-1,2.8-1.9,4.1c-1.7,2.5-4.3,4.5-7.4,4.7c-0.8,0.1-1.6-0.9-1.1-1.7c0.7-1.2,1.5-2,2.6-2.8c0.9-0.6,1.7-1.3,2.3-2.2
			c1.3-1.8,1.7-4.1,2.1-6.2c0.8-3.9,1.6-8.1,0.2-12c-0.4-1,1-1.5,1.5-0.7l0,0c0,0,0,0.1,0,0.1c0,0,0,0.1,0.1,0.1c0,0,0,0,0,0.1
			c0.1,0.3,0.2,0.6,0.4,0.9c1.4,3.4,2.9,6.8,4.3,10.3c0.7,1.7,1.3,3.4,1.8,5.1c0.3,0.9,0.6,1.8,1,2.6c-0.1-0.4-0.1-0.8-0.2-1.2
			c-0.2-1-0.4-2-0.7-3c-0.4-1.5-1-2.9-1.7-4.3c1.2-0.2,2.5-0.1,3.7,0.2c0-0.5-0.1-1-0.2-1.5C74.4,48.6,73.6,47.1,72.4,46z"/>
		<path id="XMLID_238_" class="st6" d="M63.4,37.7c0.9,0.6,1.8,1.4,2.6,2.2c0.1,0.1,0.2,0.2,0.2,0.3c-0.3-0.4-0.5-0.7-0.7-1.1
			c-0.7-1-1.3-2-2.2-2.8C62.9,36.6,62.9,37.3,63.4,37.7z"/>
		<path id="XMLID_237_" class="st6" d="M77.5,50.4c-1-1.7-2.2-3.5-3.6-4.9c-0.7-0.7-1.5-1.3-2.4-1.8c-0.8-0.5-1.7-0.7-2.6-1.1
			c-0.8-0.4-1.4-0.9-2-1.5c0.3,0.4,0.6,0.9,0.9,1.3c1.2,1.5,3.1,2.2,4.5,3.6c1.2,1.1,2,2.6,2.4,4.2c0.1,0.5,0.2,1,0.2,1.5
			c0.4,0.1,0.8,0.2,1.1,0.3C77.1,52.3,78.1,51.4,77.5,50.4z"/>
	</g>
	<path id="XMLID_235_" class="st6" d="M66.6,49c0,0.4,0.1,0.9,0.1,1.3c-0.2,1.1,0.1,2.3,0.2,3.4c0.1,0.5,0.1,1,0,1.5
		c-0.1,0.5-0.3,1-0.4,1.5c-0.1,0.4,0,0.8-0.1,1.2c-0.1,0.6-0.5,1.2-0.8,1.7c-0.8,1.2-3,3.3-3,3.4c0,0.2,0.2,0.5,0.5,0.3
		c1.1-0.9,2.2-1.8,3-2.9c0.7-0.9,1.3-1.7,1.3-2.8c0-0.4,0.1-0.8,0.2-1.2c0.1,0.4,0.2,0.8,0.3,1.1c0.1,0.9,0.2,1.8,0.3,2.7
		c0.1,1.7,0.1,3.3,0,5.1c-0.2,3.5,0.7,7-0.7,10.3c-0.6,1.5-1.6,2.9-2.9,4c-1.4,1.2-3,2-4.6,2.8c-0.9,0.5-1.6,1.1-2.5,1.4
		c-0.8,0.3-1.7,0.3-2.6,0.3c-1,0-2,0-3-0.1c-1.1,0-2.3,0-3.4,0c-0.5,0,1.9,1.3,3,1.4c1,0.1,2.1,0.2,3.1,0.4c0.8,0.1,1.6,0.2,2.4,0.1
		c0.9-0.1,1.8-0.4,2.7-0.7c1.8-0.5,3.7-1.6,5.2-2.8c-0.4,1.4-0.5,2.7-0.7,4.1c-0.2,1.5-0.8,2.8-1,4.3c-0.2,1.5-0.2,3-0.2,4.5
		c0,0.3,0.6-2.7,0.8-4.1c0.2-1.2,0.7-2.3,1.1-3.5c0.6-2.2,0.2-5.1,1.9-6.8C67,81,67,80.8,67,80.7c0.7-0.7,1.2-1.5,1.7-2.4
		c0.9-1.5,1.5-3.3,1.7-5.1c0.2-1.9,0-3.8,0.1-5.7c0-1.2,0.2-2.5,0.3-3.7c0.4,0.7,1,1.3,1.5,1.8c1,0.9,2.2,1.5,3.4,2.1
		c1.2,0.6,2.3,1.2,3.4,1.9c0.5,0.4,1,0.8,1.4,1.3c0.4,0.5,0.7,1,1.1,1.4c0.2,0.2,0.6,0,0.6-0.3c0-1-0.8-2-1.4-2.7
		c-0.8-0.9-1.7-1.6-2.6-2.2c-2.2-1.5-4.3-3.1-5.5-5.5c-1-1.9-2-3.9-2.8-5.9c0,0,0,0,0,0c-0.4-2.1-0.7-4.3-1.4-6.2
		c-0.7-1.8-1.7-4-3.1-5.4C65.1,43.7,66,47.5,66.6,49z"/>
</g>
<g id="XMLID_184_">
	<path id="XMLID_197_" class="st8" d="M183.2,74.3c-0.4,0.2-0.8,0.4-1.1,0.6c-1,0.5-2,1.1-3,1.7c-2,1.1-3.9,2.3-5.9,3.5
		c-0.3,0.2-0.7,0.4-1,0.6c0.3,0.3,0.7,0.6,1,1c1.3,1.8,2.2,4,2.9,6.1c2.8,9,1.1,19.3-5.1,26.7c-6,7.2-15.3,11.1-24.5,10.1
		c-5.2-0.6-10.1-2.6-14.5-5.4c-2.4-1.5-5.4-3.5-7.2-6.1c-2.9,2-5.8,4-8.7,6c-3.7,2.7-7.3,5.4-11.1,8c-1.9,1.4-3.9,2.7-5.9,4.1
		c-1.4,1-3.9,2.1-5,3.7c0,0,0,0,0.1,0c13.8,8.6,30,11.7,46.1,8.5c14.9-3,28.5-12.1,37.2-24.9c4.5-6.6,7.4-14.4,8.4-22.3
		c0.5-3.8,0.5-7.6,0.1-11.3c-0.2-2-0.6-4-1-5.9c-0.4-1.6-1.1-3.2-1.5-4.8C183.4,74.2,183.3,74.2,183.2,74.3z"/>
	<g id="XMLID_185_">
		<path id="XMLID_195_" class="st9" d="M166.7,84.1c2.4,11.7,0.4,25.3-10.9,31.7c-8.5,4.9-21.7,2.9-26.5-6c-0.7,0.5-1.3,0.9-2,1.4
			c-0.8,0.6-1.7,1.2-2.5,1.8c1.8,2.6,4.8,4.6,7.2,6.1c4.4,2.8,9.3,4.8,14.5,5.4c9.2,1,18.5-2.9,24.5-10.1c6.2-7.4,7.9-17.7,5.1-26.7
			c-0.7-2.1-1.6-4.4-2.9-6.1c-0.3-0.4-0.6-0.7-1-1C170.4,81.8,168.5,82.9,166.7,84.1z"/>
		<path id="XMLID_193_" class="st9" d="M155.8,115.8c11.3-6.4,13.2-20,10.9-31.7c-1.8,1.1-3.5,2.3-5.3,3.4
			c-7.7,5-15.3,10.3-22.8,15.6c-3.1,2.2-6.3,4.5-9.4,6.7C134.1,118.7,147.3,120.7,155.8,115.8z"/>
	</g>
</g>
<g id="XMLID_308_">
	<g id="XMLID_342_">
		<path id="XMLID_352_" class="st10" d="M98.1,26.1c1.3-2.1,1.1-4.6,0.9-7c-1.3-1.4-2.6-2.8-4.1-4c-0.8-1-1.7-2.2-2.7-3
			c-0.9-0.7-2.1-0.9-3.1-0.4c-1.2,0.6-1.5,1.9-1.3,3.2c0.2,1,0.7,1.9,1.1,2.9c0.5,1.2,0.9,2.4,1.7,3.4c1.5,2,3.3,3.9,5.3,5.4
			c0.3,0.2,0.7,0.5,1,0.7C97.4,27,97.8,26.6,98.1,26.1z"/>
		<path id="XMLID_347_" class="st10" d="M91.2,28.9c1.8,0.2,3.8-0.2,5.3-1.2c-1-0.6-2-1.3-2.9-2c-2.1-1.7-4.2-3.5-5.4-5.9
			c-1.1-2.1-1.5-4.7-1.6-7c0.9-1.8,2-3.5,3.1-5.2C90,7,89.4,6.2,88.8,6.3c-4.1,0.7-6.9,4.6-7.8,8.5c-0.5,2.1-0.5,4.4-0.4,6.5
			c0.1,0.7,0.2,1.4,0.4,2.1c0.5,0.6,1,1.2,1.6,1.7C84.9,27.2,88.1,28.6,91.2,28.9z"/>
		<path id="XMLID_346_" class="st10" d="M114.6,28.9c0.1-0.3-0.1-0.6-0.4-0.7c0.1,0.4,0.2,0.8,0.2,1.2
			C114.5,29.3,114.5,29.1,114.6,28.9z"/>
		<path id="XMLID_345_" class="st10" d="M106.8,26.1c1.1,0.6,2.2,1.2,2.9,2.2c0.7,0.9,1.2,2.3-0.1,3.1c-0.9,0.6-2.6,0.2-3.6,0.1
			c-0.4-0.1-0.8-0.1-1.3-0.2c0.9,0.3,1.9,0.5,2.9,0.7c0.6,0.1,1,0.5,1.3,0.9c0.2-0.1,0.4-0.3,0.6-0.4c1.5-1.2,2.6-2.7,3.9-4
			c0.2-0.2,0.5-0.2,0.7-0.1c-0.5-1.8-1.4-3.5-2.7-5c-2.2-2.6-5.2-4.4-8-6.4c-0.8-0.6-1.8-0.7-2.6,0.1c-0.8-0.5-2.1,0.1-2,1.2
			c0,0.3,0,0.7,0.1,1c0.5,0.5,1,1,1.4,1.6C102.3,22.8,104.3,24.8,106.8,26.1z"/>
		<path id="XMLID_344_" class="st10" d="M97,27.3c-0.2,0.1-0.4,0.3-0.5,0.4c1.9,1.1,3.9,2.1,6,2.8C100.6,29.7,98.7,28.5,97,27.3z"/>
		<path id="XMLID_343_" class="st10" d="M92.8,36.4c3.8,1.7,8.1,2.9,12.2,1.6c2.1-0.7,4-1.8,5.7-3.3c1.6-1.4,3.1-3.3,3.7-5.3
			c-0.1-0.4-0.1-0.8-0.2-1.2c-0.2-0.1-0.5,0-0.7,0.1c-1.3,1.3-2.4,2.8-3.9,4c-0.2,0.2-0.4,0.3-0.6,0.4c-0.3-0.4-0.7-0.8-1.3-0.9
			c-1-0.2-1.9-0.4-2.9-0.7c0.4,0.1,0.8,0.2,1.3,0.2c1,0.1,2.7,0.5,3.6-0.1c1.2-0.8,0.8-2.2,0.1-3.1c-0.8-1-1.8-1.6-2.9-2.2
			c-2.5-1.4-4.5-3.3-6.4-5.5c-0.5-0.5-0.9-1.1-1.4-1.6c0.2,2.4,0.4,5-0.9,7c-0.3,0.5-0.6,0.8-1,1.2c1.7,1.2,3.5,2.4,5.4,3.2
			c-2.1-0.7-4.1-1.7-6-2.8c-1.5,1-3.5,1.4-5.3,1.2c-3.1-0.3-6.3-1.7-8.6-3.8C82,24.5,81.5,24,81,23.3c0.4,1.4,1,2.7,1.8,3.9
			C85.3,30.9,88.7,34.5,92.8,36.4z"/>
	</g>
	<path id="XMLID_341_" class="st11" d="M113.6,31.3c-3.7,4.2-12.8,2.1-20.4-4.7c-7.6-6.7-10.8-15.6-7.1-19.7
		c3.7-4.2,12.8-2.1,20.4,4.7C114.1,18.3,117.3,27.2,113.6,31.3z"/>
	<path id="XMLID_340_" class="st1" d="M92.1,9.5c0.1,0.3,0.3,0.6,0.5,0.9c1,1,2.2,1.8,3.2,2.5c1.1,0.9,2.5,1.5,3.4,2.6
		c0.5,0.5,0.9,1.1,1.4,1.5c0.5,0.4,1.1,0.7,1.6,1c1.2,0.8,2.2,1.9,3.3,2.9c1.1,1,2.3,2.1,3.3,3.1c0.6,0.6,1.6,1.8,2.5,1.9
		c0.2-0.1,0.3-0.3,0.4-0.5c0.5-1.1,0.1-2.1-0.5-3.1c-0.1-0.2-0.2-0.3-0.3-0.5c0-0.3-0.1-0.6-0.2-0.8c-0.4-1.4-1.4-2.5-2.3-3.6
		c-0.9-1.2-1.5-2.6-2.4-3.8c-0.4-0.5-0.9-0.9-1.5-1.2c-0.4-0.2-0.7-0.3-1.1-0.6c-0.3-0.2-0.5-0.6-0.8-0.8c-1-0.9-2.6-1.3-3.9-1.6
		c-0.2-0.1-0.5-0.1-0.8-0.1c0,0-0.1-0.1-0.1-0.1c-0.4-0.3-0.8-0.5-1.3-0.7c-0.4-0.1-0.8,0-1.2,0c-0.3,0-0.6-0.3-0.8-0.4
		c-0.4-0.2-0.9-0.3-1.4-0.2C92.5,8,91.8,8.7,92.1,9.5z"/>
	<path id="XMLID_339_" class="st1" d="M109.5,29.3c0.5-0.9-0.1-1.7-0.7-2.3c-0.7-0.8-1.6-1.6-2.3-2.4c-0.9-1-1.8-1.9-2.8-2.7
		c-2.1-1.7-4.4-3-6.4-4.8c-1-0.9-1.9-2-2.9-2.9c-1-1-2.1-1.8-3.4-2.6c-0.2-0.1-0.3-0.1-0.5-0.2c-0.2-0.1-0.5-0.2-0.8-0.2
		c-1,0.1-1.3,1.1-1.1,1.9c0.2,1.1,0.7,2,1.1,3c0.4,1,0.8,2.1,1.3,3c0.5,1,1.2,1.9,1.9,2.8c0.8,1.1,1.7,2.1,2.8,3
		c0.9,0.8,1.8,1.6,2.9,2.1c0.4,0.2,0.9,0.2,1.3,0.5c0.6,0.4,1,0.9,1.8,1c0.4,0.1,0.9,0.1,1.3,0.2c0.5,0.2,1,0.5,1.5,0.8
		c0.8,0.5,1.8,1,2.8,1C108,30.4,109,30.1,109.5,29.3z"/>
	<path id="XMLID_338_" class="st6" d="M97.6,11.4c0,0.1,0-0.1,0-0.1c0-0.1,0-0.2,0-0.4c0-0.2-0.1-0.4-0.2-0.5
		c-0.2-0.3-0.4-0.4-0.6-0.6c-0.4-0.4-1.1,0.1-0.9,0.6c0.2,0.5,0.3,1.3,0.9,1.5C97.1,11.9,97.6,11.8,97.6,11.4z"/>
	<path id="XMLID_337_" class="st6" d="M99.7,12.1c0.1-0.3,0.1-0.5,0-0.8c0-0.1-0.1-0.3-0.1-0.4c-0.1-0.2-0.3-0.4-0.6-0.4
		c-0.3,0-0.5,0.2-0.6,0.5c-0.1,0.5,0,1.1,0.5,1.4C99.2,12.6,99.6,12.5,99.7,12.1z"/>
	<path id="XMLID_336_" class="st6" d="M103.3,13.1c0.1-0.3,0-0.7-0.3-0.8c-0.3-0.2-0.6,0-0.8,0.3c0,0,0,0,0,0c0-0.1,0-0.2,0-0.3
		c0-0.2,0-0.4-0.1-0.5c-0.1-0.1-0.3-0.3-0.5-0.3c-0.4-0.1-0.7,0.2-0.8,0.6c-0.1,0.4-0.2,0.8,0.1,1.2c0,0,0,0,0,0.1
		c0.1,0.2,0.5,0.3,0.7,0.2c-0.2,0.5-0.4,1,0.1,1.2C102.6,15,103.1,13.6,103.3,13.1z"/>
	<path id="XMLID_335_" class="st6" d="M104.2,14.9c0.1-0.1,0.1-0.2,0.2-0.4c0.1-0.2,0.1-0.5-0.1-0.7c-0.2-0.2-0.5-0.2-0.7-0.1
		c-0.1,0.1-0.2,0.1-0.3,0.2c-0.1,0.1-0.2,0.3-0.3,0.5c0,0.1,0,0.2,0,0.3c0,0.2,0.2,0.4,0.4,0.4c0.1,0,0.2,0,0.2,0
		C103.9,15.2,104,15.1,104.2,14.9z"/>
	<path id="XMLID_334_" class="st6" d="M106.5,16.5c0-0.1,0-0.2-0.1-0.3c-0.1-0.1-0.2-0.2-0.4-0.3c-0.1,0-0.3,0-0.4,0
		c-0.1,0-0.2,0-0.3,0c-0.1,0-0.2,0-0.3,0.1c0,0,0,0,0,0c0.2-0.2,0.3-0.4,0.4-0.6c0.3-0.5-0.5-1-0.9-0.6c-0.2,0.3-0.5,0.5-0.7,0.7
		c-0.3,0.4,0,1.1,0.6,0.9c0,0,0.1,0,0.1-0.1c-0.1,0.1-0.1,0.2-0.1,0.4c0,0.3,0.2,0.6,0.5,0.6c0.1,0,0.2,0,0.3,0c0.1,0,0.2,0,0.4-0.1
		c0.1,0,0.3-0.1,0.4-0.1C106.4,17,106.6,16.8,106.5,16.5z"/>
	<path id="XMLID_333_" class="st6" d="M107.4,18.8c0.2-0.2,0.1-0.6-0.1-0.8c-0.4-0.3-0.9-0.7-1.5-0.7c-0.3,0-0.5,0.2-0.6,0.5
		c-0.1,0.3,0.1,0.6,0.4,0.7c0.3,0.2,0.7,0.3,1.1,0.4C107,19.1,107.3,19,107.4,18.8z"/>
	<path id="XMLID_332_" class="st6" d="M108.8,20.7c0.1-0.2,0-0.6-0.3-0.7c-0.4-0.2-0.8-0.4-1.2-0.6c-0.3-0.2-0.7,0-0.9,0.3
		c-0.2,0.3,0,0.7,0.3,0.9c0.4,0.3,0.9,0.4,1.4,0.5C108.4,21.1,108.7,21,108.8,20.7z"/>
	<path id="XMLID_331_" class="st6" d="M109.3,22.2c-0.3-0.2-0.7-0.4-1-0.6c-0.3-0.2-0.6-0.4-1-0.3c-0.1,0-0.3,0.2-0.3,0.3
		c-0.1,0.9,1.1,1.3,1.8,1.5C109.5,23.3,109.9,22.5,109.3,22.2z"/>
	<path id="XMLID_330_" class="st6" d="M94.2,15c-0.6-0.4-1.2-0.9-1.9-1.2c-0.7-0.3-1.3,0.6-0.7,1.1c0.6,0.5,1.4,0.8,2.1,1.1
		C94.4,16.2,94.8,15.4,94.2,15z"/>
	<path id="XMLID_329_" class="st6" d="M94.3,16.5c-0.3-0.1-0.6-0.3-1-0.4c-0.4-0.1-0.7-0.3-1.1-0.2c-0.6,0.1-0.9,0.9-0.2,1.2
		c0.3,0.1,0.7,0.2,1,0.2c0.3,0.1,0.6,0.1,1,0.2C94.6,17.7,94.9,16.8,94.3,16.5z"/>
	<path id="XMLID_328_" class="st6" d="M95.5,18.1c-0.1-0.3-0.3-0.5-0.6-0.5c-0.3,0-0.7,0-1,0c-0.5,0-0.9,0.1-1.1,0.5
		c-0.1,0.3,0,0.6,0.1,0.8c0.3,0.4,0.8,0.2,1.3,0.1c0.3-0.1,0.7-0.2,1-0.2C95.4,18.7,95.6,18.3,95.5,18.1z"/>
	<path id="XMLID_327_" class="st6" d="M95.6,19.2c-0.7,0.2-2.2,0.3-2.1,1.3c0,0.4,0.5,0.8,0.9,0.6c0.6-0.2,1.2-0.6,1.7-0.9
		C96.6,19.9,96.1,19,95.6,19.2z"/>
	<path id="XMLID_326_" class="st6" d="M96.1,22.3c0.1-0.1,0.1-0.3,0.2-0.4c0.1-0.1,0.2-0.2,0.3-0.3c0.6-0.5,0-1.4-0.6-1
		c-0.3,0.2-0.6,0.4-0.8,0.7c-0.2,0.3-0.4,0.9,0,1.2C95.5,22.7,95.9,22.6,96.1,22.3z"/>
	<path id="XMLID_325_" class="st6" d="M97.6,24c0,0.1,0-0.1,0-0.1c0-0.1,0-0.2,0-0.2c0-0.1,0-0.1,0-0.1c0-0.1,0,0,0-0.1
		c0.1-0.2,0.2-0.4,0.3-0.6c0.2-0.3,0-0.6-0.2-0.8c-0.3-0.2-0.6-0.1-0.8,0.1c-0.3,0.3-0.5,0.7-0.7,1.1c-0.1,0.5,0,1,0.5,1.2
		C97.2,24.5,97.5,24.4,97.6,24z"/>
	<path id="XMLID_324_" class="st6" d="M99.5,25.2c0.1-0.5-0.1-0.9,0.1-1.4c0.1-0.3,0-0.6-0.3-0.8c-0.3-0.1-0.6,0-0.8,0.3
		C98.2,24,98,25,98.6,25.5C98.9,25.7,99.4,25.6,99.5,25.2z"/>
	<path id="XMLID_312_" class="st6" d="M102.2,26.3c0-0.3-0.1-0.5-0.2-0.8c0-0.2-0.1-0.5,0-0.8c0-0.3-0.1-0.6-0.5-0.7
		c-0.3-0.1-0.6,0.1-0.7,0.4c0-0.1,0-0.2,0-0.3c0-0.7-1.1-0.8-1.2-0.1c0,0.3,0,0.7,0,1c0,0.1,0,0.3,0.1,0.4c0,0.2,0.1,0.4,0.3,0.6
		c0.2,0.2,0.5,0.2,0.7,0.1c0,0,0.1-0.1,0.1-0.1c0,0.2,0.1,0.4,0.2,0.6C101.4,27.1,102.3,26.9,102.2,26.3z"/>
	<path id="XMLID_311_" class="st6" d="M105.3,26.6c-0.3-0.5-0.7-0.9-1-1.4c-0.2-0.4-0.9-0.2-1,0.2c0-0.1-0.1-0.2-0.1-0.3
		c-0.3-0.7-1.3-0.4-1.1,0.4c0.1,0.7,0.4,1.4,1,1.8c0.4,0.2,0.8-0.1,0.8-0.5c0.2,0.2,0.3,0.4,0.5,0.6
		C104.9,27.8,105.7,27.2,105.3,26.6z"/>
	<path id="XMLID_310_" class="st6" d="M106.9,26.2c0.2-0.9-0.9-1.4-1.5-1.8c-0.5-0.3-1,0.5-0.6,0.9c0.3,0.2,0.5,0.5,0.8,0.8
		c0.2,0.3,0.5,0.5,0.9,0.5C106.7,26.6,106.9,26.4,106.9,26.2z"/>
	<path id="XMLID_309_" class="st6" d="M96.2,11.8c0-0.3-0.1-0.5-0.2-0.7c-0.1-0.4-0.6-0.8-0.9-1c-0.5-0.3-1,0.4-0.7,0.8
		c0.2,0.3,0.4,0.7,0.7,0.9c0.2,0.2,0.4,0.3,0.6,0.4C95.9,12.1,96.2,12,96.2,11.8z"/>
</g>
</svg>
