<?xml version="1.0" encoding="utf-8"?>
<!-- Generator: Adobe Illustrator 26.0.1, SVG Export Plug-In . SVG Version: 6.00 Build 0)  -->
<svg version="1.1" id="Ñëîé_1" xmlns="http://www.w3.org/2000/svg" xmlns:xlink="http://www.w3.org/1999/xlink" x="0px" y="0px"
	 viewBox="0 0 1105.6 900.9" style="enable-background:new 0 0 1105.6 900.9;" xml:space="preserve">
<style type="text/css">
	.st0{fill:#F5D4E6;}
	.st1{fill:#FF87FF;}
	.st2{fill:#E66EEA;}
	.st3{fill:#00FFFF;}
	.st4{fill:#08B5B0;}
</style>
<g>
	<g>
		<g>
			<path class="st0" d="M644.6,35.3c28.6,38.3,21.9,93.2-16.5,121.8c-38.3,28.6-94.7,20.7-123.3-17.7
				c-28.6-38.3-19.5-93.9,18.8-122.5C562-11.7,616-3,644.6,35.3z"/>
		</g>
		<g>
			<path class="st1" d="M640.1,38.7c27,36.2,23.8,79.7-16.2,112.8c-34.8,28.8-85.5,19.2-112.4-17c-27-36.2-24.3-82.9,15.9-112.6
				C563.6-5,613.1,2.5,640.1,38.7z"/>
		</g>
		<g>
			<path class="st0" d="M585.8,91.4c-6.3,0.3-7.5-10.4-1.2-9.9c18.1,1.6,27.8-4.3,44.7-9.7c1.9-0.6,8.1-3.9,7.1-8
				c-1.6-6.9-3.2-9.7-7.7-15.7c-19.3-25.9-56.9-38.5-82-20.1c-3.4,2.5,0.3,12.8,3.2,16.9c10.2,14.5,13.5,17.3,23.3,31.9
				c3.5,5.2-1.8,9.7-6,5c-9.7-10.8-14.3-11.7-30.7-31.4c-3.8-4.6-13.2-3.1-14.6-1.7c-14.3,14.2-18.9,52.7,0.4,78.6
				c4.5,6,7,9.9,13.5,12.8c2.8,1.2,6-0.1,7.1-1.8c7.3-11.2,17.3-28.5,23.5-43.6c2.4-5.8,10.4-2.2,8.3,3.7
				c-8.6,24.7-21,51.9-9.8,54.5c18,4.2,35.1,1.4,51.1-10.5c16-11.9,24-25.1,24.4-43.6c0.1-4.2-4.6-9.4-6.7-9.3
				C607.6,90.4,611.9,90.2,585.8,91.4z"/>
		</g>
		<g>
			<path class="st2" d="M587.5,93.3c-6.3,0.3-7.3-12.9-1.1-14.1c25.4-4.8,39.3-5.9,45.5-14.4c4.6-6.2-2.7-7.9-7.5-14.4
				c-17.8-23.8-47.8-33.2-70.7-21.5c-2.5,1.3-4.2,4.1-3.9,7c1.3,13,11.9,18.8,25,39.2c3.4,5.3-6.5,10.7-10.6,5.9
				c-15.4-17.9-19.3-19.9-28.8-29.4c-2.6-2.7-8.1-3.2-10.5-0.3c-17.8,21.5-16.9,49.3,0.5,72.7c3.4,4.6,12.9,15.8,16.4,9.9
				c4.2-6.8,10.9-22.4,23.9-40.8c3.7-5.2,11.8-1.5,10.3,4.6c-6.3,25-11.4,39.4-10.2,47.5c1.1,7.2,24.5,7.2,47.1-8.4
				c16.3-11.2,24.9-27.2,21.7-37.6C631.9,90.3,613.4,92.1,587.5,93.3z"/>
		</g>
		<g>
			<path class="st1" d="M534.4,62.2c2.9,3.6,4.4,2.4,7.3,6c1.1,1.3-0.7,5.2-2.4,5c-4.6-0.6-4.3-2.4-8.9-3c-4-0.5-6.4-4.6-4.4-8.1
				C528,58.3,531.9,59.1,534.4,62.2z"/>
		</g>
		<g>
			<path class="st1" d="M527.2,77.7c4.1,2.1,4.5,1.2,8.6,3.3c1.5,0.8,1.8,2.9,0.1,3.4c-4.4,1.3-4.6,0.6-9,2c-3.8,1.2-6-1.5-5.6-5.5
				C521.8,76.6,523.8,75.8,527.2,77.7z"/>
		</g>
		<g>
			<path class="st1" d="M527.8,94.7c4.6,0.3,4.5,2.2,9.1,2.5c1.7,0.1,3.3,2.7,2.1,3.8c-3.5,3-3.7,2.8-7.2,5.8
				c-3,2.6-9.8,1.1-11.1-2.7C519.3,100,523.9,94.4,527.8,94.7z"/>
		</g>
		<g>
			<path class="st1" d="M535.4,111.5c4.3-1.6,4.9,0.1,9.2-1.5c1.6-0.6,2.6,0.6,1.9,2.1c-1.9,4.2-1.8,4.2-3.7,8.4
				c-1.7,3.6-5.5,3.8-8.2,0.9C531.6,118.2,531.7,112.8,535.4,111.5z"/>
		</g>
		<g>
			<path class="st1" d="M572.2,132.2c1.7-4.3,1.8-4.2,3.5-8.5c0.6-1.6,1.5-2.2,2.1-0.6c1.8,4.2,1,4.6,2.8,8.8c1.6,3.7-0.3,6-4.3,6.1
				C572,138.1,570.8,135.8,572.2,132.2z"/>
		</g>
		<g>
			<path class="st1" d="M589.8,132.8c-0.2-4.6-1.7-4.5-1.8-9.1c-0.1-1.7,4.2-3.8,5.4-2.6c3.4,3.1,3,3.5,6.4,6.6
				c2.9,2.7,1.6,8.6-2,10.2C593.9,139.7,590,136.7,589.8,132.8z"/>
		</g>
		<g>
			<path class="st1" d="M604.5,124c-2-4.1-0.1-5.1-2.2-9.2c-0.8-1.5,0.4-3.6,2-3c4.3,1.5,4,2.5,8.4,4c3.8,1.3,4.1,4.8,1.5,7.8
				C611.4,126.8,606.3,127.5,604.5,124z"/>
		</g>
		<g>
			<path class="st1" d="M619,111.5c-3-2.5-3-2.5-6-5c-1.1-0.9-0.3-2.5,1.1-2.6c3.9-0.3,3.7-2.1,7.6-2.4c3.4-0.3,5.8,4.1,4.8,7.4
				C625.4,112.3,621.5,113.6,619,111.5z"/>
		</g>
		<g>
			<path class="st1" d="M617,68c-4.5,0.7-4.4,1.5-9,2.1c-1.7,0.2-2.7-2.1-1.7-3.5c2.8-3.7,2.3-4,5.1-7.7c2.4-3.2,7-2.4,9,1
				C622.6,63.7,620.8,67.5,617,68z"/>
		</g>
		<g>
			<path class="st1" d="M605,51.6c-3.9,2.5-3.9,2.4-7.8,4.9c-1.4,0.9-3.5,0.8-3.1-0.9c1-4.5,1.6-4.4,2.6-8.8
				c0.9-3.9,6.9-6.7,10.2-4.4C610.4,44.8,608.3,49.5,605,51.6z"/>
		</g>
		<g>
			<path class="st1" d="M588.4,42.8c-2.5,3.8-1.6,4.5-4.1,8.3c-0.9,1.4-3.8,1.4-4.1-0.3c-0.9-4.5-1.1-4.5-1.9-9
				c-0.8-3.9,3.6-6.2,7.5-5.4C589.8,37.2,590.5,39.5,588.4,42.8z"/>
		</g>
		<g>
			<path class="st1" d="M572.4,41.9c-0.8,4.5-2.7,4.2-3.4,8.7c-0.3,1.7-2.3,2.3-3.2,0.9c-2.6-3.8-3.3-3.3-5.9-7.1
				c-2.3-3.3,0.5-7.3,4.4-8.2C568.4,35.3,573.1,38.1,572.4,41.9z"/>
		</g>
		<g>
			<path class="st1" d="M584.4,85.3c-0.8-6.8,5-12.2,11-14.7c1.1-0.4,2.8-1.5,2.1-2.8c-3.8-6.3-14.2-12.7-23.3-12.3
				c-1.2,0.1-3.1,2.4-2.7,3.5c2.4,6.1,3.3,15-2.2,19.1s-15.2,2.6-20.4-1.4c-0.9-0.7-2.3-1-3.5,1.1c-4.6,7.9-0.7,17.2,4.5,25.3
				c0.6,1,2.2,1,3,0.1c4.1-5.1,11.2-9.6,17.5-6.9c6.3,2.7,8.7,11.5,7.8,18c-0.2,1.2,1.7,1.7,2.9,1.5c9.3-1.7,16.6-7.3,20.9-15.6
				c0.5-1.1,0.6-2.7-0.6-2.9C595,96.5,585.2,92.1,584.4,85.3z"/>
		</g>
	</g>
	<g>
		<g>
			<g>
				<path class="st3" d="M1036.8,688.5c-3,2-6,5.3-8.3,8c-0.4-3.2-1.1-5.8-1.5-6.7c-0.6-1.6-2.8-1.8-3.7-0.4
					c-2.1,3.4-3.9,9.4-4.7,13.5c-0.5,2.7-0.6,3.6-0.8,4.7c-1.1-4.3-2.7-8.2-4.7-11.1c-1.4-2.1-4.4-1.9-5.6,0.3
					c-1.5,2.8-2.4,5.8-2.7,9.2c-0.6-1-1.1-1.9-1.7-2.8c-0.9-1.3-3-0.8-3.2,0.8c-1,7.6,4.4,23,6.3,27.6c2.8,6.8,1.5,13.1,1.5,13.1
					c-4.1-18-11.4-28-15.5-32.5c-1-1.1-2.9-0.5-3.1,1c-0.1,0.9-0.1,2.5-0.1,3.4c-1.8-3.1-4.3-7.1-6.8-9.8c-2-2.2-5.7-1.2-6.3,1.8
					c-1,5.6-0.5,13.7,0.3,19.8c-1.2-1.7-3.4-4.5-4.8-6c-1.2-1.2-3.2-0.2-2.9,1.5c1,5.4,4.4,14.1,6.7,19.4
					c4.6,10.3,11.9,20.9,14.4,30.2c1.7,6.1-0.7,23.2-0.7,23.2l2.9,1.3l48.6-110C1039.4,687.7,1038,687.7,1036.8,688.5z"/>
				<path class="st3" d="M1061,761.7c-2,0-5.7-0.7-7.8-0.5c4.7-3.3,11.9-6.9,15.5-11.5c1.8-2.4,0.2-5.8-2.9-5.8
					c-3.2,0-7.3,0.7-10.4,1.3c0.5-0.4,1.3-1.2,1.8-1.8c1-1.2,0.1-3-1.4-2.9c-1.1,0.1-4,0.5-7.2,1.4c-7.9,2.2-16.3,6.2-23.1,10.6
					c0,0,0.8-2.6,2.6-4c3-2.3,15.8-8.7,22.1-13.8c2.7-2.2,4.9-4.3,5.6-5.2c1-1.2,0-3.1-1.5-2.9c-0.9,0.1-2.6,0.5-3.5,0.7
					c1.4-1.9,3.2-4.6,4.2-6.7c0.9-1.9-0.9-4.1-3-3.6c-2.5,0.6-5.8,2-8.1,3.1c-5,2.5-6.6,3.9-8,4.6c0.5-1.4,8-8.5,10.9-13.2
					c1.6-2.6,3.7-6.7,4.4-9.7c0.4-1.8-1.3-3.4-3.1-2.8c-0.9,0.3-3,1.3-5.4,2.8c0.4-3.2,0.7-7.5,0.2-10.7c-0.2-1.4-1.1-2.4-2.3-2.9
					l-48.6,110l0.6-0.7c0,0,13.1-11.3,19.2-13.1c21-6,42.7-14,50.8-19C1063.9,764.6,1063.7,762.4,1061,761.7z"/>
			</g>
		</g>
		<path class="st4" d="M1038.7,703.2c-27.6,40.5-39.8,60.3-55,109.3c-0.3,0.9,0.2,1.9,1.2,2.2c0.9,0.3,1.9-0.2,2.2-1.3
			c2.8-9.7,1.3-4.7,5.4-15.9c4.1-12,12.4-33,19.2-46.2c8.4-17.2,18.2-33.1,27.7-47.6C1039.7,703.2,1039,702.7,1038.7,703.2z"/>
		<g>
			<path class="st4" d="M1052.8,752.9c-19.6,5.5-33.9,11.5-52.3,23.2c-0.8,0.5-1.5-0.7-0.8-1.2c18.5-11.6,35.5-17.9,52.9-22.4
				C1052.9,752.5,1053,752.9,1052.8,752.9z"/>
			<path class="st4" d="M985.6,719.6c8.2,19.1,12.3,34,14.7,55.6c0,0.4-0.2,0.7-0.6,0.8c-0.4,0-0.7-0.2-0.8-0.6
				c-0.2-2.1-0.2-3.5-0.9-8.9c-2.2-17.6-6.9-32.5-12.6-46.6C985.2,719.6,985.5,719.4,985.6,719.6z"/>
		</g>
	</g>
	<g>
		<g>
			<g>
				<path class="st3" d="M1103.1,797.5c-2.9-0.4-6.5-0.3-9.3-0.1c1.6-1.3,2.6-2.5,3-3c0.6-0.8-0.5-1.7-1.9-1.5
					c-3.1,0.5-7.6,2-10.4,3.2c-1.9,0.8-2.4,1.1-3.1,1.4c1.8-2,3.1-4,3.7-5.7c0.4-1.2-1.4-2.3-3.3-1.9c-2.4,0.5-4.7,1.3-6.8,2.4
					c0.2-0.6,0.5-1.1,0.6-1.6c0.2-0.8-1.2-1.4-2.3-0.9c-4.9,2.4-10.6,10-12.2,12.3c-2.3,3.5-6.6,5.3-6.6,5.3
					c7.9-8.1,9.5-14.4,9.7-17.5c0.1-0.8-1.3-1.3-2.3-0.8c-0.6,0.3-1.5,0.9-2,1.2c0.8-1.8,1.6-4.2,1.7-6c0.1-1.5-2.6-2.5-4.6-1.6
					c-3.7,1.7-8.1,4.8-11.1,7.3c0.3-1.1,0.6-2.9,0.7-3.9c0-0.9-1.7-1.2-2.5-0.5c-2.5,2.4-5.6,6.7-7.3,9.5c-3.3,5.4-5.1,12-9,16.3
					c-2.6,2.8-13.7,8.2-13.7,8.2l0.9,1.5l90.6-22.4C1105,798.2,1104.2,797.7,1103.1,797.5z"/>
				<path class="st3" d="M1075.1,833.1c-1.1-0.8-2.9-2.4-4.2-3c4.6,0.5,10.7,1.8,15.4,1.5c2.4-0.2,3.4-2.1,1.7-3.2
					c-1.8-1.2-4.5-2.4-6.7-3.3c0.5,0,1.4,0,2.1,0c1.3-0.1,1.8-1.1,0.8-1.6c-0.7-0.4-2.6-1.3-5-2.1c-5.8-2.1-12.9-3.7-19.2-4.6
					c0,0,1.9-0.7,3.8-0.5c3.1,0.3,14,2.6,20.5,3c2.8,0.2,5.2,0.2,6.2,0.1c1.3-0.1,1.8-1.1,0.8-1.6c-0.6-0.3-1.8-0.8-2.4-1
					c1.9-0.2,4.5-0.5,6.2-0.9c1.6-0.4,1.8-1.8,0.4-2.4c-1.7-0.7-4.5-1.4-6.4-1.8c-4.3-0.9-6-1-7.2-1.2c1-0.3,9.4-0.2,13.7-0.8
					c2.4-0.4,6-1.1,8.1-1.9c1.3-0.5,1.2-1.7-0.2-2.2c-0.7-0.2-2.5-0.6-4.7-1c2.1-1,4.7-2.5,6.2-3.8c0.7-0.6,0.8-1.3,0.4-1.9
					l-90.6,22.4l0.7,0c0,0,13.9,0.6,18.4,2.2c15.4,5.5,32.4,10.4,39.8,11.6C1075.1,835.2,1076.2,834.3,1075.1,833.1z"/>
			</g>
		</g>
		<path class="st4" d="M1095.7,803.6c-38.9,4.7-57.1,7.5-93.8,19.8c-0.7,0.2-0.9,0.8-0.6,1.2c0.4,0.4,1.2,0.6,2,0.4
			c7.2-2.5,3.5-1.2,12.1-3.8c9.2-2.9,25.9-7.5,37.4-9.9c14.7-3.2,29.3-5.4,43-7.3C1096.4,803.9,1096.2,803.5,1095.7,803.6z"/>
		<g>
			<path class="st4" d="M1075.4,826.8c-14.3-5.2-25.9-8.2-43.1-10.6c-0.8-0.1-0.5-0.8,0.2-0.7c17.2,2.5,30.5,6.4,43,11.1
				C1075.7,826.8,1075.6,826.9,1075.4,826.8z"/>
			<path class="st4" d="M1056.1,790.2c-6.2,9.9-12.4,16.9-23.4,25.6c-0.2,0.2-0.5,0.2-0.8,0.1c-0.2-0.1-0.3-0.4-0.1-0.5
				c1.1-0.9,1.9-1.4,4.6-3.6c8.8-7.2,14.6-14.4,19.4-21.6C1055.9,790,1056.1,790.1,1056.1,790.2z"/>
		</g>
	</g>
	<g>
		<g>
			<g>
				<g>
					<g>
						<path class="st3" d="M74.5,615.3l48,69.8l6.5-17.2l34.5,54l-27.9-24.5l-6.8,17.8l-56.2-48.9l-13.1,34.6L4.3,642.8l12.3-67.4
							l45.8,72.1L74.5,615.3z"/>
					</g>
				</g>
			</g>
		</g>
		<g>
			<g>
				<g>
					<g>
						<path class="st3" d="M50.3,720.4l51.6,29.3l-6.7-17.1l61.8,17.1l-37.1,0.4l6.9,17.8L83,759.6l13.4,34.5l-60.5-1.3L0,734.4
							l62.7,18L50.3,720.4z"/>
					</g>
				</g>
			</g>
		</g>
		<g>
			<g>
				<g>
					<g>
						<path class="st3" d="M114.9,848.7l43.1-40.8l-18.3,1.4l34.4-54.1l-10.4,35.6l19-1.4l-20.7,39.5l36.9-2.8L180,883.6l-66.3,17.4
							l35.5-54.8L114.9,848.7z"/>
					</g>
				</g>
			</g>
		</g>
	</g>
</g>
</svg>
