<?xml version="1.0" encoding="utf-8"?>
<!-- Generator: Adobe Illustrator 26.0.1, SVG Export Plug-In . SVG Version: 6.00 Build 0)  -->
<svg version="1.1" id="Ñëîé_1" xmlns="http://www.w3.org/2000/svg" xmlns:xlink="http://www.w3.org/1999/xlink" x="0px" y="0px"
	 viewBox="0 0 706.5 602.1" style="enable-background:new 0 0 706.5 602.1;" xml:space="preserve">
<style type="text/css">
	.st0{fill:#F5D4E6;}
	.st1{fill:#AC4D9D;}
	.st2{fill:#F7D9E9;}
	.st3{fill:#AC4F9E;}
	.st4{fill:#F9DDEC;}
	.st5{fill:#AC529F;}
	.st6{fill:#FBE2EF;}
	.st7{fill:#AC54A0;}
	.st8{fill:#FDE6F2;}
	.st9{fill:#AC57A1;}
	.st10{fill:#FFEBF5;}
	.st11{fill:#AC59A2;}
	.st12{fill:#00FFFF;}
	.st13{fill:#08B5B0;}
	.st14{fill-rule:evenodd;clip-rule:evenodd;fill:#310C66;}
	.st15{fill:#582999;}
	.st16{fill:#FF87FF;}
	.st17{fill:#E66EEA;}
	.st18{fill:#EAE6D3;}
	.st19{fill:#F8F9F4;}
	.st20{fill:#D5FF00;}
	.st21{fill:#C9E503;}
	.st22{fill-rule:evenodd;clip-rule:evenodd;fill:#ADBA04;}
	.st23{fill:#F2E2BE;}
</style>
<g>
	<g>
		<path class="st0" d="M496.1,199.8c27.8,6.6,57.8-2.3,82.4-24.5c13.2-11.9,34.4-41.2,35.2-69.1c0.6-23.7-6-47.2-18.7-66
			c-5.5-8.1-11.9-15.1-19.2-21.1l-9,10.6c0,0,0.1,0.1,0.1,0.1c5.8,4.9,11,10.6,15.7,17.1c11.6,16.2,17.8,36.4,17.6,56.8
			c-0.4,24.4-17.9,49.2-29.5,60c-21,19.2-47,27-71.1,21.4c-16.1-3.8-32.3-12.2-44.6-22.9l-9.8,11.6c0.3,0.3,0.6,0.6,1,0.9
			C459.9,186.2,477.8,195.4,496.1,199.8z"/>
		<path class="st1" d="M446.6,180.8c14.6,13.4,34.6,24.1,55.1,28.9c29.2,7,60.8-2.3,86.5-25.6c9.9-8.9,35.8-39.3,36.7-72.3
			c0.7-24.7-6.3-49.1-19.5-68.6c-5.5-8.1-11.9-15.3-19.2-21.4c-1.3-1.1-2.5-2.1-3.8-3.1c-1.3-1-2.5-1.3-4.1-1.2
			c-0.8,0-2.4,1.6-2.4,1.6c7.2,6,13.7,13.1,19.2,21.1c12.7,18.8,19.4,42.2,18.7,66c-0.8,27.9-22,57.2-35.2,69.1
			c-24.6,22.2-54.7,31.1-82.4,24.5c-18.3-4.4-36.2-13.5-49.9-25.1c-0.3-0.3-0.7-0.6-1-0.9c0,0-1.3,1.6-1.3,2
			C443.9,177.7,445.2,179.6,446.6,180.8z"/>
		<path class="st2" d="M555,44c4.2,3.5,8,7.6,11.6,12.2c10,12.9,15.5,28.9,15.6,45c0.1,19.4-13.3,39.1-22.4,47.6
			c-16.2,15.2-36.5,21.4-55.7,17.2c-13.1-3-26.5-9.9-36.5-18.7l-10,11.8c0.4,0.3,0.7,0.6,1.1,0.9c11.6,9.8,26.7,17.6,41.8,21.1
			c22.8,5.3,47.4-2.1,67.4-20.4c7.7-7.1,27.8-31.1,28.2-57c0.2-19.5-5.7-38.9-16.8-54.4c-4.5-6.3-9.6-11.8-15.1-16.5l-9.4,11.1
			C554.9,44,555,44,555,44z"/>
		<path class="st3" d="M499.6,185.1c24.2,5.6,50.1-2.2,71.1-21.4c11.7-10.7,29.1-35.5,29.5-60c0.3-20.4-6-40.6-17.6-56.8
			c-4.7-6.5-9.9-12.3-15.7-17.1c0,0-0.1-0.1-0.1-0.1l-1.3,1.6l-1.3,1.5c5.6,4.7,10.6,10.2,15.1,16.5c11.1,15.5,17,34.9,16.8,54.4
			c-0.4,25.9-20.5,49.9-28.2,57c-20,18.3-44.6,25.7-67.4,20.4c-15.1-3.5-30.2-11.3-41.8-21.1c-0.4-0.3-0.7-0.6-1.1-0.9l-1.3,1.6
			l-1.3,1.5C467.3,172.8,483.4,181.3,499.6,185.1z"/>
		<path class="st4" d="M504.9,162.4c18,4,37.1-1.9,52.4-16.3c8.6-8.1,21.3-26.7,21.2-44.9c-0.1-15.3-5.4-30.5-14.8-42.8
			c-3.4-4.4-7.2-8.3-11.2-11.7L542.9,58c0.1,0.1,0.2,0.2,0.3,0.3c2.5,2.1,4.9,4.5,7.2,7.1c8.3,9.5,13.2,21.3,13.7,33.2
			c0.6,14.4-8.8,29-15.2,35.2c-11.5,11.2-26.2,15.9-40.3,13c-10.2-2.2-20.6-7.6-28.4-14.5l-10.3,12.1c0.4,0.3,0.7,0.7,1.1,1
			C480.5,153.4,492.8,159.7,504.9,162.4z"/>
		<path class="st5" d="M504.1,166c19.2,4.3,39.5-2,55.7-17.2c9.1-8.5,22.5-28.2,22.4-47.6c-0.1-16.1-5.6-32.1-15.6-45
			c-3.5-4.6-7.4-8.7-11.6-12.2c-0.1,0-0.1-0.1-0.2-0.1l-1.2,1.4l-1.2,1.4c4,3.4,7.8,7.3,11.2,11.7c9.5,12.3,14.8,27.5,14.8,42.8
			c0.1,18.3-12.6,36.9-21.2,44.9c-15.3,14.4-34.4,20.3-52.4,16.3c-12.1-2.7-24.4-9-33.8-17c-0.4-0.3-0.8-0.7-1.1-1l-1.2,1.4
			l-1.2,1.4C477.6,156,490.9,163,504.1,166z"/>
		<path class="st6" d="M532.9,73.4c0.5,0.4,0.9,0.8,1.4,1.2c6.8,6.1,10.9,13.5,11.8,21.4c1.2,10.1-4.7,19.4-8,22.9
			c-6.9,7.3-15.7,10.4-24.9,8.8c-7.1-1.3-14.8-5.1-20.5-10.2l-10.4,12.3c0.4,0.3,0.7,0.7,1.1,1c7.2,6.1,16.8,10.9,25.9,12.8
			c13.1,2.8,26.7-1.7,37.4-12.1c6-5.9,14.8-19.5,14.3-32.8c-0.5-11.1-5-22.2-12.9-31.2c-2.3-2.6-4.7-5-7.2-7L531.1,72
			C531.7,72.5,532.3,72.9,532.9,73.4z"/>
		<path class="st7" d="M508.6,146.8c14.1,3,28.8-1.7,40.3-13c6.4-6.3,15.8-20.9,15.2-35.2c-0.5-11.9-5.3-23.7-13.7-33.2
			c-2.3-2.7-4.7-5-7.2-7.1c-0.1-0.1-0.2-0.2-0.3-0.3l-1,1.2l-1,1.2c2.5,2.1,4.9,4.4,7.2,7c7.9,9,12.4,20.1,12.9,31.2
			c0.5,13.3-8.2,27-14.3,32.8c-10.7,10.5-24.3,14.9-37.4,12.1c-9.1-1.9-18.6-6.7-25.9-12.8c-0.4-0.3-0.7-0.7-1.1-1l-1,1.2l-1,1.2
			C488,139.3,498.4,144.7,508.6,146.8z"/>
		<path class="st8" d="M513.6,125c8.2,1.5,16.2-1.4,22.4-8c3.5-3.7,8.3-12.3,7.3-20.7c-0.8-7.2-4.6-14-10.9-19.7
			c-1.1-0.9-2.1-1.8-3.1-2.6l-9.1,10.8c1.1,0.6,2.2,1.3,3.2,2.1c2,1.7,3.6,3.9,4.5,6.3c1.5,3.8,1.2,7.9-0.7,10.7
			c-4.3,6.1-10.2,5.5-18.4,2.6c-1.9-0.7-3.5-1.4-5.1-2.1l-9.4,11.1c0.2,0.2,0.5,0.4,0.7,0.6C500.4,120.5,507.3,123.9,513.6,125z"/>
		<path class="st9" d="M513.1,127.7c9.2,1.6,18-1.5,24.9-8.8c3.3-3.5,9.2-12.8,8-22.9c-0.9-7.9-5-15.3-11.8-21.4
			c-0.5-0.4-0.9-0.8-1.4-1.2c-0.6-0.5-1.2-1-1.8-1.4l-0.9,1l-0.9,1c1,0.8,2.1,1.6,3.1,2.6c6.3,5.6,10,12.4,10.9,19.7
			c1,8.5-3.8,17-7.3,20.7c-6.2,6.6-14.2,9.4-22.4,8c-6.3-1.1-13.3-4.5-18.5-8.9c-0.2-0.2-0.5-0.4-0.7-0.6l-0.9,1l-0.9,1
			C498.4,122.7,506,126.4,513.1,127.7z"/>
	</g>
	<g>
		<path class="st1" d="M297.2,11.8c-26.3-7.2-61.6-2.5-90,11.8c-30.1,15.2-50.3,45.9-55.6,84.4c-2,14.8-2.2,59.5,20.9,88.4
			c17.3,21.6,40.8,37.5,66.3,44.6c10.6,3,21.3,4.5,31.9,4.5c16.2,0,32.1-3.4,47.3-10.3c40.5-20.3,67.4-61,70.1-106.4l0-0.1
			C388.1,72.6,350.7,24.5,297.2,11.8z"/>
		<g>
			<path class="st0" d="M395.2,128.6c-2.5,43.2-28,83.9-68.7,104.3c-25.4,11.4-52.4,12.7-77.4,5.6c-25-7-47.8-22.3-65-43.8
				c-21.2-26.5-22.8-68.6-20.3-86.5C169,70.5,189,40.5,218,25.8c25.4-12.8,60.2-19.3,88.2-11.6C359.6,26.9,395.2,75.2,395.2,128.6
				L395.2,128.6z"/>
			<path class="st1" d="M280.4,245.4c-10.6,0-21.3-1.5-31.9-4.5c-25.5-7.2-49-23-66.3-44.6c-23.1-28.9-22.9-73.6-20.9-88.4
				c5.3-38.5,25.5-69.2,55.6-84.4c28.4-14.3,63.7-19,90-11.8c53.5,12.7,90.9,60.8,90.9,116.9l0,0.1c-2.7,45.3-29.5,86.1-70.1,106.4
				C312.5,242,296.5,245.4,280.4,245.4z M280,13.5c-20.1,0-42,5.1-60.9,14.6c-28.5,14.4-47.8,43.8-52.8,80.5
				c-2.7,19.7,0.3,60.1,19.8,84.5c16.6,20.8,39.2,36,63.7,42.9c25.5,7.2,51.7,5.3,75.7-5.5c38.8-19.4,64.6-58.5,67.2-102
				c0-53.7-35.8-99.7-87-111.9C297.8,14.5,289.1,13.5,280,13.5z"/>
		</g>
		<g>
			<path class="st2" d="M300.2,35c21.2,5,39.7,15.8,53.1,31.3c14.2,16.6,23.2,38.1,22.5,61.7c-1.2,35.8-22.6,69.6-55.9,85.7
				c-20.7,10-43.1,10.7-63.7,5.4c-21-5.4-40.4-17.6-54.9-35.2c-17.7-21.6-19.5-56-17.6-70.9c4.1-31.1,20.4-55.7,44.2-67.9
				C248.6,34.6,277,29.6,300.2,35z"/>
			<path class="st3" d="M281.3,224.7c-8.4,0-17.1-1.1-25.8-3.3c-21.6-5.5-41.6-18.3-56.1-35.9c-17.3-21.2-20.3-55-18.1-72.6
				c4.1-31.6,20.7-57,45.4-69.7c22.6-11.5,51.6-15.6,73.9-10.4l0,0c21.9,5.2,40.7,16.2,54.3,32.1c15.6,18.2,23.7,40.6,23,63.2
				c-1.2,37.1-23.7,71.5-57.2,87.7C308.5,221.8,295.2,224.7,281.3,224.7z M279.9,35.1c-17.1,0-35.6,4.3-51,12.2
				c-23.4,12-39,36.1-43,66.2c-1.5,11.6-1.3,46.7,17.1,69.1c13.9,16.9,33,29.1,53.7,34.4c21.9,5.6,43.4,3.8,62.1-5.3
				c32-15.5,53.5-48.4,54.6-83.8c0.7-21.5-7.1-42.8-21.9-60.1c-13-15.1-30.9-25.7-51.9-30.6l0,0C293.5,35.8,286.9,35.1,279.9,35.1z"
				/>
		</g>
		<g>
			<path class="st4" d="M294.2,55.9c16.7,3.4,32.1,11.1,43.2,22.8c11.9,12.5,19.5,29.2,18.8,48.8c-1.1,28.3-17.6,54.5-43.2,67.2
				c-16.2,8.1-33.7,8.7-49.9,5.2c-17.1-3.7-33-12.8-44.8-26.6C204,156.6,202.1,130,203.5,118c2.8-24.4,15.5-43.6,34.2-53.4
				C253.8,56.3,275.8,52.1,294.2,55.9z"/>
			<path class="st5" d="M281.3,203.9c-6.1,0-12.3-0.7-18.7-2.1c-17.9-3.9-34.2-13.5-45.9-27.2c-14.1-16.5-16.9-43.1-15.2-56.9
				c2.9-24.7,15.7-44.7,35.3-54.9c17.5-9.1,40.2-12.6,57.8-9l0,0c17.9,3.7,33.2,11.8,44.3,23.4c9.3,9.8,20.3,26.5,19.4,50.3
				c-1.1,29.5-18.1,55.9-44.3,69C304,201.4,292.9,203.9,281.3,203.9z M279.8,56.5c-13.8,0-28.8,3.5-41.2,9.9
				c-18.3,9.6-30.4,28.5-33.1,51.8c-1.5,13.1,1,38.2,14.3,53.8c11.1,13,26.6,22.2,43.6,25.9c17.5,3.8,34.3,2.1,48.6-5
				c24.9-12.4,41-37.5,42.1-65.5c0.8-22.4-9.5-38.1-18.3-47.3c-10.5-11-25.1-18.7-42.2-22.2l0,0C289.4,57,284.7,56.5,279.8,56.5z"/>
		</g>
		<g>
			<path class="st6" d="M288.1,76.7c12.2,1.9,24.4,6.3,33.4,14.2c9.5,8.4,15.9,20.4,15.2,36c-0.9,20.8-12.6,39.3-30.5,48.7
				c-11.7,6.1-24.4,6.8-36.2,5c-13.3-2-25.6-8.1-34.6-18c-10.8-11.8-12.9-30.7-12-39.8c1.7-17.7,10.7-31.5,24.2-38.8
				C259,77.9,274.7,74.6,288.1,76.7z"/>
			<path class="st7" d="M281,183.2c-3.7,0-7.4-0.3-11.3-0.9c-14-2.1-26.7-8.7-35.7-18.5c-10.9-11.9-13.4-31.1-12.5-41.1
				c1.7-17.9,10.9-32.5,25.1-40.2c12.4-6.7,28.4-9.6,41.7-7.5c9.7,1.5,23.6,5.2,34.3,14.7c11,9.7,16.4,22.6,15.8,37.4
				c-1,21.3-13,40.6-31.5,50.2C299.3,181.2,290.6,183.2,281,183.2z M279.8,77.9c-10.6,0-22.2,2.8-31.4,7.7
				c-13.2,7.1-21.7,20.7-23.3,37.4c-0.9,9.4,1.4,27.4,11.5,38.4c8.4,9.2,20.4,15.4,33.6,17.4c13.3,2,25.1,0.4,35.1-4.8
				c17.3-9.1,28.6-27.2,29.5-47.2c0.8-17.3-7.5-28.3-14.6-34.5c-10.1-8.9-23.2-12.4-32.5-13.8C285.3,78,282.6,77.9,279.8,77.9z"/>
		</g>
		<g>
			<path class="st8" d="M282.1,97.5c7.7,0.3,16.7,1.6,23.5,5.7c7.2,4.3,12.2,11.5,11.5,23.1c-0.8,13.3-7.6,24.2-17.8,30.2
				c-7.1,4.2-15.1,5-22.5,4.8c-9.5-0.3-18.1-3.4-24.5-9.4c-7.3-6.9-9.5-18-9.2-24.2c0.6-11,5.8-19.4,14.2-24.3
				C264.2,99.5,273.5,97.2,282.1,97.5z"/>
			<path class="st9" d="M279,162.8c-0.7,0-1.4,0-2.1,0c-10.2-0.3-19-3.7-25.5-9.8c-8.3-7.8-10-20-9.7-25.4
				c0.6-11.2,5.9-20.3,15-25.5c7.2-4.2,16.8-6.5,25.5-6.1l0,0c10.4,0.4,18.3,2.3,24.3,5.9c8.7,5.2,12.9,13.7,12.3,24.5
				c-0.8,13.6-7.6,25-18.5,31.4C294.3,161.2,287.5,162.8,279,162.8z M280.5,99c-7.7,0-16.1,2.1-22.3,5.7c-8.1,4.7-12.9,12.9-13.4,23
				c-0.3,5.7,1.8,16.5,8.7,23c5.9,5.6,14.1,8.7,23.5,9c9,0.2,15.9-1.2,21.7-4.6c10.1-5.9,16.3-16.4,17-29
				c0.6-9.8-3.1-17.1-10.8-21.7c-5.5-3.3-12.9-5.1-22.8-5.5l0,0C281.5,99,281,99,280.5,99z"/>
		</g>
		<g>
			<path class="st10" d="M283.9,141.9c-5.6,2-10.7,1.3-14.4-0.8c-3.7-2-6.1-5.4-6.4-8.6c-0.6-7.1,3.6-10.6,13-14.2
				c3.2-1.2,8.9-3.1,13.7-2.9c4.8,0.3,8.6,2.7,7.9,10.2c-0.5,5.8-2.5,9.3-5.1,11.7C290,139.7,286.8,140.9,283.9,141.9z"/>
			<path class="st11" d="M277.3,144.4c-3,0-5.9-0.7-8.4-2.1c-4-2.2-6.7-5.9-7.1-9.6c-0.8-8.3,4.7-12.1,13.8-15.5
				c5.7-2.2,10.5-3.2,14.2-3c3.1,0.2,5.5,1.2,7,3c1.7,2,2.4,4.9,2.1,8.7c-0.5,5.5-2.3,9.6-5.5,12.5c-2.8,2.6-6.4,3.8-9.2,4.8l0,0
				C282,144,279.6,144.4,277.3,144.4z M288.9,116.7c-3.2,0-7.4,0.9-12.4,2.8c-9.7,3.7-12.7,6.9-12.2,12.9c0.3,2.9,2.5,5.8,5.8,7.6
				c3.9,2.1,8.6,2.4,13.3,0.7l0,0c2.6-0.9,5.8-2.1,8.3-4.3c2.7-2.5,4.2-6,4.7-10.9c0.3-3-0.2-5.3-1.5-6.8c-1.1-1.3-2.9-2-5.2-2.1
				C289.5,116.7,289.2,116.7,288.9,116.7z"/>
		</g>
	</g>
	<g>
		<g>
			<g>
				<path class="st12" d="M82,42.4c-0.7,3.9-0.3,8.8,0.2,12.7c-2.9-2-5.4-3.4-6.4-3.8c-1.7-0.7-3.6,0.8-3.1,2.7
					c1.1,4.2,4.6,10.1,7.3,13.8c1.8,2.5,2.4,3.2,3.2,4.1c-4.3-2.3-8.5-3.9-12.3-4.6c-2.7-0.4-4.8,2.1-3.9,4.7
					c1.1,3.3,2.9,6.3,5.3,9.1c-1.2-0.3-2.4-0.5-3.5-0.7c-1.7-0.2-2.8,1.8-1.7,3.1c5.3,6.5,21.6,13.7,26.7,15.6
					c7.6,2.9,11.6,8.6,11.6,8.6C87.8,97.6,74.4,95.9,67.8,95.8c-1.6,0-2.6,1.9-1.6,3.2c0.6,0.8,1.9,2,2.6,2.7
					c-3.8-0.9-8.9-1.9-12.8-1.9c-3.3,0-5.2,3.7-3.2,6.4c3.7,5,10.5,10.7,16,14.6c-2.3-0.3-6.1-0.6-8.4-0.6c-1.9,0-2.5,2.4-1,3.4
					c5.1,3.2,14.5,7.1,20.5,9.2c11.6,4.1,25.6,6.1,34.9,11.1c6.2,3.3,18.1,17.9,18.1,17.9l3.2-1.3L84.5,39.3
					C83.3,39.8,82.3,40.9,82,42.4z"/>
				<path class="st12" d="M158.6,77.9c-1.6,1.6-4.9,4-6.2,5.8c0.9-6.2,3.4-14.6,2.4-20.9c-0.5-3.2-4.5-4.5-6.8-2.1
					c-2.4,2.5-4.9,6.3-6.8,9.3c0-0.7,0-1.9-0.1-2.8c-0.2-1.7-2.3-2.4-3.4-1c-0.8,1-2.5,3.6-4.3,6.9c-4.2,8-7.2,17.7-8.9,26.4
					c0,0-1.5-2.6-1.3-5.1c0.4-4.2,4.9-19.1,5.5-28c0.3-3.8,0.2-7.1,0-8.4c-0.2-1.7-2.4-2.3-3.4-0.9c-0.6,0.8-1.6,2.4-2.1,3.4
					c-0.5-2.5-1.3-6-2.3-8.4c-0.9-2.1-3.9-2.4-5.1-0.3c-1.4,2.4-2.8,6.2-3.6,8.9c-1.8,5.9-1.8,8.1-2.2,9.8
					c-0.7-1.4-0.9-12.7-2.4-18.5c-0.9-3.2-2.6-8-4.4-10.8c-1.1-1.7-3.7-1.5-4.6,0.4c-0.4,0.9-1.2,3.4-1.8,6.4
					c-2.2-2.7-5.5-6.2-8.4-8.2c-1.3-0.9-2.8-0.9-4-0.4L136,160.4l3.2-1.3c0,0-2.6-18.5,0.6-24.7c10.9-21.3,20.7-44.6,22.8-54.7
					C163,77.8,161.1,76.3,158.6,77.9z"/>
			</g>
		</g>
		<path class="st12" d="M143.2,192.6c0,0-8.2-6.5-11.9-12.9c-7-12.2-18.1-25.2-23.4-30.4c-1-0.9-2.8-1.2-2.9,0.1
			c0.3,1.1,0.3,2.9,0.8,4.1c-3.4-3.1-7.5-7.6-11.8-10.3c-2.2-1.4-4.8-1.1-4.4,0.5c0.5,1.7,1.7,4,2.7,5.8c-0.4-0.3-1.2-0.9-1.8-1.3
			c-1.1-0.8-2.5-0.6-2.2,0.3c0.2,0.6,1,2.2,2.3,4.1c3,4.6,7.6,9.8,12.3,14.2c0,0-2.3-0.9-3.7-2.1c-2.4-2-9.6-10-14.8-14.2
			c-2.2-1.8-4.3-3.3-5.1-3.9c-1.2-0.8-2.5-0.5-2.1,0.3c0.2,0.5,0.8,1.5,1.1,2c-1.8-1.1-4.3-2.5-6.2-3.4c-1.7-0.8-3.2-0.3-2.5,1
			c0.9,1.4,2.6,3.5,3.8,4.9c2.8,3.1,4.2,4.2,5,5.1c-1.2-0.5-8.2-5.7-12.5-8.1c-2.4-1.3-6.1-3.2-8.7-4.1c-1.5-0.5-2.6,0.1-1.8,1.2
			c0.4,0.5,1.5,1.8,3.1,3.4c-2.7-0.8-6.3-1.7-8.8-2c-1-0.1-1.7,0.1-2,0.6c-0.1-0.1-0.3-0.1-0.4-0.2c-0.4,0.7-0.2,1.6,0.5,2.5
			c1.7,2,4.5,4.5,6.7,6.3c-2.3-0.1-4.2,0.1-4.9,0.2c-1.4,0.3-1.4,1.8-0.1,2.8c2.3,1.5,6,3.2,8.6,4.2c4.6,1.7,13.4,3.4,14.5,4
			c-1.3,0-3-0.3-7.5,0c-2,0.1-4.9,0.5-6.7,1c-1.5,0.4-1.2,2.3,0.5,3.2c1.9,0.9,4.6,1.9,6.6,2.5c-0.7,0.2-1.9,0.6-2.5,0.8
			c-1,0.4-0.5,1.9,0.9,2.2c1,0.3,3.5,0.8,6.5,1.1c6.8,0.8,18.2,0.1,21.4,0.4c1.9,0.2,4,1.5,4,1.5c-6.7-0.2-14,0.3-20,1.8
			c-2.5,0.6-4.4,1.3-5.1,1.7c-1,0.5-0.4,1.9,1,2.2c0.7,0.2,1.7,0.3,2.2,0.4c-2.2,0.7-5,1.8-6.9,2.9c-1.8,1.1-0.6,3.7,2,4.5
			c4.9,1.5,11.3,1.1,16.1,1.4c-1.3,0.6-3,2.3-4.2,3c-1.1,1.3,0.1,2.7,1.5,2.8c7.8,0.1,26-1.7,41.3-6.5c8-2.5,18.6-1,18.6-1
			C143.5,194,143.6,193,143.2,192.6z"/>
		<path class="st12" d="M156,191.9c0,0,1-10.4-1-17.5c-3.9-13.5-5.6-30.5-5.7-37.9c0-1.3,1-2.8,2.1-2c0.6,1,1.9,2.2,2.4,3.4
			c0.1-4.6-0.3-10.6,0.8-15.6c0.5-2.6,2.6-4.2,3.4-2.8c0.9,1.5,1.7,4,2.3,5.9c0.1-0.5,0.2-1.5,0.3-2.2c0.2-1.3,1.3-2.2,1.7-1.4
			c0.3,0.6,0.9,2.3,1.4,4.5c1.2,5.4,1.8,12.3,1.7,18.7c0,0,1-2.2,1.1-4.1c0.2-3.1-0.5-13.8,0-20.5c0.2-2.9,0.6-5.4,0.8-6.4
			c0.3-1.4,1.4-2.2,1.7-1.3c0.2,0.5,0.5,1.6,0.7,2.2c0.5-2,1.2-4.8,1.8-6.8c0.6-1.8,2.1-2.5,2.4-1.1c0.4,1.6,0.7,4.2,0.9,6.2
			c0.3,4.2,0.1,5.9,0.1,7.1c0.5-1.2,1.6-9.9,2.9-14.6c0.7-2.6,2-6.6,3.1-9.1c0.7-1.5,1.9-1.8,2.1-0.5c0.1,0.6,0.3,2.4,0.3,4.6
			c1.3-2.5,3.2-5.7,4.7-7.7c0.6-0.8,1.3-1.1,1.8-1c0.1-0.1,0.1-0.3,0.2-0.4c0.7,0.2,1.3,1,1.5,2.1c0.3,2.6,0.1,6.4-0.2,9.2
			c1.6-1.7,3-2.9,3.5-3.3c1.2-0.9,2.3,0.2,2,1.9c-0.5,2.7-1.9,6.6-2.9,9.1c-1.9,4.5-6.8,12-7.1,13.2c0.9-0.9,1.9-2.4,5.2-5.4
			c1.5-1.4,3.7-3.2,5.3-4.1c1.4-0.8,2.5,0.7,1.9,2.6c-0.6,2-1.8,4.7-2.7,6.5c0.6-0.4,1.7-1,2.3-1.2c1-0.4,1.7,1,1,2.2
			c-0.5,0.9-1.9,3.1-3.7,5.5c-4.2,5.5-12.6,13.2-14.5,15.7c-1.2,1.5-1.7,3.9-1.7,3.9c4.5-4.9,10-9.9,15.2-13.1
			c2.1-1.4,4-2.2,4.8-2.5c1-0.4,1.6,1.1,0.9,2.3c-0.4,0.6-0.9,1.4-1.2,1.9c2.1-1.1,4.8-2.4,6.8-2.9c2-0.5,3.1,2.2,1.9,4.5
			c-2.3,4.6-7.1,8.9-10.2,12.6c1.3-0.5,3.8-0.6,5.1-0.9c1.8,0.1,1.9,2,0.9,3c-5.3,5.7-19.3,17.6-33.3,25.2
			c-7.4,4-13.6,12.7-13.6,12.7C156.8,193,156,192.4,156,191.9z"/>
		<g>
			<path class="st13" d="M49.2,148.3c40.2,12.7,68.5,25.9,105.2,51c0.7,0.5,0.9,1.4,0.4,2.1c-0.5,0.7-1.4,0.9-2.2,0.4
				c-7.1-5.1-13.7-9.7-22.4-15.2c-9.2-5.9-25.3-14.8-37-20.2c-14.9-7.2-30-12.7-44.2-17.4C48.5,148.9,48.7,148.2,49.2,148.3z"/>
			<path class="st13" d="M190,93.8c-10,21.1-18.3,41.5-24.5,64.8c-6.3,22.3-9.7,48.2-9.4,46.5c-0.1,0.8-0.9,1.4-1.7,1.3
				c-0.5-0.1-1.5-0.6-1.3-1.8c6.9-42.8,17.9-74.3,36.2-111.1C189.6,93,190.3,93.3,190,93.8z"/>
			<g>
				<path class="st13" d="M145,76.2c-9.5,20.2-14.7,36.3-18.2,59.9c-0.1,1-1.7,0.8-1.5-0.2c3.6-23.6,10.6-42.2,19.3-59.8
					C144.7,75.9,145.1,76,145,76.2z"/>
				<path class="st13" d="M69.4,108.1c21.6,6.9,37,14.1,56.5,27.6c0.3,0.2,0.4,0.7,0.2,1.1c-0.2,0.3-0.7,0.4-1.1,0.2
					c-1.9-1.3-3.1-2.3-8.1-5.6c-16.1-10.8-31.8-17.5-47.7-22.9C69,108.3,69.2,108,69.4,108.1z"/>
			</g>
			<path class="st13" d="M89.2,49c25.6,55.9,62.5,138.2,87.1,198.2c0.6,1.6-0.1,3.3-1.7,4c-1.5,0.6-3.3-0.1-4-1.6
				c-25.3-57.3-60-143.7-82.3-200.2C88.2,48.8,89,48.5,89.2,49z"/>
		</g>
	</g>
	<g>
		<g>
			<g>
				<path class="st12" d="M638.2,45.8c-4.5,2.5-9,6.7-12.5,10.2c-0.2-4.5-0.9-8.1-1.2-9.5c-0.6-2.3-3.7-2.9-5.1-0.9
					c-3.3,4.4-6.5,12.6-8.1,18.2c-1.1,3.7-1.3,5-1.6,6.4c-1.1-6.2-2.8-11.7-5.2-16c-1.7-3-5.9-3.2-7.8-0.3c-2.4,3.7-4,7.9-4.8,12.5
					c-0.7-1.5-1.4-2.8-2.1-4.1c-1.1-1.9-4-1.4-4.5,0.7c-2.3,10.5,3.3,32.5,5.5,39.2c3.1,9.9,0.5,18.4,0.5,18.4
					c-3.6-25.5-12.5-40.3-17.7-47c-1.3-1.7-4-1.1-4.4,1c-0.3,1.2-0.5,3.4-0.6,4.7c-2.1-4.6-5.2-10.4-8.2-14.4
					c-2.5-3.3-7.8-2.3-8.9,1.8c-2,7.7-2.4,19-1.9,27.5c-1.5-2.5-4.2-6.7-6-8.9c-1.5-1.9-4.5-0.6-4.2,1.7c0.8,7.7,4.4,20.2,7,27.8
					c5.1,14.9,14.1,30.5,16.5,43.8c1.6,8.8-3.7,32.3-3.7,32.3l3.8,2.1l80.7-147.5C641.9,44.9,640,44.8,638.2,45.8z"/>
				<path class="st12" d="M663.3,150.6c-2.8-0.3-7.9-1.7-10.8-1.6c7-4,17.4-8.1,22.9-14.1c2.8-3.1,0.9-8.1-3.3-8.5
					c-4.4-0.4-10.2,0.1-14.7,0.6c0.7-0.5,2-1.5,2.8-2.3c1.6-1.5,0.5-4.2-1.7-4.2c-1.6,0-5.6,0.3-10.3,1.1
					c-11.3,2.1-23.4,6.7-33.5,12c0,0,1.4-3.6,4.1-5.3c4.5-2.9,23-10.2,32.5-16.6c4.1-2.7,7.3-5.5,8.4-6.6c1.6-1.6,0.4-4.2-1.8-4.2
					c-1.3,0-3.7,0.4-5,0.6c2.2-2.5,5-6,6.6-8.9c1.4-2.6-0.7-5.8-3.7-5.3c-3.5,0.5-8.4,2.1-11.7,3.4c-7.3,2.9-9.6,4.6-11.6,5.5
					c0.8-1.8,12.1-10.9,16.7-17.1c2.5-3.5,6-8.9,7.3-13c0.8-2.5-1.4-4.9-4-4.3c-1.2,0.3-4.4,1.4-7.8,3.2c1-4.4,1.9-10.4,1.6-14.8
					c-0.1-2-1.3-3.5-2.8-4.4l-80.7,147.5l3.9,2.1c0,0,16.5-17.2,25.3-18.9c30-5.9,61.1-14.5,72.9-20.4
					C666.9,154.9,666.9,151.8,663.3,150.6z"/>
			</g>
		</g>
		<path class="st12" d="M536.1,225.9c0,0,0-13.3,3.5-22.1c6.7-16.7,11-38.1,12-47.5c0.2-1.7-1-3.7-2.4-2.8c-0.9,1.1-2.7,2.6-3.5,4
			c0.4-5.9,1.7-13.5,0.9-20c-0.4-3.3-2.7-5.7-4-4c-1.3,1.8-2.7,4.8-3.7,7.3c0-0.7,0-1.9-0.1-2.8c-0.1-1.7-1.4-3-2-2
			c-0.4,0.7-1.4,2.8-2.3,5.6c-2.2,6.7-3.8,15.4-4.5,23.5c0,0-0.9-3-0.9-5.4c0.1-4,2.4-17.5,2.6-26.1c0.1-3.7-0.1-7-0.2-8.2
			c-0.2-1.8-1.4-3-2-1.9c-0.3,0.7-0.8,2-1.1,2.7c-0.3-2.6-0.9-6.3-1.5-8.9c-0.6-2.4-2.3-3.4-2.9-1.8c-0.7,2-1.5,5.3-1.9,7.7
			c-0.9,5.3-0.9,7.5-1.1,9.1c-0.5-1.6-0.8-12.8-1.8-18.9c-0.6-3.5-1.7-8.6-2.8-11.9c-0.7-2-2.2-2.5-2.6-0.9c-0.2,0.8-0.6,3-0.9,5.8
			c-1.3-3.3-3.3-7.7-5-10.4c-0.7-1.1-1.5-1.6-2.2-1.5c-0.1-0.2-0.1-0.4-0.2-0.6c-1,0.2-1.8,1.1-2.2,2.5c-0.7,3.3-1,8.1-1,11.7
			c-1.8-2.4-3.4-4.1-4.1-4.7c-1.4-1.2-3,0-2.8,2.1c0.3,3.5,1.5,8.6,2.6,12c1.9,6,7.2,16.1,7.4,17.7c-1-1.3-2.1-3.2-6-7.5
			c-1.7-1.9-4.3-4.5-6.3-5.9c-1.7-1.2-3.3,0.6-2.8,3c0.6,2.6,1.7,6.2,2.7,8.6c-0.8-0.6-2.1-1.5-2.8-1.9c-1.3-0.7-2.3,1-1.6,2.7
			c0.5,1.2,2,4.2,4,7.4c4.6,7.5,14.3,18.3,16.5,21.8c1.3,2.1,1.7,5.2,1.7,5.2c-5.1-6.8-11.5-13.8-17.7-18.6c-2.6-2-4.8-3.4-5.7-3.8
			c-1.3-0.6-2.2,1.1-1.5,2.7c0.4,0.8,1,2,1.3,2.6c-2.5-1.7-5.7-3.6-8.3-4.6c-2.5-0.9-4.2,2.4-3,5.5c2.4,6.1,7.9,12.3,11.4,17.3
			c-1.6-0.9-4.7-1.2-6.4-1.8c-2.3-0.1-2.6,2.3-1.6,3.7c6,7.9,22.3,24.7,39.2,36.2c8.9,6,15.7,17.9,15.7,17.9
			C534.9,227.3,536,226.6,536.1,225.9z"/>
		<path class="st12" d="M547,238.2c0,0,11.2-7.2,16.7-14.9c10.4-14.6,26.2-29.8,33.6-35.7c1.3-1.1,3.7-1.2,3.7,0.5
			c-0.5,1.3-0.7,3.7-1.5,5.1c4.7-3.5,10.4-8.7,16.3-11.6c3-1.5,6.3-0.8,5.5,1.2c-0.8,2.1-2.6,4.9-4.1,7c0.6-0.4,1.6-1,2.4-1.4
			c1.5-0.8,3.3-0.4,2.7,0.6c-0.4,0.8-1.6,2.7-3.4,4.9c-4.4,5.5-10.9,11.5-17.4,16.5c0,0,3-0.8,5-2.2c3.3-2.3,13.4-11.4,20.6-16.2
			c3.1-2.1,5.9-3.7,7-4.3c1.6-0.8,3.3-0.4,2.7,0.7c-0.4,0.6-1.2,1.8-1.7,2.4c2.4-1.1,5.8-2.6,8.3-3.5c2.3-0.8,4.1,0.1,3.1,1.5
			c-1.3,1.7-3.7,4.1-5.5,5.7c-4,3.6-5.8,4.8-7,5.8c1.6-0.5,11.2-6.3,16.9-8.7c3.2-1.4,8.1-3.2,11.5-4.1c2-0.5,3.3,0.5,2.2,1.7
			c-0.5,0.6-2.2,2.1-4.4,3.9c3.5-0.7,8.2-1.3,11.5-1.4c1.3,0,2.2,0.4,2.5,1c0.2-0.1,0.4-0.1,0.6-0.2c0.4,0.9,0.1,2.1-1,3.2
			c-2.4,2.4-6.3,5.2-9.4,7.1c2.9,0.2,5.3,0.7,6.2,0.9c1.8,0.5,1.6,2.5-0.3,3.5c-3.1,1.7-8.1,3.3-11.4,4.3c-6,1.7-17.4,2.6-18.9,3.3
			c1.6,0.2,3.9,0.1,9.5,1c2.6,0.4,6.2,1.2,8.4,2.1c1.9,0.8,1.2,3.1-1,4c-2.5,1-6.1,1.9-8.7,2.4c0.9,0.3,2.3,0.9,3.1,1.4
			c1.3,0.7,0.4,2.5-1.4,2.7c-1.3,0.2-4.6,0.6-8.4,0.6c-8.8,0.2-23.2-2.1-27.3-2.1c-2.5,0-5.3,1.4-5.3,1.4c8.5,0.6,17.8,2.2,25.2,4.8
			c3.1,1.1,5.4,2.3,6.3,2.8c1.2,0.7,0.2,2.5-1.5,2.7c-0.9,0.1-2.2,0.2-2.9,0.3c2.7,1.2,6.2,2.9,8.4,4.5c2.1,1.6,0.3,4.8-3.1,5.5
			c-6.5,1.3-14.6,0-20.7-0.3c1.6,0.9,3.6,3.3,5,4.4c1.3,1.9-0.5,3.5-2.3,3.3c-9.9-0.9-32.9-5.4-51.7-13.5
			c-9.9-4.2-23.5-3.6-23.5-3.6C546.5,239.9,546.4,238.6,547,238.2z"/>
		<g>
			<path class="st13" d="M506.1,96.6c19.2,50.4,28.3,89.2,32.1,145.8c0.1,1.1-0.7,2-1.8,2.1c-1,0.1-2-0.7-2.1-1.9
				c-0.5-11.2-1.1-21.4-2.5-34.5c-1.4-14-5.2-37.2-9.1-53.1c-4.6-20.6-11.1-40.1-17.5-58.1C505,96.3,505.9,96,506.1,96.6z"/>
			<path class="st13" d="M672.3,194.7c-29.1,6.7-56.1,14.5-84.3,26.7c-27.4,11.3-55.9,28.4-54.1,27.4c-0.9,0.5-2.1,0.2-2.7-0.7
				c-0.3-0.5-0.6-1.9,0.8-2.7c48.4-27,88.6-40.9,140.1-51.6C672.7,193.6,672.9,194.5,672.3,194.7z"/>
			<g>
				<path class="st13" d="M654.2,135.6c-27.8,6.4-48,14-74.4,29.2c-1.2,0.7-2.1-1-1-1.7c26.5-15.1,50.7-22.8,75.3-28
					C654.4,135.1,654.5,135.6,654.2,135.6z"/>
				<path class="st13" d="M562.5,85c10.2,27.1,15.1,48.2,17,78.5c0,0.5-0.4,1-0.9,1c-0.5,0-1-0.4-1-0.9c-0.2-3-0.1-4.9-0.8-12.5
					c-1.9-24.7-7.6-45.8-14.8-65.9C561.9,84.9,562.4,84.7,562.5,85z"/>
			</g>
			<path class="st13" d="M637.3,58.1c-35.8,69.9-89.1,172.1-129.8,244.2c-1.1,1.9-3.4,2.5-5.3,1.5c-1.8-1-2.5-3.4-1.5-5.2
				c37.4-70.7,96.6-173.9,135.7-241C636.7,57,637.6,57.5,637.3,58.1z"/>
		</g>
	</g>
	<g>
		<path class="st14" d="M339.6,176.4c0.6,1.4,1.4,2.6,2.4,3.7c3.9,7.3,8.5,14.5,13.6,21.7c12.9,18.1,31,28.1,50.3,33
			c9.2,8.8,27.1,7.3,41.6,3.5c11-0.6,21.4-2.3,30.5-4.6c36.2-8.8,71.4-51.2,82.2-86.6c10.6-34.4,1.9-45.5-14.6-80.4
			c-1.2-11.7-8.7-25-15.4-34.2c-9.6-13-29.4-23.8-42.4-25.8c-6.2-1-9.8-0.5-12.8,1.2c-4-1-8.2-1.8-12.6-2.2
			c-1.5-0.6-3.3-1.2-5.3-1.6c-3.5-0.7-6.9-0.1-9.1,0.6c-0.5,0.1-0.8,0.4-1,0.7c-9.1,0.5-18.8,2.3-29.1,5.6
			c-34.7,11.4-66,37.4-74.6,54.4c-21.2,42.2-19.9,76-4.7,108.1C338.8,174.3,339.1,175.4,339.6,176.4z"/>
		<path class="st15" d="M425.6,180.1c-7.2-1.9-11.6,16-5,16.4C426.9,197,432.9,182.2,425.6,180.1
			C423.2,179.5,426.7,180.5,425.6,180.1z"/>
		<path class="st15" d="M436.8,131.6c-2.2-6.8-11.1,5.2-10.8,8c0.3,3.6,8.6,6.2,11.2,5.5C445.4,142.6,440.4,136.4,436.8,131.6z"/>
		<path class="st15" d="M369.3,175.2c-3.2-5.7-14.4,0.2-12.5,6.2C359.6,190.2,371.4,178.6,369.3,175.2z"/>
		<path class="st15" d="M423.8,56.4c0.6-5.1-9.7-8.5-13.3-3.5C405.7,59.5,422.3,63.2,423.8,56.4z"/>
		<path class="st15" d="M528.2,123.4c-5.8-0.1-10.1,6.4-3.3,7.9C532.1,132.8,533.9,122.2,528.2,123.4z"/>
		<path class="st15" d="M391.6,180.5c-5.9,0-7.8,10-2.2,10.4C395.2,191.4,396.2,180.4,391.6,180.5z"/>
		<path class="st15" d="M547.4,130.9c-5.6-2.5-6.5,10.6,0.9,8.2C552.9,137.6,550.7,131.8,547.4,130.9z"/>
		<path class="st15" d="M466.3,34.2c6.3-1.7,0.5-9.8-6.1-5.4C453,33.7,461,36.9,466.3,34.2z"/>
		<path class="st15" d="M542.9,85.6c8-1.7-1.5-13-6.6-6.2C532.9,84.1,538.9,86.5,542.9,85.6z"/>
		<path class="st15" d="M529.2,93.4c-4.1-5.7-10.8,9.6-1.5,8.5C532.6,101.4,531.9,95.7,529.2,93.4z"/>
		<path class="st15" d="M430.1,26.7c6.5,3.5,13.2-5.1,5.6-7.1C430.6,18.2,424.7,25.5,430.1,26.7z"/>
		<path class="st15" d="M407.2,122.6c-6.3,3.5,2.8,12.4,6.1,5.2C415.2,124,411.1,120.5,407.2,122.6
			C406.4,123.1,408,122.2,407.2,122.6z"/>
		<path class="st15" d="M398.3,95.8c-4.5,1.7-0.8,9.6,4.1,6.3C407.5,98.7,403.4,93.5,398.3,95.8C397.2,96.1,399.2,95.3,398.3,95.8z"
			/>
		<path class="st15" d="M376.8,41.8c-6.8,2.3-6.9,10.5,0,9.4C383.2,50.2,381.7,39.2,376.8,41.8z"/>
		<path class="st15" d="M516.2,27.7c2.5-4.6-5-5.8-7.5-1.3C506.9,29.5,514,31.7,516.2,27.7z"/>
		<path class="st15" d="M497.1,27.5c-5.7-1.3-9.1,4.7-4.2,7.1C501,38.6,503.1,25.3,497.1,27.5z"/>
		<path class="st15" d="M515.3,45.8c-1,5.4,5.8,3,6.3-0.3c0.4,0.3,0.8,0.6,1.2,0.9C526.1,42.7,516.4,38.4,515.3,45.8
			C515.1,47,515.5,44.8,515.3,45.8z"/>
		<path class="st15" d="M456.2,74c1-1,4.1-9.6-1.7-6.3C450.4,70,452,76.3,456.2,74z"/>
		<path class="st15" d="M526.9,53.3c-4.8-0.2-5.3,8.1-1.2,7.2C529.3,59.6,532,53.6,526.9,53.3C525.9,53.2,527.8,53.3,526.9,53.3z"/>
		<path class="st15" d="M437.5,91.6c-4.8,1.4-6.4,4.9-1.3,6.8C439.4,99.6,443,91.3,437.5,91.6z"/>
		<path class="st15" d="M376.4,163.3c-4.1-3-6.3,3.5-4.5,6.3C374,172.7,381.6,167,376.4,163.3C375.9,162.9,377,163.6,376.4,163.3z"
			/>
		<path class="st15" d="M473.8,148.7c4.7-1.4,4.1-8-0.8-7.6C467.7,141.5,467.5,150.6,473.8,148.7z"/>
		<path class="st15" d="M476.3,152.6c-9.7-0.8,2.9,14.1,0.9,3.3c0.5,0.8,1,1.7,1.4,2.5C482.1,156.3,478.4,152.7,476.3,152.6
			C474.9,152.5,476.9,152.6,476.3,152.6z"/>
		<path class="st15" d="M498,154.4c-5.6-0.5-3.9,9.8,1.7,6.5C503,159.1,501.4,154.7,498,154.4C496.6,154.3,498.6,154.5,498,154.4z"
			/>
		<path class="st15" d="M545.8,158.3c-8.7-1.4-2.4,14.2,0.6,3.2c0.5,0.1,1,0.2,1.5,0.4C548.3,160,547.6,158.8,545.8,158.3z"/>
		<path class="st15" d="M343.4,162.7c-5.1,1.7-4.4,9,0.8,7.3C348.4,168.5,349.1,160.8,343.4,162.7
			C342.7,162.9,344.4,162.3,343.4,162.7z"/>
		<path class="st15" d="M505.2,149.3c-4.9,1-2.2,6.6,1.3,6.6C509.4,155.9,509.6,148.4,505.2,149.3
			C503.9,149.5,506.5,149,505.2,149.3z"/>
		<path class="st15" d="M357.4,124c3.1-1.2,3-3.8,1.9-5.8C356.5,112.8,349.2,127.1,357.4,124z"/>
		<path class="st15" d="M419.5,82.3c-12.4,6.2,11.4,9,4.2,0.7c-0.9,0.6-1.8,1.2-2.7,1.7c0.7-0.6,1.6-1.6,2.4-2
			C422.3,81.6,421,81.5,419.5,82.3C418.6,82.8,420.8,81.5,419.5,82.3z"/>
		<path class="st15" d="M473.2,42.6c10.1-5.4-8.8-9.7-11.5-2.6C458.4,48.7,470.5,44,473.2,42.6C473.8,42.2,473,42.7,473.2,42.6z"/>
		<path class="st15" d="M336.7,82.2c0.2,0.6,7.6,1.7,8.8,0.9c2.8-1.9,2.7-9-0.5-10.1C339.9,71.1,333.8,77.2,336.7,82.2z"/>
		<path class="st15" d="M449.8,44.8c8-6.4-2.7-6.2-3-5.4C446.1,41.5,444.5,47.7,449.8,44.8z"/>
		<path class="st15" d="M372.1,67.4c3.3-7.9-12.1-2.4-6.4,1.6C367.4,70.1,370.9,70.2,372.1,67.4z"/>
		<path class="st15" d="M362.7,65.2c4.2-0.8,4.8-6.4,1.1-7.3C359.2,56.8,356.6,66.3,362.7,65.2z"/>
		<path class="st15" d="M386.1,45.4c-0.5,0.9-1,1.9-1.6,2.8c3.5,1.3,5.5-3.1,4.6-5.3c-1.9-4.8-10.6,3.2-4.9,5.2
			C384.8,47.3,385.5,46.1,386.1,45.4z"/>
		<path class="st15" d="M347.9,139.6c3.4,8,9.9-9.3,3.2-5.4C348.9,135.5,346.3,135.9,347.9,139.6z"/>
		<path class="st15" d="M388.6,119c-1.3-2.7-7.8-5.5-8.9,0.3C378.5,125.9,393.1,124.8,388.6,119z"/>
		<path class="st15" d="M471.2,77.6c-2.2,1.3-6.6,7-0.3,6.7C474.5,84.1,475.8,77,471.2,77.6z"/>
		<path class="st15" d="M368.8,116.8c8-0.7,0.1-10.4-2.1-5.4C365.8,113.6,364.8,117.7,368.8,116.8
			C369,116.8,368.3,116.9,368.8,116.8z"/>
		<path class="st15" d="M347.7,104.4c-0.6-3.8-9.2-1-5.7,3.5C343.8,110.3,348.3,108,347.7,104.4
			C347.5,103.4,347.8,105.4,347.7,104.4z"/>
		<path class="st15" d="M375.8,183.3c-2.5-2.7-12.5,0.8-10.8,5.4C367.2,194.1,379.2,187.5,375.8,183.3
			C375.7,183.1,375.9,183.4,375.8,183.3z"/>
		<path class="st15" d="M482.8,202.3c0.6-5.1-9.7-8.5-13.3-3.5C464.8,205.5,481.4,209.2,482.8,202.3z"/>
		<path class="st15" d="M501.6,103.8c-0.6,7.2,8.9,6.6,9.8-0.7C512.4,96.1,502.3,96.4,501.6,103.8
			C501.5,105.3,501.8,102,501.6,103.8z"/>
		<path class="st15" d="M525.4,180.2c6.3-1.7,0.5-9.8-6.1-5.4C512.1,179.6,520.1,182.9,525.4,180.2z"/>
		<path class="st15" d="M418.9,76.8c2.9,5,8.9-4.6,5.9-8C420.4,64,414.5,72.6,418.9,76.8z"/>
		<path class="st15" d="M544.3,112c4.8,1.1,7.9-7.2,1.5-8.2C538.7,102.8,536.5,111.9,544.3,112z"/>
		<path class="st15" d="M385.1,175.3c1,4.7,10.2,1.1,10.2-4C395.2,164.6,384.2,171.2,385.1,175.3z"/>
		<path class="st15" d="M422.4,180.9c6.5,3.5,13.2-5.1,5.6-7.1C422.9,172.4,416.9,179.7,422.4,180.9z"/>
		<path class="st15" d="M346.1,129.6C344.5,128.8,344.3,128.7,346.1,129.6c3.7-5.7-8.2-7.9-8.1,0.3
			C338.1,135,343.7,133.5,346.1,129.6z"/>
		<path class="st15" d="M435.9,187.7c-6.8,2.3-6.9,10.5,0,9.4C442.3,196.1,440.8,185.2,435.9,187.7z"/>
		<path class="st15" d="M496.7,140.6c-4.4-2.6-11,3.3-6.2,6.4C494.3,149.5,500.5,142.9,496.7,140.6z"/>
		<path class="st15" d="M393,180.8c-4.1,6.2,4.4,7.1,8.5,2.9C409.1,175.9,395.9,176.3,393,180.8C392.4,181.7,393.6,179.9,393,180.8z
			"/>
		<path class="st15" d="M532.3,144.8c-5.4-2.2-8.9,11.9-1.2,9.9C536.3,153.4,536.1,146,532.3,144.8z"/>
		<path class="st15" d="M493.2,56.8c0,0,2.4-3.2,0.3,0.1c5,2.2,5.3-4.7,5.1-6.9C498.3,47,483.6,53,493.2,56.8z"/>
		<path class="st15" d="M372.7,97.7c4.6,0.4,6.6-7.5,2.3-8.3C369.5,88.4,366.1,97.7,372.7,97.7C373,97.7,371.6,97.7,372.7,97.7z"/>
		<path class="st15" d="M387.9,91.8c5.1,1.2,8.3-10.8,0.1-8C382.2,85.8,384.8,90.8,387.9,91.8z"/>
		<path class="st15" d="M466.1,91.9c-6.5-0.8-6.6,11.9,1.6,5.9C470.8,95.6,467.4,92.1,466.1,91.9C465.3,91.8,467,92.1,466.1,91.9z"
			/>
		<path class="st15" d="M498.3,90.9c-4.6,2.7,0.5,9.7,5.1,5.5C507.8,92.5,503.2,87.5,498.3,90.9C497.5,91.4,499.3,90.2,498.3,90.9z"
			/>
		<path class="st15" d="M397.4,147.9c-2.8,5.7,4.2,7.5,7.2,1.7C406.5,145.7,399.8,143.1,397.4,147.9
			C397.1,148.5,397.9,146.9,397.4,147.9z"/>
		<path class="st15" d="M361.7,199.6c4.5,3.5,9.6-8.2,1.3-7.5C357.7,192.5,354.9,198.8,361.7,199.6z"/>
		<path class="st15" d="M459.5,84.6c3,3.2,9.3-3.8,6.2-5.6C461.3,76.5,456.7,80.8,459.5,84.6z"/>
		<path class="st15" d="M451.3,70c11.6-3.5-8.1-11.6-3.7-1.6c1.1-0.5,2.3-0.9,3.4-1.4c-1.1,0.5-2.2,1.1-3.3,1.6
			C448.2,69.7,449.8,70.4,451.3,70z"/>
		<path class="st15" d="M478.5,228.3c-12.4,6.2,11.4,9,4.2,0.7c-0.9,0.6-1.8,1.2-2.7,1.7c0.7-0.6,1.6-1.6,2.4-2
			C481.3,227.6,480.1,227.5,478.5,228.3C477.7,228.7,479.9,227.4,478.5,228.3z"/>
		<path class="st15" d="M532.2,188.5c10.1-5.4-8.8-9.7-11.5-2.6C517.5,194.6,529.6,190,532.2,188.5
			C532.9,188.1,532.1,188.6,532.2,188.5z"/>
		<path class="st15" d="M397.1,227.6c0.2,0.6,7.6,1.7,8.8,0.9c2.8-1.9,2.7-9-0.5-10.1C400.2,216.6,394.2,222.6,397.1,227.6z"/>
		<path class="st15" d="M508.9,190.7c8-6.4-2.7-6.2-3-5.4C505.2,187.4,503.6,193.6,508.9,190.7z"/>
		<path class="st15" d="M431.1,213.3c3.3-7.9-12.1-2.4-6.4,1.6C426.4,216.1,429.9,216.2,431.1,213.3z"/>
		<path class="st15" d="M421.8,211.1c4.2-0.8,4.8-6.4,1.1-7.3C418.2,202.7,415.6,212.3,421.8,211.1z"/>
		<path class="st15" d="M445.2,191.4c-0.5,0.9-1,1.9-1.6,2.8c3.5,1.3,5.5-3.1,4.6-5.3c-1.9-4.8-10.6,3.2-4.9,5.2
			C443.9,193.3,444.5,192.1,445.2,191.4z"/>
		<path class="st15" d="M460.1,127.5c-4.4,3.6,2.1,8.4,5.8,4C469.6,127,462.6,126.2,460.1,127.5z"/>
		<path class="st15" d="M339.9,147.9c4.6-8.2-12.5-2.1-8.1,1.9C334.2,151.9,337.9,152.2,339.9,147.9
			C340.5,146.9,339.6,148.7,339.9,147.9z"/>
		<path class="st15" d="M556.3,117.3c-0.7,3.4-0.3,4.7,3.4,4.7C565.6,121.9,560.6,110.2,556.3,117.3z"/>
	</g>
	<g>
		<path class="st12" d="M302.1,71.3c-9.3-13.7-5.8-21.9,12.5-24.4c2-0.3,2.9-2.4,1.8-4.1c-2.8-4.2-6.6-11.5-4.2-17
			c3-6.9,10.3-11.5,20.2-8.4c1.7,0.5,3.3-0.4,3.4-2.1c0.8-11.7,15.6-19.6,26.9-8.8c2.4,2.2,6.1,2.3,8.1-0.1
			c11.9-14,33.8-3.6,31.1,14.3c-0.4,3,2,5.7,5.3,6.1c15.6,1.8,19.2,17.4,11.7,25c-1.1,1.1-0.7,2.8,0.9,3.7c9,5.1,10.9,12.8,8.6,19
			c-1.9,4.9-9.4,6.8-14.4,7.6c-1.9,0.3-2.5,2.3-1.2,3.7c12.2,13.4,9.7,19.9-5.4,23.2c-2.9,0.6-4.3,3.2-3.2,5.8
			c1.3,3.5,3.7,11.3,2.2,13.9c-16.6,28.1-29.3,48-35.9,62.8c-11,24.2-24.9,59.9-31.2,136.9c-12.1,0.5-22.4,1-34.5,1.6
			c-12.7-77.9-14.2-121.3-16.3-152.5c-1.9-24.9-1.6-44.9-1.6-51.9c0.4-17.3,2-28.7,2.8-34.4c0.5-3.6,7.3-10,10.8-12.2
			C303.2,77.2,303.9,73.8,302.1,71.3z"/>
		<path class="st13" d="M304.9,71.5c-8.8-13-5.5-20.7,11.9-23.1c1.9-0.3,2.8-2.3,1.7-3.9c-2.7-4-6.2-10.9-3.9-16.1
			c2.8-6.6,9.7-10.9,19.2-8c1.6,0.5,3.1-0.4,3.3-2c0.8-11.1,14.8-18.6,25.5-8.4c2.3,2.1,5.8,2.1,7.7-0.1
			c11.3-13.2,32.1-3.4,29.5,13.5c-0.4,2.8,1.9,5.4,5,5.8c14.8,1.7,18.2,16.5,11.1,23.7c-1,1.1-0.6,2.7,0.8,3.5
			c8.5,4.9,10.3,12.2,8.1,18c-1.8,4.6-8.9,6.5-13.6,7.2c-1.8,0.3-2.4,2.2-1.1,3.5c11.6,12.7,9.2,18.8-5.1,22
			c-2.7,0.6-4.1,3.1-3.1,5.5c1.3,3.3-0.8,18-2.2,20.4c-15.7,26.7-51.3,78.9-59.4,182.2c-11.5,0.5-21.3,1-32.7,1.5
			c-12-73.9-13.5-115-15.5-144.7c-5-30.3,11.4-41.1,1.1-75.9c-2.3-7.8,6.9-15.5,10.3-17.6C305.9,77.1,306.5,73.9,304.9,71.5z"/>
		<path class="st12" d="M383.4,31c0.4-0.8,1.8-0.2,1.4,0.6C338.2,146,335,215.9,337.5,328.4c-3.7,0.2-21.1,0.5-24.8,0.7
			C306.2,214.1,333.8,132.4,383.4,31z"/>
	</g>
	<g>
		<g>
			<path class="st0" d="M624.2,173.1c0,68-54.3,125-122.3,125s-125.6-56.9-125.6-125S433.8,49.3,501.9,49.3S624.2,105,624.2,173.1z"
				/>
		</g>
		<g>
			<path class="st16" d="M616.2,173.1c0,64.2-40.6,111.2-114.3,114.9c-64.1,3.3-113.8-50.7-113.8-114.9c0-64.2,42.8-115.3,113.8-115
				C566.1,58.2,616.2,108.9,616.2,173.1z"/>
		</g>
		<g>
			<path class="st0" d="M509.5,187.1c-7.4-5,0.3-18.2,7-12.3c19.3,17.2,35.4,18.7,59.2,26.9c2.7,0.9,12.5,2.5,14.9-3
				c4-9.3,4.5-13.7,4.5-24.4c0-46-32.1-92.3-76.4-92.6c-6,0-10.5,14.9-10.7,22c-0.7,25.2,0.7,31.3-0.5,56.3
				c-0.4,9-10.3,9.5-11.1,0.6c-1.8-20.6-6.4-25.5-8.4-61.9c-0.5-8.6-12.4-14.7-15.3-14.3c-28.3,4-66.4,44-66.4,90
				c0,10.7-0.4,17.3,4.5,26.1c2.2,3.8,7,5,9.7,4c17.8-6.7,44-17.8,63.9-29.8c7.7-4.6,13.8,6.3,6.3,11.3
				c-30.8,20.9-68.1,41.4-57.6,53.9c17,20.1,38.9,31.5,67.3,31.5c28.4,0,48.8-8.3,64.9-29.1c3.7-4.8,2.7-14.7,0.3-16.3
				C535.2,204.5,540.3,207.9,509.5,187.1z"/>
		</g>
		<g>
			<path class="st17" d="M509.9,190.7c-7.4-5,2.6-20.9,10.7-17c33.1,16.1,49.8,26.7,64.2,22.3c10.5-3.2,3.6-11.2,3.6-22.9
				c0-42.3-26.3-78.6-62.4-84.6c-4-0.7-8.3,1.2-10.3,4.7c-9.6,16-2.4,31.6-4.8,65.9c-0.6,9-16.5,6.7-17.1-2.2
				c-2.4-33.5-5.2-39.1-7.9-58c-0.8-5.3-6.5-10.5-11.7-9.2c-38.5,9.4-61.2,41.9-61.2,83.5c0,8.2,1.3,28.9,10.3,25.3
				c10.6-4.2,31.5-16.3,61.9-26.2c8.6-2.8,14.8,8.3,7.9,13.9c-28.5,23.1-46.5,35.3-52,45.5c-4.9,9.1,21.8,29,60.9,30.5
				c28.2,1.1,51.5-9.8,56.6-24.5C563,224.9,540.3,211.3,509.9,190.7z"/>
		</g>
		<g>
			<path class="st16" d="M475.6,110c0.2,6.5,3,6.5,3.2,13c0.1,2.4-5.2,5.3-6.9,3.7c-4.7-4.5-2.9-6.4-7.6-11
				c-4.1-3.9-3.4-10.7,1.8-13C471.7,100.2,475.5,104.5,475.6,110z"/>
		</g>
		<g>
			<path class="st16" d="M454.3,121.6c2.8,5.9,4.2,5.3,7,11.1c1,2.2-0.5,4.8-2.8,4c-6.2-2.2-5.8-3.2-11.9-5.4
				c-5.3-1.9-5.5-6.8-1.7-11C449,115.8,451.9,116.6,454.3,121.6z"/>
		</g>
		<g>
			<path class="st16" d="M440.5,141.6c5,4.2,3.2,6.4,8.2,10.6c1.8,1.6,1.5,5.9-0.9,6.1c-6.5,0.5-6.6,0-13.1,0.5
				c-5.7,0.4-12.1-7.1-10.4-12.6C426.2,140.4,436.3,138,440.5,141.6z"/>
		</g>
		<g>
			<path class="st16" d="M434.8,167.1c6.3,1.8,5.6,4.3,11.8,6.1c2.3,0.7,2.5,2.9,0.3,4c-5.8,3.1-5.6,3.3-11.4,6.4
				c-5,2.7-9.5-0.3-10.1-6C424.9,171.6,429.5,165.6,434.8,167.1z"/>
		</g>
		<g>
			<path class="st16" d="M459.3,222.1c5.6-3.4,5.7-3.3,11.2-6.7c2-1.3,3.5-1.2,3,1.1c-1.6,6.4-2.8,6.1-4.3,12.4
				c-1.4,5.5-5.5,6.6-10.1,3.3C454.1,228.7,454.6,225.1,459.3,222.1z"/>
		</g>
		<g>
			<path class="st16" d="M478.8,237.7c3.7-5.4,2-6.6,5.6-12c1.4-2,8-0.7,8.4,1.6c1.2,6.4,0.5,6.6,1.7,13c1,5.6-5.4,11.1-11,10
				C477.6,249.1,475.7,242.3,478.8,237.7z"/>
		</g>
		<g>
			<path class="st16" d="M503.1,240.3c1.2-6.4,4.2-5.9,5.3-12.3c0.4-2.4,3.4-3.8,4.8-1.8c3.7,5.4,2.5,6.2,6.1,11.6
				c3.2,4.7,0.6,8.9-4.9,10.1C508.5,249.2,502.1,245.7,503.1,240.3z"/>
		</g>
		<g>
			<path class="st16" d="M530.2,238.3c-1.3-5.4-1.2-5.4-2.6-10.7c-0.5-2,1.7-3.1,3.5-2.1c4.7,2.9,6,0.8,10.7,3.7
				c4.1,2.5,3.1,9.7-0.7,12.5C536.9,244.7,531.3,242.8,530.2,238.3z"/>
		</g>
		<g>
			<path class="st16" d="M564.9,186.9c-5.8-3.1-6.3-2.1-12.1-5.2c-2.1-1.1-1.3-4.7,1.1-5.4c6.3-1.8,6-2.6,12.3-4.5
				c5.4-1.6,10,3.2,9.4,8.8C575,186.8,569.8,189.6,564.9,186.9z"/>
		</g>
		<g>
			<path class="st16" d="M565.2,158c-6.5-0.5-6.5-0.5-13-1c-2.4-0.2-4.6-2.1-2.8-3.6c5-4.2,5.5-3.7,10.5-7.9
				c4.3-3.7,13.6-1.8,15.4,3.6C577.1,154.9,570.8,158.4,565.2,158z"/>
		</g>
		<g>
			<path class="st16" d="M553.7,133.8c-6.2,2.2-5.6,3.7-11.8,5.9c-2.3,0.8-5.5-1.7-4.5-3.9c2.8-5.9,2.6-6,5.4-11.9
				c2.5-5.1,9.3-4,13.2,0.2C560.2,128.6,559,131.9,553.7,133.8z"/>
		</g>
		<g>
			<path class="st16" d="M536.3,119.3c-4.7,4.5-6.6,2.5-11.4,7.1c-1.7,1.7-4.6,0.7-4.5-1.7c0.2-6.5-1-6.6-0.8-13.1
				c0.2-5.7,6.8-8,12-5.7C537.3,108.3,540.3,115.4,536.3,119.3z"/>
		</g>
		<g>
			<path class="st16" d="M513.1,179c4.9-8.5,16-9.7,25-7.4c1.6,0.4,4.5,0.6,4.7-1.4c1-10.4-5.5-26.6-16.2-33.9
				c-1.4-0.9-5.6,0.1-6,1.8c-2.5,9-8.9,19.9-18.7,19.9c-9.8,0-19.6-10-22.1-19c-0.4-1.6-1.8-3.1-5-1.7c-11.9,5.1-15.4,19-16.3,32.7
				c-0.1,1.7,1.7,3.1,3.3,2.6c9-2.4,20.9-1.4,25.8,7.1c4.9,8.5,0.1,20.6-6.4,27.2c-1.2,1.2,0.5,3.4,2,4.2c12,5.9,25.1,5.8,37.2-0.1
				c1.5-0.7,2.9-2.6,1.7-3.8C515.6,200.7,508.2,187.4,513.1,179z"/>
		</g>
	</g>
	<g>
		<path class="st14" d="M362.1,171.6c0-1.3-0.3-2.6-0.7-3.8c-0.8-7.2-2.1-14.6-4-22.1c-4.6-19-16-33.1-30.1-43.5
			c-4.6-10.2-19.7-14.9-32.7-16.5c-9.1-3.1-18.2-5.1-26.3-6.3c-32.4-4.7-75,18.2-95.5,43.4c-19.9,24.5-16.5,36.4-14.6,70.3
			c-2.9,10-1.2,23.2,1.3,32.9c3.5,13.8,16.1,29.1,26,35c4.8,2.9,7.9,3.7,10.8,3.3c3,2.1,6.1,4.2,9.5,6c1,1,2.3,2.1,3.8,3
			c2.6,1.7,5.6,2.3,7.6,2.5c0.4,0,0.8,0,1.1-0.2c7.6,2.6,16,4.4,25.5,5c32,2.1,66.1-8.7,78.7-19.7c31.2-27.4,41.3-55.4,39.5-86.5
			C362.1,173.5,362.1,172.6,362.1,171.6z"/>
		<path class="st15" d="M293.3,140.2c5.2,3.9,14.7-9.2,9.5-11.7C297.8,126,288,136.1,293.3,140.2C295,141.5,292.5,139.5,293.3,140.2
			z"/>
		<path class="st15" d="M268.1,176c-0.4,6.3,10.7-0.6,11.5-3c1-3-5-7.9-7.3-8.1C264.8,164.2,266.8,171,268.1,176z"/>
		<path class="st15" d="M337.5,162.8c0.7,5.7,11.8,4.6,12.2-0.9C350.3,153.8,336.9,159.2,337.5,162.8z"/>
		<path class="st15" d="M253.9,241.6c-2.2,4,5.1,10.1,9.7,7.2C269.7,245,257.4,236.5,253.9,241.6z"/>
		<path class="st15" d="M190.9,152.5c4.7,2,10.4-1.9,5.3-5.3C190.9,143.6,185.9,151.6,190.9,152.5z"/>
		<path class="st15" d="M321.1,151.1c4.8,2,9.6-5.6,5.3-7.8C321.8,141,317.3,149.6,321.1,151.1z"/>
		<path class="st15" d="M177.8,140.2c3.7,3.9,8.8-6.5,2-7C175.5,132.8,175.4,138.3,177.8,140.2z"/>
		<path class="st15" d="M212,245.6c-5.7-0.7-3.7,7.8,3.2,6.4C222.6,250.5,217.2,245.2,212,245.6z"/>
		<path class="st15" d="M166.5,178.5c-7.1-1.2-3.1,11.1,3.3,7.2C174.1,183,170.1,179.1,166.5,178.5z"/>
		<path class="st15" d="M180.3,176.7c1.4,6,12-4.2,4-6.4C180.1,169.1,178.8,173.9,180.3,176.7z"/>
		<path class="st15" d="M239,263.7c-4.1-5-12.5-0.2-7,3.9C235.8,270.5,243,266.5,239,263.7z"/>
		<path class="st15" d="M289.3,193.1c6.3-0.8,1.8-11-3.3-6.3C283.3,189.4,285.4,193.6,289.3,193.1
			C290.1,193,288.5,193.2,289.3,193.1z"/>
		<path class="st15" d="M287.7,217.9c4.2,0.1,3.8-7.6-1.3-6.5C281.2,212.5,282.8,218.1,287.7,217.9C288.7,218,286.8,218,287.7,217.9
			z"/>
		<path class="st15" d="M287.4,269c6.3,0.4,9.1-6.2,3.1-7.6C284.9,260,282.6,269.4,287.4,269z"/>
		<path class="st15" d="M169.2,234.5c-3.5,2.9,2.1,6.3,5.7,3.5C177.3,236.1,172.3,231.9,169.2,234.5z"/>
		<path class="st15" d="M184.7,241c4.2,2.9,9-0.8,5.8-4.4C185.2,230.6,179,240.8,184.7,241z"/>
		<path class="st15" d="M175.9,220c2.6-4.1-3.8-4.3-5.2-1.8c-0.2-0.4-0.5-0.8-0.7-1.1C166.1,219,172.6,225.7,175.9,220
			C176.5,219.1,175.4,220.8,175.9,220z"/>
		<path class="st15" d="M233.4,216.5c-1.1,0.5-6.5,6.5-0.7,5.7C236.8,221.8,237.6,216.1,233.4,216.5z"/>
		<path class="st15" d="M168.9,210.2c3.8,1.8,7-4.9,3.3-5.4C169,204.2,164.8,208.2,168.9,210.2C169.7,210.5,168.2,209.8,168.9,210.2
			z"/>
		<path class="st15" d="M254.4,208.4c4.4,0.4,6.8-1.9,3.3-5.1C255.5,201.3,249.8,206.8,254.4,208.4z"/>
		<path class="st15" d="M327.8,170.1c2.4,3.8,6.3-0.8,5.8-3.6C332.9,163.2,324.7,165.4,327.8,170.1
			C328.1,170.6,327.4,169.6,327.8,170.1z"/>
		<path class="st15" d="M243.6,149.8c-4.3-0.4-6,5.1-1.8,6.5C246.2,157.8,249.4,150.4,243.6,149.8z"/>
		<path class="st15" d="M242.9,145.9c7.7,3.8,2.3-12.4,0.4-3c-0.1-0.8-0.2-1.7-0.3-2.5C239.4,141,241.2,145.1,242.9,145.9
			C244,146.4,242.4,145.6,242.9,145.9z"/>
		<path class="st15" d="M225.8,137.2c4.4,2.2,6.4-6.7,0.7-5.9C223.2,131.8,223.1,135.9,225.8,137.2
			C226.9,137.8,225.3,137,225.8,137.2z"/>
		<path class="st15" d="M188.1,118.4c6.6,4,6.6-10.8,0.5-2.8c-0.4-0.3-0.8-0.5-1.1-0.8C186.6,116.1,186.8,117.3,188.1,118.4z"/>
		<path class="st15" d="M354.5,181.5c4.7,0.3,6.6-5.9,1.8-6.2C352.3,175.1,349.2,181.2,354.5,181.5
			C355.2,181.5,353.6,181.4,354.5,181.5z"/>
		<path class="st15" d="M218.2,139.1c4.3,0.8,4-4.6,1.1-5.8C217,132.2,214.3,138.3,218.2,139.1C219.4,139.3,217.1,138.8,218.2,139.1
			z"/>
		<path class="st15" d="M330.3,208.4c-2.9-0.1-3.7,2.1-3.5,4.1C327.4,217.9,338.1,208.6,330.3,208.4z"/>
		<path class="st15" d="M266,221.9c12.2-1-6.3-11.1-3.2-1.9c0.9-0.2,1.8-0.4,2.7-0.5c-0.7,0.2-1.8,0.8-2.6,0.9
			C263.5,221.5,264.5,222,266,221.9C266.8,221.8,264.6,222.1,266,221.9z"/>
		<path class="st15" d="M209.1,236.6c-10,1.1,4,10.8,8.5,5.9C223.2,236.4,211.8,236.3,209.1,236.6
			C208.5,236.7,209.3,236.6,209.1,236.6z"/>
		<path class="st15" d="M333.4,249.3c0-0.6-5.6-3.9-6.9-3.6c-2.9,0.7-5.2,6.5-2.9,8.4C327.2,257.2,334.1,254.3,333.4,249.3z"/>
		<path class="st15" d="M228.9,242.5c-8.6,2.6,0.2,6,0.6,5.4C230.8,246.4,234.2,241.8,228.9,242.5z"/>
		<path class="st15" d="M299.7,249.7c-5.3,5.4,9,5.9,5.7,0.8C304.4,249,301.6,247.8,299.7,249.7z"/>
		<path class="st15" d="M306.6,254.6c-3.7-0.7-6,3.6-3.3,5.6C306.7,262.6,312,255.6,306.6,254.6z"/>
		<path class="st15" d="M281,263c0.7-0.6,1.5-1.2,2.2-1.8c-2.4-2.2-5.5,0.7-5.5,2.8c-0.1,4.5,9.7,0.9,5.7-2.6
			C282.7,261.8,281.8,262.6,281,263z"/>
		<path class="st15" d="M343.3,198.8c-0.2-7.6-11.2,4.3-4.4,3.3C341,201.8,343.3,202.3,343.3,198.8z"/>
		<path class="st15" d="M303.3,202.2c0.2,2.7,4.5,7.1,7.3,2.7C313.8,199.9,301.5,195.9,303.3,202.2z"/>
		<path class="st15" d="M222.3,208.6c2.2-0.3,7.7-3.5,2.4-5.3C221.8,202.3,218.3,207.6,222.3,208.6z"/>
		<path class="st15" d="M318.6,210.5c-6.7-2.1-3.5,8.4-0.1,5.1C320,214.1,322.2,211.1,318.6,210.5
			C318.5,210.4,319.1,210.5,318.6,210.5z"/>
		<path class="st15" d="M331.8,227.6c-0.8,3.3,7.2,3.9,5.8-1C336.9,224,332.5,224.4,331.8,227.6C331.6,228.5,332,226.7,331.8,227.6z
			"/>
		<path class="st15" d="M334.9,154c1.2,3.1,10.5,3.5,10.6-0.9C345.5,148,333.5,149.5,334.9,154C334.9,154.2,334.8,153.9,334.9,154z"
			/>
		<path class="st15" d="M253.9,103.2c-2.2,4,5.1,10.1,9.7,7.2C269.7,106.6,257.4,98.1,253.9,103.2z"/>
		<path class="st15" d="M206.1,177.3c2.8-5.6-5.1-8.4-8.3-2.6C194.9,180,203.2,183.1,206.1,177.3
			C206.7,176.1,205.4,178.7,206.1,177.3z"/>
		<path class="st15" d="M212,107.2c-5.7-0.7-3.7,7.8,3.2,6.4C222.6,112.1,217.2,106.8,212,107.2z"/>
		<path class="st15" d="M264.7,226.6c-0.7-5-8.8,0.8-7.4,4.6C259.2,236.5,266.9,231.5,264.7,226.6z"/>
		<path class="st15" d="M174.1,156.5c-3.6-2.5-8.8,3.3-3.9,6.2C175.6,165.9,180.4,159.2,174.1,156.5z"/>
		<path class="st15" d="M324.6,157.5c0.7-4.2-7.9-4.3-9.6-0.1C312.9,162.8,324,161.1,324.6,157.5z"/>
		<path class="st15" d="M296.2,140.6c-4.1-5-12.5-0.2-7,3.9C293,147.3,300.3,143.4,296.2,140.6z"/>
		<path class="st15" d="M341.3,207.6C342.4,208.7,342.6,208.9,341.3,207.6c-4.9,3.4,4.1,9.2,6.7,2.5
			C349.7,205.8,344.6,205.2,341.3,207.6z"/>
		<path class="st15" d="M287.4,130.6c6.3,0.4,9.1-6.2,3.1-7.6C284.9,121.7,282.6,131,287.4,130.6z"/>
		<path class="st15" d="M222.3,148.9c2.8,3.5,10.1,1,7.2-3.2C227.2,142.4,220,145.8,222.3,148.9z"/>
		<path class="st15" d="M320,150.4c5.3-3.7-1.3-7.2-5.9-5.1C305.3,149.1,316.2,153,320,150.4C320.8,149.8,319.2,150.9,320,150.4z"/>
		<path class="st15" d="M194.7,133.8c3.7,3.6,11.2-6.8,4.3-7.7C194.2,125.4,192,131.5,194.7,133.8z"/>
		<path class="st15" d="M197.6,218.4c0,0-3,1.8-0.2-0.2c-3.4-3.4-5.9,2-6.4,3.9C190.2,224.7,204.1,224.6,197.6,218.4z"/>
		<path class="st15" d="M309.2,224.8c-3.6-1.9-7.9,3.9-4.6,6C308.8,233.4,314.6,226.9,309.2,224.8
			C308.9,224.7,310.1,225.2,309.2,224.8z"/>
		<path class="st15" d="M294.9,224.5c-3.7-2.7-10.3,6.1-2.7,6.5C297.5,231.3,297,226.4,294.9,224.5z"/>
		<path class="st15" d="M231.2,198.7c5,2.7,9.3-7.5,0.7-5.3C228.5,194.2,230.2,198.1,231.2,198.7C231.8,199,230.5,198.3,231.2,198.7
			z"/>
		<path class="st15" d="M204.6,188.9c4.6-0.7,2.8-8.1-2.4-6.2C197.4,184.5,199.5,190,204.6,188.9
			C205.4,188.8,203.6,189.1,204.6,188.9z"/>
		<path class="st15" d="M305.6,175.8c4.2-3.7-0.9-7.5-5.3-3.7C297.5,174.5,302.1,178.9,305.6,175.8
			C306.1,175.4,304.9,176.4,305.6,175.8z"/>
		<path class="st15" d="M351.7,145.4c-2.5-4.3-10.5,3.5-3.6,5.7C352.7,152.5,357,148.2,351.7,145.4z"/>
		<path class="st15" d="M234.2,206.8c-1.4-3.6-8.9,0-6.9,2.5C230,212.8,235.2,210.9,234.2,206.8z"/>
		<path class="st15" d="M236,221.5c-10.6-1,2.8,12.1,2.5,2.5c-1.1,0-2.1,0-3.2,0c1.1-0.1,2.1-0.2,3.2-0.2
			C238.5,222.7,237.3,221.6,236,221.5z"/>
		<path class="st15" d="M266,83.5c12.2-1-6.3-11.1-3.2-1.9c0.9-0.2,1.8-0.4,2.7-0.5c-0.7,0.2-1.8,0.8-2.6,0.9
			C263.5,83.1,264.5,83.7,266,83.5C266.8,83.4,264.6,83.7,266,83.5z"/>
		<path class="st15" d="M209.1,98.2c-10,1.1,4,10.8,8.5,5.9C223.2,98.1,211.8,97.9,209.1,98.2C208.5,98.3,209.3,98.2,209.1,98.2z"/>
		<path class="st15" d="M332.2,110.9c0-0.6-5.6-3.9-6.9-3.6c-2.9,0.7-5.2,6.5-2.9,8.4C326,118.9,332.9,115.9,332.2,110.9z"/>
		<path class="st15" d="M228.9,104.1c-8.6,2.6,0.2,6,0.6,5.4C230.8,108,234.2,103.4,228.9,104.1z"/>
		<path class="st15" d="M299.7,111.3c-5.3,5.4,9,5.9,5.7,0.8C304.4,110.6,301.6,109.4,299.7,111.3z"/>
		<path class="st15" d="M306.6,116.2c-3.7-0.7-6,3.6-3.3,5.6C306.7,124.2,312,117.3,306.6,116.2z"/>
		<path class="st15" d="M281,124.6c0.7-0.6,1.5-1.2,2.2-1.8c-2.4-2.2-5.5,0.7-5.5,2.8c-0.1,4.5,9.7,0.9,5.7-2.6
			C282.7,123.5,281.8,124.2,281,124.6z"/>
		<path class="st15" d="M247.8,171.7c4.8-1.5,1.1-7.5-3.4-5.1C239.9,168.9,245.3,171.9,247.8,171.7z"/>
		<path class="st15" d="M352.4,194.7c-6.4,5.2,9.5,5.9,7.2,1.2C358.5,193.3,355.5,191.9,352.4,194.7
			C351.6,195.3,353,194.2,352.4,194.7z"/>
		<path class="st15" d="M166.1,148.3c1.7-2.5,1.8-3.8-1.2-4.9C160,141.5,160.2,152.7,166.1,148.3z"/>
	</g>
	<g>
		<path class="st0" d="M149.4,90.5c-1.9-2.5-8.8-1.1-13.7,2.6C88.7,128.8,71.9,199.8,116,258.3c51.2,67.8,127.8,52.7,158.2,29.4
			c6.1-4.7,14-13.2,13.1-14.4L149.4,90.5z"/>
		<path class="st16" d="M126.6,250.3c42.2,55.9,108,61.4,159.7,21.7L227,193.4c-2,1.2-3.7,2.8-5,5.3c12.6,18.2,17.5,22.7,31.3,42.1
			c4.1,5.7,9.3,20.2,4.6,23.7c-35.1,26.1-88,8.7-115.3-27.5c-6.4-8.4-8.6-12.2-11-22c-1.4-5.8,7.2-10.4,10-11.2
			c23.6-7.7,37.2-16.1,62.6-14c1.3-5.5-0.4-9.9-4.5-13.7c-33.5,1.7-28.8,1.4-64.6,2.7c-2.9,0.1-9.6-7.1-9.5-13.1
			c0.4-26,11.5-44.6,33.9-61.5c0.2-0.2,1.3,1.4-9.8-13.3C101.4,122.3,85,195.1,126.6,250.3z"/>
		<path class="st0" d="M135,178.7c35.7-1.3,31-1,64.6-2.7c-1-0.9-2.1-1.8-3.3-2.6c-4.9-3.2-11-5.3-15.9-6c-1.7-0.2-1.6-2.5-0.9-4
			c3.2-6.4,7.7-11.6,13.3-15.5l-27.7-36.7l-5.5-7.3c-0.1,0-0.1,0.1-0.2,0.1c-22.4,16.9-33.5,35.5-33.9,61.5
			C125.5,171.6,132.2,178.8,135,178.7z"/>
		<path class="st0" d="M257.8,264.4c4.7-3.5-0.5-18-4.6-23.7c-13.8-19.4-18.7-23.9-31.3-42.1c-0.6,1.2-1.1,2.6-1.4,4
			c-1.3,5.9,0,12.9,2.2,18.4c0.6,1.6-2,4.9-3.7,5c-12.8,0.7-27.5-8.3-32.9-17.1c-1-1.7,1.3-3.2,2.9-3.9c5.9-2.4,11.6-6.9,14.1-12.6
			c0.4-0.9,0.7-1.8,0.9-2.8c-25.4-2.1-38.9,6.3-62.6,14c-2.7,0.9-11.3,5.5-10,11.2c2.3,9.7,4.6,13.5,11,22
			C169.9,273.1,222.8,290.5,257.8,264.4z"/>
		<path class="st17" d="M148.5,233.8c25.1,33.3,67.4,46.3,99.4,29.6c3.6-1.8,5.8-5.8,5.4-9.8c-1.9-17.4-15.6-25.6-32.8-51
			c-1.3,5.9,0,12.9,2.2,18.4c0.6,1.6-2,4.9-3.7,5c-12.8,0.7-27.5-8.3-32.9-17.1c-1-1.7,1.3-3.2,2.9-3.9c5.9-2.4,11.6-6.9,14.1-12.6
			c-0.5,0.2-1,0.4-1.5,0.5c-35.6,7-55.1,8.6-63.8,20.6C131.5,222.4,141.6,224.6,148.5,233.8z"/>
		<path class="st17" d="M196.3,173.4c-4.9-3.2-11-5.3-15.9-6c-1.7-0.2-1.6-2.5-0.9-4c3.2-6.4,7.7-11.6,13.3-15.5l-27.7-36.7
			c-0.4,0.3-0.9,0.6-1.3,0.9c-22.9,15.9-34.8,38.4-30.1,52.9C137.6,177.4,161.9,175.2,196.3,173.4z"/>
		<path class="st16" d="M162.3,130.8c-3.7,4.2-3.1,9.1,2.2,10.9c6.1,2.1,5.6,3.4,11.8,5.5c2.2,0.8,3.8-2.1,2.7-4.2
			c-2.9-5.8-0.2-7.1-3.1-12.9C173.4,125.2,166.2,126.2,162.3,130.8z"/>
		<path class="st16" d="M155.7,147.8c-3.6-2.9-9.1-1.1-10.6,3.8c-1.4,4.5,2.1,10.7,6.9,10.3c5.4-0.5,5.2-3,10.6-3.5
			c2-0.2,3.1-2.4,1.5-3.7C159.8,151.3,159.9,151.2,155.7,147.8z"/>
		<path class="st16" d="M166.7,221.5c3.9-5.2,3.2-5.7,7.1-10.8c1.4-1.9,0-5.2-2.4-4.9c-6.4,1-6.2,2.1-12.6,3.1
			c-5.4,0.8-7.9,6.2-4.8,11.3C157,225,163.4,226,166.7,221.5z"/>
		<path class="st16" d="M186.6,224.9c-5.4,3.5-5.4,3.5-10.9,7c-4.6,3-7.5,9.5-2.6,12.9c4.6,3.2,13-0.8,14.3-6.3
			c1.4-6.3,2.1-6.1,3.6-12.4C191.5,223.8,188.6,223.6,186.6,224.9z"/>
		<path class="st16" d="M203.1,253.1c5.5,1,11.6-2.2,10.5-7.7c-1.3-6.3-1.5-6.3-2.8-12.6c-0.5-2.3-4.5-2.4-5.8-0.4
			c-3.5,5.4-2.2,6.3-5.8,11.7C196.2,248.7,197.2,252,203.1,253.1z"/>
		<path class="st16" d="M233.2,253.1c5.5-1.3,9.3-7,6.1-11.6c-3.7-5.3-4.7-4.6-8.4-9.9c-1.4-1.9-4.2-1-4.5,1.3
			c-1,6.4-3.7,5.9-4.8,12.3C220.7,250.6,227.3,254.4,233.2,253.1z"/>
		<path class="st16" d="M179.5,163.4c-0.8,1.5-0.8,3.8,0.9,4c9.3,1.4,22.9,7.5,24,16.9c1.2,9.4-6.6,17.1-15.4,20.7
			c-1.6,0.6-3.9,2.2-2.9,3.9c5.4,8.8,20.1,17.7,32.9,17.1c1.7-0.1,4.3-3.4,3.7-5c-3.8-9.5-4.7-22.3,4.2-27.6L192.7,148
			C187.2,151.8,182.7,157,179.5,163.4z"/>
	</g>
	<g>
		<path class="st14" d="M535.5,226.4c0.9-0.9,1.5-1.9,2-2.9c4.2-5.2,8.1-10.9,11.8-17c9.4-15.3,11.1-32,8.7-47.9
			c3.6-9.6-3.2-22.5-10.5-32.1c-3.9-8-8.5-15.2-13-21.3c-18-24.2-60.7-37-90.5-33.9c-29,3-34.5,12.9-55.3,36.3
			c-8.4,4.6-15.9,14.3-20.6,22.3c-6.7,11.3-8.5,29.4-5.9,39.8c1.2,5,2.7,7.5,4.9,9.2c0.5,3.3,1.3,6.7,2.3,10.1
			c0,1.3,0.2,2.9,0.5,4.4c0.6,2.8,2.1,5.1,3.3,6.6c0.2,0.3,0.5,0.5,0.8,0.6c3.2,6.6,7.6,13.3,13.4,19.9
			c19.4,22.2,48.7,37.4,64.1,38.4c38.2,2.5,63-9.2,82.1-30.6C534.2,227.7,534.8,227.1,535.5,226.4z"/>
		<path class="st15" d="M511.1,161.2c0.8,6,15.6,3.6,13.8-1.4C523.2,154.8,510.3,155,511.1,161.2C511.4,163.1,511,160.2,511.1,161.2
			z"/>
		<path class="st15" d="M471.3,168.1c-4.4,3.8,7.3,6.6,9.4,5.5c2.6-1.3,1.9-8.4,0.6-10C476.9,158.2,473.8,163.9,471.3,168.1z"/>
		<path class="st15" d="M525.1,204.6c-3.2,4.2,4.7,10.7,8.5,7.4C539.4,207.1,527.1,202,525.1,204.6z"/>
		<path class="st15" d="M419.4,201.6c-4,1.2-3.3,9.9,1.6,11C427.5,214.1,425,200.5,419.4,201.6z"/>
		<path class="st15" d="M436.4,102.6c1.7,4.4,8,5.5,6.9,0C442.2,96.7,433.7,98.7,436.4,102.6z"/>
		<path class="st15" d="M522.1,186.4c1.8,4.4,9.9,2.6,8.5-1.6C529.1,180.2,520.6,183,522.1,186.4z"/>
		<path class="st15" d="M435.9,85.9c-0.1,5,10,1.5,5.9-3.2C439.2,79.7,435.5,83.2,435.9,85.9z"/>
		<path class="st15" d="M389.5,176.9c-3.2-4.1-7.4,2.7-2.1,6.2C393.3,187,393.2,180,389.5,176.9z"/>
		<path class="st15" d="M403.6,103.6c-3.8-5.4-9.2,5.2-2.5,6.8C405.6,111.5,405.5,106.3,403.6,103.6z"/>
		<path class="st15" d="M413.7,111.3c-3,4.8,10.6,5.1,6.8-1.6C418.6,106.3,414.5,108.6,413.7,111.3z"/>
		<path class="st15" d="M395.3,206.2c0.5-5.9-8-8.2-7.1-2C388.8,208.5,396.1,210.7,395.3,206.2z"/>
		<path class="st15" d="M474,193c4.6,3.6,8.4-6,2-6.2C472.5,186.6,471.2,190.8,474,193C474.6,193.4,473.5,192.6,474,193z"/>
		<path class="st15" d="M456.8,208.2c2.6,2.8,7.4-2.5,3.4-5.1C456.1,200.4,453.5,205.1,456.8,208.2
			C457.5,208.8,456.2,207.6,456.8,208.2z"/>
		<path class="st15" d="M423.4,241.2c3.9,4.4,10,1.8,7-2.9C427.6,233.8,419.9,238.4,423.4,241.2z"/>
		<path class="st15" d="M368.9,141.8c-4.2-0.4-2.7,5.5,1.4,6C373.1,148.1,372.5,142.1,368.9,141.8z"/>
		<path class="st15" d="M374.7,156.1c0.8,4.6,6.4,5.3,6.6,0.9C381.8,149.6,371.2,152.3,374.7,156.1z"/>
		<path class="st15" d="M382.6,136.7c4.3-0.9,0.4-5.3-2.2-4.6c0.1-0.4,0.2-0.8,0.3-1.2C376.9,129.6,376.8,138.2,382.6,136.7
			C383.6,136.5,381.8,136.9,382.6,136.7z"/>
		<path class="st15" d="M422.3,171.9c-1-0.4-8.5-0.1-4.1,3.3C421.2,177.5,425.4,174.3,422.3,171.9z"/>
		<path class="st15" d="M384.5,125.7c1.4,3.6,7.7,1.4,5.7-1.4C388.5,121.9,383.1,121.8,384.5,125.7
			C384.8,126.5,384.3,125,384.5,125.7z"/>
		<path class="st15" d="M441.4,180.3c2.6,3.1,5.7,3.2,5.4-1.2C446.7,176.3,439.3,176.2,441.4,180.3z"/>
		<path class="st15" d="M514,203.1c-0.9,4,4.6,3.6,6.1,1.4C521.9,202,515.2,198.1,514,203.1C513.9,203.6,514.2,202.6,514,203.1z"/>
		<path class="st15" d="M472.4,135.1c-2.5-3.1-7.2-0.6-5.4,3C469,142,475.8,139.2,472.4,135.1z"/>
		<path class="st15" d="M474.6,132.1c2.5,7.5,9.6-6.6,2.2-1.7c0.5-0.6,0.9-1.2,1.4-1.8C475.4,126.6,474,130.4,474.6,132.1
			C474.9,133.1,474.4,131.6,474.6,132.1z"/>
		<path class="st15" d="M469.1,115.3c1.4,4.3,8.5-0.2,4.3-3.4C470.9,110.1,468.2,112.6,469.1,115.3
			C469.4,116.4,468.9,114.8,469.1,115.3z"/>
		<path class="st15" d="M456.8,78.5c1.7,6.9,11.3-2.7,2.2-1.5c-0.1-0.4-0.2-0.8-0.2-1.3C457.3,76.1,456.6,77,456.8,78.5z"/>
		<path class="st15" d="M524,227.9c2.9,3.3,8.1,0.4,5.2-2.9C526.8,222.3,520.8,224.3,524,227.9C524.4,228.4,523.5,227.3,524,227.9z"
			/>
		<path class="st15" d="M462.9,111.5c2.3,3.4,5.6-0.4,4.5-3C466.6,106.3,460.9,108.5,462.9,111.5
			C463.6,112.5,462.3,110.7,462.9,111.5z"/>
		<path class="st15" d="M490.8,229.7c-1.9-2-3.8-1.1-5,0.4C482.7,233.9,495.7,234.9,490.8,229.7z"/>
		<path class="st15" d="M440.1,196.6c8.6,7.3,3.1-11.3-0.8-3.3c0.7,0.5,1.4,1,2.1,1.4c-0.6-0.3-1.7-0.7-2.3-1.1
			C438.7,194.7,439,195.7,440.1,196.6C440.7,197.1,439.1,195.9,440.1,196.6z"/>
		<path class="st15" d="M393.5,169.1c-7.2-5.8-4.4,9.6,1.7,9.4C402.7,178.2,395.5,170.7,393.5,169.1
			C393,168.8,393.6,169.2,393.5,169.1z"/>
		<path class="st15" d="M466.1,258.3c0.4-0.3-1.1-6.2-2.1-6.8c-2.3-1.5-7.6,0.9-7.4,3.6C456.9,259.5,463.3,262.1,466.1,258.3z"/>
		<path class="st15" d="M402.6,185.9c-7.3-3.9-3.8,4-3.1,4C401.3,189.6,406.4,188.9,402.6,185.9z"/>
		<path class="st15" d="M443.9,236.6c-7,0,2,9.7,3.2,4.3C447.5,239.3,446.4,236.6,443.9,236.6z"/>
		<path class="st15" d="M445.2,244.3c-1.9-2.9-6.3-1.5-5.8,1.5C440.1,249.6,448.1,248.5,445.2,244.3z"/>
		<path class="st15" d="M423.1,233.1c0.9,0.1,1.7,0.2,2.6,0.3c-0.2-3-4-3.1-5.4-1.8c-3,2.9,5.7,6.9,5.4,2
			C425,233.5,423.9,233.4,423.1,233.1z"/>
		<path class="st15" d="M505.5,231.9c4.9-5-10.1-4.5-5-0.7C502.1,232.4,503.2,234.2,505.5,231.9z"/>
		<path class="st15" d="M477.2,208.1c-1.6,1.8-1.7,7.6,3,6.5C485.5,213.4,480.1,202.8,477.2,208.1z"/>
		<path class="st15" d="M420.3,159.5c1.6,1.2,7.3,2.7,5.1-1.9C424.1,155,418.4,156.3,420.3,159.5z"/>
		<path class="st15" d="M481.8,223.4c-3-5.7-7.8,3.2-3.4,3.2C480.4,226.7,483.8,226.2,481.8,223.4
			C481.7,223.3,482.1,223.8,481.8,223.4z"/>
		<path class="st15" d="M479.3,243.1c-2.7,1.7,2.2,7.2,4.4,3.2C484.9,244.2,481.8,241.6,479.3,243.1
			C478.5,243.6,480,242.7,479.3,243.1z"/>
		<path class="st15" d="M529.1,197.3c-1.2,2.8,4.6,9.1,7.4,6.3C540,200.3,531.2,193.4,529.1,197.3
			C529.1,197.4,529.2,197.2,529.1,197.3z"/>
		<path class="st15" d="M509.5,111.5c-4,1.2-3.3,9.9,1.6,11C517.6,123.9,515.1,110.4,509.5,111.5z"/>
		<path class="st15" d="M430.2,128.6c5.5-1.8,2.1-8.7-3.7-7.1C421,123,424.5,130.4,430.2,128.6C431.3,128.2,428.8,129,430.2,128.6z"
			/>
		<path class="st15" d="M479.6,86.8c-3.2-4.1-7.4,2.7-2.1,6.2C483.4,96.9,483.3,89.8,479.6,86.8z"/>
		<path class="st15" d="M436.2,198.8c2.8-3.8-6.2-5.2-7.8-1.9C426.1,201.7,434.4,203.4,436.2,198.8z"/>
		<path class="st15" d="M422.8,94.2c-0.7-3.9-7.9-3.6-6.6,1.4C417.7,101.3,425.2,100,422.8,94.2z"/>
		<path class="st15" d="M520.2,192.8c3.2-2.3-2.4-7.9-6.2-6.3C509.1,188.7,517.5,194.8,520.2,192.8z"/>
		<path class="st15" d="M512.7,163.3c0.5-5.9-8-8.2-7.1-2C506.2,165.6,513.6,167.8,512.7,163.3z"/>
		<path class="st15" d="M498.5,236.3C498.4,237.8,498.4,238,498.5,236.3c-5.4-1-3.3,8.6,2.8,6C505.1,240.6,502.2,236.9,498.5,236.3z
			"/>
		<path class="st15" d="M513.5,151.1c3.9,4.4,10,1.8,7-2.9C517.7,143.6,510.1,148.2,513.5,151.1z"/>
		<path class="st15" d="M459.2,120.6c-0.5,4.1,5.9,7.2,6.8,2.6C466.6,119.6,459.7,117.1,459.2,120.6z"/>
		<path class="st15" d="M521.9,185.2c5.9,1.1,3.9-5.5-0.5-7.2C513.1,174.8,517.6,184.4,521.9,185.2C522.7,185.4,521,185,521.9,185.2
			z"/>
		<path class="st15" d="M451.1,92.8c0.1,4.7,11.7,2.9,7.8-2.2C456.2,87,450.8,89.6,451.1,92.8z"/>
		<path class="st15" d="M397.8,149.7c0,0-3.1-0.8,0-0.3c0-4.4-5.2-2.5-6.7-1.6C388.9,149,398,158.1,397.8,149.7z"/>
		<path class="st15" d="M466.3,226.6c-1.1-3.6-7.7-2.5-6.9,0.9C460.5,231.9,468.5,231.5,466.3,226.6
			C466.3,226.3,466.7,227.4,466.3,226.6z"/>
		<path class="st15" d="M457.2,217.1c-0.7-4.2-10.7-2.8-6,2.5C454.5,223.3,457.4,219.7,457.2,217.1z"/>
		<path class="st15" d="M432.5,158.8c1.5,5.1,11,1.2,3.9-3C433.8,154.1,432.3,157.8,432.5,158.8
			C432.7,159.4,432.4,158.1,432.5,158.8z"/>
		<path class="st15" d="M421.6,135.1c3.5,2.6,7.1-3.4,2.5-5.6C419.8,127.6,417.6,132.6,421.6,135.1
			C422.2,135.6,420.8,134.6,421.6,135.1z"/>
		<path class="st15" d="M495.9,192.4c5.1,0.3,4.3-5.5-1-5.9C491.5,186.3,491.6,192.1,495.9,192.4
			C496.5,192.4,495.1,192.3,495.9,192.4z"/>
		<path class="st15" d="M545.8,202.6c1.2-4.5-9.1-4.6-6,1.4C541.8,207.9,547.4,207.9,545.8,202.6z"/>
		<path class="st15" d="M429.2,166.1c1.4-3.2-5.8-5.8-6.1-2.8C422.6,167.3,427.2,169.4,429.2,166.1z"/>
		<path class="st15" d="M420.8,176.8c-6.2-7.5-6.1,9.7-0.1,3.3c-0.7-0.7-1.4-1.4-2.1-2.1c0.7,0.6,1.5,1.3,2.2,1.9
			C421.7,179.2,421.6,177.7,420.8,176.8z"/>
		<path class="st15" d="M530.3,106.5c8.6,7.3,3.1-11.3-0.8-3.3c0.7,0.5,1.4,1,2.1,1.4c-0.6-0.3-1.7-0.7-2.3-1.1
			C528.8,104.6,529.2,105.6,530.3,106.5C530.8,107,529.2,105.7,530.3,106.5z"/>
		<path class="st15" d="M483.6,79c-7.2-5.8-4.4,9.6,1.7,9.4C492.9,88.1,485.6,80.5,483.6,79C483.2,78.6,483.8,79.1,483.6,79z"/>
		<path class="st15" d="M555.5,167.4c0.4-0.3-1.1-6.2-2.1-6.8c-2.3-1.5-7.6,0.9-7.4,3.6C546.3,168.6,552.7,171.1,555.5,167.4z"/>
		<path class="st15" d="M492.7,95.7c-7.3-3.9-3.8,4-3.1,4C491.4,99.5,496.5,98.7,492.7,95.7z"/>
		<path class="st15" d="M534.1,146.5c-7,0,2,9.7,3.2,4.3C537.6,149.2,536.6,146.5,534.1,146.5z"/>
		<path class="st15" d="M535.4,154.2c-1.9-2.9-6.3-1.5-5.8,1.5C530.2,159.5,538.2,158.4,535.4,154.2z"/>
		<path class="st15" d="M513.3,143c0.9,0.1,1.7,0.2,2.6,0.3c-0.2-3-4-3.1-5.4-1.8c-3,2.9,5.7,6.9,5.4,2
			C515.1,143.4,514,143.2,513.3,143z"/>
		<path class="st15" d="M461,152.1c4.1,2.1,5.6-4.2,1.1-5.6C457.6,145.1,459.2,150.6,461,152.1z"/>
		<path class="st15" d="M514.1,235.2c-7.6-0.8,2.4,10,4,5.5C518.9,238.2,517.9,235.3,514.1,235.2
			C513.2,235.1,514.8,235.2,514.1,235.2z"/>
		<path class="st15" d="M423,83.6c2.7-0.6,3.6-1.3,2.4-4C423.5,75.2,416.3,82.6,423,83.6z"/>
	</g>
	<g>
		<g>
			<g>
				<path class="st12" d="M355.9,148.1c-1.1,2.6-1.7,6.1-2,8.9c-1.7-1.9-3.2-3.3-3.9-3.7c-1.1-0.8-2.6,0-2.6,1.4
					c0.1,3.1,1.5,7.8,2.8,10.9c0.8,2,1.2,2.7,1.5,3.4c-2.6-2.3-5.3-4.2-7.9-5.3c-1.8-0.8-3.7,0.7-3.5,2.6c0.2,2.5,1,4.9,2.2,7.2
					c-0.8-0.4-1.6-0.8-2.3-1.1c-1.2-0.4-2.3,0.8-1.7,1.9c2.6,5.4,12.8,13.2,16.1,15.4c4.8,3.3,6.6,8,6.6,8
					c-10.5-10-19.6-13.5-24.2-14.6c-1.2-0.3-2.1,0.9-1.6,2c0.3,0.6,1,1.7,1.4,2.3c-2.5-1.3-5.9-2.8-8.7-3.5
					c-2.3-0.6-4.3,1.7-3.3,3.9c1.8,4.1,5.6,9.2,8.8,12.9c-1.5-0.6-4.2-1.5-5.8-1.8c-1.3-0.3-2.2,1.3-1.3,2.2c3,3.1,9,7.4,12.8,9.8
					c7.5,4.8,16.9,8.6,22.6,13.6c3.8,3.3,9.6,15.6,9.6,15.6l2.4-0.4l-15.8-93.3C357.2,146.4,356.3,147.1,355.9,148.1z"/>
				<path class="st12" d="M403.5,185.7c-1.4,0.9-4.1,2-5.3,3c1.7-4.2,4.9-9.7,5.2-14.2c0.2-2.3-2.4-3.9-4.4-2.6
					c-2.1,1.4-4.5,3.6-6.3,5.4c0.1-0.5,0.3-1.4,0.4-2c0.2-1.2-1.2-2-2.2-1.3c-0.7,0.5-2.4,2.1-4.1,4.1c-4.3,4.9-8,11.2-10.6,17
					c0,0-0.6-2-0.1-3.8c1-2.9,6.6-12.6,8.5-18.7c0.8-2.6,1.3-5,1.4-5.8c0.1-1.2-1.3-2-2.3-1.2c-0.6,0.5-1.5,1.4-2,2
					c0.1-1.8,0.1-4.4-0.2-6.2c-0.3-1.7-2.3-2.3-3.5-1.1c-1.4,1.5-3,3.9-4,5.6c-2.2,3.8-2.6,5.4-3.2,6.5c-0.3-1.1,1.5-9.1,1.4-13.4
					c-0.1-2.4-0.5-6-1.3-8.3c-0.5-1.4-2.3-1.7-3.3-0.5c-0.4,0.6-1.4,2.2-2.3,4.2c-1.1-2.3-2.8-5.3-4.5-7.1c-0.8-0.8-1.8-1.1-2.8-1
					l15.8,93.3l2.4-0.4c0,0,1.3-13.4,4.6-17.2c11.2-13.1,21.9-27.7,25.1-34.5C406.7,186.3,405.6,185,403.5,185.7z"/>
			</g>
		</g>
		<path class="st12" d="M373.6,263.4c0,0-4.7-5.9-6.2-11c-2.9-9.7-8.4-20.7-11.3-25.2c-0.5-0.8-1.7-1.3-2-0.4c0,0.8-0.3,2.1-0.1,3
			c-1.9-2.7-4-6.5-6.6-9.2c-1.3-1.3-3.2-1.6-3.1-0.4c0.1,1.3,0.5,3.1,0.9,4.5c-0.2-0.3-0.7-0.8-1-1.2c-0.7-0.7-1.7-0.8-1.6-0.2
			c0.1,0.5,0.4,1.7,0.9,3.3c1.3,3.7,3.7,8.1,6.2,12c0,0-1.4-1-2.3-2.1c-1.3-1.8-5-8.6-8-12.4c-1.2-1.7-2.5-3.1-3-3.6
			c-0.7-0.7-1.7-0.8-1.5-0.1c0.1,0.4,0.3,1.2,0.5,1.6c-1.1-1-2.6-2.5-3.8-3.4c-1.1-0.9-2.2-0.7-1.9,0.3c0.4,1.1,1.2,2.9,1.9,4.1
			c1.5,2.7,2.2,3.6,2.7,4.4c-0.8-0.5-4.8-5.4-7.4-7.7c-1.5-1.3-3.7-3.2-5.4-4.3c-1-0.6-1.9-0.4-1.5,0.5c0.2,0.4,0.8,1.5,1.6,2.9
			c-1.8-1-4.1-2.2-5.8-2.9c-0.7-0.3-1.2-0.2-1.5,0.1c-0.1-0.1-0.2-0.1-0.3-0.2c-0.4,0.4-0.4,1.1-0.1,1.9c0.8,1.7,2.4,3.9,3.7,5.5
			c-1.6-0.4-2.9-0.6-3.4-0.6c-1-0.1-1.3,1-0.5,1.9c1.3,1.5,3.7,3.3,5.3,4.4c2.9,2,8.8,4.6,9.5,5.2c-0.9-0.2-2.1-0.7-5.3-1.2
			c-1.4-0.2-3.5-0.5-4.8-0.4c-1.1,0.1-1.2,1.4-0.2,2.3c1.2,1,2.9,2.1,4.2,2.9c-0.5,0-1.4,0.1-1.9,0.2c-0.8,0.1-0.6,1.2,0.2,1.7
			c0.6,0.3,2.3,1.1,4.3,1.9c4.7,1.7,12.7,3.1,14.9,3.9c1.3,0.5,2.6,1.7,2.6,1.7c-4.6-1.2-9.9-2.1-14.3-2.1c-1.8,0-3.3,0.2-3.9,0.3
			c-0.8,0.2-0.6,1.3,0.3,1.7c0.5,0.2,1.1,0.5,1.5,0.7c-1.7,0.1-3.8,0.4-5.3,0.9c-1.4,0.5-1,2.5,0.6,3.5c3.2,1.9,7.8,2.7,11,3.7
			c-1,0.2-2.5,1.1-3.5,1.4c-1,0.8-0.4,1.9,0.6,2.2c5.4,1.4,18.5,3.2,30,2.3c6-0.4,13.2,2.4,13.2,2.4
			C373.6,264.4,373.8,263.7,373.6,263.4z"/>
		<path class="st12" d="M382.7,265c0,0,2.5-7.1,2.2-12.4c-0.5-10.1,1.2-22.3,2.4-27.5c0.2-0.9,1.2-1.8,1.8-1.1
			c0.3,0.8,1,1.9,1.1,2.8c0.9-3.2,1.6-7.5,3.2-10.8c0.8-1.7,2.5-2.5,2.9-1.4c0.4,1.2,0.6,3.1,0.6,4.5c0.1-0.4,0.4-1,0.6-1.5
			c0.4-0.9,1.3-1.3,1.4-0.7c0.1,0.5,0.2,1.7,0.2,3.4c0,4-0.8,8.9-1.9,13.4c0,0,1-1.4,1.4-2.7c0.7-2.2,1.9-9.8,3.4-14.3
			c0.6-2,1.3-3.7,1.6-4.4c0.4-0.9,1.3-1.3,1.4-0.6c0.1,0.4,0.1,1.2,0.1,1.7c0.7-1.3,1.6-3.2,2.4-4.5c0.7-1.2,1.9-1.4,1.9-0.4
			c0,1.2-0.2,3.1-0.4,4.5c-0.5,3-0.9,4.2-1.1,5c0.5-0.8,2.8-6.7,4.4-9.8c1-1.7,2.5-4.3,3.7-5.8c0.7-0.9,1.6-1,1.6,0
			c0,0.5-0.2,1.7-0.6,3.2c1.3-1.5,3.2-3.5,4.6-4.6c0.6-0.5,1.1-0.6,1.5-0.4c0.1-0.1,0.1-0.2,0.2-0.3c0.5,0.3,0.8,0.9,0.7,1.7
			c-0.2,1.9-1,4.5-1.7,6.4c1.4-0.9,2.6-1.5,3-1.7c1-0.4,1.6,0.6,1.1,1.6c-0.8,1.8-2.4,4.3-3.6,5.9c-2.1,2.8-6.8,7.2-7.2,8.1
			c0.8-0.5,1.7-1.3,4.6-2.9c1.3-0.7,3.1-1.6,4.4-2c1.1-0.3,1.6,0.9,0.9,2.1c-0.8,1.3-2.1,3-3,4.1c0.5-0.2,1.4-0.4,1.8-0.5
			c0.8-0.1,1,1,0.3,1.7c-0.5,0.5-1.8,1.9-3.5,3.2c-3.8,3.1-11,7.1-12.8,8.6c-1.1,0.9-1.8,2.5-1.8,2.5c4-2.7,8.6-5.2,12.8-6.7
			c1.7-0.6,3.2-0.9,3.7-1c0.8-0.1,1,1,0.3,1.7c-0.4,0.4-0.9,0.9-1.2,1.1c1.6-0.4,3.7-0.9,5.3-0.9c1.5,0,1.8,2,0.6,3.5
			c-2.4,2.8-6.4,5.1-9.2,7.1c1-0.2,2.7,0.2,3.7,0.2c1.2,0.4,1,1.7,0.1,2.3c-4.7,3.1-16.4,9.1-27.5,12.1c-5.9,1.6-11.6,6.6-11.6,6.6
			C383.1,265.9,382.6,265.4,382.7,265z"/>
		<g>
			<path class="st13" d="M315.2,216.7c26,15.6,43.6,29.5,65.1,53.3c0.4,0.4,0.4,1.1-0.1,1.6c-0.4,0.4-1.1,0.4-1.6-0.1
				c-4.1-4.8-7.9-9.1-13.1-14.3c-5.5-5.7-15.3-14.6-22.5-20.3c-9.3-7.5-18.9-13.9-28-19.6C314.6,216.9,314.9,216.5,315.2,216.7z"/>
			<path class="st13" d="M422.9,202c-10.5,13.1-19.8,26-27.9,41.2c-8.1,14.6-14.8,32.1-14.4,31c-0.2,0.6-0.9,0.8-1.4,0.6
				c-0.3-0.1-0.9-0.7-0.6-1.4c12-28.8,24.9-49,43.9-71.7C422.7,201.4,423.1,201.7,422.9,202z"/>
			<g>
				<path class="st13" d="M394.3,182.2c-10,12.5-16.4,22.9-22.7,38.9c-0.3,0.7-1.3,0.3-1-0.4c6.5-15.9,14.5-27.7,23.5-38.6
					C394.2,181.9,394.4,182.1,394.3,182.2z"/>
				<path class="st13" d="M336.1,191.9c14,8.4,23.5,16.1,34.9,28.7c0.2,0.2,0.2,0.6,0,0.8c-0.2,0.2-0.6,0.2-0.8,0
					c-1.1-1.2-1.8-2.1-4.7-5.3c-9.5-10.2-19.4-17.6-29.5-24C335.8,192,336,191.8,336.1,191.9z"/>
			</g>
			<path class="st13" d="M359.8,153.9c8.6,43.4,20.7,107.1,27.9,153.2c0.2,1.2-0.6,2.3-1.8,2.5c-1.2,0.2-2.3-0.6-2.5-1.8
				c-8.2-44.3-18-110.6-24.1-153.9C359.2,153.6,359.7,153.5,359.8,153.9z"/>
		</g>
	</g>
	<g>
		<path class="st18" d="M601.9,226c-19.2,6.6-259.3,8.9-278.6,8.9c0,0,37-34.9,61.6-37.3c24.6-2.5,60.9,13.8,90-2.4
			C500.1,181.2,572.7,211.5,601.9,226z"/>
		<path class="st19" d="M582.1,230.3c-27,3.5-232.1,5-251.4,5c0,0,28.6-24.8,53.2-27.2c24.6-2.5,60.9,13.8,90-2.4
			C499,191.7,557.8,219.3,582.1,230.3z"/>
	</g>
	<g>
		<g>
			<g>
				<g>
					<path class="st20" d="M49.6,202.2c3.6-3.3,17.9-3.4,23.3-2.5c40.7,6.8,141.6,29.5,285.3,23.8c116.1-4.6,248.9-5.3,290.8-4.5
						c15.7,0.3,62.8,88.8,57,151.6c-5.8,62.8-60.2,180.6-194.3,215.4c-86.1,22.3-196.9,17.5-256.4,7.7
						c-48.5-8-182.4-54.8-215.5-121.3C7.4,407.6-35,280.9,49.6,202.2z"/>
				</g>
			</g>
		</g>
		<g>
			<g>
				<g>
					<g>
						<path class="st21" d="M562.6,238.3c55.7-2.9,71.7-10.9,95,27.7c23.3,38.6,35.7,67,33.4,109.7c-2.3,42.7-48,135-113.1,166.6
							c-75.2,36.5-152.2,39.3-152.2,39.3L419.2,246L562.6,238.3z"/>
					</g>
				</g>
				<g>
					<g>
						<path class="st21" d="M163.5,228.7c-55.6-4.1-71.3-12.4-95.9,25.7C43,292.5,21.3,320.3,22.1,363c0.8,42.7,49,138.9,108,171.4
							c72.3,39.9,151.9,36.1,151.9,36.1l24.5-331.2L163.5,228.7z"/>
					</g>
				</g>
			</g>
		</g>
		<path class="st21" d="M96.3,221.1c-31.5,3.8-74.7,89.3-40.4,180.4c34.3,91.1,44.9,99.6,68.4,105.2c8.9,2.1,29.6-6.8,37.2-2.7
			c10.9,5.8-0.4,21.5,6,30.3c17.4,23.6,89.9,47.2,133.1,50.9c43.2,3.7,150.4-1.4,182.7-14.5c36.3-14.7,83-41.5,121.2-104.3
			c39.9-65.6,8.9-231.4-25.6-229.4c-52.6,3.1-134.1,0.3-185.3,1.5c-49,1.2-211.4-2.2-228.9-7.7C147.3,225.2,116.7,218.7,96.3,221.1z
			"/>
		<g>
			<g>
				<path class="st21" d="M84,265.1c-45.5,72.3,54.9,199,83.6,220.1c28.7,21.1,114.4,36.6,146.2,20.3
					c101.3-52,90.3-77.8,130.3-150.4c45.3-82.4-224-109.3-266.5-106.3S101.3,237.6,84,265.1z"/>
				<path class="st21" d="M187,496.8c53.8,46.6,107.9,80.1,198.1,71.1c85.9-8.5,134.4-53.6,128.7-74.2
					c-5.7-20.6-104.3-97.4-171.4-48.1c-50.5,37.1-110.3-50.8-121.8-29.8C209,436.8,166.6,479,187,496.8z"/>
			</g>
		</g>
		<g>
			<g>
				<path class="st20" d="M578.2,363.5c-30-86.5-70-126.9-112.6-127.9c-16.4-0.4-80-0.3-83.4,0c-30.5,2.6-98.4,15.5-104.6,24.3
					c-39.1,55.8,43,159,63.8,176.8c15.5,13.2,54,19.5,84,36.5c31.7,17.9,72.1,40.3,105.1,26.4C564,485.4,607.3,447.6,578.2,363.5z"
					/>
				<path class="st20" d="M237.7,515.9c41.1,25.7,80.7,42.8,137.7,29.6c54.3-12.6,79.5-45.8,73-58.6c-6.5-12.8-80.7-54.3-117.3-16.9
					c-27.6,28.1-62.4,4.6-89.3,9C214.3,483.5,222,506.2,237.7,515.9z"/>
			</g>
		</g>
		<path class="st20" d="M138.9,393.8c-30.7-30.4-44.6-89.4-24.5-129.5c19.2-38.2,81.1-27.7,97.2-22.5c16.1,5.2,66,33.6,5.6,86.3
			c-29.6,25.8-9.3,44.3-16.5,63.2C193.5,410.7,150.6,405.4,138.9,393.8z"/>
		<g>
			<path class="st22" d="M240.4,509.3c14.2,2,15.3,14.8,7.5,20.1c-7.8,5.3-21.2,3.3-29.8-4.5c-8.7-7.7-9.3-18.3-1.5-23.6
				C224.3,496,229.6,507.8,240.4,509.3z"/>
			
				<ellipse transform="matrix(2.725935e-02 -0.9996 0.9996 2.725935e-02 -289.9331 374.3549)" class="st22" cx="47.4" cy="336.2" rx="7.1" ry="8.7"/>
			<g>
				<path class="st22" d="M555,420.5c7.5,6.7,8.7,15.4,2.8,19.4c-5.9,4-16.8,1.8-24.3-4.9c-7.5-6.7-8.7-15.4-2.8-19.4
					C536.7,411.6,547.6,413.8,555,420.5z"/>
				<path class="st22" d="M555.6,385.4c5.7,5.1,6.7,11.7,2.2,14.7c-4.5,3-12.7,1.4-18.4-3.7c-5.7-5.1-6.7-11.7-2.2-14.7
					C541.7,378.6,549.9,380.3,555.6,385.4z"/>
				<path class="st22" d="M590,336.8c5-5.5,13-7.8,17.8-5.2c4.9,2.7,4.8,9.3-0.2,14.8c-5,5.5-13,7.8-17.8,5.2
					C584.9,348.9,585,342.3,590,336.8z"/>
				<path class="st22" d="M221.3,403.6c4.1,3.7,3.8,9.1-0.7,12.1c-4.5,3-11.5,2.5-15.6-1.2c-4.1-3.7-3.8-9.1,0.7-12.1
					C210.2,399.4,217.2,399.9,221.3,403.6z"/>
				<path class="st22" d="M582.4,311c4.1,3.7,3.8,9.1-0.7,12.1c-4.5,3-11.5,2.5-15.6-1.2c-4.1-3.7-3.8-9.1,0.7-12.1
					C571.3,306.7,578.2,307.3,582.4,311z"/>
				<path class="st22" d="M584.9,287.2c4.4,1,7.1,4.1,6,6.8c-1.1,2.7-5.5,4-9.9,3c-4.4-1-7.1-4.1-6-6.8
					C576,287.5,580.5,286.2,584.9,287.2z"/>
				<path class="st22" d="M266,345.5c0.6,4.9-3.7,9.2-9.6,9.6c-5.9,0.5-11.2-3.1-11.8-8c-0.6-4.9,3.7-9.2,9.6-9.6
					S265.3,340.7,266,345.5z"/>
				<path class="st22" d="M229,450.7c0.6,4.9-3.7,9.2-9.6,9.6c-5.9,0.5-11.2-3.1-11.8-8c-0.6-4.9,3.7-9.2,9.6-9.6
					C223,442.2,228.3,445.8,229,450.7z"/>
				<path class="st22" d="M366.1,421.5c0.5,4.2-3.1,7.8-8.2,8.2c-5.1,0.4-9.6-2.7-10.1-6.8c-0.5-4.2,3.1-7.8,8.2-8.2
					C361.1,414.3,365.6,417.4,366.1,421.5z"/>
				<path class="st22" d="M380.3,450.8c0.5,4.2-3.1,7.8-8.2,8.2c-5.1,0.4-9.6-2.7-10.1-6.8c-0.5-4.2,3.1-7.8,8.2-8.2
					C375.2,443.6,379.7,446.6,380.3,450.8z"/>
				<path class="st22" d="M397.8,504.8c0.5,4.2-3.1,7.8-8.2,8.2c-5.1,0.4-9.6-2.7-10.1-6.8c-0.5-4.2,3.1-7.8,8.2-8.2
					C392.7,497.6,397.3,500.7,397.8,504.8z"/>
				<path class="st22" d="M366.1,526.5c0.5,4.2-3.1,7.8-8.2,8.2c-5.1,0.4-9.6-2.7-10.1-6.8c-0.5-4.2,3.1-7.8,8.2-8.2
					C361.1,519.3,365.6,522.4,366.1,526.5z"/>
				<path class="st22" d="M407,532.7c0.5,4.2-3.1,7.8-8.2,8.2c-5.1,0.4-9.6-2.7-10.1-6.8c-0.5-4.2,3.1-7.8,8.2-8.2
					C401.9,525.5,406.5,528.6,407,532.7z"/>
				<path class="st22" d="M274.2,531.3c0.4,3.5-2.6,6.5-6.8,6.8c-4.2,0.3-8-2.2-8.4-5.7c-0.4-3.5,2.6-6.5,6.8-6.8
					C270,525.3,273.8,527.9,274.2,531.3z"/>
				<path class="st22" d="M582.9,503.2c0.4,3.5-2.6,6.5-6.8,6.8c-4.2,0.3-8-2.2-8.4-5.7c-0.4-3.5,2.6-6.5,6.8-6.8
					C578.7,497.2,582.4,499.7,582.9,503.2z"/>
				<path class="st22" d="M647.6,462.7c0.4,3.5-2.6,6.5-6.8,6.8c-4.2,0.3-8-2.2-8.4-5.7c-0.4-3.5,2.6-6.5,6.8-6.8
					C643.4,456.7,647.2,459.3,647.6,462.7z"/>
				<path class="st22" d="M670.3,421.6c0.4,3.5-2.6,6.5-6.8,6.8c-4.2,0.3-8-2.2-8.4-5.7c-0.4-3.5,2.6-6.5,6.8-6.8
					C666.1,415.7,669.8,418.2,670.3,421.6z"/>
				<path class="st22" d="M644.9,441c0.4,3.5-2.6,6.5-6.8,6.8c-4.2,0.3-8-2.2-8.4-5.7c-0.4-3.5,2.6-6.5,6.8-6.8
					C640.7,435,644.5,437.6,644.9,441z"/>
				<path class="st22" d="M494,391.4c-0.3,6.7-5.4,12.1-11.3,11.9c-5.9-0.2-10.5-5.8-10.2-12.5c0.3-6.7,5.4-12.1,11.3-11.9
					C489.8,379.1,494.4,384.7,494,391.4z"/>
			</g>
		</g>
		<g>
			<path class="st23" d="M36.1,216.4c5.4-0.5,11.4-0.3,14.5,0.2c42.8,6.6,148.9,28.9,300.3,22.7c122.3-5,255.1-8.5,305.4-16
				c-2.8-2.7-5.4-4.1-7.4-4.2c-21.7-0.4-58-0.3-79.8-0.2c-210.9,1.5-240.1,10.1-343.3,2.2c-93.4-7.2-143.7-21.8-160.1-21.9
				c-4.3,0-13.4,0.3-16.2,3C45.2,206.3,40.5,211.2,36.1,216.4z"/>
		</g>
	</g>
</g>
</svg>
