<?xml version="1.0" encoding="utf-8"?>
<!-- Generator: Adobe Illustrator 26.0.1, SVG Export Plug-In . SVG Version: 6.00 Build 0)  -->
<svg version="1.1" id="Layer_1" xmlns="http://www.w3.org/2000/svg" xmlns:xlink="http://www.w3.org/1999/xlink" x="0px" y="0px"
	 viewBox="0 0 349.3 402.7" style="enable-background:new 0 0 349.3 402.7;" xml:space="preserve">
<style type="text/css">
	.st0{fill:#00FFFF;}
</style>
<g>
	<path class="st0" d="M49.1,250.4c-0.9,15-5,31.3-8.5,45.9c-3,13.3-5.6,26.1,4.5,36.7c5.8,6.3,15.4,11.6,22.7,16.5
		c13.6,8.6,27.6,16.7,42.2,23.4c19.2,8.8,39.9,15,61.1,15c43.8,1.9,87.3-19.2,124.9-45.1c3.9-2.6,7.4-5.5,10.3-8.7
		c6.1-6.7,7.9-14.7,6.6-23.8c-1.2-9.8-4.5-19.7-7-29.4c-2.7-10-4.9-20.2-6-30.6c1.3,4.8,2.5,10,4.1,14.9c3.1,9.8,6.9,19.4,10.4,29.1
		c3.4,9.7,6.8,20,4.9,30.5c-1.9,10.5-9.4,18.9-17.6,25.3c-36.5,28.1-79.4,52.8-126.7,52.5C126.8,404,85.3,378,48.3,350.2
		c-8.2-6.3-15.9-14.7-17.9-25.2c-2.1-10.4,1.1-20.8,4.4-30.6c3.4-9.7,7.1-19.3,10.2-29.1C46.5,260.5,47.7,255.2,49.1,250.4
		L49.1,250.4z"/>
	<path class="st0" d="M346.3,70.8c2.7-18.9-0.8-41.3-13-56.4c-1.8-2.1-3.5-3.8-5.7-5.1c-1.8-1-4-2.3-5.8-1c-2.5,1.8-5.1,5.6-7.1,8.7
		c-4.4,7-8.1,13.7-14.2,20.4c-10.8,12.2-24.1,12.8-38.6,8.4c-15-4.7-28.6-10.3-43.8-13.4c-23.9-5.2-49-5.6-73.3-2.5
		c-14.7,1.8-28.8,5.5-42.7,10.5C91.4,44,79.4,50.4,67.1,48.4c-13.5-2.2-21.9-14.9-28.3-25.1c-2.6-4-5-8.4-7.9-11.9
		c-1.7-2-2.6-3-4.2-3.6c-0.3-0.1-0.8-0.1-1.4,0c-0.6,0.1-1.4,0.4-2.2,0.8c-2.8,1.4-4.9,3.3-7,5.8C4.7,28.5,0.9,49.1,2.7,66.9
		c0.1,1.3,0.3,2.6,0.5,3.9l-0.1,0c-2.9-10-3.7-20.6-2.5-30.9C2.2,27.3,6.4,13.7,16,4.8c3.9-3.4,9.5-6.2,14.7-4
		c2.5,1,4.6,2.8,6.4,4.7c3.6,3.8,6.4,8.2,9.4,12.5c4.4,6.3,8.9,12.8,15.3,17.2c6.7,4.7,14.8,2.9,21.9,0.2
		c9.7-3.6,19.3-7.8,29.2-10.8c39.8-11.9,83.4-12.2,123.1,0.3c5,1.6,9.9,3.3,14.7,5.1c7.3,2.6,14.5,5.7,22.1,7.2
		c5,0.9,10.3,0.6,14.7-2.1c11.1-7.1,16.3-19.9,24.9-29.4c2.7-2.8,6.1-5.6,10.2-5.6c6.7,0.1,12.2,5.5,15.9,10.6
		C350,28.1,351.9,51.1,346.3,70.8L346.3,70.8z"/>
	<g>
		<path class="st0" d="M265.8,67.9c-39.3,0-71.3,34.7-71.3,77.4c0,15.3,4.1,29.6,11.2,41.6l-0.1,0c-1.6,0-3.3,0.2-4.8,0.5
			c-16.2,3-33,3-49.2,0c-1.6-0.3-3.2-0.5-4.8-0.5l-0.5,0c-0.9,0-1.8,0-2.6,0.1c7.1-12,11.3-26.4,11.3-41.7c0-42.7-32-77.4-71.3-77.4
			c-39.3,0-71.3,34.7-71.3,77.4c0,42.7,32,77.4,71.3,77.4c11.8,0,23-3.1,32.8-8.7c-0.1,1-0.1,1.9-0.1,2.9c0,6,1.7,11.7,5.9,16.8
			c-17.3,4.7-30.2,20.1-30.5,38.3l0,0.7c0,10.3,3.9,19.8,10.3,26.9c-0.1,1.7-0.1,3.5-0.1,5.3c0.5,40.6,32.9,73.1,73.5,73.6
			c41.6,0.5,75.4-33,75.4-74.4c0-1.5,0-2.9-0.1-4.4c6.4-7.2,10.3-16.6,10.3-26.9l0-0.7c-0.3-18.2-13.2-33.6-30.5-38.3
			c4.2-5.1,5.9-10.8,5.9-16.8c0-0.4,0-0.9,0-1.3c9.1,4.5,19.2,7.1,29.8,7.1c39.3,0,71.3-34.7,71.3-77.4
			C337.2,102.6,305.2,67.9,265.8,67.9z M147,202.2c0,0,0.1,0,0.1,0c10.4,0.1,20.9,4.2,29.5,11.3c8.6-7.1,19.1-11.2,29.5-11.3
			c5.5-0.1,10,4.3,10.1,9.8c0.1,5.5-4.3,10-9.8,10.1c-7.9,0.1-16.1,4.5-22,11.7c-0.2,0.3-0.5,0.6-0.7,0.8c-0.1,0.1-0.2,0.2-0.3,0.3
			c-0.1,0.1-0.3,0.2-0.4,0.4c0,0-0.1,0-0.1,0.1c-0.1,0.1-0.2,0.2-0.3,0.2c-0.2,0.1-0.3,0.2-0.5,0.4c-0.1,0.1-0.2,0.1-0.3,0.2
			c-0.2,0.1-0.4,0.2-0.6,0.3c-0.1,0-0.2,0.1-0.2,0.1c-0.3,0.1-0.6,0.3-0.9,0.4c0,0-0.1,0-0.1,0c-0.3,0.1-0.6,0.2-0.9,0.2
			c-0.1,0-0.2,0-0.2,0.1c-0.3,0.1-0.5,0.1-0.8,0.1c-0.1,0-0.2,0-0.2,0c-0.3,0-0.7,0.1-1,0.1c0,0,0,0,0,0c0,0,0,0,0,0
			c-0.3,0-0.7,0-1-0.1c-0.1,0-0.2,0-0.2,0c-0.3,0-0.5-0.1-0.8-0.1c-0.1,0-0.2,0-0.2-0.1c-0.3-0.1-0.6-0.1-0.9-0.2c0,0-0.1,0-0.1,0
			c-0.3-0.1-0.6-0.2-0.9-0.4c-0.1,0-0.2-0.1-0.2-0.1c-0.2-0.1-0.4-0.2-0.6-0.3c-0.1-0.1-0.2-0.1-0.3-0.2c-0.2-0.1-0.4-0.2-0.5-0.4
			c-0.1-0.1-0.2-0.2-0.3-0.2c0,0-0.1,0-0.1-0.1c-0.1-0.1-0.3-0.2-0.4-0.4c-0.1-0.1-0.2-0.2-0.3-0.3c-0.3-0.3-0.5-0.5-0.7-0.8
			c-5.9-7.2-14.1-11.6-22-11.7c-5.5-0.1-9.9-4.6-9.8-10.1C137.2,206.6,141.6,202.2,147,202.2z M83.5,206.6
			c-30.5,0-55.3-27.5-55.3-61.4S53,83.9,83.5,83.9c30.5,0,55.3,27.5,55.3,61.4S114,206.6,83.5,206.6z M176.1,322.2
			c-19,0-32.5-7.6-41.7-14.7c15.7-3,34.3-11.7,41.7-44.4c7.4,32.7,26,41.4,41.7,44.4C208.8,314.5,197.1,322.2,176.1,322.2z
			 M265.8,206.6c-30.5,0-55.3-27.5-55.3-61.4s24.8-61.4,55.3-61.4s55.3,27.5,55.3,61.4S296.3,206.6,265.8,206.6z"/>
		<path class="st0" d="M103.1,169.3h-9.6l7.2,24.4l-27-34.6h9.2l-25.4-25.9h17.2L55,107h30.5l22,36.2H88.9L103.1,169.3z"/>
		<path class="st0" d="M292.7,133.1l-25.4,25.9h9.2l-27,34.6l7.2-24.4h-9.6l14.2-26.1h-18.6l22-36.2h30.5l-19.8,26.1H292.7z"/>
	</g>
</g>
</svg>
