<?xml version="1.0" encoding="utf-8"?>
<!-- Generator: Adobe Illustrator 26.0.1, SVG Export Plug-In . SVG Version: 6.00 Build 0)  -->
<svg version="1.1" id="Layer_1" xmlns="http://www.w3.org/2000/svg" xmlns:xlink="http://www.w3.org/1999/xlink" x="0px" y="0px"
	 viewBox="0 0 520 589" style="enable-background:new 0 0 520 589;" xml:space="preserve">
<style type="text/css">
	.st0{fill:#501792;}
</style>
<g>
	<path class="st0" d="M86.1,363.7c-1.3,21.2-7,44.1-12,64.7c-4.2,18.8-7.8,36.9,6.3,51.7c8.2,8.9,21.7,16.3,32,23.2
		c19.2,12.2,38.9,23.5,59.5,33c27,12.4,56.3,21.2,86.1,21.1c61.7,2.7,123-27.1,176-63.5c5.4-3.7,10.4-7.8,14.4-12.3
		c8.6-9.5,11.1-20.7,9.4-33.5c-1.7-13.8-6.3-27.8-9.9-41.4c-3.8-14.1-7-28.5-8.5-43.1c1.8,6.7,3.6,14.1,5.8,21
		c4.3,13.8,9.7,27.3,14.7,40.9c4.8,13.7,9.6,28.2,7,43c-2.6,14.8-13.3,26.7-24.7,35.7c-51.4,39.7-111.9,74.5-178.6,74
		c-67.8,1.9-126.2-34.8-178.5-73.9c-11.5-8.9-22.4-20.7-25.3-35.5c-2.9-14.7,1.6-29.4,6.2-43.1c4.7-13.7,10-27.2,14.3-41.1
		C82.5,377.8,84.2,370.3,86.1,363.7L86.1,363.7z"/>
	<path class="st0" d="M505.1,110.5c3.8-26.6-1.2-58.2-18.3-79.5c-2.6-3-5-5.3-8.1-7.2c-2.5-1.4-5.6-3.3-8.1-1.4
		c-3.5,2.5-7.2,7.8-10,12.2c-6.2,9.9-11.4,19.3-20,28.7c-15.2,17.2-34,18.1-54.4,11.9c-21.1-6.6-40.4-14.5-61.7-18.9
		c-33.7-7.3-69.1-7.8-103.3-3.6c-20.7,2.5-40.6,7.7-60.2,14.9c-15.3,5.2-32.2,14.2-49.5,11.3c-19-3.1-30.8-21-39.9-35.4
		c-3.6-5.7-7.1-11.9-11.1-16.8c-2.4-2.8-3.7-4.2-6-5c-0.5-0.1-1.1-0.1-2,0c-0.9,0.2-1.9,0.6-3.1,1.1c-3.9,1.9-6.9,4.6-9.8,8.1
		c-16,19.8-21.4,48.9-18.9,74c0.1,1.8,0.4,3.6,0.6,5.5l-0.2,0c-4.1-14.1-5.2-29-3.5-43.5c2.3-17.8,8.2-37,21.8-49.5
		c5.5-4.8,13.4-8.8,20.7-5.6c3.5,1.4,6.4,3.9,9,6.6c5.1,5.4,9.1,11.6,13.3,17.6C88.7,44.8,95,54,104,60.2c9.4,6.7,20.8,4.1,30.8,0.3
		c13.7-5.1,27.1-11.1,41.2-15.3c56.1-16.8,117.6-17.2,173.5,0.4c7,2.2,13.9,4.7,20.8,7.2c10.3,3.7,20.4,8.1,31.1,10.1
		c7,1.3,14.5,0.9,20.7-2.9c15.6-10,22.9-28,35.1-41.4c3.7-4,8.6-7.8,14.4-7.9c9.5,0.2,17.2,7.7,22.4,15
		C510.3,50.2,512.9,82.7,505.1,110.5L505.1,110.5z"/>
	<g>
		<path class="st0" d="M391.6,106.3c-55.4,0-100.5,48.9-100.5,109.1c0,21.6,5.8,41.7,15.8,58.7l-0.2,0c-2.3,0-4.6,0.3-6.8,0.7
			c-22.9,4.3-46.4,4.3-69.3,0c-2.2-0.4-4.5-0.7-6.8-0.7l-0.7,0c-1.3,0-2.5,0.1-3.7,0.2c10.1-17,15.9-37.2,15.9-58.8
			c0-60.2-45.1-109.1-100.5-109.1c-55.4,0-100.5,48.9-100.5,109.1c0,60.2,45.1,109.1,100.5,109.1c16.7,0,32.4-4.4,46.3-12.3
			c-0.1,1.4-0.2,2.7-0.2,4.1c0,8.5,2.4,16.5,8.3,23.7c-24.4,6.6-42.6,28.3-43,54l0,1c0,14.6,5.5,27.9,14.5,38
			c-0.1,2.5-0.2,4.9-0.2,7.4c0.6,57.2,46.3,103,103.6,103.7c58.6,0.7,106.3-46.5,106.3-104.9c0-2.1-0.1-4.2-0.2-6.2
			c9-10.1,14.5-23.4,14.5-38l0-1c-0.4-25.7-18.6-47.4-43-54c5.9-7.1,8.3-15.2,8.3-23.7c0-0.6,0-1.2,0-1.8c12.8,6.4,27,10,42,10
			c55.4,0,100.5-48.9,100.5-109.1C492.2,155.3,447.1,106.3,391.6,106.3z M224.2,295.7c0.1,0,0.1,0,0.2,0c14.6,0.2,29.4,6,41.5,15.9
			c12.2-10,26.9-15.8,41.5-15.9c7.7-0.1,14.1,6.1,14.2,13.8c0.1,7.7-6.1,14.1-13.8,14.2c-11.1,0.1-22.7,6.3-31,16.5
			c-0.3,0.4-0.7,0.8-1.1,1.2c-0.1,0.1-0.3,0.3-0.4,0.4c-0.2,0.2-0.4,0.3-0.6,0.5c0,0-0.1,0.1-0.1,0.1c-0.1,0.1-0.3,0.2-0.4,0.3
			c-0.2,0.2-0.5,0.3-0.7,0.5c-0.2,0.1-0.3,0.2-0.5,0.3c-0.3,0.2-0.6,0.3-0.9,0.5c-0.1,0.1-0.2,0.1-0.3,0.2c-0.4,0.2-0.9,0.4-1.3,0.5
			c-0.1,0-0.1,0-0.2,0c-0.4,0.1-0.8,0.2-1.2,0.3c-0.1,0-0.2,0-0.3,0.1c-0.4,0.1-0.7,0.1-1.1,0.2c-0.1,0-0.2,0-0.3,0
			c-0.5,0-0.9,0.1-1.4,0.1c0,0,0,0,0,0c0,0,0,0,0,0c-0.5,0-0.9,0-1.4-0.1c-0.1,0-0.2,0-0.3,0c-0.4,0-0.7-0.1-1.1-0.2
			c-0.1,0-0.2,0-0.3-0.1c-0.4-0.1-0.8-0.2-1.2-0.3c0,0-0.1,0-0.1,0c-0.4-0.2-0.9-0.3-1.3-0.5c-0.1-0.1-0.2-0.1-0.3-0.2
			c-0.3-0.1-0.6-0.3-0.9-0.5c-0.2-0.1-0.3-0.2-0.5-0.3c-0.3-0.2-0.5-0.3-0.7-0.5c-0.1-0.1-0.3-0.2-0.4-0.3c0,0-0.1-0.1-0.1-0.1
			c-0.2-0.2-0.4-0.3-0.6-0.5c-0.1-0.1-0.3-0.3-0.4-0.4c-0.4-0.4-0.7-0.8-1-1.2c-8.3-10.2-19.9-16.4-31-16.5
			c-7.7-0.1-13.9-6.5-13.8-14.2C210.3,301.9,216.6,295.7,224.2,295.7z M134.6,301.9c-43,0-78-38.8-78-86.5s35-86.5,78-86.5
			c43,0,78,38.8,78,86.5S177.6,301.9,134.6,301.9z M265.2,464.8c-26.8,0-45.9-10.7-58.8-20.7c22.2-4.3,48.3-16.4,58.8-62.6
			c10.5,46.2,36.6,58.3,58.8,62.6C311.2,454,294.7,464.8,265.2,464.8z M391.6,301.9c-43,0-78-38.8-78-86.5s35-86.5,78-86.5
			s78,38.8,78,86.5S434.6,301.9,391.6,301.9z"/>
		<path class="st0" d="M162.2,249.3h-13.5l10.1,34.4l-38-48.8h13l-35.8-36.6h24.2l-27.9-36.8h43.1l31,51h-26.2L162.2,249.3z"/>
		<path class="st0" d="M429.6,198.3l-35.8,36.6h13l-38,48.8l10.1-34.4h-13.5l20-36.8h-26.2l31-51h43.1l-27.9,36.8H429.6z"/>
	</g>
</g>
</svg>
