<?xml version="1.0" encoding="utf-8"?>
<!-- Generator: Adobe Illustrator 26.0.1, SVG Export Plug-In . SVG Version: 6.00 Build 0)  -->
<svg version="1.1" xmlns="http://www.w3.org/2000/svg" xmlns:xlink="http://www.w3.org/1999/xlink" x="0px" y="0px"
	 viewBox="0 0 179.5 179.4" style="enable-background:new 0 0 179.5 179.4;" xml:space="preserve">
<style type="text/css">
	.st0{fill:#501792;}
</style>
<g id="Layer_10">
	<path class="st0" d="M63.7,75.7c5,0,8.8-0.7,9.2-0.8c0.1,0,0.1-0.1,0.1-0.1c0.4-0.1,0.9-0.3,1.2-0.6c0.3-0.3,0.5-0.8,0.6-1.2
		c0-0.1,0.1-0.1,0.1-0.1c0.2-0.8,3.9-20.5-6.4-30.8c-1.9-1.9-4.1-3.3-6.5-4.4l0,0c-10.4-4.6-23.6-2.1-24.3-2c-1,0.2-1.8,1-2,2.1
		c-0.2,0.8-3.9,20.5,6.4,30.8C47.9,74.4,56.9,75.7,63.7,75.7z M64.8,45.7c5.5,5.5,5.9,15.1,5.6,21l-6.8-6.8V44.7
		C64,45.1,64.5,45.3,64.8,45.7z M40.5,40.4c3.5-0.5,11.3-1,17.9,1.3v12.9l-7-7c-1-1-2.7-1-3.7,0s-1,2.7,0,3.7l1.3,1.3h-8.5
		C39.8,47.7,40.1,42.9,40.5,40.4z M54.2,57.9l12.5,12.5c-5.9,0.4-15.5,0-21-5.6c-1.9-1.9-3.2-4.4-4-7L54.2,57.9L54.2,57.9z"/>
</g>
<g id="Layer_9">
	<path class="st0" d="M104.6,46.9c0.1,0.4,0.3,0.9,0.6,1.2c0.3,0.3,0.8,0.5,1.2,0.6c0.1,0,0.1,0.1,0.1,0.1c0.4,0.1,4.1,0.8,9.2,0.8
		c6.8,0,15.7-1.3,21.7-7.2c1.9-1.9,3.3-4.1,4.4-6.5c0,0,0,0,0-0.1c4.6-10.4,2.1-23.6,2-24.3c-0.2-1-1-1.8-2-2.1
		c-0.8-0.2-20.5-3.9-30.8,6.4s-6.6,30-6.4,30.8C104.5,46.8,104.6,46.8,104.6,46.9z M133.7,38.7c-5.5,5.5-15.1,5.9-21,5.6l6.8-6.8
		h15.2C134.4,37.8,134.1,38.3,133.7,38.7z M131.7,21.6c-1-1-2.7-1-3.7,0l-1.3,1.3v-8.5c4.9-0.7,9.7-0.3,12.2,0
		c0.4,3.5,1,11.3-1.4,17.9h-12.9l7-7C132.7,24.3,132.7,22.6,131.7,21.6z M114.6,19.6c1.9-1.9,4.4-3.2,7-4V28l-4.9,4.9l0,0l-7.6,7.6
		C108.7,34.7,109.1,25.1,114.6,19.6z"/>
</g>
<g id="Layer_8">
	<path class="st0" d="M66.8,33c1.5,1.5,3.4,2.2,5.3,2.2s3.8-0.7,5.3-2.2l0,0c0.6-0.6,1.6-1.8,2.6-3.1l3.9,5.6
		c1.2,1.7,3.1,2.8,5.1,2.9c0.2,0,0.4,0,0.6,0c1.9,0,3.6-0.7,5-2.1l2.7-2.7c1.5-1.5,2.2-3.5,2-5.6s-1.2-3.9-2.9-5.1L90.8,19
		c1.2-0.9,2.3-1.8,3.1-2.6l0,0l0,0l0,0l0,0c1.4-1.4,2.2-3.3,2.2-5.3s-0.8-3.9-2.2-5.3L91,2.9C86.4-1.6,75.2-1,67.6,6.7
		c-3.4,3.4-5.7,7.8-6.4,12.4s0.2,8.6,2.6,11L66.8,33z M93.4,27.1c0.6,0.4,0.7,1,0.8,1.3c0,0.3,0,0.9-0.5,1.4L91,32.5
		C90.5,33,89.9,33,89.6,33s-0.9-0.2-1.3-0.8l-4.8-6.7c0.5-0.6,1-1.2,1.5-1.7s1.1-1,1.7-1.6L93.4,27.1z M66.4,19.8
		c0.5-3.5,2.3-6.9,4.9-9.5C77,4.6,85,4.1,87.4,6.5l2.9,2.9c0.4,0.4,0.7,1,0.7,1.6s-0.2,1.2-0.7,1.6l0,0l0,0
		c-0.8,0.8-2.1,1.8-3.5,2.8c-1.8,1.4-3.8,2.9-5.6,4.7c-1.9,1.9-3.7,4.3-5.2,6.2c-1,1.2-1.8,2.3-2.4,2.9l0,0c-0.9,0.9-2.3,0.9-3.2,0
		l-2.9-2.9C66.4,25.2,65.9,22.6,66.4,19.8z"/>
</g>
<g id="Layer_7">
	<path class="st0" d="M115.3,53L115.3,53l-18,18l0,0l0,0L84.9,83.4l0,0l0,0l-5.7,5.7c-1,1-1,2.7,0,3.7c5.3,5.3,12.4,8.2,19.9,8.2
		s14.6-2.9,19.9-8.2c11-11,11-28.8,0-39.8C117.9,52,116.3,52,115.3,53z M111.3,64.4c1.2,1.8,2.1,3.8,2.4,5.9h-8.3L111.3,64.4z
		 M113.7,75.5c-0.4,2.1-1.2,4.1-2.4,5.9l-5.9-5.9H113.7z M101.7,79.2l5.9,5.9c-1.8,1.2-3.8,2-5.9,2.3V79.2z M96.5,79.2v8.2
		c-2.1-0.4-4.1-1.1-5.9-2.3L96.5,79.2z M115.3,89.1c-4.3,4.3-10.1,6.7-16.2,6.7c-5.2,0-10.1-1.8-14.2-5.1l2-2
		C90.5,91.5,94.7,93,99,93c0,0,0,0,0.1,0c0,0,0,0,0.1,0c5.1,0,10.2-2,14.1-5.9c3.8-3.8,5.9-8.8,5.9-14.2c0-4.5-1.5-8.7-4.2-12.2l2-2
		C124.1,67.7,123.6,80.8,115.3,89.1z"/>
</g>
<g id="Layer_6">
	<path class="st0" d="M176.9,113.2h-13.1c0,0,0,0.1,0,0.1h-11.2l0.1-0.1h-8.9v0.1h-14.9c0,0,0-0.1,0-0.1h-5.5c0,0,0,0.1,0,0.1H92
		c0,0,0-0.1,0-0.1h-5.5c0,0.1,0,0.1,0,0.2h-5.3c-0.2-0.1-0.4-0.1-0.6-0.2H44.5c0.2,0.1,0.4,0.1,0.6,0.2h-31c0-0.1,0-0.1,0-0.2H8.8
		c0,0.1,0,0.1,0,0.2H2.6c-1.4,0-2.6,1.2-2.6,2.6c0,26.4,20.2,50.1,53.9,63.4c0.3,0.1,0.6,0.2,1,0.2h69.7c0.3,0,0.7-0.1,1-0.2
		c33.8-13.3,53.9-37,53.9-63.4C179.5,114.4,178.3,113.2,176.9,113.2z M124.1,174.2H55.4c-15.1-6-48.4-23-50.1-55.8h168.9
		C172.5,151.3,139.2,168.2,124.1,174.2z"/>
</g>
<g id="Layer_5">
	<path class="st0" d="M168.8,94.8c-5.4-14.1-20.2-24.2-21-24.7c0,0-0.1,0-0.2,0c-0.4-0.2-0.8-0.4-1.3-0.4s-0.9,0.2-1.3,0.4
		c0,0-0.1,0-0.2,0C144,70.8,122,85.7,122,105c0,2.7,0.5,5.4,1.4,8.2h5.5c-1.1-2.9-1.7-5.6-1.7-8.2c0-4.3,1.4-8.4,3.4-12.1l13.2,13.2
		v7.1h8.9l12.3-12.3c0.4,1.3,0.5,2.7,0.5,4.1c0,2.7-0.6,5.4-1.7,8.2h5.6c0.9-2.8,1.4-5.6,1.4-8.3C170.8,101.4,170.1,98,168.8,94.8z
		 M143.8,98.7l-10.3-10.3c3.3-4.6,7.3-8.4,10.3-10.8V98.7z M149,109.6v-32c4.3,3.6,10.9,10,14.3,17.7L149,109.6z"/>
</g>
<g id="Layer_4">
	<g>
		<path class="st0" d="M13.9,111.5c0-10.6,8.6-19.2,19.2-19.2c0.1,0,0.6,0.1,0.7,0.1c1.1,0,2.2-0.7,2.5-1.7c1.5-4.2,5.4-7,9.8-7
			c4.8,0,9,3.3,10.1,8c0.2,0.7,0.7,1.3,1.3,1.7c0.7,0.3,1.4,0.4,2.1,0.1c5.7-2.2,11.7,0.9,13.6,6.3c0.3,0.9,1,1.5,1.9,1.7
			c5.8,1.3,10.3,6,11.4,11.7H92c-1-7.8-6.6-14.3-14.2-16.5c-3-6.5-10.2-10.3-17.3-8.8c-2.4-5.6-8-9.4-14.3-9.4c-6,0-11.4,3.4-14,8.7
			c-13,0.5-23.5,11.2-23.5,24.4c0,0.5,0,1.1,0.1,1.6h5.3C14,112.6,13.9,112,13.9,111.5z"/>
		<path class="st0" d="M65.9,98.3c-0.2-1.4-1.5-2.4-2.9-2.2s-2.4,1.5-2.2,2.9c0.9,6.5,3.9,10.8,7.6,13.8c-2.6-0.2-5.2-0.6-7.9-1
			c-6.2-5.3-12.3-14.5-12-21.4c0.1-1.4-1.1-2.6-2.5-2.7c-1.4-0.1-2.6,1-2.7,2.5c-0.3,6.4,3.4,13.8,8.2,19.7
			c-7.9-2.1-16.2-5.3-25.3-10.4c-1.2-0.7-2.8-0.3-3.5,1c-0.7,1.2-0.3,2.8,1,3.5c7.4,4.2,14.2,7.1,20.8,9.2h36.1
			C71.3,110.2,66.9,105.6,65.9,98.3z"/>
	</g>
</g>
<g id="Layer_3">
	<path class="st0" d="M142,157.4c0.6,0,1.1-0.2,1.6-0.5c11.3-8.6,19.5-18.7,24.4-29.9c0.6-1.3,0-2.8-1.3-3.4s-2.9,0-3.4,1.3
		c-4.5,10.4-12.2,19.7-22.8,27.8c-1.1,0.9-1.4,2.5-0.5,3.6C140.4,157.1,141.2,157.4,142,157.4z"/>
</g>
<g id="Layer_2">
	<path class="st0" d="M120.3,167.8c0.5,0.9,1.4,1.5,2.3,1.5c0.4,0,0.8-0.1,1.1-0.3c3.8-1.9,7.4-3.9,10.9-6c1.2-0.8,1.6-2.4,0.9-3.6
		c-0.8-1.2-2.4-1.6-3.6-0.8c-3.3,2-6.8,3.9-10.4,5.7C120.2,165,119.7,166.5,120.3,167.8z"/>
</g>
</svg>
