<?xml version="1.0" encoding="utf-8"?>
<!-- Generator: Adobe Illustrator 26.0.1, SVG Export Plug-In . SVG Version: 6.00 Build 0)  -->
<svg version="1.1" id="Layer_1" xmlns="http://www.w3.org/2000/svg" xmlns:xlink="http://www.w3.org/1999/xlink" x="0px" y="0px"
	 viewBox="0 0 598.7 451.4" style="enable-background:new 0 0 598.7 451.4;" xml:space="preserve">
<style type="text/css">
	.st0{fill:#501792;}
</style>
<g id="XMLID_149_">
	<g id="XMLID_277_">
		<path id="XMLID_278_" class="st0" d="M433,31.2l39.2,13.9c-1.3-17.5-12-33.8-29.7-41.3c-21.9-9.3-47.7-1.1-60.3,19.1
			c-8,12.9-9.3,27.7-5,40.8l61,31.5c6.2-2,12.1-5.2,17.1-9.5L433,70.1c-6.2-4.3-9.3-11.9-8-19.3l2.9-16.7
			C428.4,31.8,430.7,30.4,433,31.2z"/>
	</g>
	<g id="XMLID_252_">
		<path id="XMLID_329_" class="st0" d="M210.4,297.2h-84.1c-3.5,0-5.9-2.9-5.3-6.4l0,0c0.6-3.5,3.9-6.4,7.5-6.4h84.1L210.4,297.2z"
			/>
		<path id="XMLID_328_" class="st0" d="M177.1,322.9H63.2c-3.5,0-5.9-2.9-5.3-6.4l0,0c0.6-3.5,3.9-6.4,7.5-6.4h113.9L177.1,322.9z"
			/>
		<path id="XMLID_327_" class="st0" d="M154.4,348.4H5.4c-3.5,0-5.9-2.9-5.3-6.4l0,0c0.6-3.5,3.9-6.4,7.5-6.4h149L154.4,348.4z"/>
		<path id="XMLID_326_" class="st0" d="M138,374H78.8c-3.5,0-5.9-2.9-5.3-6.4l0,0c0.6-3.5,3.9-6.4,7.5-6.4h59.2L138,374z"/>
		<path id="XMLID_325_" class="st0" d="M356.4,271.8H207.2c-3.6,0-6.3-1.9-6.6-4.6l-1.4-12.9c-0.3-2.9,3.1-5.7,7-5.7h128.9
			c14.1,0,25.4,7,27.9,17.3v0C363.7,268.9,360.4,271.8,356.4,271.8z"/>
		<path id="XMLID_324_" class="st0" d="M598.2,323.9c-15.9-17.5-40.8-25-66.8-20.5l-30.9-104.2c-0.3-1.1,0.8-2.2,1.9-2l19.7,3.8
			c2.3,0.4,4.8-1.3,5.3-3.7l6.1-45.2c0.6-2.5-1.3-4.6-3.9-4.2l-50.5,7.2c-3.3,0.5-5.9,3.7-5.3,6.8C481,201,507,362.2,402.5,362.2
			h-42.7c-56.9,0-24-58.1-7.9-79.5c1.4-1.9,0.4-4.2-1.7-4.2l-138.3,0c-2.7,0-5.3,1.9-6.2,4.5l-5.5,14.1
			c-39.4,14.3-71.4,47.8-79.9,87.3c-0.5,2.4,1,4.4,3.4,4.4h44.4l281.7,0.1c-0.5,4.9-0.6,9.7-0.3,14.5c0.1,1.6,1.8,2.4,3.3,1.5
			l144.3-77.2C598.7,326.9,599.2,325,598.2,323.9z"/>
		<path id="XMLID_323_" class="st0" d="M268,242.3H150.4c-6.1,0-10.2-4.9-9.1-11l19.8-117.6c1-6.1,6.8-11,12.8-11h117.6
			c6.1,0,10.2,4.9,9.1,11l-19.8,117.6C279.8,237.4,274.1,242.3,268,242.3z"/>
		<path id="XMLID_320_" class="st0" d="M410.1,92.2c-2.5-3-5.1-5.4-9.1-7.6c-15.8-8.5-37.8-1.4-49.2,15.8c0,0-1,1.6-2.8,4.3
			c-0.4,0.7-0.9,1.4-1.5,2.2c-0.6,1-1.3,2-2,3.1c-1.4,2.2-3.1,4.8-4.6,7.4c-1.6,2.6-3.3,5.5-5.1,8.5c-1.8,3-3.6,6.2-5.4,9.5
			c-1.9,3.3-3.6,6.8-5.5,10.3c-1.8,3.6-3.6,7.2-5.4,10.8c-1.7,3.7-3.5,7.3-5.1,11c-1.7,3.6-3.1,7.4-4.6,10.9
			c-1.4,3.7-2.8,7.1-4,10.7c-0.6,1.7-1.2,3.4-1.7,5.1c-0.5,1.7-1,3.4-1.5,4.9c-0.5,1.5-0.9,3.2-1.3,4.7c-0.4,1.5-0.8,3-1.1,4.3
			c-0.6,2.9-1.1,5.5-1.5,7.6c-0.6,4.7-0.9,7.4-0.9,7.4c-1.3,13.9,7.1,25.7,21.1,27.8c3.8,0.6,7.6,0.4,11.4-0.4
			c1.1,0.4,2.1,0.7,3.2,1.1l12.3,4.1c8.2,2.7,16.4,5.4,24.6,8l24.8,7.8l4.5,1.4l-4.6,15.2l-4,13.4l-3.9,13.4l-3.9,13.4l-3.9,13.4
			c-2.5,9-5.1,17.9-7.5,26.9l27.5,5.2c3.8-8.7,7.4-17.5,11.1-26.2l5.4-13.1l5.4-13.1l5.4-13.1l5.3-13.1l9.7-24.4
			c1.8-3.9,2.9-8.2,3-12.3c0.1-4.4-0.9-8.6-2.9-12.2c-2-3.6-5-6.6-8.6-8.6c-0.9-0.5-1.8-0.9-2.8-1.3l-1.2-0.5l-1.5-0.6l-11.9-4.8
			l-23.9-9.5c-8-3.1-16-6.2-24-9.3l-5.3-2c0.1-0.3,0.2-0.7,0.4-1c0.4-1,0.8-2,1.2-3c0.4-1.1,0.9-2.2,1.4-3.4
			c0.9-2.3,2.2-4.9,3.4-7.5c1.3-2.7,2.6-5.4,4.1-8.2c1.4-2.8,3-5.7,4.6-8.6c1.6-2.9,3.3-5.7,5-8.6c1.7-2.8,3.4-5.6,5.1-8.2
			c1.7-2.7,3.3-5.2,4.9-7.6c0.5-0.8,1-1.5,1.5-2.3c0.7,0.1,0.8,0.1,1.5,0.1c1.4,3.3,2.9,6.6,4.4,10.1c1.6,3.7,3.2,7.4,4.8,11.2
			c0.4,0.9,0.7,1.4,1.1,2c0.4,0.6,0.8,1.1,1.2,1.6c0.9,1,1.9,1.9,3,2.6c2.2,1.5,4.9,2.4,7.7,2.6c2,0.1,3.9,0.2,5.9,0.4
			c4,0.2,7.8,0.5,11.6,0.8c7.5,0.5,14.5,1.1,20.4,1.7c6,0.5,10.9,1.2,14.4,1.5c3.5,0.4,5.4,0.7,5.4,0.7c0.2,0,0.4,0.1,0.6,0.1
			c5.9,0.5,12-4,13.5-10c1.5-6-2.1-11.3-8-11.8c0,0-2-0.2-5.5-0.6c-3.5-0.4-8.4-0.9-14.3-1.7c-5.9-0.8-12.8-1.8-20.1-2.9
			c-3.7-0.6-7.5-1.2-11.3-1.8c0,0,0,0,0,0c-1.4-0.2-2.5-1.2-2.8-2.5l-0.2-0.6c-0.5-1.8-1-3.7-1.5-5.5c-1-3.7-1.9-7.3-2.9-10.8
			c-1.8-7-3.5-13.6-4.9-19.2c-1.4-5.6-2.4-10.4-3.2-13.7C413.9,99.4,412.6,95.7,410.1,92.2z M403.4,261.1c0.3-0.7,0.5-1.5,0.9-2.2
			L403.4,261.1z"/>
		<g id="XMLID_318_">
			<path id="XMLID_319_" class="st0" d="M204.9,421.9c-18,4.1-33.6-6.6-34.8-23.9c-0.1-0.8,0-1.7,0-2.5h-28.8
				c-0.3,3.1-0.3,6.2-0.1,9.3c2.3,32.7,31.8,52.8,65.8,44.9c27.3-6.3,49.2-28.7,55.5-54.2h-28.8
				C229.7,408.1,218.5,418.8,204.9,421.9z"/>
		</g>
		<g id="XMLID_316_">
			<path id="XMLID_317_" class="st0" d="M597.1,376.3c-1-13.5-6.5-24.8-15.1-32.9L551,360c9.6,3.5,16.4,11.9,17.1,23.1
				c1.2,17.3-12.5,34.7-30.5,38.8c-18,4.1-33.6-6.6-34.8-23.9c-0.3-4.4,0.4-8.9,1.8-13.1l-30.9,16.6c0,1.1,0.1,2.2,0.1,3.3
				c2.3,32.7,31.8,52.8,65.8,44.9C573.8,441.8,599.4,408.9,597.1,376.3z"/>
		</g>
		<path id="XMLID_313_" class="st0" d="M157.6,242.3H61.9c-3.5,0-5.9-2.9-5.3-6.4l0,0c0.6-3.5,3.9-6.4,7.5-6.4h95.8L157.6,242.3z"/>
		<path id="XMLID_312_" class="st0" d="M166.2,191.2h-44.7c-3.5,0-5.9-2.9-5.3-6.4l0,0c0.6-3.5,3.9-6.4,7.5-6.4h44.7L166.2,191.2z"
			/>
		<path id="XMLID_311_" class="st0" d="M173,216.7H95.5c-3.5,0-5.9-2.9-5.3-6.4l0,0c0.6-3.5,3.9-6.4,7.5-6.4h77.6L173,216.7z"/>
	</g>
</g>
</svg>
