<svg xmlns="http://www.w3.org/2000/svg" viewBox="0 0 239.9 239.9"><defs><style>.cls-1{fill:#fff;}</style></defs><g id="Layer_2" data-name="Layer 2"><g id="Ñëîé_1" data-name="Ñëîé 1"><path class="cls-1" d="M120,80A39.94,39.94,0,1,1,80,120,39.94,39.94,0,0,1,120,80m0-22.07a62,62,0,1,0,62,62,62.08,62.08,0,0,0-62-62Z"/><path class="cls-1" d="M172.82,22.08a45,45,0,0,1,45,45V172.82a45,45,0,0,1-45,45H67.08a45,45,0,0,1-45-45V67.08a45,45,0,0,1,45-45H172.82m0-22.08H67.08A67.15,67.15,0,0,0,0,67.08V172.82A67.15,67.15,0,0,0,67.08,239.9H172.82a67.15,67.15,0,0,0,67.08-67.08V67.08A67.15,67.15,0,0,0,172.82,0Z"/><circle class="cls-1" cx="185.2" cy="54.7" r="14.62"/></g></g></svg>