<?xml version="1.0" encoding="utf-8"?>
<!-- Generator: Adobe Illustrator 26.0.1, SVG Export Plug-In . SVG Version: 6.00 Build 0)  -->
<svg version="1.1" id="Print" xmlns="http://www.w3.org/2000/svg" xmlns:xlink="http://www.w3.org/1999/xlink" x="0px" y="0px"
	 viewBox="0 0 290.1 240.1" style="enable-background:new 0 0 290.1 240.1;" xml:space="preserve">
<style type="text/css">
	.st0{fill:#00FFFF;}
</style>
<g>
	<g>
		<g>
			<g>
				<path class="st0" d="M266.2,66.2L211,130.3l18.3,1.9l-43.5,47.1l16.6-33.2l-19-2l33-66.8l-36.8-3.9l42.2-68.2L290.1,0l-58,62.6
					L266.2,66.2z"/>
			</g>
		</g>
	</g>
</g>
<g>
	<g>
		<g>
			<g>
				<path class="st0" d="M158.5,69.5l-15.2,57.4l14.9-10.8l-0.8,64.1l-9.8-35.8L132,155.6l-3.1-44.5l-30,21.8L84.8,74l47.3-49.6
					l-1.4,65.3L158.5,69.5z"/>
			</g>
		</g>
	</g>
</g>
<g>
	<g>
		<g>
			<g>
				<path class="st0" d="M50.8,164.7l50.5,31.3l-6-17.4l61.1,19.5l-37.1-1l6.2,18l-43.5-10l12.1,35l-60.4-3.7L0,176.7l62,20.4
					L50.8,164.7z"/>
			</g>
		</g>
	</g>
</g>
</svg>
