<?xml version="1.0" encoding="utf-8"?>
<!-- Generator: Adobe Illustrator 26.0.1, SVG Export Plug-In . SVG Version: 6.00 Build 0)  -->
<svg version="1.1" id="Layer_1" xmlns="http://www.w3.org/2000/svg" xmlns:xlink="http://www.w3.org/1999/xlink" x="0px" y="0px"
	 viewBox="0 0 1081.4 402.5" style="enable-background:new 0 0 1081.4 402.5;" xml:space="preserve">
<style type="text/css">
	.st0{fill:#501792;}
</style>
<g>
	<g>
		<g>
			<path class="st0" d="M488.9,184.1v28.5H384.7v-112h103.8v28.5h-63.8v13.7h60.6V169h-60.6v15h64.2V184.1z"/>
			<path class="st0" d="M500.4,97.5h39v115.2h-39L500.4,97.5L500.4,97.5z"/>
			<path class="st0" d="M658.7,172.8h-71.5c4.8,8.7,16.2,13.4,33.4,13.4c13.5,0,24.4-3.3,34.9-9.6v27.7c-5.2,3.5-11.9,6.2-19.8,8.4
				c-8,2.1-16.3,3.1-25.1,3.1c-38.7,0.4-63.4-21.3-63-51.3c-0.4-28.4,22.3-50,57.9-49.6c35.4,0,53.3,18.4,53.3,47.2v10.7H658.7z
				 M586.2,155.7h41c-1.8-8.2-8.7-12.8-19.9-12.8C596,142.9,588.6,147.8,586.2,155.7z"/>
			<path class="st0" d="M663.2,165c-0.4-28.4,22.8-50.4,61.6-50.1c16,0,29.3,3.4,39.8,10.1v29.2c-7.4-5.1-17.5-8.6-29-8.6
				c-20,0-31.6,8.1-31.6,19.7c0,11.2,10.9,19.7,31.8,19.7c5.3,0,10.5-0.8,15.8-2.3c5.2-1.5,9.6-3.4,13.4-5.7v28.3
				c-11.5,6.9-25.2,10.5-40.8,10.5C685.3,216.2,662.9,193.4,663.2,165z"/>
			<path class="st0" d="M833.9,147v27.2c0,8.7,6.7,14,17.7,14c4.6,0,8.8-0.9,12.8-2.9v26.1c-2.7,1.2-6.5,2.3-11.6,3.1
				c-5.1,0.9-10.2,1.3-15.3,1.3c-28.7,0-42.9-13.1-42.9-38.4V147h-22.9v-28h22.9v-16.3l39.2-5.8V119h31.5v28H833.9z"/>
			<path class="st0" d="M955.4,120.8v34.6c-3.5-2.3-9.1-4-15.9-4c-16.9,0-26.6,9.9-26.6,31.8v29.4h-39.1v-93.5h38.3v29.7
				C916.5,127,926,117,940.9,117C946.9,117,951.9,118.6,955.4,120.8z"/>
			<path class="st0" d="M959.3,164.7c-0.4-28.7,23.2-50.1,61.1-49.7c37.9-0.3,61.2,20.9,60.9,49.7c0.4,28.7-23.1,51.5-60.9,51.1
				C982.7,216.2,959,193.2,959.3,164.7z M1042.2,165.3c0-12.7-8.3-20.9-21.7-20.9c-13.7,0-21.9,8.3-21.9,20.9
				c0,12.7,8.3,21.2,21.9,21.2C1033.9,186.6,1042.2,178,1042.2,165.3z"/>
			<path class="st0" d="M379.3,292c-0.5-33.9,27.9-60.8,74.2-60.3c18.8,0,34.1,3.8,48.3,10.9v33c-4.5-3.2-10.2-5.8-16.9-7.7
				c-6.8-2-14.1-3-21.7-3c-25.3,0-40.1,10.6-40.1,26.1c0,15.7,15.1,26.4,40.1,26.4c7.9,0,15.3-1.1,22.1-3.2
				c6.8-2.1,12.4-4.9,16.9-8.4V338c-7.7,4.5-15.4,7.7-23.1,9.8c-7.8,2.1-16.7,3.1-26.6,3.1C406.6,351.5,378.8,325.5,379.3,292z"/>
			<path class="st0" d="M631.6,253.8v93.5h-39.1v-20.8c-6.3,15.9-19.4,24-38.6,24c-27.1,0.4-45.8-21.2-45.4-50.2
				c-0.3-28.6,18.8-51.1,46.2-50.7c19.1,0,31.3,8.1,37.8,24.3v-20.1L631.6,253.8L631.6,253.8z M592.6,299.8
				c0-11.9-8.3-20.1-21.8-20.1c-13.2,0-21.7,8.3-21.7,20.5c0,12.1,8.5,20.6,21.6,20.6C584,320.7,592.6,311.9,592.6,299.8z"/>
			<path class="st0" d="M821.4,292.2v55.2h-39.1v-46.2c0-12.6-4.6-19.7-14-19.7c-9.8,0-15,7.5-15,19.7v46.2h-39v-47.6
				c0-11.5-4.6-18.3-13.7-18.3c-9.8,0-15.2,8.3-15.2,21.5l-0.2-0.2v44.6h-39v-93.5h38.7v21.9c5.4-17.9,16.4-26.1,33.9-26.1
				c17.1,0,28.3,9,32.7,25.5c5.4-17.4,16.7-25.5,34.5-25.5C809.1,249.7,821.4,264.6,821.4,292.2z"/>
			<path class="st0" d="M939.7,307.6h-71.5c4.8,8.7,16.2,13.4,33.4,13.4c13.5,0,24.4-3.3,34.9-9.6v27.7c-5.2,3.5-11.9,6.2-19.8,8.4
				c-8,2.1-16.3,3.1-25.1,3.1c-38.7,0.4-63.4-21.3-63-51.3c-0.4-28.4,22.3-50,57.9-49.6c35.4,0,53.3,18.4,53.3,47.2v10.7H939.7z
				 M867.2,290.5h41c-1.8-8.2-8.7-12.8-19.9-12.8S869.7,282.6,867.2,290.5z"/>
			<path class="st0" d="M948.2,232.2h39v115.2h-39V232.2z"/>
		</g>
	</g>
	<path class="st0" d="M19.4,107.5C-9.6,72.2-1.9,18.8,15.3,4.3C34-11.4,43.3,20,56.8,37.9C65.9,50,96.4,15.3,175.4,15.3
		c82.5,0,103.1,37.4,115.6,22.6c13.4-17.9,22.8-49.3,41.5-33.6c17.3,14.5,24.9,68-4.1,103.3c-12-24.5-35.8-41.2-63.1-41.2
		c-39.4,0-71.5,34.8-71.5,77.6c0,15.3,4.1,29.7,11.2,41.7h-0.1c-1.7,0-3.3,0.2-4.9,0.5c-16.3,3.1-33,3.1-49.3,0
		c-1.6-0.3-3.2-0.5-4.9-0.5h-0.5c-0.9,0-1.8,0-2.6,0.1c7.2-12.1,11.3-26.4,11.3-41.8c0-42.8-32.1-77.6-71.5-77.6
		C55.2,66.4,31.4,83.1,19.4,107.5z M146.1,220.9c7.9,0.1,16.2,4.5,22.1,11.7c0.2,0.3,0.5,0.6,0.7,0.8c0.1,0.1,0.2,0.2,0.3,0.3
		s0.3,0.2,0.4,0.4c0,0,0.1,0,0.1,0.1c0.1,0.1,0.2,0.2,0.3,0.2c0.2,0.1,0.3,0.2,0.5,0.4c0.1,0.1,0.2,0.1,0.3,0.2
		c0.2,0.1,0.4,0.2,0.6,0.3c0.1,0,0.2,0.1,0.2,0.1c0.3,0.1,0.6,0.3,0.9,0.4h0.1c0.3,0.1,0.6,0.2,0.9,0.2c0.1,0,0.2,0,0.2,0.1
		c0.3,0.1,0.5,0.1,0.8,0.1c0.1,0,0.2,0,0.2,0c0.3,0,0.7,0.1,1,0.1l0,0l0,0c0.3,0,0.7,0,1-0.1c0.1,0,0.2,0,0.2,0
		c0.3,0,0.5-0.1,0.8-0.1c0.1,0,0.2,0,0.2-0.1c0.3-0.1,0.6-0.1,0.9-0.2h0.1c0.3-0.1,0.6-0.2,0.9-0.4c0.1,0,0.2-0.1,0.2-0.1
		c0.2-0.1,0.4-0.2,0.6-0.3c0.1-0.1,0.2-0.1,0.3-0.2c0.2-0.1,0.3-0.2,0.5-0.4c0.1-0.1,0.2-0.2,0.3-0.2c0,0,0.1,0,0.1-0.1
		c0.1-0.1,0.3-0.2,0.4-0.4c0.1-0.1,0.2-0.2,0.3-0.3c0.3-0.3,0.5-0.5,0.7-0.8c5.9-7.2,14.1-11.6,22.1-11.7c5.5-0.1,9.9-4.6,9.8-10.1
		c-0.1-5.5-4.6-9.9-10.1-9.8c-10.4,0.1-20.9,4.3-29.5,11.3c-8.6-7.1-19.1-11.2-29.5-11.3h-0.1c-5.4,0-9.9,4.4-10,9.8
		C136.2,216.4,140.6,220.9,146.1,220.9z M217.2,306.6c-15.8-3-34.3-11.7-41.8-44.5c-7.4,32.8-26,41.5-41.8,44.5
		c9.2,7.1,22.8,14.7,41.8,14.7C196.4,321.3,208.1,313.5,217.2,306.6z M296.3,213.8c-9.4,4.9-19.9,7.7-31,7.7
		c-10.7,0-20.8-2.5-29.9-7.1c0,0.4,0,0.9,0,1.3c0,6-1.7,11.7-5.9,16.8c17.3,4.7,30.3,20.1,30.6,38.4v0.7c0,10.4-3.9,19.8-10.3,27
		c0.1,1.5,0.1,2.9,0.1,4.4c0,41.5-33.9,75.1-75.6,74.6c-40.7-0.5-73.2-33.1-73.6-73.8c0-1.8,0-3.5,0.1-5.3
		c-6.4-7.2-10.3-16.6-10.3-27v-0.7c0.3-18.3,13.3-33.7,30.6-38.4c-4.2-5.1-5.9-10.8-5.9-16.8c0-1,0.1-2,0.1-2.9
		c-9.9,5.6-21.1,8.7-32.9,8.7c-11.1,0-21.6-2.8-31-7.7c6.3,50.9-46.6,106.4-2,136.6c37.6,27.9,82,53.4,126.6,52
		c42.6,0,86-25.1,122.2-52C342.9,320.2,290,264.7,296.3,213.8z M82.7,82.3c-30.5,0-55.3,27.5-55.3,61.4s24.8,61.4,55.3,61.4
		s55.3-27.5,55.3-61.4C138,109.9,113.2,82.3,82.7,82.3z M102.2,167.9h-9.5l7.2,24.4L73,157.7h9.2l-25.4-25.9H74l-19.8-26.1h30.5
		l22,36.1H88.1L102.2,167.9z M265.1,82.3c-30.5,0-55.3,27.5-55.3,61.4s24.8,61.4,55.3,61.4s55.3-27.5,55.3-61.4
		C320.4,109.9,295.6,82.3,265.1,82.3z M291.7,131.8l-25.4,25.9h9.2l-26.9,34.6l7.2-24.4h-9.5l14.2-26.1H242l22-36.1h30.5l-19.8,26.1
		L291.7,131.8L291.7,131.8z"/>
</g>
</svg>
