<?xml version="1.0" encoding="utf-8"?>
<!-- Generator: Adobe Illustrator 26.0.1, SVG Export Plug-In . SVG Version: 6.00 Build 0)  -->
<svg version="1.1" id="_x3C_Layer_x3E_" xmlns="http://www.w3.org/2000/svg" xmlns:xlink="http://www.w3.org/1999/xlink" x="0px"
	 y="0px" viewBox="0 0 404.2 256.7" style="enable-background:new 0 0 404.2 256.7;" xml:space="preserve">
<style type="text/css">
	.st0{fill:#501792;}
</style>
<g>
	<path class="st0" d="M363.1,37.5c-51-51-116.1-43.7-146.7-15.4c-19.3,17.8-21.1,42.6-20.5,43.5c-0.2-0.2-2.6-3.7-2.4-3.4l-3.2-3.7
		c-0.2-0.1-27.4-34-85.5-19.6C-63.5,82.4-11.1,328,135.4,223.6c18.9,22.2,19.4,32.9,31.5,33.1c25.1,0.4,52.9-23.2,57.7-47.2
		c12.4,5,24.8,0.9,33.8-5.5c3.6-2.7,5.6-5.3,7.2-8.1c0.7-0.6,1.5-1.2,2.2-1.7C369.7,266.7,459.3,133.7,363.1,37.5z M113.1,230.3
		c-36.5,19.2-71.3,11.6-92.6-14.7c-22-37.9-22-102.9,38.8-151.2c72.9-49.7,166.3-21.5,136.4,75.1
		C185.4,171.3,141.9,213.2,113.1,230.3z M220.1,200.4c-11.3,36-44.8,59.8-59.6,43.7c-5-11.8-12.1-19.7-17.8-26.3
		c13.9-12.2,32.9-33.3,43.1-49.3c1,0.7,10.5,10,28.7,20.6C221.5,193.1,220.1,200.2,220.1,200.4z M239,130.3
		c17,14.5,30.4,45.6,20.1,62.9c-4.8,8.2-19.2,14.8-34.9,11c0.2-1.6,0.4-2.9,0.5-4.2c0.2-4.7-2.2-12.1-7.9-15.4
		c-8.5-5-14.6-7.1-21.6-14.3c-1.7-4.5-2.6-8.8-2.7-13.4c2.8-5.2,5.5-10.9,7.9-16.7c1.5-3.7,2.9-7.5,4.1-11.3
		c8.3-1.6,16.1-4.5,31.9,0.8c-5.8-4.7-13.4-7.6-21.2-8c-0.1-0.5-0.1-0.4-0.2-0.9c9.4-5,18.1-10.3,26.5-17.5l-20.7,8.7
		c-3.3-91.2,140.6-26.7,110.2,53c-1.4,3.6-21.7,38.1-55.8,19.2c0.5-0.9,1-1.8,1.4-2.7c0.3,0.1,0.6,0.3,0.8,0.4
		c3.8,1.7,7.9,2.7,12,2.9c11.2,0.6,24.9-3.3,29.6-13.8c-16.5,13.6-34.8,7.5-39.1,5.5c-0.2-0.1-0.3-0.1-0.5-0.2
		c3-5.6,5.9-10.7,8.2-14.9c0.7-0.1,1.4-0.1,2.1-0.2c4.4-0.8,8.8-3,11.9-6.4c6.1-6.9,7.9-16.4,6-24.7c-1.7-8.4-7.1-15.9-14.5-19.4
		c5.9,5.5,9.2,12.8,10,20.1c0.3,3.7,0.2,7.4-0.9,10.8c-1,3.4-2.6,6.7-4.9,9.2c-1.6,1.8-3.7,3.1-6,4c2.3-4.2,3.5-6.5,2.7-5.7
		c12.9-21.8-11.6-57-41.4-50.4c36.8,5.5,47.7,40.8,29.5,64c-4.5,5.7-8.4,11.4-12.3,17.7C270.1,160.4,255.6,137.6,239,130.3z
		 M306,204.6c-12.2-2.9-24.2-7.3-35-14.1l1.5-3.1c62,36.5,101.5-64.4,26.6-112.8c-45.6-29-90.5-3-83.4,39.4c-1.2,0.5-3.8,3-4.6,3.3
		c-6.2-16.5,0.2-21.2-8-39.8c-3.4-7.7-1.5-56.5,49.3-69.3c83.2-20.9,163.8,63.4,139.2,149.1C380.4,196.4,344.7,214.3,306,204.6z"/>
	<path class="st0" d="M146.2,188.1c-60.4,55.8-111,38.6-125.1,0.1c9.5,52.6,95.5,71.4,160.1-38.1C170,163.3,158.6,176.4,146.2,188.1
		z"/>
	<path class="st0" d="M340.5,101.9c-6.6-11.4-15.6-21.6-26.7-28.5c9.5,8.8,17,19.3,22.7,30.6c19.4,40.4,9.1,88.8-24.9,96
		C345,203.6,368.2,149.6,340.5,101.9z"/>
	<path class="st0" d="M357.2,125.7c2.1,6.8,3.4,13.5,3.7,20.2c0.8,21.6-7.9,39.2-23.6,53.5c18.7-7.7,32.3-30.6,28.1-54
		C364.3,138.3,361.6,131.4,357.2,125.7z"/>
	<path class="st0" d="M212.3,87c13-28,38.6-37.4,65.7-27.2C253.5,41.9,213.1,56.7,212.3,87z"/>
	<path class="st0" d="M184,70.1c10.6,30.7,7.9,46.8-0.9,70.1C197.7,122.3,201.3,90.2,184,70.1z"/>
	<path class="st0" d="M149.7,218.2c16.2-6.1,32.6-23.8,37-41.3C157,214.6,160.2,206.8,149.7,218.2z"/>
	<path class="st0" d="M272,112.6c8.6,12.4,12.4,23.1,12.2,40C291.6,140.1,285.9,119.2,272,112.6z"/>
</g>
</svg>
