<?xml version="1.0" encoding="utf-8"?>
<!-- Generator: Adobe Illustrator 26.0.1, SVG Export Plug-In . SVG Version: 6.00 Build 0)  -->
<svg version="1.1" id="_x3C_Layer_x3E_" xmlns="http://www.w3.org/2000/svg" xmlns:xlink="http://www.w3.org/1999/xlink" x="0px"
	 y="0px" viewBox="0 0 403.9 266.1" style="enable-background:new 0 0 403.9 266.1;" xml:space="preserve">
<style type="text/css">
	.st0{fill:#D7FF00;}
</style>
<g>
	<path class="st0" d="M350.5,194.8c-12.1,5.6-22,17.6-22.9,22c-3.6,16.6,24.5-2,24.7-2c-2.9,4.9-7.9,9.4-13.4,11.2
		c-8.9,2.9-18.6-1.2-16.1-10.7c2-7.5,11.8-16.3,17.4-19.8c18.7-12,29.8-4.8,26.3,4.2c-1.5,3.7-4.6,6.6-7.1,7.6
		C364.1,202.3,366.3,187.5,350.5,194.8z"/>
	<path class="st0" d="M113.8,61.1c5.3-0.8,43.5-4.9,70.8,34.6c0.5-1,1.1-1.9,1.6-2.9c0-13.4-0.3-26.3-4.7-39
		c-0.8-2.4-13.2-27.3-13.3-27.6c-0.3-0.6-3.6-9.1-2.4-9c4.6,0.5,10.3,5.9,13.5,9c-1.1-3.3-3.5-13.5-2.4-15.4c0.7-1.4,2.5-2,4.1-0.8
		c3.6,3.1,7,5.6,10.1,9.3c-1.1-5.7-3.1-10.7-1.8-16.7c0.2-1.1,0.7-2.3,1.8-2.6c1.3-0.4,2.5,0.9,3.3,2.1c4.8,7.2,10.3,13.2,17,18.8
		c29.7,24.4,40.8,17.7,48.5,18c40.5-12.6,135.4-5,143.5,82c10.8,125.1-157.4,181-213.1,86.5c-1.2,2.3-19.3,54.4-92.7,58.5
		c-54,2.9-83.1-30.5-90.1-42.6c-0.7-0.9-1.3-1.8-1.9-2.7C-17.7,183.1,34.4,73,113.8,61.1z M212.3,224.7c20.4,21,77.7,35.7,130.7,7.8
		c38.2-27.8,60.1-61.6,54-110.9c-11.1-97.9-110.8-85-140.9-79.3c-4.6,0.5-6.4,2-10.1,3.3c-1.8,0.6-3.7,2.6-5.9,2.9
		c1-1.9,2.4-3.3,4-4.6c0.9-0.8,1.9-1.4,3-2c-5-0.1-9.7-1.4-15.2-3.3c-16.9-5.6-28-20.6-39-33.7c0.1,5.4,2.1,12.6,3.8,17.8
		c0.6,1.7,1.2,3.4,1.8,5.1c2.5,3.8,5.3,7.5,8.1,11.1c4.7,5.9,9.9,11.4,15.3,16.7c-6.6-3.9-12.6-8.8-18-14.4
		c-4.2-4.3-7.9-9.1-11.3-14.2c-7.5-8-10.6-10.3-11-10.8c0.8,7.2,2.1,12.2,3.2,16.1c5.6,7.4,9.6,16.4,10.2,25.3
		c-5.8-12.1-11.7-21.7-21.8-31.5c0,0.2,0.1,0.4,0.1,0.6c11.3,17.6,17.9,37.8,18.9,59.1c0.2-0.3,0.5-0.7,0.7-1
		c-0.1-4.7-0.4-9.5-0.9-14.2c-0.6-5.4-1.4-10.9-2.3-16.5c2.7,5,4.5,10.4,5.8,15.9c0.7,3.1,1.2,6.2,1.5,9.4
		c5.6-7.3,12.2-14.9,19.3-19.5c-12,12.3-21,26.4-27.8,41.7c0.8,1.3,1.4,2.7,2.1,4c0.3-0.9,0.6-1.8,0.9-2.8
		c2.4-6.2,5.4-12.2,9.2-17.6c3.7-5.5,8.1-10.5,13.2-14.7c-3.7,5.4-7.1,10.9-10.2,16.5c-3,5.6-5.7,11.4-7.9,17.4
		c-0.9,2.3-1.7,4.7-2.5,7c8.2,19.1,10.5,40.8,8,60.4c0,0.2,0,0.3,0,0.5c0.7-5.5-1.4,2.5,5.8,15.9c7.8,15,13.3,20.6,27.4,31.2
		C246,228,270.3,238,300,240c-8.5,1.3-17.3,1.1-25.9-0.2c-30.7-4.6-61.8-24.7-75.1-55.5c-1.3,5.5-3.1,10.7-5.2,15.4
		C201,212.6,207.1,218.9,212.3,224.7z M177.9,220.6c6.1-9.2,10.4-19.1,12.5-27.1c14.7-49,3-99.4-40.8-125.3c8.8,6,14.6,15.5,17.4,27
		c2.4,3.2,4.6,6.5,6.7,9.8c4.9,8.2,8.7,16.9,11.3,26.1c2.6,9.1,4,18.5,3.7,27.9c-1.6-9.2-3.9-18.2-7.1-26.9
		c-3.3-9.1-7.5-18-12.8-26.4c0.9,9.1,0.2,19.1-2,29.3c1.4,2.3,2.7,4.7,3.9,7.1c4,7.9,7.2,16.2,9.3,24.8c2.2,8.6,3.4,17.4,3.3,26.2
		c-1.8-8.6-4-17-6.7-25.2c-2.8-8.1-6.1-16.1-10-23.8c-0.5-0.9-0.9-1.8-1.4-2.8c-1.5,5.5-3.4,11.1-5.7,16.6c1.4,2.2,2.8,4.4,4,6.6
		c7.7,14,13.4,29.8,14.8,45.4c-5.2-15.3-10.8-29.3-18.8-43.2c-0.7-1.3-1.5-2.6-2.3-3.9c-2.9,6.3-6.4,12.4-10.4,18.3
		c1.4,1.5,2.8,3.1,4.2,4.7c4.5,5.3,8.7,11,12.4,17s6.9,12.2,9.3,18.8c-4.1-5.7-8-11.3-12.2-16.8s-8.4-10.9-12.9-16
		c-1.1-1.3-2.3-2.6-3.4-3.9c-3.2,4.4-6.6,8.6-10.4,12.7c0.8,0.9,1.7,1.8,2.5,2.7c4.3,4.6,8.9,9,13.5,13.3c4.7,4.3,9.5,8.5,14.3,12.8
		c-5.9-2.7-11.4-6.2-16.5-10c-5.2-3.8-10-8.2-14.5-12.9c-0.8-0.8-1.6-1.7-2.3-2.5c-4.6,4.6-9.5,9-14.9,13c5.1,3.2,10.4,6.1,15.9,8.7
		c7.2,3.3,14.6,6.1,22.3,8.6c-8-0.6-16-2.5-23.6-5.3c-6.4-2.4-12.6-5.5-18.4-9.1c-3.9,2.7-8,5.2-12.3,7.5c4.8,2.3,9.8,4.5,14.8,6.4
		c7.2,2.7,14.5,4.9,22.1,6.9c-7.8-0.1-15.6-1.4-23.2-3.6c-6.5-1.8-12.7-4.2-18.8-7.2c-5.6,2.7-11.4,5-17.6,6.8
		c1.3,0.7,2.7,1.3,4,1.9c7.5,3.4,15.3,6.1,23.3,8.2c8,2,16.2,3.4,24.6,4.2c-8.4,1.1-17,0.7-25.3-0.8c-8.4-1.4-16.6-4-24.4-7.5
		c-2.9-1.3-5.7-2.8-8.4-4.3c-3.8,1-7.6,1.8-11.6,2.4c-3,0.5-6,0.9-9.1,1.1c1.5,0.7,3.1,1.4,4.7,2c15.8,6.9,31.1,10.9,41.4,13.5
		c-26.1,0.1-57.9-14.9-58.1-15.1c-8.4-0.4-13.9-2.8-20.5-7.7C27.4,245.1,113.3,295.4,177.9,220.6z M43.1,234.1
		c41.4-1.1,91.2-31.8,110.5-77.2c9.9-22.8,15.2-56.8,1.4-76.8c-8.2-12.1-19.3-13.8-20.9-14.6C87.2,53.4,33.2,108.4,13.8,154.4
		C-9.3,206.6,12.8,235,43.1,234.1z"/>
	<path class="st0" d="M202.1,130.7c11.9,42.4,32.7,88.6,102.3,98.8C251.6,232,204.1,184.6,202.1,130.7z"/>
	<path class="st0" d="M283.5,182.1c10.4,8.2,21.6,15.6,33.4,22c-12.5-4.8-24.5-11.3-35.5-19.2c-11-7.8-21.1-17.1-30-27.2
		c-8.9-10.2-16.7-21.4-23.1-33.3c-6.4-11.9-11.3-24.6-14.4-37.7c4.8,12.5,10.7,24.5,17.5,36c6.8,11.4,14.6,22.2,23.4,32.1
		C263.4,164.7,273.1,173.8,283.5,182.1z"/>
	<path class="st0" d="M330.8,140.4c5.7,12.8,9.7,26.4,11.8,40.2c-3.8-13.4-8.8-26.3-15-38.7c-12.2-24.1-28.7-45.9-50.4-64.7
		c-10.4-9-21.7-17.1-33.8-24c12.9,5.4,25,12.6,36.1,21.3C301.1,91.3,319.4,114.5,330.8,140.4z"/>
	<path class="st0" d="M333.9,78.5c4.5,5.2,8.5,10.8,11.9,16.7c14.2,24.5,19,52.6,14.5,78.7c0.5-13.5-0.8-26.8-3.8-39.7
		c-3.1-12.9-7.9-25.3-14.6-36.7c-6.6-11.4-15-21.8-25.3-29.9c-10.3-8.1-22.6-14-35.8-16.3c6.7,0.2,13.4,1.7,19.9,3.9
		c6.4,2.3,12.5,5.6,18.1,9.6C324.3,68.7,329.3,73.4,333.9,78.5z"/>
	<path class="st0" d="M364.4,97.8c-5-10.9-12.1-20.8-20.5-29.4c-8.5-8.6-18.4-15.8-29.4-21.3c11.7,3.8,22.6,10.4,31.9,18.8
		c29.9,27,37.6,71.7,24.2,105C373.2,158.9,374,118.3,364.4,97.8z"/>
	<path class="st0" d="M276.4,136.8c7.7,9.6,15.5,19,23.5,28.3l24,28c-9.3-8-18.2-16.7-26.7-25.6c-8.5-8.9-16.6-18.3-24.4-27.8
		c-7.7-9.6-15.1-19.5-22.1-29.7s-13.5-20.6-19.4-31.5l22.3,29.4C261.2,117.6,268.7,127.3,276.4,136.8z"/>
	<path class="st0" d="M258.2,192.8c-7.5-5.8-14.4-12.4-20.3-19.8c-6-7.3-11.1-15.3-15-23.9c5.5,7.6,11.3,14.8,17.6,21.5
		c6.4,6.7,13.1,12.9,20.4,18.5c7.2,5.7,15,10.7,23,15.2c8.1,4.5,16.5,8.3,25.3,11.7c-9.3-1.6-18.3-4.6-26.9-8.5
		C273.8,203.6,265.7,198.6,258.2,192.8z"/>
	<path class="st0" d="M273.3,100.8c-5.4-6.8-10.9-13.4-16.5-20.2C263.7,86,270,92.1,276,98.5c17.1,18.3,33.1,43.2,41.3,66.5
		C302.4,140.9,293.7,126.6,273.3,100.8z"/>
	<path class="st0" d="M301,69.8c18.1,14,33.9,36.7,41.8,60.7c2.6,7.9,4.5,16,5.4,24.2c-2.7-7.8-5.5-15.5-8.7-23
		c-3.2-7.5-6.7-14.8-10.7-21.8C320.7,95.1,311.7,82.8,301,69.8z"/>
	<path class="st0" d="M383.9,99.1c25.4,43.1-9.1,89.7-10.5,91.1C373.6,189.9,398.1,146.8,383.9,99.1z"/>
	<path class="st0" d="M353.8,202.1c1.3-0.4,2.6,1,1.2,2.6c-0.7,0.9-1.1,1.7-1.7,2c-2.1,1.1-3.2-0.4-2.8-1.7
		C350.6,204.8,352.8,202.4,353.8,202.1z"/>
	<path class="st0" d="M346.4,213.4c0.1-0.1,0.3-0.2,0.5-0.3c0.6-0.4,0.5-0.3,0.9-0.6c0.5-0.3,0.4-0.2,0.9-0.4
		c0.4-0.1,0.5-0.1,0.9-0.1c0.5,0,0.8,0.4,0.9,0.7c0.1,0.3,0,0.4,0,0.8c-0.1,0.5-0.6,1.1-0.9,1.4c-0.1,0.1-0.7,0.7-0.7,0.8
		c-0.1,0.1-0.4,0.4-0.7,0.4c-0.1,0-0.2,0.1-0.3,0.1c-0.5,0.1-0.3,0.1-0.8,0c-0.1-0.1-0.3-0.1-0.4-0.2c-0.3-0.2-0.6-0.6-0.7-0.8
		c-0.1-0.2-0.2-0.6-0.1-0.8c0-0.3,0.1-0.5,0.2-0.7C346.1,213.8,346.3,213.5,346.4,213.4z"/>
	<path class="st0" d="M341.9,209.1c-1.3-0.9-0.5-2.4,0.4-3.2c0.5-0.4,1.2-0.7,1.8-0.7c0.7,0.1,1.4,0.6,1.6,1.3
		C346.2,208.4,343.4,210.1,341.9,209.1z"/>
	<path class="st0" d="M336.2,219.7c-0.3,0-0.5-0.1-0.8-0.2c-0.2-0.1-0.3-0.2-0.4-0.4c-0.2-0.3-0.3-0.7-0.3-1.1
		c0.1-0.5,0.3-0.9,0.8-1.1c2.8-1.7,3-2,3.6-1.8c0.9,0.3,1.1,1.4,0.5,2c-0.8,0.8-1.5,1.5-2.3,2.3C337,219.5,336.6,219.7,336.2,219.7z
		"/>
	<path class="st0" d="M314.6,218l0.1-2.1c0.1-0.7,0.2-1.4,0.4-2c0.3-1.3,0.7-2.6,1.2-3.8c1-2.4,2.2-4.7,3.7-6.8
		c6.1-8.3,14.4-14.2,23.5-18.4c4.6-2,9.6-3.5,14.8-3.1c2.6,0.3,5.1,1.1,7.2,2.7c2,1.6,3.4,3.8,4.2,6.1c-1.3-2.1-2.9-3.9-4.9-5
		s-4.3-1.6-6.5-1.5c-4.6,0.1-9,1.9-13.1,4c-7.7,4.2-16.3,10.7-21.3,17.8c-1.4,1.8-2.5,3.8-3.3,5.9c-0.9,2.1-1.5,4.1-1.5,6.2
		c0,0.3-0.3,8,8,11.3c1.6,0.2,3.1,0.3,4.7,0.2c3.4-0.2,6.7-1.1,9.7-2.4c7.1-3.1,12-7.9,17.6-12c-1.6,3.4-4.6,6.1-7.5,8.7
		C332.5,240.6,314.9,232.3,314.6,218z"/>
	<path class="st0" d="M313.4,227.9c0.9,1.5,1.9,2.7,3.1,3.8c1.2,1.1,2.5,2,4,2.8s3.2,1.4,5.3,2c-1.7,1.3-4.1,1.7-6.3,1.4
		c-2.2-0.3-4.4-1.3-6.1-2.9c-1.7-1.6-2.9-3.7-3.3-5.9s-0.2-4.5,0.9-6.4C311.7,224.8,312.4,226.4,313.4,227.9z"/>
	<path class="st0" d="M113.8,139c-3.5,9.9-9.4,18.8-16.7,26.3c-3.7,3.7-7.7,7.1-12.1,10c-4.4,2.8-9.1,5.5-14.6,6.3
		c-5.4,0.9-11.3-0.7-15.2-4.3c-4.2-3.4-6.4-8.9-5.8-14c0.2,5.1,2.7,10,6.8,12.7c3.9,3.1,9,4,13.7,3s9.1-3.5,13.2-6.4s8-6.1,11.5-9.7
		c7.1-7.1,12.8-15.6,16.6-24.9c0.2-0.6,0.4-1.1,0.7-1.7c3.1-15.3-0.1-20.1-6.1-22.8c-2.1-1-4.4-1.5-6.8-1.7
		c-4.8-0.4-9.8,0.8-14.7,2.2c4.3-2.7,9.3-4.8,14.8-4.9c5.4-0.1,11.2,1.7,14.8,6.6C116.9,120.3,117.4,128.5,113.8,139z"/>
	<path class="st0" d="M109.5,170.4c-4.8,5.9-10.2,11.4-16.3,16.1c-6.1,4.7-12.8,8.6-20.3,10.9c-52.6,16.3-50.9-57.2,4.3-95.3
		C123,70.5,150.7,118.8,109.5,170.4z M78.6,104c-32.6,22.5-60,78.8-27.7,91.5c5.5,2.5,15.2,0.6,20.9-1.5c6.8-2.5,13.1-6.3,18.7-10.9
		c5.7-4.6,10.9-9.8,15.4-15.6C147,116.9,121.8,74.2,78.6,104z"/>
	<path class="st0" d="M74.1,165.6c-3,1.1-6.7,1.1-9.6-0.6c-2.8-1.8-4.4-5.1-4-8.1c0.4,3,2.3,5.6,4.8,6.6c2.5,1.1,5.3,0.7,7.9-0.4
		c2.6-1.1,5-2.7,7.2-4.5c19.2-15.5,13.9-30,10.1-32c-1.4-0.8-3.3-1-5.1-1.1c-1.9,0-3.7,0.4-5.6,1c-3.7,1.3-7.1,3.7-10.4,6.2
		c2.3-3.5,5.4-6.6,9.4-8.6C103.6,111.5,106.6,154.5,74.1,165.6z"/>
	<path class="st0" d="M148.4,144.4c3.4-8.9,5.5-18.4,5.9-28c0.2-4.6,0-9.2-0.7-13.8c-0.9-3.3-2.2-6.6-3.8-9.6
		c-1.8-3.6-4.4-6.9-7.3-9.6c-2.9-2.9-6.4-5-10.1-6.6c-7.6-3-16.3-3.6-24.4-1c7.6-3.8,17-4.3,25.3-1.4c8.4,2.8,15.4,9.3,19.5,17.1
		c4.2,7.8,5.9,16.7,5.7,25.3c-0.1,4.3-0.6,8.6-1.7,12.8c-0.6,2.2-1.3,4.4-2.2,6.5c-0.8,3.2-1.8,6.4-3,9.5
		c-6.1,15.8-17.2,32.6-39.6,54.8C125.5,182.9,139.9,167.1,148.4,144.4z"/>
	<path class="st0" d="M31.9,135.8c4.8-7.2,10.1-14,15.7-20.7C38.7,129.9,29,144.2,22.7,160C8,196.2,18.6,209,26,215.3
		c1.7,1.3,3.4,2.6,5.3,3.6c3.7,2.1,7.8,3.6,12.1,4.5c8.5,1.8,17.4,1.2,25.9-1.1c8.5-2.2,16.7-5.9,24.7-10
		c-15.2,10.9-33,18.2-51.3,14.4c-29.9-6.1-36.5-34.5-23.1-68C22.8,150.7,27.1,143,31.9,135.8z"/>
	<path class="st0" d="M75,145.2c1.3-2,2.7-3.8,4.2-5.6s3-3.5,4.6-5.2l2.6-2.8v3.9c0,2.2-0.1,4.5-0.6,6.8s-1.4,4.7-3,6.6
		c-1.5,1.9-3.8,3.4-6.4,3.7c-2.4,0.3-5.1-0.6-6.4-2.5c1.9,1.2,4.1,1.2,6,0.6c1.8-0.6,3.3-1.9,4.3-3.5s1.8-3.5,2.1-5.5
		c0.2-0.8,0.3-1.7,0.4-2.5c-0.8,0.6-1.5,1.3-2.3,1.9C78.9,142.6,77,144,75,145.2z"/>
	<path class="st0" d="M24.4,183.5c0.5,1.4,10.2,46.2,60,21.4c37.4-18.7,78.1-89.7,42.8-114.2c-6.2-4.4-20.8-9.8-36.1-1.8
		c9.6-8.1,25.9-9.4,38-1c1.2,0.8,2.3,1.8,3.4,2.8c30,24.8-5.2,109.8-62.3,123.3C42.1,220.6,24.5,203.9,24.4,183.5z"/>
</g>
</svg>
