<?xml version="1.0" encoding="utf-8"?>
<!-- Generator: Adobe Illustrator 26.0.1, SVG Export Plug-In . SVG Version: 6.00 Build 0)  -->
<svg version="1.1" id="_x31_" xmlns="http://www.w3.org/2000/svg" xmlns:xlink="http://www.w3.org/1999/xlink" x="0px" y="0px"
	 viewBox="0 0 372.3 493.9" style="enable-background:new 0 0 372.3 493.9;" xml:space="preserve">
<style type="text/css">
	.st0{fill:#FF87FF;}
</style>
<path class="st0" d="M267.5,305.9c10,36.9,4.1,78-16.3,111l0,0c-0.5,0.8-1.4,1.3-2.4,1.3l0,0c-10.7,0.3-21.2-2.4-30.5-7
	c-9.4-4.6-17.8-10.9-24.9-18.4c-7.1-7.5-13-15.9-18.1-24.8c-5.1-8.9-9.3-18.1-13.1-27.5c-0.2-0.6,0-1.2,0.6-1.4
	c0.5-0.2,1.2,0,1.4,0.6c4.1,9.2,8.6,18.2,13.8,26.8c5.2,8.5,11.2,16.6,18.3,23.5c7,6.9,15.2,12.7,24.1,16.7
	c8.4,3.8,17.6,5.9,26.7,5.6c19.9-30.6,26.9-69.8,18.5-106c-0.1-0.5,0.2-1.1,0.7-1.2C266.8,305.1,267.4,305.4,267.5,305.9z
	 M201.9,374.7c0.5,1.3,1.1,2.6,1.8,4c1.4,2.7,3.3,5.6,5.5,8.5c2.3,2.8,4.7,5.2,7.1,7.2c1.2,1,2.4,1.9,3.5,2.7c1.1,0.8,2.2,1.5,3.2,2
	c4.1,2.3,6.9,3,7.1,2.6c0.2-0.5-2.2-2-5.8-4.7c-0.9-0.7-1.9-1.4-2.9-2.3c-1-0.8-2-1.8-3.1-2.8c-2.1-2-4.3-4.4-6.5-7
	c-2.1-2.7-3.9-5.3-5.4-7.9c-0.7-1.3-1.4-2.5-2-3.7c-0.6-1.2-1.1-2.3-1.6-3.3c-1.9-4.1-2.8-6.8-3.3-6.6c-0.4,0.1-0.3,3,1,7.5
	C200.9,372.3,201.3,373.5,201.9,374.7z M224.1,376.9c2.4,4,5,7.2,7.2,9.3c2.2,2.1,3.8,3.1,4.1,2.8c0.7-0.7-4-6.2-8.4-13.8
	c-4.5-7.6-7.1-14.3-8.1-14c-0.4,0.1-0.3,2,0.5,4.9C220.2,369,221.8,372.9,224.1,376.9z M250.5,372.4c0.4,0,1.2-2.9,1.7-7.8
	c0.5-4.9,0.7-11.7,0-19.1c-0.7-7.5-2-14.1-3.4-18.8c-1.3-4.7-2.6-7.5-3-7.4c-1,0.3,1.8,11.9,3,26.5
	C250.1,360.4,249.5,372.3,250.5,372.4z M92.6,192c-0.7-2.5-0.1-5.4,1.5-7.2c3-3.5,8.1-3.9,11.9-3.1c2.6,0.5,5.1,1.6,7.5,2.6
	c1.2,0.5,2.5,1,3.7,1.5c0.3,0.1,0.6,0.4,0.7,0.7c0.1,0.3,0,0.7-0.2,1c-4.6,4.9-9.6,7.6-16.4,8.9c-0.8,0.2-1.7,0.3-2.6,0.3
	c-0.7,0-1.5-0.1-2.2-0.3C94.5,195.7,93.1,194.1,92.6,192z M94.6,191.5c0.2,0.8,0.9,2.3,2.5,2.8c1.1,0.4,2.5,0.2,3.8,0
	c5.8-1,10.2-3.3,14.2-7.1c-0.8-0.3-1.5-0.6-2.3-0.9c-2.4-1-4.7-2-7.1-2.5c-0.9-0.2-1.9-0.3-2.9-0.3c-2.6,0-5.3,0.7-7,2.7
	C94.5,187.5,94.1,189.6,94.6,191.5z M97.5,242.1c-1.8-0.1-4-1-4.6-3c-0.3-1-0.1-2,0-2.7c1-4.3,4.9-8,9.9-9.7
	c4.5-1.5,9.4-1.4,13.7-1.3c0.5,0,0.9,0.3,1,0.7c0.1,0.4,0,0.9-0.4,1.2c-2.5,1.7-4.2,3.9-6,6.2c-0.7,0.9-1.5,1.9-2.3,2.9
	c-1.9,2.2-5.8,5.9-10.7,5.9C98,242.1,97.7,242.1,97.5,242.1z M97.7,240c4.3,0.3,7.9-3.1,9.6-5.1c0.8-0.9,1.5-1.8,2.2-2.8
	c1.2-1.6,2.5-3.3,4.1-4.8c0,0,0,0-0.1,0c-3.4,0-6.8,0.2-10,1.3c-3.5,1.1-7.5,3.9-8.6,8.2c-0.2,0.7-0.2,1.2-0.1,1.6
	C95.2,239.4,96.5,239.9,97.7,240z M134.4,258.5c1.8,4.6,0.8,10-3,16.1c-1.9,3-4.1,4.5-6.3,4.5c-0.3,0-0.6,0-0.9-0.1
	c-2.8-0.6-4.3-3.5-4.4-6.2c-0.2-7.4,7.4-12,13.2-14.9c0.3-0.1,0.6-0.1,0.8,0C134.1,258,134.3,258.2,134.4,258.5z M132.9,260.4
	c-5.1,2.6-11.1,6.6-11,12.4c0,1.8,1,3.8,2.7,4.2c2.2,0.4,4.1-2,5-3.5C132.8,268.4,133.9,264.1,132.9,260.4z M160.2,291
	c-1.1,2.4-3,3.6-5.3,3.6c-0.3,0-0.7,0-1.1-0.1c-2.4-0.4-3.9-2.7-3.6-5.5c0.6-5.5,2-11,4.2-16.1c0.1-0.3,0.4-0.5,0.7-0.6
	c0.3-0.1,0.7,0,0.9,0.2C161.1,276.9,162.4,286.2,160.2,291z M155.8,275.2c-1.8,4.5-2.9,9.3-3.5,14.1c-0.2,1.5,0.3,3,1.8,3.3
	c1.9,0.3,3.3-0.5,4.2-2.4C160.1,286.4,159.2,279.2,155.8,275.2z M186.5,299.7c-2.2-2.3-3.1-6-2.3-9.7c0.7-3.3,2.5-6.2,4.1-8.7
	c0.3-0.4,0.8-0.6,1.3-0.4c4.7,2.2,7.3,6.1,8.1,11.9c0.4,3.1,0,5.4-1.4,7c-1,1.2-2.6,2-4.4,2c-0.1,0-0.2,0-0.3,0
	C189.8,301.9,187.9,301.1,186.5,299.7z M188,298.3c1,1,2.5,1.5,3.9,1.5c1.2-0.1,2.2-0.5,2.8-1.3c1-1.2,1.3-2.9,0.9-5.4
	c-0.6-4.8-2.6-7.9-6.1-9.9c-1.4,2.3-2.8,4.7-3.4,7.3C185.8,292.9,185.9,296.2,188,298.3z M222.9,270.1c-0.2-0.5-0.1-1,0.3-1.3
	c1.1-1,4.7,0.5,4.8,0.5c1.3,0.7,2.6,1.7,4.1,3.3c2.8,2.8,4.3,6.3,4,9.5c-0.2,2-1.4,4.1-3.2,5.4c-1.1,0.7-2.2,1.1-3.4,1.1
	c-0.5,0-0.9-0.1-1.4-0.2c-3.8-1.1-5.1-5.5-5-9c0-0.9,0.1-1.8,0.2-2.6C223.5,274.3,223.7,272.1,222.9,270.1z M228.7,286.3
	c1.3,0.3,2.3-0.1,3-0.6c1.3-0.9,2.2-2.4,2.3-3.8c0.2-2.5-1.1-5.5-3.4-7.8c-1.4-1.4-2.5-2.3-3.6-2.9c-0.2-0.1-1-0.3-1.7-0.4
	c0.5,2,0.3,4.1,0.1,6.2c-0.1,0.8-0.1,1.7-0.2,2.5C225.2,282.3,226.2,285.6,228.7,286.3z M258.7,251c-0.1-0.4,0.1-0.8,0.4-1.1
	c1-0.7,3.9,0.8,4.1,0.8c1.3,0.6,2.5,1.5,3.8,2.7c3.7,3.4,5.1,6.9,4.2,10c-0.6,2.1-2.7,3.5-5.3,3.5c0,0,0,0-0.1,0
	c-2.8,0-3.8-2.2-4.5-3.8c-1.2-2.7-1.6-5.6-2-8.4C259.2,253.6,259,252.3,258.7,251z M261,252.2c0.1,0.8,0.3,1.6,0.4,2.4
	c0.4,2.8,0.8,5.4,1.9,7.8c0.8,1.8,1.3,2.6,2.6,2.6c1.3,0,2.9-0.6,3.3-2c0.9-3-1.5-5.9-3.6-7.9c-1.2-1.1-2.2-1.8-3.3-2.4
	C262.1,252.6,261.6,252.4,261,252.2z M299.8,223.5c-0.3,2-1.7,3.7-3.8,4.1c-1.1,0.2-2.2,0.4-3.4,0.4c-0.6,0-1.2,0-1.7-0.1
	c-1.5-0.2-3.1-0.5-4.5-0.8c-2.2-0.5-4.3-0.9-6.5-0.8c-0.3,0-0.7-0.2-0.9-0.5c-0.2-0.3-0.2-0.7-0.1-1c2-4.3,6.3-7.4,10.9-7.8
	c2.5-0.2,5.1,0.3,7.4,1.5C299,219.5,300,221.5,299.8,223.5z M296.2,220.4c-1.9-1-4.1-1.5-6.2-1.3c-3.3,0.3-6.5,2.3-8.4,5.2
	c1.8,0.1,3.5,0.5,5.2,0.8c1.4,0.3,2.9,0.6,4.3,0.7c1.6,0.2,3.1,0.1,4.5-0.2c1.4-0.3,2.1-1.4,2.2-2.4
	C297.8,222.3,297.5,221.1,296.2,220.4z M283,189.3c3.3-7.1,7.7-14.3,14.5-14.3c0.2,0,0.3,0,0.5,0c2.8,0.1,6.1,3.2,6.4,6
	c0.6,5.1-5.6,7.7-8.4,8.5c-1.8,0.6-3.8,0.9-6.2,1.1c-0.2,0-0.7,0-1.7,0c-1.1,0-3.2,0-3.8,0c-0.1,0.1-0.3,0.1-0.4,0.1
	c-0.1,0-0.3,0-0.4-0.1C283,190.4,282.8,189.8,283,189.3z M285.7,188.5c0.2,0,0.3,0,0.5,0c0.6,0,1.2,0,2,0c0.7,0,1.3,0,1.5,0
	c2.3-0.2,4.1-0.5,5.8-1c1.7-0.5,7.4-2.6,6.9-6.3c-0.2-1.8-2.7-4.1-4.5-4.2C292.5,176.8,288.7,182.5,285.7,188.5z M272.7,157
	c-0.3-0.3-0.5-0.7-0.4-1.1c1.4-4.9,4.1-9.3,7.8-12.9c1.1-1,2.5-2.2,4.3-2.2c1.5-0.1,2.8,0.7,3.7,2c1.1,1.6,1.4,3.9,0.6,5.7
	c-1,2.4-3.3,4.2-7.1,5.6c-0.7,0.2-1.4,0.5-2.1,0.7c-2,0.6-4,1.3-5.8,2.4c-0.2,0.1-0.4,0.2-0.5,0.2
	C273.1,157.2,272.9,157.2,272.7,157z M275.1,154.1c1.3-0.6,2.6-1,3.9-1.4c0.7-0.2,1.4-0.4,2-0.7c3.2-1.1,5.1-2.5,5.9-4.4
	c0.5-1.1,0.3-2.6-0.4-3.7c-0.3-0.4-0.9-1.1-1.9-1.1c0,0,0,0-0.1,0c-1.1,0-2.2,0.9-3,1.7C278.8,147.2,276.6,150.5,275.1,154.1z
	 M253.3,133.3c-0.5-3.6-1.1-7.7-0.2-11.6c1-4.5,4-8,7.6-9.1c1.1-0.3,2-0.3,2.8,0.2c1.1,0.7,1.4,2,1.4,3c0.6,7.3-3.5,14.6-10.1,18.3
	c-0.2,0.1-0.3,0.1-0.5,0.1c-0.2,0-0.3,0-0.5-0.1C253.5,134,253.3,133.7,253.3,133.3z M255.1,131.5c5.1-3.5,8.2-9.5,7.7-15.5
	c-0.1-0.9-0.3-1.3-0.5-1.4c-0.1-0.1-0.2-0.1-0.4-0.1c-0.2,0-0.4,0-0.7,0.1c-2.9,0.8-5.3,3.8-6.2,7.5
	C254.4,125.2,254.7,128.3,255.1,131.5z M368.3,376.7c-0.6,12.7-3,25.5-8,37.4c-2.5,6-5.7,11.7-9.6,16.9c-3.9,5.2-8.7,9.9-14.1,13.6
	c-5.4,3.7-11.4,6.5-17.5,8.5c-6.1,2-12.4,3.4-18.6,4.5c-12.4,2.3-24.7,3.7-36.3,7.2c-5.8,1.8-11.2,4.1-16.3,7.3
	c-5.1,3.1-10.1,6.9-15.3,10.4c-5.3,3.5-10.9,6.9-17.3,9c-6.4,2-13.1,2.7-19.6,2.3c-13.2-0.9-25.7-5.8-36.4-13
	c-10.7-7.2-19.8-16.2-28.2-25.6c-33.3-37.4-62.9-78-88.4-121.1c-6.4-10.8-12.5-21.7-18.3-32.8c-5.8-11.1-11.2-22.6-15.3-34.6
	c-8.4-24-11-50-7.2-75.1c1.9-12.6,5.4-25,11-36.5c5.6-11.5,13.5-22.1,23.6-30c10.2-8,22.8-12.8,35.7-13.7c6.4-0.4,13,0.2,19.2,2
	c1.3,0.4,2.3,0.7,3.5,1.2c0.2-0.4,0.3-0.7,0.5-1c8-12.2,17-19.2,30-23.3c10.1-3.2,24-3.6,33.9,2.3c-0.2-17.2-3.3-34.4-9.3-50.5
	c-2.6-7-6.3-11.5-10.9-13.2c-3.2-1.2-7.2-0.9-10.3,0.9c-2.4,1.4-4,3.4-4.5,5.8c-0.2,1.1-0.2,2.4-0.2,3.7c0,1.4,0,2.9-0.2,4.4
	c-0.4,2.3-1.8,4.5-3.5,5.7c-1.3,0.9-2.8,1.3-4.3,1c-2-0.4-3.4-1.7-4.4-2.7l-11.2-10.7c-2.5-2.4-7.7-7.3-6.8-13.3
	c0.5-3,2.4-5.4,4.2-7.3C109,4.4,126.2-1.8,142.6,0.4c16.4,2.2,31.4,12.7,39,27.4c7.5,14.3,7.6,30.7,7.8,46.6c0,0.7,0,1.4,0,2.1
	c1.9-1.7,4.1-3.2,6.4-4.3c3.7-1.8,7.7-2.9,11.7-3.3c4-0.4,8.1-0.3,12.1,0.6c3.6,0.7,7.1,2,10.3,3.8c11.3-9.4,25.4-15.7,40.3-17.3
	c6.4-0.7,12.8-0.5,19.2,0.2c6.4,0.7,12.6,2.1,18.7,4.1c6.1,2,12,4.6,17.5,8c5.5,3.4,10.6,7.6,14.8,12.6c4.3,5.1,7.3,10.8,10,16.6
	c2.6,5.8,4.8,11.8,6.7,17.8c3.7,12.1,6.2,24.5,8.1,36.9c3.9,24.8,5.6,49.8,6.5,74.8C373.4,276.9,371.4,326.9,368.3,376.7z
	 M162.8,107.9c-0.5,5.8-1.5,12.5-4.6,18.4c-3.4,6.5-9.1,11-15.2,12.1c-6.9,1.2-13.5-1.8-19.6-5.1c-1.4-0.8-2.3-1-2.7-1
	c-0.3,0-0.4,0.1-0.5,0.1c-0.4,0.3-0.1,1.8,1,3.5c5.4,8.1,11,13.7,17.3,17.1c7.6,4.1,16,4.8,22.7,1.7c2.1-1,4.1-2.3,6.2-3.7
	c1.9-1.3,3.8-2.6,5.9-3.6c6.4-3.2,13.6-3.7,20.5-4.1c3.7-0.2,7.6-0.5,11.2-1.2c15.5-2.9,28.9-15,33.3-30.2c0.4-1.4,0.4-3.1-0.1-3.9
	c-0.2-0.1-0.4-0.2-0.5-0.3c-0.4,0-1,0.4-1.5,0.6l-18.9,10.7c-6.4,3.6-13.8,6.9-20.3,3.5c-5.3-2.7-7.4-8.7-8.5-12.9
	c-3-11.4-3.1-23.5-3.2-35.2c-0.1-16.1-0.3-31.3-7.3-44.7c-7-13.5-20.8-23.1-35.9-25.2c-15.1-2-30.9,3.6-41.2,14.8
	c-1.4,1.5-2.8,3.2-3.1,5.1c-0.5,3.4,2.4,6.6,5.5,9.7l11.2,10.7c0.7,0.6,1.5,1.4,2.3,1.6c0.1,0,0.6,0.1,1.2-0.3
	c0.8-0.6,1.6-1.8,1.8-3c0.2-1.1,0.2-2.3,0.2-3.6c0-1.5,0-3,0.3-4.5c0.7-3.6,3-6.6,6.5-8.6c4.2-2.4,9.5-2.8,13.8-1.2
	c5.8,2.2,10.2,7.4,13.3,15.6C161.8,62.1,164.9,85.3,162.8,107.9z M242.2,113.1c-2,6.7-5.6,12.9-10.3,18.1
	c7.5,3.6,15.1,7.4,21.4,13.2c9.1,8.3,15.5,20.6,19,36.5c5.2,23.6,1.5,45.3-10.3,59.6c-6.3,7.7-15.4,14-28.4,19.8
	c-15.5,6.8-30.2,10.2-43.9,10.2c-3,0-5.9-0.2-8.8-0.5c-19.6-2.2-36.7-12.3-45.7-27.1c-8-13.1-9.6-29.1-10-44.4
	c-0.4-14,0.6-31.2,11.6-41.6c-0.1-0.1-0.3-0.1-0.4-0.2c-5.4-2.9-10.3-7.3-14.9-13.2c-4.2-2.3-8.8-3.9-13.5-5
	c-4.8-1.2-9.8-1.8-14.8-2c-10-0.3-20,1.1-29.2,4.6c-4.6,1.8-9,4-12.6,7c-3.6,3-6.6,6.9-9.1,11.2c-2.5,4.3-4.4,8.9-6,13.5
	c-0.7,2.4-1.5,4.7-2,7.2c-0.3,1.2-0.6,2.4-0.8,3.6l-0.6,3.7c-0.2,1.2-0.3,2.5-0.5,3.7c-0.1,1.2-0.3,2.5-0.3,3.7
	c-0.1,2.5-0.3,5-0.2,7.5c-0.1,5,0.3,10,0.9,15c1.2,10,3.4,19.9,6.4,29.5c5.9,19.4,14.4,38,23.9,56.1c19.2,36.1,41.8,70.4,67.2,102.4
	c6.3,8,12.9,15.9,19.6,23.6c6.7,7.7,13.6,15,21.8,20.4c4.1,2.7,8.5,4.9,13.1,6.3c4.6,1.5,9.4,2.1,14.1,1.8c2.4-0.2,4.7-0.5,6.9-1.3
	c0.6-0.1,1.1-0.3,1.7-0.6c0.6-0.2,1.1-0.4,1.7-0.6c1.1-0.5,2.2-0.9,3.3-1.5c4.3-2.2,8.4-5.1,12.5-8.1c4.1-3,8.2-6.2,12.8-9
	c4.5-2.8,9.6-5,14.7-6.6c5.1-1.6,10.3-2.5,15.5-3.3c5.1-0.8,10.2-1.4,15.3-2.1c5-0.8,9.9-1.7,14.7-3.1c4.7-1.4,9.1-3.5,13.2-6.1
	c8-5.4,14.1-13.5,18.2-22.4c4.2-9,6.4-18.8,7.6-28.8c1.2-10,1.6-20.3,2.2-30.5c1-20.5,1.7-41,2-61.5c0.3-20.5,0.3-41-1.4-61.3
	c-1.7-20.3-5.3-40.5-12.2-59.5c-3.5-9.5-7.7-18.8-13.2-27.2c-5.4-8.4-12.2-16-20.5-21.4c-4.1-2.7-8.6-4.8-13.3-6.1
	c-4.7-1.3-9.7-1.8-14.5-1.4c-4.9,0.3-9.7,1.5-14,3.6c-3.8,1.8-7.2,4.4-10,7.5C243,108,242.8,111.1,242.2,113.1z M129.4,198.3
	c0.4,14.7,1.9,30.1,9.4,42.4c8.4,13.7,24.3,23.1,42.6,25.2c15.4,1.7,32.4-1.4,50.6-9.4c12.4-5.5,20.9-11.4,26.8-18.6
	c10.9-13.3,14.3-33.7,9.4-56.1c-3.3-15.1-9.3-26.6-17.7-34.3c-6.2-5.7-14.1-9.5-21.7-13.1c-6.5,6-14.5,10.3-23.2,11.9
	c-3.9,0.7-7.8,1-11.7,1.2c-6.8,0.4-13.2,0.8-18.9,3.7c-1.9,0.9-3.6,2.1-5.4,3.4c-2.1,1.4-4.3,2.9-6.8,4c-3.3,1.5-7,2.3-10.8,2.3
	c-3.6,0-7.4-0.7-11.1-2.1C130,167.7,129,184.6,129.4,198.3z M365.8,227.1c-0.9-24.8-2.5-49.6-6.3-74.1c-1.9-12.2-4.4-24.4-7.8-36.1
	c-1.7-5.9-3.8-11.7-6.3-17.2c-2.5-5.5-5.3-11-9.1-15.5c-3.8-4.6-8.4-8.4-13.5-11.6c-5.1-3.2-10.6-5.7-16.4-7.6
	c-11.5-3.8-23.8-5.4-35.9-4.3c-14.1,1.3-27.8,7-39,15.9c0,0,0,0.1-0.1,0.1c-0.3,0.5-0.7,0.8-1.2,0.9c-7.3,6.1-13.5,13.5-18,21.9
	c-0.3,0.6-1,0.8-1.6,0.5c-0.5-0.3-0.8-1-0.5-1.5c3.9-8.4,9.4-15.9,16.1-22.2c-2.5-1-5-1.8-7.7-2.3c-3.5-0.6-7.1-0.8-10.7-0.3
	c-3.5,0.4-7,1.3-10.2,2.8c-3.2,1.4-6.1,3.5-8.4,6.1c0.2,8.8,0.8,17.7,3,26c1.5,5.5,3.5,8.8,6.4,10.3c4.7,2.4,10.6-0.2,16.3-3.4
	l18.9-10.7c0.9-0.5,2.4-1.4,4.1-1.2c0,0,0,0,0,0c3.2-3.8,7.2-6.9,11.6-9c4.9-2.4,10.2-3.7,15.6-4.1c5.4-0.4,10.8,0.1,16,1.5
	c2.6,0.7,5.1,1.6,7.6,2.7c1.2,0.5,2.4,1.2,3.6,1.8c1.1,0.7,2.3,1.3,3.4,2.1c9,5.8,16.2,13.9,22,22.6c2.9,4.4,5.4,9,7.7,13.7
	c1.1,2.3,2.1,4.8,3.2,7.1c0.3,0.6,0.5,1.2,0.8,1.8l0.7,1.8l1.4,3.6c7.3,19.5,11,40.2,12.9,60.8c1.9,20.6,1.8,41.3,1.6,61.9
	c-0.3,20.6-0.9,41.1-1.9,61.7c-0.5,10.3-0.9,20.6-2.2,30.9c-1.3,10.3-3.5,20.8-8,30.5c-2.2,4.8-5,9.5-8.3,13.7
	c-1.7,2.1-3.5,4.1-5.5,6c-2,1.9-4.1,3.6-6.4,5.1c-4.6,3-9.6,5.3-14.7,6.8c-5.1,1.6-10.3,2.5-15.5,3.3c-10.3,1.6-20.5,2.4-29.9,5.3
	c-4.7,1.4-9.1,3.4-13.3,6c-4.2,2.6-8.2,5.7-12.3,8.8c-4.1,3.1-8.4,6.2-13.3,8.7c-1.2,0.7-2.5,1.2-3.7,1.7c-0.6,0.3-1.3,0.5-1.9,0.7
	c-0.6,0.2-1.3,0.5-2,0.7c-2.6,0.8-5.4,1.3-8.2,1.5c-5.6,0.4-11.1-0.4-16.3-2c-5.2-1.6-10.1-4-14.6-7c-9-5.9-16.3-13.7-23.1-21.5
	c-6.8-7.8-13.4-15.7-19.8-23.8c-25.7-32.3-48.5-66.8-68-103.3c-9.7-18.3-18.1-37.3-24.2-57.2c-3-10-5.3-20.2-6.5-30.6
	c-0.5-5.2-1-10.5-0.9-15.7c0-2.6,0.2-5.3,0.3-7.9c0.1-1.3,0.3-2.6,0.4-3.9c0.2-1.3,0.3-2.6,0.5-3.9l0.7-3.9c0.2-1.3,0.6-2.6,0.9-3.9
	c0.5-2.6,1.4-5.1,2.2-7.7c1.8-5,3.9-9.9,6.6-14.5c2.7-4.6,6.1-9,10.4-12.5c4.3-3.5,9.3-5.9,14.2-7.8c10-3.7,20.8-5,31.3-4.5
	c7.9,0.4,15.9,1.9,23.3,4.9c-1.4-3-1.2-5.6,0.7-7.3c2.8-2.5,6.7-0.3,7.9,0.3c5.5,3,11.3,5.7,16.9,4.7c4.9-0.8,9.4-4.6,12.2-9.9
	c2.7-5.3,3.6-11.5,4.1-16.8c0.3-3.3,0.5-6.6,0.6-9.9c-8.7-6.7-23-6.4-32.6-3.3c-12.2,3.9-20.2,10.2-27.8,21.6
	c-0.1,0.1-0.1,0.3-0.2,0.4c3.5,1.7,6.6,3.7,9.5,6.2c0.5,0.4,0.5,1.1,0.1,1.6c-0.4,0.4-1,0.5-1.5,0.2l0,0c-2.5-1.7-5.1-3.3-7.9-4.5
	c-2.8-1.2-5.6-2.2-8.5-2.9c-5.9-1.4-11.9-1.7-17.9-1.1c-12,1.1-23.6,5.7-32.9,13.2c-9.4,7.5-16.7,17.6-21.9,28.5
	c-5.2,11-8.4,22.9-10.1,35c-3.4,24.2-0.9,49.2,7.3,72.3c4.1,11.6,9.4,22.7,15.1,33.7c5.8,11,11.9,21.8,18.2,32.5
	c25.3,42.7,54.7,83,87.7,120.1c8.3,9.1,17,17.8,27,24.5c2.5,1.7,5.1,3.2,7.7,4.6c2.7,1.4,5.4,2.6,8.2,3.6c5.6,2.1,11.4,3.4,17.3,3.8
	c5.9,0.4,11.8-0.2,17.3-2c5.5-1.8,10.7-4.8,15.7-8.2c5.1-3.4,10.1-7.2,15.6-10.6c5.5-3.4,11.6-6,17.8-7.9c12.3-3.8,24.9-5.1,37-7.3
	c6.1-1.1,12-2.4,17.7-4.3c5.7-1.9,11.1-4.4,16-7.7c9.7-6.7,16.9-16.7,21.5-27.7c4.7-11.1,7-23.2,7.6-35.3
	C365.4,326.6,367.4,276.9,365.8,227.1z M22.3,260.6c-0.3-1-0.6-2.2-0.9-3.5c-0.7-2.6-1.4-5.7-2.1-9.2c-0.3-1.7-0.7-3.5-1-5.4
	c-0.3-1.9-0.6-3.9-0.9-5.9c-0.3-2-0.5-4-0.7-5.9c-0.2-1.9-0.4-3.7-0.5-5.5c-0.3-3.5-0.4-6.7-0.6-9.4c-0.1-1.3-0.1-2.6-0.2-3.6
	c-0.1-1.1-0.1-2-0.1-2.7c0-1.5,0-2.3-0.1-2.3c-0.1,0-0.2,0.8-0.4,2.3c-0.1,0.7-0.2,1.7-0.3,2.7c-0.1,1.1-0.3,2.3-0.4,3.6
	c-0.1,1.3-0.2,2.8-0.2,4.4c0,1.6,0,3.3,0,5.1c0.1,1.8,0.2,3.7,0.4,5.6c0.2,1.9,0.4,3.9,0.7,6c0.3,2,0.7,4,1.1,5.9
	c0.4,1.9,0.8,3.7,1.3,5.5c0.9,3.5,1.9,6.5,2.8,9.1c0.4,1.3,0.9,2.4,1.3,3.4c0.4,1,0.8,1.8,1.1,2.5c0.6,1.4,1,2.1,1,2.1
	c0.1,0-0.2-0.8-0.6-2.3C22.8,262.5,22.5,261.6,22.3,260.6z M50.5,218.4c-0.1-1-0.3-2.1-0.5-3.3c-0.4-2.4-0.7-5.4-1.1-8.6
	c-0.1-1.6-0.3-3.3-0.4-5.1c-0.1-1.8-0.2-3.6-0.3-5.5c-0.1-1.9-0.2-3.7-0.2-5.5c-0.1-1.8,0-3.5-0.1-5.1c0-3.3,0.1-6.2,0.2-8.7
	c0-1.2,0.1-2.4,0.1-3.3c0-1,0.1-1.8,0.1-2.5c0.1-1.4,0.1-2.2,0.1-2.2c-0.1,0-0.2,0.7-0.5,2.1c-0.2,0.7-0.3,1.5-0.5,2.5
	c-0.2,1-0.4,2.1-0.6,3.3c-0.2,1.2-0.4,2.6-0.6,4c-0.2,1.5-0.3,3-0.4,4.7c-0.1,1.7-0.2,3.4-0.1,5.2c0,1.8,0.1,3.7,0.1,5.6
	c0.1,1.9,0.3,3.8,0.5,5.5c0.2,1.8,0.5,3.5,0.7,5.1c0.5,3.3,1.2,6.2,1.8,8.6c0.3,1.2,0.6,2.3,0.9,3.2c0.3,1,0.5,1.8,0.8,2.4
	c0.4,1.3,0.7,2,0.7,2c0.1,0-0.1-0.8-0.3-2.1C50.7,220.2,50.6,219.4,50.5,218.4z M80.6,308.2c-0.4-1-0.9-2.2-1.5-3.6
	c-0.6-1.4-1.2-3-1.9-4.8c-1.4-3.6-3-7.8-4.7-12.6c-0.8-2.4-1.7-4.9-2.6-7.5c-0.9-2.6-1.7-5.3-2.6-8.1c-0.8-2.8-1.7-5.5-2.4-8.1
	c-0.8-2.6-1.5-5.2-2.1-7.6c-1.3-4.9-2.4-9.3-3.3-13c-0.5-1.9-0.9-3.5-1.2-5c-0.4-1.5-0.6-2.8-0.8-3.8c-0.2-1-0.4-1.9-0.5-2.4
	c-0.1-0.6-0.2-0.8-0.2-0.8c0,0,0,0.3,0,0.9c0.1,0.6,0.1,1.4,0.3,2.5c0.1,1.1,0.3,2.4,0.5,3.9c0.2,1.5,0.4,3.2,0.7,5.1
	c0.3,1.9,0.6,4,1.1,6.2c0.4,2.2,0.9,4.6,1.5,7.1c0.6,2.5,1.2,5.1,1.9,7.7c0.7,2.7,1.5,5.4,2.4,8.2c0.9,2.8,1.8,5.5,2.8,8.1
	c0.9,2.6,1.9,5.1,2.9,7.5c1.9,4.7,3.8,8.9,5.5,12.4c0.8,1.7,1.6,3.3,2.3,4.6c0.7,1.4,1.3,2.5,1.8,3.5c0.5,0.9,0.9,1.7,1.2,2.2
	c0.3,0.5,0.4,0.7,0.5,0.7c0,0-0.1-0.3-0.3-0.8C81.4,309.9,81,309.2,80.6,308.2z M57.7,214.2c0.1,0.6,0.2,1.3,0.3,1.9
	c0.1,0.6,0.2,1.3,0.3,1.9c0.2,1.2,0.4,2.5,0.7,3.6c0.5,2.3,1,4.6,1.6,6.6c0.5,2.1,1.1,4,1.7,5.7c0.5,1.7,1.1,3.3,1.6,4.6
	c0.5,1.4,1,2.5,1.4,3.4c0.4,0.9,0.7,1.6,0.9,2.1c0.2,0.5,0.3,0.7,0.4,0.7c0,0,0-0.3-0.2-0.8c-0.2-0.5-0.4-1.3-0.7-2.2
	c-0.3-1-0.7-2.1-1-3.5c-0.4-1.4-0.8-2.9-1.2-4.7c-0.4-1.7-0.9-3.7-1.3-5.7c-0.5-2.1-0.8-4.3-1.3-6.6c-0.2-1.2-0.4-2.4-0.5-3.6
	c-0.1-0.6-0.2-1.2-0.3-1.9c-0.1-0.6-0.1-1.3-0.2-1.9c-0.3-2.6-0.5-5.2-0.8-7.9c-0.1-2.7-0.3-5.4-0.3-7.9c0-0.6,0-1.3-0.1-1.9
	c0-0.6,0-1.3,0-1.9c0-1.2,0-2.4,0-3.6c0.1-2.4,0.1-4.6,0.3-6.7c0.1-2.1,0.3-4.1,0.4-5.8c0.1-1.8,0.3-3.4,0.5-4.8
	c0.1-1.4,0.3-2.6,0.5-3.6c0.1-1,0.3-1.8,0.3-2.3c0.1-0.5,0.1-0.8,0.1-0.8c0,0-0.1,0.3-0.3,0.8c-0.1,0.5-0.3,1.3-0.6,2.2
	c-0.3,1-0.6,2.2-0.9,3.6c-0.3,1.4-0.7,3-1,4.8c-0.3,1.8-0.7,3.7-0.9,5.9c-0.3,2.1-0.4,4.4-0.6,6.8c-0.1,1.2-0.1,2.4-0.1,3.7
	c0,0.6,0,1.3-0.1,1.9c0,0.6,0,1.3,0,1.9c0,2.6,0.1,5.3,0.3,8.1C57.1,208.9,57.3,211.6,57.7,214.2z M126.9,357.6
	c-0.6-0.9-1.4-2.1-2.2-3.5c-0.8-1.4-1.8-2.9-2.8-4.6c-1-1.7-2.1-3.6-3.2-5.7c-1.2-2-2.3-4.3-3.5-6.6c-0.6-1.2-1.2-2.4-1.8-3.6
	c-0.6-1.2-1.2-2.5-1.8-3.8c-1.2-2.6-2.4-5.3-3.6-8.1c-1.1-2.8-2.3-5.6-3.3-8.3c-0.3-0.7-0.5-1.3-0.8-2c-0.2-0.7-0.5-1.3-0.7-2
	c-0.4-1.3-0.9-2.6-1.3-3.8c-0.8-2.5-1.6-4.9-2.2-7.2c-0.7-2.2-1.3-4.4-1.8-6.3c-0.6-1.9-1-3.7-1.4-5.2c-0.4-1.5-0.7-2.9-1-4
	c-0.2-1.1-0.4-1.9-0.6-2.5c-0.1-0.6-0.2-0.9-0.2-0.9c0,0,0,0.3,0.1,0.9c0.1,0.6,0.2,1.5,0.3,2.6c0.1,1.1,0.3,2.5,0.6,4.1
	c0.3,1.6,0.5,3.4,0.9,5.4c0.4,2,0.8,4.2,1.4,6.5c0.5,2.3,1.2,4.8,2,7.3c0.4,1.3,0.8,2.6,1.2,3.9c0.4,1.3,0.9,2.7,1.4,4.1
	c1,2.7,2.1,5.5,3.3,8.4c1.2,2.8,2.5,5.6,3.8,8.2c0.3,0.7,0.6,1.3,1,1.9c0.3,0.6,0.7,1.3,1,1.9c0.7,1.2,1.3,2.4,2,3.6
	c1.3,2.3,2.6,4.5,3.9,6.5c1.2,2,2.5,3.9,3.6,5.5c1.1,1.7,2.2,3.1,3.2,4.4c0.9,1.3,1.8,2.4,2.5,3.3c0.7,0.9,1.2,1.6,1.6,2
	c0.4,0.5,0.6,0.7,0.6,0.7c0,0-0.1-0.3-0.5-0.8C128,359.2,127.6,358.5,126.9,357.6z M237.3,153.1c0.5,0.5,1,1.1,1.6,1.8
	c0.6,0.7,1.2,1.4,1.9,2.2c0.7,0.8,1.4,1.7,2.1,2.6c0.7,0.9,1.5,1.9,2.2,2.9c0.7,1,1.5,2.1,2.2,3.2c0.7,1.1,1.4,2.2,2,3.3
	c0.7,1.1,1.2,2.2,1.8,3.2c1.1,2.1,2,4,2.7,5.6c0.4,0.8,0.7,1.6,0.9,2.2c0.3,0.7,0.5,1.2,0.7,1.7c0.3,0.9,0.5,1.5,0.6,1.5
	c0.1,0,0-0.6-0.2-1.6c-0.1-0.5-0.2-1.1-0.3-1.8c-0.1-0.7-0.3-1.5-0.5-2.4c-0.4-1.8-1.1-3.8-2-6.1c-0.5-1.1-1-2.3-1.6-3.4
	c-0.6-1.2-1.3-2.4-2-3.6c-0.8-1.2-1.5-2.3-2.3-3.3c-0.8-1.1-1.6-2-2.4-2.9c-0.8-0.9-1.6-1.7-2.4-2.4c-0.8-0.7-1.6-1.4-2.3-1.9
	c-0.7-0.6-1.4-1-2-1.4c-0.6-0.4-1.1-0.8-1.5-1c-0.9-0.5-1.3-0.8-1.4-0.8c0,0,0.4,0.4,1.1,1.2C236.3,152.2,236.8,152.6,237.3,153.1z
	 M257.2,168.6c0.6,1.5,1.2,3.2,1.9,4.9c0.3,0.9,0.7,1.7,1,2.6c0.3,0.8,0.6,1.6,0.9,2.4c0.5,1.5,1,2.9,1.4,4.1
	c0.8,2.4,1.3,3.9,1.4,3.8c0.1,0,0-0.4,0-1.1c0-0.7-0.1-1.7-0.2-3c-0.3-2.5-0.9-6-2.2-9.6c-0.3-0.9-0.7-1.8-1.1-2.6
	c-0.4-0.8-0.8-1.6-1.1-2.4c-0.8-1.5-1.5-2.8-2.3-3.8c-0.4-0.5-0.7-1-1.1-1.4c-0.3-0.4-0.6-0.7-0.8-1c-0.4-0.5-0.7-0.8-0.7-0.8
	c-0.1,0.1,0.6,1.5,1.4,3.8C256,165.7,256.6,167.1,257.2,168.6z M262.9,197.8c-0.2-0.6-0.5-1.2-0.7-1.7c-0.2-0.5-0.4-0.9-0.6-1.3
	c-0.3-0.7-0.5-1.1-0.6-1c0,0,0,0.4,0.1,1.2c0.1,0.7,0.3,1.8,0.4,3.1c0.1,1.3,0.3,2.9,0.4,4.6c0,0.9,0.1,1.8,0.2,2.7
	c0.1,0.9,0.1,1.9,0.1,2.9c0,1,0,2,0,2.9c0,0.9-0.1,1.8-0.1,2.7c-0.1,1.7-0.3,3.3-0.4,4.6c-0.1,0.7-0.2,1.3-0.2,1.8
	c-0.1,0.5-0.1,1-0.2,1.3c-0.1,0.7-0.2,1.2-0.1,1.2c0.1,0,0.2-0.4,0.6-1c0.2-0.3,0.4-0.8,0.6-1.3c0.2-0.5,0.4-1.1,0.7-1.7
	c0.5-1.3,0.9-2.9,1.2-4.6c0.1-0.9,0.3-1.8,0.4-2.8c0.1-1,0.1-2,0.2-3c0-1,0-2.1-0.1-3c-0.1-1-0.2-1.9-0.4-2.8
	c-0.2-0.9-0.3-1.7-0.6-2.5C263.4,199.1,263.1,198.4,262.9,197.8z M141,197.2c0.3,2,0.8,3.8,1.3,5.3c0.2,0.7,0.5,1.4,0.7,2
	c0.2,0.6,0.4,1.1,0.6,1.4c0.4,0.8,0.6,1.2,0.6,1.2c0.1,0,0-0.5-0.2-1.3c-0.1-0.4-0.2-0.9-0.3-1.5c-0.1-0.6-0.2-1.3-0.3-2
	c-0.2-1.5-0.4-3.3-0.5-5.2c0-1-0.1-2-0.1-3.1c0-1.1,0-2.2,0.1-3.3c0.1-1.1,0.1-2.2,0.2-3.3c0.1-1.1,0.2-2.1,0.3-3.1
	c0.3-2,0.6-3.7,0.9-5.2c0.1-0.8,0.3-1.4,0.4-2c0.1-0.6,0.3-1.1,0.4-1.5c0.2-0.8,0.3-1.3,0.3-1.3c0,0-0.3,0.4-0.7,1.1
	c-0.2,0.4-0.5,0.8-0.7,1.4c-0.3,0.6-0.6,1.2-0.9,1.9c-0.3,0.7-0.7,1.5-0.9,2.4c-0.3,0.9-0.5,1.8-0.8,2.8c-0.2,1-0.4,2.1-0.6,3.2
	c-0.2,1.1-0.2,2.3-0.3,3.5c0,1.2,0,2.4,0.1,3.5C140.7,195.2,140.8,196.2,141,197.2z M145.2,221.4c0,0.5,0,1,0,1.7
	c0,0.7,0,1.4,0.1,2.2c0.1,0.8,0.1,1.7,0.4,2.7c0.2,1,0.5,2,0.7,3c0.3,1,0.7,2.1,1.2,3.2c0.4,1.1,1,2.2,1.6,3.3
	c0.6,1.1,1.3,2.2,2,3.1c0.7,1,1.4,1.9,2.1,2.7c0.7,0.8,1.4,1.6,2.2,2.2c0.7,0.7,1.4,1.2,2,1.8c0.6,0.5,1.3,0.9,1.8,1.3
	c0.5,0.4,1,0.7,1.4,0.9c0.8,0.5,1.2,0.7,1.3,0.7c0,0-0.3-0.4-1-1c-0.3-0.3-0.7-0.7-1.2-1.2c-0.4-0.5-1-1-1.5-1.6
	c-1.1-1.2-2.2-2.7-3.5-4.3c-0.6-0.9-1.2-1.7-1.8-2.7c-0.6-0.9-1.2-2-1.8-3c-0.5-1.1-1.1-2.1-1.5-3.1c-0.5-1-0.9-2-1.3-3
	c-0.4-1-0.7-1.9-1-2.8c-0.3-0.9-0.6-1.7-0.8-2.5c-0.3-0.8-0.4-1.5-0.6-2.1c-0.2-0.6-0.3-1.2-0.4-1.6c-0.2-0.9-0.3-1.4-0.3-1.4
	C145.3,220,145.2,220.5,145.2,221.4z M150.6,189.7c0.2,1.9,0.5,3.6,0.9,4.9c0.2,0.7,0.4,1.3,0.5,1.9c0.2,0.5,0.3,1,0.4,1.4
	c0.3,0.7,0.4,1.2,0.5,1.1c0.1,0,0-0.5,0-1.2c0-0.4-0.1-0.9-0.1-1.4c0-0.6-0.1-1.2-0.1-1.9c-0.1-1.4-0.1-3-0.1-4.9
	c0-0.9,0-1.9,0.1-2.9c0-1,0.1-2,0.2-3.1c0.1-1,0.2-2.1,0.3-3c0.1-1,0.2-1.9,0.3-2.8c0.2-1.8,0.5-3.4,0.7-4.8
	c0.2-1.4,0.3-2.5,0.5-3.3c0.1-0.8,0.2-1.2,0.2-1.2c0,0-0.3,0.4-0.6,1.1c-0.2,0.4-0.4,0.8-0.6,1.3c-0.2,0.5-0.5,1.1-0.8,1.8
	c-0.3,0.7-0.6,1.4-0.8,2.2c-0.2,0.8-0.5,1.7-0.7,2.6c-0.2,0.9-0.4,1.9-0.5,2.9c-0.2,1-0.2,2.1-0.3,3.2c0,1.1-0.1,2.2,0,3.2
	C150.4,187.7,150.5,188.7,150.6,189.7z M158.4,203.8c0.5,3,1.5,5.5,2.4,7.2c0.5,0.9,0.9,1.5,1.2,2c0.3,0.4,0.5,0.7,0.5,0.7
	c0.1,0-0.2-1.2-0.6-3.1c-0.2-0.9-0.4-2-0.6-3.2c-0.1-0.6-0.2-1.2-0.3-1.9c-0.1-0.7-0.2-1.3-0.3-2c-0.1-0.7-0.2-1.4-0.3-2
	c-0.1-0.7-0.2-1.3-0.2-1.9c-0.1-1.2-0.2-2.3-0.4-3.3c-0.3-1.9-0.3-3.1-0.4-3.1c0,0-0.2,0.3-0.3,0.8c-0.1,0.3-0.2,0.6-0.3,1
	c-0.1,0.4-0.2,0.8-0.4,1.3c-0.1,0.5-0.2,1-0.3,1.6c-0.1,0.6-0.1,1.2-0.1,1.8c0,0.6,0,1.3,0,2C158.2,202.3,158.3,203,158.4,203.8z
	 M152.7,207c-0.2-0.9-0.3-1.4-0.3-1.4c-0.1,0-0.1,0.5-0.1,1.4c0,0.5-0.1,1-0.1,1.7c0,0.6-0.1,1.4,0,2.2c0,0.8,0,1.7,0.2,2.7
	c0.1,1,0.3,2,0.4,3c0.2,1.1,0.4,2.2,0.7,3.3c0.3,1.1,0.6,2.3,1,3.5c0.4,1.2,0.8,2.3,1.3,3.4c0.4,1.1,1,2.1,1.4,3.1
	c1,1.9,2,3.6,2.9,4.9c0.4,0.7,0.9,1.3,1.3,1.8c0.4,0.5,0.7,0.9,1,1.3c0.6,0.7,0.9,1.1,1,1c0,0-0.2-0.5-0.6-1.3
	c-0.2-0.4-0.4-0.9-0.7-1.5c-0.3-0.6-0.6-1.2-0.9-2c-0.7-1.5-1.4-3.2-2.2-5.1c-0.4-1-0.8-2-1.2-3.1c-0.4-1.1-0.8-2.2-1.1-3.3
	c-0.4-1.1-0.7-2.3-1-3.4c-0.3-1.1-0.6-2.1-0.9-3.2c-0.5-2-1-3.9-1.3-5.4C153.1,209.2,152.9,207.9,152.7,207z M158.2,135.8
	c-0.7,0.4-1.4,0.9-2.1,1.3c-0.7,0.4-1.4,0.9-2.1,1.3c-0.7,0.4-1.3,0.8-2,1.2c-1.3,0.7-2.4,1.4-3.4,2c-1,0.6-1.8,1.1-2.3,1.3
	c-0.6,0.3-0.9,0.5-0.9,0.5c0,0,0.4,0,1-0.1c0.3,0,0.7-0.1,1.2-0.2c0.5-0.1,1-0.2,1.5-0.3c0.6-0.1,1.2-0.3,1.8-0.5
	c0.6-0.2,1.3-0.5,2-0.8c0.7-0.3,1.4-0.6,2.2-1.1c0.7-0.4,1.5-0.8,2.2-1.3c0.7-0.5,1.4-1,2.1-1.5c0.7-0.5,1.3-1.1,1.8-1.6
	c1.1-1.1,2.1-2.1,2.8-3c0.7-0.9,1.2-1.7,1.6-2.2c0.3-0.5,0.5-0.8,0.5-0.9c0,0-0.3,0.2-0.8,0.6c-0.2,0.2-0.6,0.4-0.9,0.7
	c-0.4,0.3-0.8,0.6-1.2,0.9c-0.9,0.7-2,1.5-3.2,2.3C159.5,134.9,158.9,135.4,158.2,135.8z M186.3,128.1c0.3,0.2,0.6,0.4,1,0.6
	c0.4,0.2,0.9,0.5,1.4,0.8c0.5,0.3,1.1,0.6,1.8,0.8c0.7,0.2,1.4,0.4,2.2,0.6c0.8,0.2,1.6,0.4,2.5,0.4c0.9,0.1,1.8,0.2,2.7,0.2
	c0.9,0,1.8,0,2.7-0.2c0.9-0.1,1.7-0.2,2.5-0.4c1.6-0.3,2.9-0.8,4-1.3c0.6-0.2,1-0.5,1.5-0.7c0.4-0.2,0.8-0.4,1.1-0.6
	c0.6-0.3,0.9-0.5,0.9-0.6c0,0-0.4,0-1,0.2c-0.3,0.1-0.7,0.2-1.2,0.2c-0.5,0.1-1,0.2-1.5,0.3c-1.1,0.2-2.5,0.3-4,0.5
	c-0.7,0-1.5,0.1-2.3,0.1c-0.8,0-1.6,0-2.5,0c-0.9,0-1.7-0.1-2.5-0.1c-0.8,0-1.6-0.1-2.3-0.2c-1.5-0.2-2.8-0.4-3.9-0.6
	c-1.1-0.2-2.1-0.3-2.7-0.5c-0.6-0.2-1-0.2-1-0.2C185.4,127.5,185.7,127.7,186.3,128.1z M177.7,70.6c0,1.3,0,2.9,0.1,4.6
	c0,1.7,0.1,3.6,0.1,5.6c0,2,0,3.9,0,5.7c0,1.7,0,3.3,0,4.6c0,2.7-0.1,4.3,0,4.3c0.1,0,0.2-0.4,0.4-1.1c0.2-0.7,0.5-1.8,0.8-3.1
	c0.6-2.6,1.1-6.3,1.2-10.5c0-2.1-0.1-4-0.3-5.8c-0.2-1.8-0.5-3.4-0.9-4.7c-0.2-0.7-0.4-1.2-0.5-1.8c-0.1-0.5-0.3-1-0.4-1.3
	c-0.2-0.7-0.4-1.1-0.4-1.1C177.6,66.3,177.8,67.9,177.7,70.6z M171,33.2c0.4,0.8,0.9,1.7,1.4,2.8c0.5,1.1,1,2.2,1.5,3.5
	c1,2.5,1.9,4.8,2.6,6.5c0.7,1.7,1.2,2.7,1.2,2.7c0.1,0-0.1-1.1-0.3-2.9c-0.3-1.8-0.8-4.3-1.8-6.9c-0.5-1.3-1.1-2.5-1.8-3.6
	c-0.3-0.5-0.6-1-1-1.5c-0.3-0.4-0.7-0.8-1-1.2c-0.3-0.3-0.6-0.6-0.9-0.9c-0.3-0.3-0.5-0.5-0.7-0.6c-0.4-0.3-0.6-0.5-0.6-0.5
	c0,0,0.1,0.3,0.4,0.7C170.3,31.8,170.6,32.4,171,33.2z M165.9,33.7c0.2,0.5,0.4,0.8,0.5,1.1c0.1,0.2,0.2,0.4,0.2,0.4
	c0,0,0-0.2,0-0.4c-0.1-0.3-0.1-0.7-0.2-1.2c-0.2-1-0.7-2.5-1.4-4.2c-0.7-1.7-1.8-3.7-3.3-5.7c-1.5-2-3.4-4-5.7-5.8
	c-2.3-1.7-4.8-3-7.2-3.9c-2.4-0.9-4.6-1.4-6.4-1.5c-0.9-0.1-1.8-0.1-2.5-0.1c-0.7,0-1.4,0-1.9,0c-0.5,0-0.9,0.1-1.2,0.1
	c-0.3,0-0.4,0.1-0.4,0.1c0,0.1,0.6,0.1,1.6,0.3c1,0.1,2.5,0.4,4.2,1c0.9,0.3,1.8,0.6,2.8,0.9c1,0.4,2,0.7,3.1,1.2
	c2.1,1,4.4,2.2,6.5,3.8c2.2,1.6,4,3.4,5.6,5.1c1.5,1.8,2.8,3.5,3.7,5C164.8,31.4,165.5,32.7,165.9,33.7z M340.7,108
	c0.9,1.2,1.4,1.8,1.5,1.8c0,0-0.4-0.7-1.1-2c-0.8-1.3-1.8-3.1-3.3-5.4c-1.4-2.3-3.2-4.9-5.4-7.7c-2.2-2.8-4.7-5.8-7.8-8.6
	c-1.5-1.4-3.1-2.6-4.7-3.8c-1.6-1.1-3.2-2.1-4.8-2.9c-1.6-0.8-3.2-1.5-4.7-2.1c-1.5-0.5-2.9-1-4.3-1.2c-1.3-0.3-2.5-0.4-3.6-0.6
	c-1.1-0.1-2-0.2-2.7-0.2c-0.7,0-1.3,0-1.7,0c-0.4,0-0.6,0-0.6,0.1c0,0,0.2,0.1,0.6,0.1c0.4,0.1,1,0.1,1.7,0.2
	c0.7,0.1,1.6,0.3,2.6,0.5c1,0.3,2.1,0.6,3.4,1.1c1.2,0.4,2.5,1,3.9,1.6c1.4,0.6,2.8,1.4,4.3,2.3c1.5,0.9,3,1.9,4.5,3
	c1.5,1.1,3,2.3,4.5,3.6c5.9,5.3,10.5,11.1,13.8,15.2C338.4,105.1,339.7,106.8,340.7,108z M350.5,141.4c-0.1-0.7-0.1-1.6-0.3-2.5
	c-0.2-1.9-0.6-4.1-1.3-6.5c-0.3-1.2-0.7-2.5-1.1-3.8c-0.4-1.3-1-2.6-1.5-3.9c-0.6-1.3-1.2-2.6-1.8-3.8c-0.6-1.2-1.3-2.3-2-3.4
	c-0.7-1.1-1.3-2.1-2-2.9c-0.6-0.9-1.3-1.7-1.9-2.4c-0.6-0.7-1.2-1.3-1.7-1.9c-0.5-0.6-1-1-1.3-1.4c-0.7-0.7-1.2-1.1-1.2-1.1
	c0,0,0.3,0.5,0.9,1.4c0.3,0.4,0.6,1,1,1.6c0.4,0.6,0.8,1.3,1.3,2.2c0.9,1.6,2,3.5,3.2,5.6c0.6,1.1,1.2,2.2,1.7,3.4
	c0.6,1.2,1.1,2.4,1.7,3.7c0.5,1.3,1.1,2.5,1.6,3.8c0.5,1.2,0.9,2.4,1.4,3.6c0.8,2.3,1.5,4.4,2,6.2c0.3,0.9,0.5,1.7,0.7,2.4
	c0.2,0.7,0.4,1.3,0.5,1.8c0.2,1,0.4,1.6,0.4,1.6c0.1,0,0-0.6,0-1.6C350.6,142.8,350.6,142.2,350.5,141.4z"/>
</svg>
