<svg width="49" height="42" viewBox="0 0 49 42" fill="none" xmlns="http://www.w3.org/2000/svg">
<path fill-rule="evenodd" clip-rule="evenodd" d="M17.615 18.9688H11.153C10.787 18.9676 10.4249 18.8942 10.0874 18.7527C9.7499 18.6112 9.44365 18.4045 9.18628 18.1443C8.9289 17.8841 8.72544 17.5758 8.58758 17.2368C8.44973 16.8978 8.3802 16.5349 8.38296 16.169V15.2388C8.36706 14.258 8.5507 13.2844 8.9227 12.3767C9.2947 11.4691 9.8473 10.6463 10.547 9.95876C11.2213 9.25694 12.0328 8.70146 12.9309 8.32644C13.8291 7.95142 14.7948 7.76494 15.768 7.77883H17.615C17.8579 7.7819 18.0988 7.73458 18.3226 7.63992C18.5463 7.54526 18.748 7.40526 18.915 7.22878C19.0899 7.05864 19.2286 6.85503 19.3228 6.62991C19.417 6.40478 19.4647 6.16299 19.463 5.91897V2.18899C19.4657 1.94482 19.4184 1.70258 19.3242 1.47732C19.23 1.25206 19.0907 1.04846 18.915 0.878929C18.7485 0.701118 18.5471 0.55952 18.3234 0.463158C18.0997 0.366796 17.8585 0.317687 17.615 0.318871H15.768C13.7986 0.31594 11.8497 0.717505 10.042 1.4988C6.46821 3.00722 3.63693 5.86902 2.16696 9.45876C1.38869 11.286 0.990921 13.2527 0.997953 15.2388V35.7388C0.982914 36.4742 1.11854 37.205 1.39645 37.886C1.67437 38.567 2.08872 39.1841 2.61398 39.699C3.1201 40.2266 3.72987 40.6436 4.405 40.9241C5.08013 41.2046 5.80599 41.3424 6.53695 41.3289H17.615C18.3459 41.3424 19.0718 41.2046 19.7469 40.9241C20.422 40.6436 21.0318 40.2266 21.538 39.699C22.0628 39.1838 22.4768 38.5667 22.7547 37.8858C23.0326 37.2048 23.1685 36.4741 23.154 35.7388V24.5589C23.1685 23.8235 23.0326 23.0931 22.7547 22.4121C22.4768 21.7312 22.0628 21.1141 21.538 20.5989C21.0318 20.0713 20.422 19.6541 19.7469 19.3736C19.0718 19.093 18.3459 18.9552 17.615 18.9688V18.9688ZM47.386 20.5989C46.8798 20.0713 46.2701 19.6541 45.5949 19.3736C44.9198 19.093 44.1939 18.9552 43.463 18.9688H37C36.6341 18.9675 36.2722 18.894 35.9348 18.7525C35.5975 18.6109 35.2915 18.404 35.0343 18.1438C34.7771 17.8837 34.5738 17.5753 34.4361 17.2364C34.2984 16.8974 34.2291 16.5348 34.232 16.169V15.2388C34.2161 14.2582 34.3996 13.2846 34.7713 12.377C35.1429 11.4694 35.695 10.6467 36.394 9.95876C37.0685 9.25681 37.8801 8.70122 38.7784 8.32619C39.6767 7.95117 40.6426 7.7648 41.616 7.77883H43.462C43.7049 7.78196 43.9458 7.73482 44.1696 7.64016C44.3933 7.5455 44.595 7.40531 44.762 7.22878C44.9372 7.05883 45.0762 6.8553 45.1706 6.63015C45.2649 6.405 45.3127 6.16309 45.311 5.91897V2.18899C45.3137 1.94473 45.2664 1.70237 45.172 1.47707C45.0775 1.25178 44.938 1.04827 44.762 0.878929C44.5955 0.70107 44.3942 0.559524 44.1705 0.463158C43.9468 0.366792 43.7055 0.317627 43.462 0.318871H41.616C39.6463 0.31586 37.697 0.717425 35.889 1.4988C32.3158 3.00805 29.4848 5.86958 28.014 9.45876C27.236 11.2861 26.8386 13.2528 26.846 15.2388V35.7388C26.831 36.4741 26.9665 37.2048 27.2442 37.8858C27.522 38.5668 27.936 39.1839 28.461 39.699C28.9671 40.2266 29.5769 40.6436 30.252 40.9241C30.9271 41.2046 31.653 41.3424 32.384 41.3289H43.462C44.1929 41.3424 44.9188 41.2046 45.5939 40.9241C46.2691 40.6436 46.8789 40.2266 47.385 39.699C47.9099 39.1839 48.324 38.5668 48.6017 37.8858C48.8794 37.2048 49.015 36.4741 49 35.7388V24.5589C49.0151 23.8236 48.8797 23.0931 48.6022 22.4121C48.3246 21.7311 47.9107 21.1141 47.386 20.5989V20.5989Z" fill="#6D30B3"/>
</svg>
