<svg xmlns="http://www.w3.org/2000/svg" viewBox="0 0 212.09 242.46"><defs><style>.cls-1{fill:#fff;}</style></defs><g id="Layer_2" data-name="Layer 2"><g id="Ñëîé_1" data-name="Ñëîé 1"><path class="cls-1" d="M201.74,57.12c-12.05-2.38-28.2-9.74-38.27-25.36-5.28-8.17-8.88-18.6-9.34-31.75h0c-3,0-6,0-8.93,0C134.11,0,123,.08,111.94,0h0c0,1.83,0,3.69,0,5.52h0q.06,18.36,0,36.85c-.06,28.85-.21,57.81-.26,86.67q0,18.13,0,36.19a34,34,0,0,1-11.83,26.18,34.66,34.66,0,1,1-12.09-59.83h0V87.71h0a79.55,79.55,0,0,0-10.06-.66l-.26,0A77.66,77.66,0,0,0,0,164.76c0,1,0,2,.06,2.93h0c0,.86-.07,1.72-.07,2.59,0,1.13,0,2.24.07,3.35,1.28,30.07,22,56,50.82,64.68a96.44,96.44,0,0,0,26.81,4.15,77.71,77.71,0,0,0,77.12-68.3,49.46,49.46,0,0,0,.31-5.44c.28-27.7.7-57,1-84.61h0c27.85,15.17,45.84,15.45,56,14.9h0c.09-13.69-.09-27.38,0-41.06h0A39.65,39.65,0,0,1,201.74,57.12Z"/></g></g></svg>