<?xml version="1.0" encoding="utf-8"?>
<!-- Generator: Adobe Illustrator 26.0.1, SVG Export Plug-In . SVG Version: 6.00 Build 0)  -->
<svg version="1.1" id="_x3C_Layer_x3E_" xmlns="http://www.w3.org/2000/svg" xmlns:xlink="http://www.w3.org/1999/xlink" x="0px"
	 y="0px" viewBox="0 0 214.1 222" style="enable-background:new 0 0 214.1 222;" xml:space="preserve">
<style type="text/css">
	.st0{fill:#23EFFF;}
</style>
<g>
	<path class="st0" d="M163.7,43.5c-1.3-0.7-2.6-1.4-3.9-2.1c0.2,0.1,1.8-4,2-4.4c0.9-2.7,1.6-5.5,1.4-8.3c-2,2.1-4.4,3.9-7,5.2
		c-1.3,0.6-6.6,3.5-6.6,3.5s-12.4-4.7-19.2-6c1.3-7.4,1.7-12.3-3.6-24.4c-2.5,9.3-5,15.8-10.1,23.9c-1.7-0.5-3.5-0.3-5.3-0.3
		c-0.7,0-1.8-11-10.1-21.1c-2.6-3.1-5.3-6-8.5-8.5c-3-2.4-6.7,0.2-8.8,2.7c-1.4,1.6-2.5,6.7-2.6,7.4c-0.1,1.1,0.3,2.1,1.2,2.6
		c4.4,2.4,6.7,5.9,8.4,10.4c0.7,2,2.1,4.9,2.4,6.9c-1.2,0.3-7.4,0.7-8.9,1.1c-1.8-0.9-3.3-2.9-4.4-4.5c-2-3-4.6-5.5-6.5-8.5
		c-0.5,1.4-1.7,7.3-1.2,10.6c0.3,1.7,0.8,3.3,1.5,4.8c-5.5,1.3-11,3-16.3,5.1c-0.8,0.3-4.3-1.7-5.2-2c-1.9-0.8-3.7-1.7-5.4-2.7
		c-3.3-2-6.4-4.2-8.7-7.3c-0.1,3.2,0.2,6.1,1.2,9.1c1.1,3.6,2.7,6.8,4.7,9.6c-12.4,6-50.2,36.5-43.2,90.2
		c10,74.4,97,106.8,165.3,70.2C224.7,172.8,236.2,83.9,163.7,43.5z M143.3,39.4c-5.4,1.9-11.9,3.6-17.6,3c3.7-7.4,3.4-7,3.5-7.3
		C135.3,36.5,138.4,37.5,143.3,39.4z M114.5,32.7c-0.6,0.8-1.3,1.6-1.9,2.3c-0.1-0.7-0.2-1.5-0.4-2.2
		C112.2,32.8,114.5,32.7,114.5,32.7z M95,26.7C92.8,14.8,84.2,9.9,84.2,10.1c0.2-0.4,0.4-5.9,5.3-7.9c0.8-0.3,1.7,0,2,0.8
		c1.4,3.5-4.5,7.6-3.5,7.7c1.3,0.1,5.7-2.4,6.3-5.4c8.8,10.1,14.1,21.4,16.2,35.5c2.3,15.3-16.7,12.1-19,6
		C89.1,40.6,97.3,39.6,95,26.7z M92.4,34.7c-0.1,0.7-0.3,1.5-0.5,2.2c-0.5,0.2-0.8,0.3-1.3,0.4c-0.9-0.6-1.8-1.2-2.6-1.9
		C89.4,35.1,90.9,34.9,92.4,34.7z M76.1,38.2c1.1,1.4,5.7,5.3,6.6,5.9c-5.8-0.8-11.1-1.3-16.9-2.4C67.6,41,73.9,38.9,76.1,38.2z
		 M42,35.9c-0.4-0.8-0.7-1.7-1.1-2.5c5.3,6.2,13.2,9.7,21.2,11.1c8,1.4,16.2,0.9,24.4,0.2c-1.2-0.8-2.4-1.8-3.4-2.8
		c-0.9-1.1-1.7-2.2-2.5-3.2c-2.7-3.7-5.2-7.4-5.6-14.2c1.9,3.1,3.8,6.3,6.4,8.9c2.5,2.6,5.8,4.7,9.4,5.2c-3.8,7.1-1.4,14,5.4,15.8
		c14.1,3.6,17.3-1.7,17.1-10.6c0-0.7-0.7-4.3-0.3-4.6c7.7-6.5,11.7-15.3,13.7-25c2.8,19-1.3,23-6.1,30.5c3.7,1,15.9,4.1,29.1-4
		c3.9-1.8,7.9-4.5,11.2-7.8c-0.2,0.6-0.4,1.2-0.6,1.8c-0.5,1.4-1.2,2.7-1.9,3.9c-0.7,1.1-1.4,2.1-2.2,3.1
		c-13.7,17.9-32.1,13.5-42.1,11.9c9.6,8.8,13.5,15.5,25.2,18.4c2.9,0.7,5.8,1,8.7,0.9c0.1,0,0.1-0.1,0.2-0.1
		C123.8,89,106.9,56.4,97.5,61.7c-4.6,2.6-8.1,14.4-25.5,14.5c-6.4,0-12.9-1.8-18.3-5.3c1.6,1,3.6,0.6,5.4,0.1
		c13.6-3.2,13.5-6.9,19.3-11.5c1-0.8,3.7-3.6,5.6-4.7c0-0.1-0.1-0.2-0.1-0.3c-2.3,0.4-4.5,1.2-6.8,1.5C61,57.7,48.4,49.4,42,35.9z
		 M161.8,203.3c-14.7,6.9-29.3,13.2-54.5,13.3c-18.9,0.1-37.9-4.3-54.3-13.6C6.1,176.7-19.7,102.6,40.4,53.6
		c1.9-1.6,3.4-2.8,5.6-4.1c-2.5,1-1.7,0.6,0,0c2-0.7,8.7,13.7,26.4,10.7c-1.8,1.7-5.4,5.4-9.5,6.8c-5,1.7-9.3,1.8-14.4,0.4
		C55,77.4,64,81.6,73.7,81c18.1-1.3,21-18.1,30.5-12.6c4,2.3,6.9,6,11,8.2c16.7,9.1,31.7,3,37.3-6.5c-14.8-0.1-21-4.5-27.4-10.8
		c0.4,0,0.9,0,1.3,0.1c1.9,0.5,2.9,0.2,5.8,0.2c4.2-0.1,8.3-1.1,12.2-2.9c3.8-1.8,7.3-4.4,10-7.5c1-1.1,1.9-2.4,2.7-3.6
		c23.7,12.5,43.5,33.9,50.6,60.2C215.9,136.6,198.4,182.8,161.8,203.3z"/>
	<path class="st0" d="M104,49.3c1.3-0.4,2.4-1.5,3-2.6c3.8-6.6-1.2-19.6-5-26.4c-1.1-2-2.3-3.9-3.6-5.7c-1.4-1.8-2.8-3.6-4.6-4.9
		c2.5,3.7,4.2,7.7,5.9,11.7c2.3,5.7,7.4,18.5,5,24.1c-0.4,0.8-0.9,1.4-1.6,1.9c-0.8,0.4-1.8,0.6-2.8,0.6c-2,0-4.1-0.8-6.2-1.5
		c1.8,1.3,3.7,2.7,6.1,3.1C101.4,49.7,102.7,49.7,104,49.3z"/>
	<path class="st0" d="M92.6,59.2c-8.7,6.9-13.6,9.3-24.4,12C77.4,74.7,89.9,68.2,92.6,59.2z"/>
	<path class="st0" d="M78.5,52.1c2.6-0.2,5.3-0.7,7.8-1.8c-2.7-0.5-5.2-0.7-7.7-1l-7.5-1c-0.2,0-13.7-2.1-15.2-2.2
		c2.1,1.7,4.5,2.9,7,3.8C67.7,51.8,73,52.6,78.5,52.1z"/>
	<path class="st0" d="M134.9,73.8c-4.2-2.1-10.2-4.6-17.7-10.1c-1.8-1.4-3.6-2.8-5.5-4.3C114.4,68.4,125.9,75.2,134.9,73.8z"/>
	<path class="st0" d="M130.4,53c2.6-0.4,5.2-1.2,7.5-2.4c2.4-1.2,4.5-2.7,6.3-4.7c-2.5,0.7-4.9,1.5-7.3,2.1
		c-2.4,0.6-4.7,1.1-7.1,1.5c-2.4,0.4-4.8,0.6-7.2,0.8c-2.4,0.1-4.9,0.2-7.5,0.2c2.2,1.4,4.8,2.2,7.4,2.6
		C125.1,53.4,127.8,53.4,130.4,53z"/>
	<path class="st0" d="M170.7,65.3c4,4.4,7.7,8.7,11,13.4c32.9,46.8,5.5,86.1,0.6,92.8c-14.5,17.4-35.3,29-58.9,33.5
		c-7.2,1.5-14.5,2.1-21.8,2.2c-14.7,0.1-29.4-2.7-43.4-8.4c39.3,24.6,97.4,14.2,125.6-21.4c1.5-1.9,2.9-3.8,4.3-5.8
		C214.2,136,203.3,80.8,170.7,65.3z"/>
	<path class="st0" d="M27.9,159.5c-3.1-5.6-5.6-11.5-7.7-17.6c-2-6.1-3.5-12.4-4.6-19c-4.5,26.1,12.7,56.6,36.5,66.6
		C47.2,185,34.4,171.4,27.9,159.5z"/>
	<path class="st0" d="M117.3,200.4c38.4-2.7,74.4-34,70.3-76.5c-4.6,30.2-20.7,64.1-70.8,72.3c-10.3,1.6-20.9,1.5-31.5,0
		C95.4,199.9,106.4,201.2,117.3,200.4z"/>
	<path class="st0" d="M125.3,187.9c22.6-3.4,36.6-19,39.1-32.3c-3.2,4.9-6.9,9.2-11,12.8c-8.5,7.4-18.4,12.2-29,15.4
		c-5.4,1.6-10.9,2.8-16.7,3.6C113.4,188.8,119.4,188.8,125.3,187.9z"/>
</g>
</svg>
